<?xml version="1.0" encoding="UTF-8"?>
<svg id="Layer_2" data-name="Layer 2" xmlns="http://www.w3.org/2000/svg" viewBox="0 0 280.44 388.02">
  <defs>
    <style>
      .cls-1 {
        fill: #201e1e;
      }

      .cls-2 {
        fill: #0d0f11;
      }

      .cls-3 {
        fill: #fce058;
      }

      .cls-4 {
        fill: #170b06;
      }

      .cls-5 {
        fill: #ac8011;
      }

      .cls-6 {
        fill: #311f0e;
      }

      .cls-7 {
        fill: #452315;
      }

      .cls-8 {
        fill: #fbc21c;
      }

      .cls-9 {
        fill: #714e35;
      }

      .cls-10 {
        fill: #fff;
      }

      .cls-11 {
        fill: #87480a;
      }

      .cls-12 {
        fill: #9d580c;
      }

      .cls-13 {
        fill: #e29c10;
      }

      .cls-14 {
        fill: #865c12;
      }

      .cls-15 {
        fill: #fdd26c;
      }

      .cls-16 {
        fill: #fced8f;
      }

      .cls-17 {
        fill: #d18211;
      }

      .cls-18 {
        fill: #fcf4d2;
      }

      .cls-19 {
        fill: #fdfaea;
      }

      .cls-20 {
        fill: #2c1b16;
      }

      .cls-21 {
        fill: #b96513;
      }
    </style>
  </defs>
  <g id="Layer_1-2" data-name="Layer 1">
    <g id="Generative_Object" data-name="Generative Object">
      <g>
        <path class="cls-7" d="M135.05,387.64c.53-.38,12.38-.99,12.98.37"/>
        <g>
          <path class="cls-7" d="M143.58,21.19c-.98-.04-1.99,0-2.97,0l-.74-13.72-1.48,5.19c1.82-28.54,6.31-1.29,5.19,8.53Z"/>
          <g>
            <path class="cls-8" d="M41.95,148.78c-.36-.3-1.07-1.86-1.85-2.23-1.37,1.28,1,2.03,1.11,2.23,10.64,18.55,57.83,25.52,77.52,26.7,34.22,2.06,87.63,2.38,115.72-19.29,9.05-6.98,6.65-15.27,20.77-8.16,21.37,10.76,16.74,37.51.74,51.18-16.85,14.39-69.34,24.94-91.24,24.48-11.89-.25-13.34-10.71-32.64-5.93-2.02.5-7.61,4.26-8.9,4.45-19.72,2.91-81.67-10.46-97.92-23-19.52-15.06-19.05-42.05,4.45-51.93l-3.71,5.19c.96-1.42,9.15-7.2,9.27-7.79.24-1.19-7.65-12.84-5.93-23s19.87-21.27,29.3-21.14c5.98.08,11.8,8.45,17.8,11.87,33.91,19.33,100.21,13.72,134.27-3.71,2.15-1.1,9.74-8.03,10.39-8.16,1.93-.39,14.7,4.49,17.06,5.93,18.09,11.07,13.54,32.43-.74,44.51-33.64,28.45-153.72,26.8-189.9,2.97-1.89-1.24-3.76-3.7-5.56-5.19Z"/>
            <g>
              <path class="cls-14" d="M41.95,148.78h-.74c-.11-.19-2.49-.95-1.11-2.23.79.37,1.49,1.93,1.85,2.23Z"/>
              <path class="cls-2" d="M34.54,133.21l1.48-2.23c7.9,24.28,61.6,32.98,83.08,36.72-19.64.4-69.49-8.45-80.86-25.22-1.19-1.75-3.28-7.15-3.71-9.27Z"/>
              <path class="cls-1" d="M23.04,153.24c2.21.28.84.99.37,1.85-1.61,2.93-7.37,7.6-8.16,11.87-5.12,27.79,44.13,41.61,63.42,47.85-28.9-3.5-87.44-24.2-55.64-61.57Z"/>
              <path class="cls-2" d="M40.1,155.46c23.3,17.96,54.26,18.42,81.97,24.85-26.56-2.33-63.9-2.4-81.97-24.85Z"/>
              <path class="cls-2" d="M238.16,111.69c10.93,7.97,9.15,23.22,1.85,33.01-12.67,17-63.39,24.23-83.82,22.25,22.46-1.09,84.19-7,88.27-35.61,1.31-9.18-2.06-12.4-6.31-19.66Z"/>
              <path class="cls-2" d="M197.73,215.55l-.74-1.48c3.48-.53,6.91-.81,10.39-1.48,21.01-4.05,58.78-14.41,57.86-41.54l1.48-1.48c6.97,33.05-46.4,43.04-68.99,45.99Z"/>
              <path class="cls-3" d="M41.95,113.92c.35-.63.59-1.44,1.48-1.48-8.72,28.18,29.41,37.3,48.22,46.36-18.17-.77-63.01-20.98-49.7-44.88Z"/>
              <path class="cls-3" d="M209.23,180.68c1.79.12.81.97,0,1.48-3.51,2.24-19.59,9.27-23.74,10.39-10.73,2.88-23.45,2.82-34.49,3.34,7.2-3.95,22.05-1.97,28.56-4.08.22-.07,1.47-1.11.74-1.48l-11.87.74v-1.48l40.8-8.9Z"/>
              <path class="cls-2" d="M60.87,104.28c21.12,20.5,52.38,19.52,79.74,23.37-26.45-2.09-63.42,2.2-79.74-23.37Z"/>
              <path class="cls-13" d="M265.24,171.04c.92,27.13-36.85,37.49-57.86,41.54l22.62-6.68c15.48-8.25,38.81-19.89,32.27-41.54,2.52.2,2.9,4.71,2.97,6.68Z"/>
              <path class="cls-2" d="M242.61,153.24c.45-.14,1.66-.13,1.85.37-16.63,17.17-40.61,22.92-63.79,25.22,14.85-5.19,34.61-8.24,48.59-15.21,3.67-1.83,12.54-10.13,13.35-10.39Z"/>
              <path class="cls-3" d="M257.45,162.88c8.62,19.82-12.61,34.39-28.93,40.06,14.16-10.35,31.01-19.63,28.93-40.06Z"/>
              <path class="cls-3" d="M72,178.46l56.75,10.01c-18.84-1.86-39.68-2.06-56.75-10.01Z"/>
              <path class="cls-18" d="M240.38,174.01c-6.77,13.42-27.23,20.51-41.17,23.37,2.28-1.26,6.45-1.58,8.53-2.6.46-.23,2.97-1.46.74-1.48h-2.97c12.5-4.51,25.81-9.11,34.86-19.29Z"/>
              <path class="cls-18" d="M29.71,162.88c9.83,19.67,28.56,26.58,45.62,38.2-16.52-8.01-39.76-18.14-45.62-38.2Z"/>
              <path class="cls-3" d="M248.54,158.43c6.51,14.13-.11,25.73-11.13,34.86,7.65-11.24,11.99-20.8,11.13-34.86Z"/>
              <path class="cls-21" d="M238.9,119.11c2.33,15.38-11.34,31.33-26.7,32.64,11.81-5.74,21.05-11.75,25.59-24.85l1.11-7.79Z"/>
              <path class="cls-16" d="M71.25,181.42l60.46,10.01c-.03,3.08-56.67-6.41-60.46-10.01Z"/>
              <path class="cls-16" d="M23.04,162.88c2.76,16.54,14.02,25.51,25.96,35.61-12.39-8-27.86-18.78-25.96-35.61Z"/>
              <path class="cls-19" d="M64.58,126.53c9.17,8.46,20.62,12.77,32.64,15.58l12.98,1.11c-15.47,1.3-36.08-3.68-45.62-16.69Z"/>
              <path class="cls-19" d="M171.4,135.43c.54-.05,1.71-.18,1.85.37-13.05,5.86-28.61,7.72-43.02,6.68,8.64-1.85,17.58-1.19,26.33-2.6,4.26-.69,11.84-4.16,14.84-4.45Z"/>
              <path class="cls-16" d="M229.26,113.92l-1.85,15.95-6.31,7.79c2.58-5.66,7.58-11.24,6.68-17.8l-6.31,8.53,7.79-14.47Z"/>
              <path class="cls-3" d="M235.19,115.4c4.18,9.39-3.85,19.55-11.13,24.48,5.37-7.46,10.97-14.78,11.13-24.48Z"/>
              <path class="cls-12" d="M43.44,112.44c-.89.04-1.13.85-1.48,1.48-5.23,3.47-7.85,11.18-5.93,17.06l-1.48,2.23c-2.39-11.75,1.43-20.84,13.35-24.11l-4.45,3.34Z"/>
              <path class="cls-19" d="M218.87,124.31c-4.8,9.03-16.43,15.98-26.33,16.69,10.85-2.76,18.48-9.11,26.33-16.69Z"/>
              <path class="cls-7" d="M266.72,169.56l-1.48,1.48c-.07-1.96-.44-6.47-2.97-6.68-1.36-4.5-8.66-9.5-11.13-13.72,6.02,3,14.25,12.64,15.58,18.92Z"/>
              <path class="cls-10" d="M142.1,208.87v-.74c10.94.59,21.76-.86,32.64-1.11-10.65,2.81-21.72,1.61-32.64,1.85Z"/>
              <path class="cls-14" d="M196.99,214.06l.74,1.48c-8.01,1.05-16.37,1.93-24.48,1.85,7.85-1.54,15.85-2.13,23.74-3.34Z"/>
              <path class="cls-3" d="M49,125.05l5.93,9.64c-1.9-.06-7.22-9.19-5.93-9.64Z"/>
              <path class="cls-3" d="M142.1,208.13v.74l-12.61-1.85c4.26-1.29,8.52.89,12.61,1.11Z"/>
              <path class="cls-18" d="M51.97,122.08l5.93,8.9c-2.5-2.52-5.62-5.04-5.93-8.9Z"/>
              <path class="cls-3" d="M167.69,156.94c.73-.04,4.05-.2,4.08.37-4.52.96-9.34,2.57-14.09,1.48,3.11-.09,7.16-1.69,10.01-1.85Z"/>
            </g>
          </g>
          <g>
            <path class="cls-8" d="M80.16,55.32c4.51-.29,5.69,5.27,9.64,8.16,19.77,14.41,76.29,16.87,94.95.74,6.39-5.52,2.39-9.8,12.61-8.16,20.16,3.23,32.76,24.71,20.4,42.65-20.59,29.91-151.98,31.81-160.23-9.64-2.32-11.66,11.53-33.05,22.62-33.75Z"/>
            <g>
              <path class="cls-2" d="M62.72,79.06c-2.07,11.9,10.08,20.9,19.29,25.96,20.9,11.49,46.11,14.7,69.73,13.72-21.04,4.93-85.27-5.7-91.24-29.67-1.46-5.88-.02-13.35,5.19-17.06-1.47,2.6-2.43,3.96-2.97,7.05Z"/>
              <path class="cls-2" d="M209.97,64.96c9.77,5.29,11.74,16.35,8.53,26.33-6.8,21.12-43.63,24.78-62.31,26.7,24.97-3.77,85.12-17.47,53.78-53.04Z"/>
              <path class="cls-3" d="M82.01,105.02c-9.21-5.06-21.36-14.06-19.29-25.96,4.17,12.3,15.23,19.02,26.7,24.11-4.39,2.24-20.03-11.7-7.42,1.85Z"/>
              <path class="cls-3" d="M78.67,61.99c-9.85,15.59-2.88,25.34,8.16,37.09-15.34-8.04-23.53-23.78-8.16-37.09Z"/>
              <path class="cls-2" d="M202.92,97.6l-.74-1.48c5.86-4.63,9.37-10.92,9.64-18.55.03-.72-.27-1.51.74-1.48,5,12.35-1.21,15.58-9.64,21.51Z"/>
              <path class="cls-19" d="M166.2,88.7l-.74,2.23c-1.28.91-22.47,10.14-23.74,10.39-5.05.96-15.84-.7-21.14-1.85,16.28,1.67,31.51-3.07,45.62-10.76Z"/>
              <path class="cls-17" d="M202.18,96.12l.74,1.48c-9.1,6.41-19.48,11.43-30.41,13.72,1.91-3.26,6.42-2.68,9.27-4.08,4.23-2.07,17.31-8.69,20.4-11.13Z"/>
              <path class="cls-16" d="M210.34,73.86c.2.46.51,1.56.74,2.23l-4.45,10.76c4.12-10.83.19-18.31-8.9-24.48,4.92.27,10.75,7.12,12.61,11.5Z"/>
              <path class="cls-18" d="M194.39,61.99c8.29,3.4,13.24,13.63,7.42,21.51l.37-12.24-7.79-9.27Z"/>
              <path class="cls-18" d="M193.65,66.44c6.44,4.59,2.72,14.86-3.71,17.8,3.25-6.29,8.46-10.14,3.71-17.8Z"/>
              <path class="cls-18" d="M86.09,80.54c4.54,7.5,10.35,8.94,18.17,11.5-7.55-.03-16.58-3.11-18.17-11.5Z"/>
              <path class="cls-3" d="M166.95,107.24c.81-.07,2-.22,2.6.37-5.69,2.21-12.26,3.94-18.55,3.71,4.41-.76,11.94-3.72,15.95-4.08Z"/>
              <path class="cls-11" d="M212.57,76.09c-1.01-.02-.72.76-.74,1.48-1.14.04-.57-.99-.74-1.48-.23-.66-.55-1.77-.74-2.23.8-1.65,2.08,1.86,2.23,2.23Z"/>
            </g>
          </g>
          <g>
            <path class="cls-7" d="M172.51,320.14c-1.65.47-5.2,6.77-7.42,8.9-8.71,1.67-20.5,5.06-29.3,3.71-1.02-.16-18.37-6.21-19.29-6.68-10.39-5.27-14.24-60.05-12.24-71.58,5.33-30.73,43.26-42.87,61.57-16.32,15.61,22.64,8.46,56.35,6.68,81.97Z"/>
            <g>
              <path class="cls-9" d="M129.11,232.61c1.99-.02.69,1.55.37,2.6-1.47,4.8-4.79,10.17-5.93,15.58-5.08,23.99-.64,48.27,1.11,72.33-5.41-29.71-8.97-62.47,4.45-90.5Z"/>
              <path class="cls-9" d="M119.1,237.8c-9.05,14.76-12.03,32.05-10.39,49.33.91,9.57,6,18.85,6.31,28.56-8.76-23.71-13.49-57.07,4.08-77.89Z"/>
              <path class="cls-9" d="M153.59,247.44c5.89-.22,3.56,66.79,2.23,73.44l-2.23-73.44Z"/>
              <path class="cls-9" d="M136.53,251.15c3.14,12.31,3.28,25.58,4.08,38.2s2.36,26.06,1.11,38.94c-1.55-25.73-3.33-51.46-5.19-77.15Z"/>
              <path class="cls-9" d="M169.17,255.6c4.14,19.16,4.21,42.47-.74,61.57l2.6-21.88-1.85-39.69Z"/>
              <path class="cls-4" d="M163.98,262.28c1.97,3.28,2.74,39.32.74,39.32.43-13.12-.83-26.2-.74-39.32Z"/>
              <polygon class="cls-4" points="114.28 294.18 115.76 308.27 113.91 302.71 114.28 294.18"/>
              <path class="cls-9" d="M119.1,237.8l5.56-5.93c-.48,2.46-4.29,4.42-5.56,5.93Z"/>
            </g>
          </g>
          <g>
            <path class="cls-15" d="M114.65,329.78l-8.53,2.97,9.27-2.23c11.91,8.74,38.58,9.21,49.7-1.48,2.22-2.13,5.77-8.43,7.42-8.9,5.43-1.56,21.54-.82,29.3-2.23,13.02-2.36,26.98-8.54,39.32-13.35,10.29,24.24-16.09,41.46-37.09,43.77-32.26,3.55-131.68,8.79-155.78-10.39-11.91-9.47-12.55-21.67-8.16-35.61,4.59,4.47,12.34,7.62,18.55,9.64,11,3.58,43.91,6.68,50.44,10.39.77.43,3.75,5.96,5.56,7.42Z"/>
            <g>
              <path class="cls-3" d="M115.39,330.53l-9.27,2.23,8.53-2.97c.53.43.7.71.74.74Z"/>
              <path class="cls-2" d="M235.93,325.33c1.76-.33-.27,3.18-.37,3.34-14.15,22.46-63.16,16.9-86.05,20.03,11.72-3.88,25.18-1.51,37.46-3.34,10.66-1.59,36.4-9.76,45.25-15.58l3.71-4.45Z"/>
              <path class="cls-3" d="M224.07,323.85c.5-.13,1.57-.15,1.85.37-19.69,18.28-49.57,17.77-74.92,18.55,23.02-3.91,47.12-5.46,68.62-15.21.93-.42,4.16-3.63,4.45-3.71Z"/>
              <path class="cls-2" d="M42.32,307.53c19.84,9.29,41.89,13.43,63.42,17.43-19.25-.7-43.07-3.55-59.71-13.72-.76-.46-4.51-2.52-3.71-3.71Z"/>
              <path class="cls-2" d="M237.42,309.01c.64-.03,1.64-.2,1.85.37-16.2,8.55-35.69,13.96-54.15,13.35,8.57-2.59,17.7-3.37,26.33-5.56,5.57-1.42,21.95-7.96,25.96-8.16Z"/>
              <path class="cls-3" d="M48.26,319.4c10.05,16.32,31.1,19.19,48.59,21.14-16.69,1.64-44.19-1.8-48.59-21.14Z"/>
              <path class="cls-6" d="M43.44,329.04c17.68,19.57,60.56,16.89,84.57,21.14-19.96-1.05-73.61-1.78-84.57-21.14Z"/>
              <path class="cls-3" d="M226.29,317.17c.53-.11,1.57-.16,1.85.37-8.53,7.05-19.78,12.31-31.16,10.39,5.51-1.09,11.36-1.49,16.69-3.34,3.34-1.16,11.9-7.27,12.61-7.42Z"/>
              <path class="cls-19" d="M105.38,341.65c8.92-.31,18.01.57,26.33,4.08l-26.33-4.08Z"/>
              <path class="cls-6" d="M43.44,329.04c-5.46-6.04-5.56-11.86-2.6-19.29-.3,7.82-1.41,12.22,2.6,19.29Z"/>
              <path class="cls-13" d="M239.64,313.46c2.55.71.49,9.72,0,9.64-.62-3.08-.62-6.56,0-9.64Z"/>
            </g>
          </g>
          <g>
            <path class="cls-8" d="M261.16,196.26c2.18-.44,9.97,6.09,11.5,7.79,20.33,22.64-3.31,40.75-23.37,50.07-21.63,10.05-46.8,13.34-70.1,12.24-1.08-13.85-6-26.79-13.72-38.2,25.61-3.94,58.42-4.39,80.86-18.55,3.31-2.09,13.86-13.15,14.84-13.35Z"/>
            <g>
              <path class="cls-4" d="M267.09,203.68c37.41,34.13-36.13,55.4-60.83,57.86l-15.21.37c20.45-3.18,43.15-6.13,61.94-15.21,20.17-9.74,32.95-22.91,14.09-43.02Z"/>
              <path class="cls-2" d="M258.93,204.42c2.03.49-2.76,4.28-2.97,4.45-20.62,17.38-51.68,20.01-77.52,21.88,24.77-3.92,49.56-9.04,72.33-19.66l8.16-6.68Z"/>
              <path class="cls-3" d="M270.06,211.1c6.71,10.54-7.16,23.13-16.32,27.45,7.04-8.26,15.53-15.68,16.32-27.45Z"/>
              <path class="cls-3" d="M264.86,210.35c2.05,12.5-7.43,21.2-17.06,27.45,6.48-8.68,15.31-16,17.06-27.45Z"/>
              <path class="cls-18" d="M261.16,207.39c-1.27,12.29-11.44,22.87-23,26.7,11.04-6.57,18.25-14.67,23-26.7Z"/>
            </g>
          </g>
          <g>
            <path class="cls-8" d="M16.36,198.49c1.05,0,10.98,8.37,13.35,9.64,24.03,12.93,59.05,17.5,86.05,18.55-12.28,11.35-16.73,26.14-16.69,42.65-.66,1.59-13.29-.68-15.95-1.11-22.22-3.65-102-24.23-79-59.71,1.23-1.89,10.38-10.02,12.24-10.01Z"/>
            <g>
              <path class="cls-2" d="M20.81,203.68c3.75,7.48,10.97,10.77,18.55,13.35,20.89,7.12,47.66,9.17,69.36,14.47-16.46.85-81.4-8.09-87.53-24.48-.29-.79-.06-2.39-.37-3.34Z"/>
              <path class="cls-20" d="M3.75,225.19c20.25,26.17,56.26,32.16,86.42,40.43-28.47-5.11-61.67-13.18-83.08-33.38l-3.34-7.05Z"/>
              <path class="cls-3" d="M11.17,219.26c6.43,13.97,19.1,19.8,33.75,21.88-15.47,2.04-30.87-5.62-33.75-21.88Z"/>
              <path class="cls-5" d="M6.35,211.1l5.19-4.82c-.96,1.61-4.31,3.72-5.19,4.82Z"/>
              <path class="cls-5" d="M4.86,213.32l-1.85,4.45c-1.38-2.11,1.07-3.38,1.85-4.45Z"/>
              <path class="cls-5" d="M4.86,213.32l1.48-2.23c-.17.21-.91,1.44-1.48,2.23Z"/>
            </g>
          </g>
          <g>
            <path class="cls-8" d="M140.61,21.19c.98,0,1.99-.04,2.97,0,14.82.61,52.34,11.91,45.99,32.27-5.7,18.27-60.96,19.78-76.03,15.21-37.75-11.45-17.36-38.84,10.39-42.28-20.57-1.43-47.93,24.24-20.77,39.32,21.09,11.7,51.66,5.77,73.81.37-16.95,11.18-79.86,12.08-86.79-10.39-2.94-9.52-.34-14.25,6.31-20.4,11.25-10.41,29.26-14.12,44.14-14.09Z"/>
            <g>
              <path class="cls-4" d="M143.21,22.68l10.39.74c12.86,4.76,39.01,11.85,34.49,30.04-1.35-20.19-28.37-27.51-44.88-30.78Z"/>
              <path class="cls-18" d="M104.64,39c-4.47,8.19-.33,15.71,6.68,20.77,1.51,1.1,6.58,1.6,6.68,3.71-10.73-1.61-23.65-14.81-13.35-24.48Z"/>
              <path class="cls-12" d="M179.56,53.09c5.58-.49-11.11,13.3-13.72,10.01,5.34-2.21,9.84-5.71,13.72-10.01Z"/>
              <path class="cls-19" d="M159.53,38.26c6.77,3.6,9.54,11.54,2.97,17.06,4.1-8.59,1.68-9.87-2.97-17.06Z"/>
              <path class="cls-16" d="M175.85,38.26c3.41,3.58,7.09,7.29,5.19,12.61l-5.19-12.61Z"/>
            </g>
          </g>
          <g>
            <path class="cls-8" d="M264.86,247.44c10.15,14.79,3.86,37.55-10.39,47.48-9.93,6.92-53.35,17.26-66.02,17.8-1.83.08-13.24.28-13.72-.37l4.82-33.01c25.44-1.63,54.28-4.08,75.29-19.66-13.65,5.98-27.95,11.55-42.65,14.47-3.71.74-30.45,4.4-31.9,3.71-1.59-.76-1.59-3.7,0-4.45,29.34-1.67,61.64-6.29,84.57-25.96Z"/>
            <path class="cls-2" d="M265.61,254.86c2.72,8.86,3.37,19.09-1.85,27.08-12.28,18.77-65.4,25.29-86.79,28.19,28.54-13.37,99.67-5.95,88.65-55.26Z"/>
            <path class="cls-3" d="M246.32,269.7c1.86-.25.71,2.06.37,2.6-6.2,9.66-49.04,17.71-60.83,14.84l24.11-3.34c11.35-4.72,27.92-4.61,36.35-14.09Z"/>
            <path class="cls-3" d="M252.25,271.18c-2.22,10.55-16.32,17.6-26.33,17.43,9.63-4.41,20.34-8.16,26.33-17.43Z"/>
            <path class="cls-3" d="M257.45,268.96c-.15,12.5-12.59,19.1-22.25,24.48,8.02-7.84,19-12.74,22.25-24.48Z"/>
          </g>
          <g>
            <path class="cls-15" d="M30.08,288.99l-15.21-16.32c-1.78.05.1,3.12.37,3.71-.24,4.78,7.92,13.04,11.5,15.58,10.03,7.09,45.92,14.59,59.34,17.06,6.22,1.14,21.44-1.73,20.03,6.68-24.54-6.59-90.01-10.17-96.06-41.17-1.52-7.78.15-20.64,5.56-26.33,23.33,15.92,54.41,24.86,82.34,27.45l1.11,3.34c-.6.82-.92.92-1.85,1.11-1.3.27-22.72-4.46-25.96-5.19-9.71-2.2-20.97-5.66-30.41-8.9-4.16-1.43-10.39-5.67-14.47-4.82,21.46,13.38,47.21,15.07,71.58,19.66l5.19,28.19c-24.17-6.49-51.15-7.74-73.07-20.03Z"/>
            <path class="cls-3" d="M30.08,288.99c-6.06-3.4-11.72-5.7-14.84-12.61-.27-.59-2.15-3.66-.37-3.71l15.21,16.32Z"/>
            <path class="cls-3" d="M28.97,270.44c16.98,13.82,36.12,21.06,58.23,20.4-21.69,5.26-43.33-5.3-58.23-20.4Z"/>
            <path class="cls-3" d="M33.42,268.21l31.53,12.98c-.29,3.7-31.18-6.77-31.53-12.98Z"/>
            <path class="cls-3" d="M23.04,267.47c4.35,6.97,12.08,10.09,18.17,15.21-7.04-1.73-16.1-8.44-18.17-15.21Z"/>
          </g>
          <g>
            <path class="cls-8" d="M201.81,349.81c.62.06,1.47-.29,1.85.37,5.59,34.24-58.51,34.81-80.49,33.01-16.31-1.33-50.97-9.13-44.51-31.9,36.08,8.74,74.07,8.34,110.53,2.23,2.2-.37,11.96-3.77,12.61-3.71Z"/>
            <g>
              <path class="cls-2" d="M81.64,360.2c1.47,3.3,3.65,6.83,6.68,8.9,6.29,4.31,38.15,10.04,46.73,10.39,20.83.85,44.2-4.65,63.42-12.24-6.14,4.79-18.48,8.41-26.33,10.01-22.48,4.6-58.31,5.48-79.37-4.45-4.64-2.19-12.11-6.37-11.13-12.61Z"/>
              <path class="cls-3" d="M198.84,356.49c2.29.48-2.77,3.58-2.97,3.71-10.18,6.9-27.54,10.22-39.69,12.24l42.65-15.95Z"/>
              <path class="cls-14" d="M127.26,362.42v-1.48c18.73.49,37.02-1.22,55.64-2.6l-24.11,3.34c-10.53.22-20.98,1.05-31.53.74Z"/>
              <path class="cls-3" d="M109.09,363.17l33.01,2.6c-9.02-.05-21.38,1.58-30.04-.37-.54-.12-4.35-.9-2.97-2.23Z"/>
              <path class="cls-6" d="M127.26,360.94v1.48c-10.94-.31-22.82-1.37-33.38-4.08,11.16.91,22.14,2.3,33.38,2.6Z"/>
            </g>
          </g>
        </g>
      </g>
    </g>
  </g>
</svg>