<?xml version="1.0" encoding="UTF-8"?>
<svg id="Layer_2" data-name="Layer 2" xmlns="http://www.w3.org/2000/svg" viewBox="0 0 323.54 254.58">
  <defs>
    <style>
      .cls-1 {
        fill: #201e1e;
      }

      .cls-2 {
        fill: #cdeaf9;
      }

      .cls-3 {
        fill: #8a8b8e;
      }

      .cls-4 {
        fill: #ffdc82;
      }

      .cls-5 {
        fill: #ffbb01;
      }

      .cls-6 {
        fill: #b1def5;
      }

      .cls-7 {
        fill: #87c9e5;
      }

      .cls-8 {
        fill: #d39a00;
      }

      .cls-9 {
        fill: #fdfdfd;
      }
    </style>
  </defs>
  <g id="Layer_1-2" data-name="Layer 1">
    <g id="Generative_Object" data-name="Generative Object">
      <g>
        <path class="cls-7" d="M121.59,53.19c10.11,9.59,20.15,19.51,30.69,28.64,3.27,2.83,7.69,7.23,11.59,8.18,2.65,2.54,5.78,4.64,8.18,7.5-.1.79-3.69-.15-3.86-.23-4.58-1.89-13.04-9.37-18.18-12.27-13.96-7.89-28.65-11.52-40.91-22.73-4.54-4.16-12.39-16.58-17.73-17.27-8.09-1.05-19.53,9.31-21.82,16.82l-16.14-31.59c.52-2.58,16.21-2.8,18.87-2.5,12.42,1.38,14.18,8.53,22.73,15,9.22,6.97,15.66,8.12,26.59,10.46Z"/>
        <path class="cls-7" d="M73.41,10.46c12.06,3.7,22.58,15.76,31.82,23.87l13.64,17.5c-11.69.11-29.87-14.5-36.82-23.41-4.36-5.59-5.73-12.45-11.14-17.05l10,17.73c-8.73-3.29-18.52-3.55-27.28-.45-1.94-.42-5.34-17.03-2.73-19.09,2.83-2.23,18.66-.27,22.5.91Z"/>
        <path class="cls-7" d="M86.82,46.37c11.19-1.94,15.59,13.45,23.87,18.87-9.48-2.44-18.6-3.42-27.5,1.59-.78.44-3.25,3.59-3.64,3.64-1.26.14-9.08-4.95-9.32-7.05-.57-4.94,11.78-16.21,16.59-17.05Z"/>
        <path class="cls-7" d="M115,69.1c2.82.06,18.38,10.33,22.5,11.59-4.78.61-10.99,6.91-15.23,6.59-1.36-.1-22.39-7.77-23.64-8.64-1.02-.71-.58-.7,0-1.36,1.28-1.46,14.32-8.23,16.37-8.18Z"/>
        <path class="cls-7" d="M95.91,64.1c5.78-.24,13.28,1.62,18.41,4.32-4.64-.55-15.36,8.94-18.41,8.86-.81-.02-14.61-5.8-14.77-6.59,3.11-4.4,9.58-6.38,14.77-6.59Z"/>
        <path class="cls-7" d="M138.64,81.38c5.7-.23,20.68,11.82,26.14,14.77l-38.41-7.96c1.52-2.42,9.8-6.72,12.27-6.82Z"/>
        <g>
          <path class="cls-6" d="M87.95,81.38c12.84,4.23,26.23,9.96,39.32,13.18,3.68.91,7.84,2.41,11.37,1.82l7.5,1.82c-20.69-1.05-51.08,2.43-69.33-4.55-12.05-4.61-22.26-18.31-31.59-.23-2.63,5.1-3.02,9.62-3.41,15.23l-28.87-20.68c4.43-6.24,18.6-13.89,26.14-12.96,3.04.38,10.55,4.86,14.09,5.91,11.73,3.46,22.91,2.54,34.78.45Z"/>
          <path class="cls-6" d="M22.26,60.46c23.43-2.17,41.77,11.41,62.05,20.23-17.68,4.45-38.79-1.43-53.42-11.59-2.85-1.98-4.94-6.4-9.09-6.82l14.32,11.59c-9.2,1.88-17.68,6.3-24.32,12.96-4.68-4.77-9.05-10.11-11.14-16.59,5.31-5.1,14.3-9.1,21.59-9.77Z"/>
          <path class="cls-6" d="M168.42,104.11c-1.65.12-2.62.64-4.09.91-6.92,1.25-14.38,4.21-20.91,6.82l-.91-.45c-14.02,4.15-28.2,8.31-42.96,9.09,6.24-7.31,10.81-15.98,18.18-22.28,13.27.78,26.83.47,40,2.27,2.23.31,8.65,1.22,10.46,1.82,2.19.72,0,.75.23,1.82Z"/>
          <path class="cls-6" d="M89.54,98.65l25.68.23c-4.11,2.35-15.13,21.23-17.96,22.05-1.8.52-21.76-.56-23.18-1.36,1.09-4,11.85-19.97,15.46-20.91Z"/>
          <path class="cls-6" d="M54.54,85.47c7.08-1.38,21.13,11.17,29.32,11.59-11.3.89-25.76,4.35-27.96,17.5-.55.36-11.63-4.52-12.05-5.23-3.22-5.56,4.25-22.62,10.68-23.87Z"/>
          <path class="cls-6" d="M86.82,98.2l-14.55,20.91-15.23-4.32c2.26-13.6,18.3-16.13,29.78-16.59Z"/>
          <path class="cls-2" d="M146.14,98.2l-7.5-1.82c-3.53.59-7.68-.91-11.37-1.82-13.1-3.22-26.49-8.95-39.32-13.18,1.7-.3,4.84-2.49,7.05-2.27,4.68.47,25.01,9.84,32.28,11.82,14.83,4.05,31.03,4.6,45.01,8.18.53.14,2.73,1.13.91,1.36-8.94-1.26-18.04-1.82-27.05-2.27Z"/>
          <path class="cls-6" d="M17.49,52.74l25,8.64c-15.51-3.34-29.25-3.38-42.05,7.27-2.72-11.11,7.61-15.69,17.05-15.91Z"/>
          <path class="cls-6" d="M42.49,61.37l-25-8.64c7.55-.18,16.72,1.77,23.87,4.09,16.61,5.4,33.08,15.48,49.78,21.14-2.56,3.03-7.44.85-10.68-.23-13.92-4.61-21.86-12.9-37.96-16.37Z"/>
        </g>
        <path class="cls-7" d="M72.04,1.82l15.46,14.55c-3.51-2.33-9.15-5.02-13.18-6.36-8.27-2.75-14.89-3.04-23.64-2.05C54.96-1.37,63.53-1.15,72.04,1.82Z"/>
        <path class="cls-6" d="M120.23,50.92c-10.46-7.7-18.44-25.06-32.73-34.55l-15.46-14.55c16.32,5.69,25.3,22.03,36.37,33.87,5.4,5.78,12,10.43,17.27,16.37-2.29.71-3.68.17-5.46-1.14Z"/>
        <path class="cls-6" d="M163.87,90.01c-3.9-.95-8.32-5.35-11.59-8.18-10.53-9.13-20.57-19.05-30.69-28.64,1.2.26,4.86.14,5.68.45,2.41.93,31.66,31.64,36.6,36.37Z"/>
        <path class="cls-9" d="M87.5,16.37c14.29,9.49,22.27,26.85,32.73,34.55-.8.29-.04.9-1.36.91l-13.64-17.5c-9.24-8.1-19.77-20.16-31.82-23.87l.91-.45c4.03,1.34,9.67,4.03,13.18,6.36Z"/>
      </g>
      <g>
        <path class="cls-1" d="M85.68,167.75c.46,2.91,1.4,6.27,2.27,9.09.15.48.3.9.45,1.36-2.41,5.69-7.67,19.37-6.82,25.23.1.7,5.9,12.05,6.59,12.05l.68-.68c.28-4.04.57-8.31,1.36-12.27.54-2.72,3.14-9.62,3.18-11.59,6.9,14.06,15.95,26.46,27.73,36.82,7.08,6.23,13.97,10.96,22.28,15.46-50.04,13.98-77.2-31.94-58.64-76.37l.91.91Z"/>
        <path class="cls-1" d="M203.42,168.66c.11-.07.34.07.45,0l7.05,9.55c.43-.47,1.06-.61,1.59-.91,6.57,6.17,8.69,16.65,6.82,25.23h-1.36c-1.17-7.74-5.66-14.83-11.59-19.78-.51.05-4.82,6.15-4.77,6.59.06.54,4.98,6.04,5.91,9.09,1.94,6.34,2.24,17.82-2.73,22.73.61-8.4-2.14-16.08-6.36-23.18-7.58,5.41-1.14,7.75.45,13.64,2.15,7.92.65,17.12-3.86,23.87-.36-8.87-.88-17.43-6.14-25-4.17-6.01-11.87-11.46-16.82-17.27-.07-.09.07-.37,0-.45,9.68-9.03,20.02-17.25,31.37-24.09Z"/>
        <path class="cls-1" d="M157.51,207.3l17.73,17.27c-.46.47-.94.64-1.36,1.14,5.63,8.12,5.29,20.86-.23,28.87-.38-8.19-1.17-17.41-6.82-23.64-1.96,2.14-4.6,3.17-7.05,4.55-6.98-4.14-13.76-9.32-19.55-15-2.77-2.72-5.53-5.87-7.73-9.09,2.71,2.89,6.25,5.55,8.86,8.64l15.68-12.73h.45Z"/>
        <path class="cls-3" d="M196.15,97.29c-1.48,3.21-2.32,6.12-3.18,9.55-.1.41-.36.5-.45.91-17.93,2.31-34.52,10.64-50.01,19.55-.13-2.97-.11-6.12,0-9.09.04-1.05.45-1.72.45-1.82l21.37-11.37c1.47-.27,2.44-.79,4.09-.91,3.27-.24,8.29,1.29,11.14,0,2.58-1.17,2.77-3.99-.23-5,5.21-.39,11.19-2.69,16.82-1.82Z"/>
        <path class="cls-8" d="M188.87,210.48c-3.72,5.5-9.03,9.48-13.64,14.09l-17.73-17.27,14.55-14.09c4.95,5.81,12.65,11.26,16.82,17.27Z"/>
        <path class="cls-8" d="M140.23,220.48c5.78,5.68,12.57,10.86,19.55,15-5.84,3.28-9.64,5.85-16.37,7.73-8.31-4.5-15.19-9.23-22.28-15.46.79-.13-.45-.93.68-1.36,5.4-2.07,13.04-2.63,18.41-5.91Z"/>
        <path class="cls-8" d="M228.42,165.93c-1.11.59-2.13,1.64-3.18,2.27-2.93,1.75-5.02,3.61-7.73,5.46-1.16.79-4.44,3.32-5,3.64-.53.3-1.16.44-1.59.91l-7.05-9.55c7.17-4.3,13.47-8.87,21.82-10.91,1,2.68,1.91,5.44,2.73,8.18Z"/>
        <path class="cls-5" d="M240.7,99.56c-1.82.95-3.45,2.32-5,3.64-.48-1.35-4.02-2.41-5.23-2.73-11.01-2.89-22.58-2.85-33.87-3.64.98-2.03,1.76-4.12,3.18-5.91,16,.36,26.5,2.59,40.91,8.64Z"/>
        <path class="cls-5" d="M102.5,151.38c.03.15-.03.31,0,.45l-14.55,25c-.88-2.82-1.81-6.19-2.27-9.09-.08-.51.3-1.32-.45-1.36,4.45-10.3,8.71-16.12,15.91-24.55.46,3.18.77,6.38,1.36,9.55Z"/>
        <path class="cls-1" d="M122.05,121.83c-.87,3.37-.57,6.6-.45,10,0,.15,0,.3,0,.45l-19.09,19.09c-.6-3.16-.9-6.36-1.36-9.55,6.38-7.46,13.07-14.03,20.91-20Z"/>
        <path class="cls-5" d="M143.41,111.83c0,1.55-.37,2.99-.45,4.55,0,.09-.42.76-.45,1.82l-20.91,13.64c-.12-3.4-.42-6.64.45-10,1.55-1.18,4.57-4.66,6.14-5.46,3.82-1.93,10.63-2.02,14.32-5l.91.45Z"/>
        <path class="cls-1" d="M225.24,168.2c8.94,4.78,15.41,15.22,15.23,25.46-5.99-8.92-13.1-15.46-22.96-20,2.7-1.85,4.8-3.7,7.73-5.46Z"/>
        <path class="cls-1" d="M199.78,90.92c-1.43,1.79-2.2,3.88-3.18,5.91-.01.03-.18-.15-.45.45-5.63-.87-11.61,1.43-16.82,1.82-4.61.35-5.75-2.14-9.09-5.23,9.36-2.99,19.68-3.17,29.55-2.95Z"/>
        <path class="cls-5" d="M234.33,104.11c-17.44,16.44-16.37,32.87-8.64,53.64-8.35,2.04-14.65,6.61-21.82,10.91-.11.07-.34-.07-.45,0-10.82-18.65-15.75-39.52-10.91-60.92.09-.41.35-.5.45-.91,13.68-1.82,27.51-4.26,41.37-2.73Z"/>
        <path class="cls-4" d="M235.7,103.2c-.36.3-1.03.59-1.36.91-13.86-1.54-27.69.91-41.37,2.73.87-3.42,1.7-6.34,3.18-9.55.28-.61.44-.43.45-.45,11.29.79,22.86.75,33.87,3.64,1.2.32,4.75,1.37,5.23,2.73Z"/>
        <path class="cls-5" d="M106.14,165.02c5.1,15.86,14.92,34.2,26.37,46.37,2.2,3.22,4.96,6.37,7.73,9.09-5.38,3.28-13.01,3.84-18.41,5.91-1.13.43.1,1.24-.68,1.36-11.78-10.36-20.83-22.76-27.73-36.82,0-.44.06-.94,0-1.36,3.63-8.27,6.24-17.97,12.73-24.55Z"/>
        <path class="cls-4" d="M105.68,164.11c.12.38.33.53.45.91-6.49,6.58-9.1,16.28-12.73,24.55-.09-.61-4.29-9.23-5-11.37-.15-.46-.31-.89-.45-1.36l14.55-25c.8,4.05,1.97,8.32,3.18,12.27Z"/>
        <path class="cls-3" d="M93.41,189.57c.06.42,0,.93,0,1.36-.04,1.97-2.64,8.87-3.18,11.59-.79,3.96-1.09,8.23-1.36,12.27l-.68.68c-.69,0-6.49-11.35-6.59-12.05-.85-5.86,4.41-19.54,6.82-25.23.71,2.13,4.91,10.75,5,11.37Z"/>
        <path class="cls-1" d="M192.51,107.74c-4.84,21.4.09,42.27,10.91,60.92-11.35,6.84-21.69,15.07-31.37,24.09-14.51-17.19-28.13-41.69-29.55-64.55-.02-.3.01-.61,0-.91,15.49-8.91,32.07-17.24,50.01-19.55Z"/>
        <path class="cls-5" d="M142.5,128.2c1.42,22.87,15.04,47.37,29.55,64.55.07.09-.07.37,0,.45l-14.55,14.09h-.45c-16.19-17.85-29.67-39.6-34.1-63.64-.03-.15.03-.31,0-.45l19.55-15Z"/>
        <path class="cls-1" d="M164.33,105.01l-21.37,11.37c.08-1.56.46-2.99.45-4.55,6.53-2.61,13.99-5.57,20.91-6.82Z"/>
        <path class="cls-1" d="M157.05,207.3l-15.68,12.73c-2.62-3.09-6.15-5.75-8.86-8.64-11.45-12.17-21.27-30.51-26.37-46.37-.12-.38-.34-.53-.45-.91l17.27-20.46c4.42,24.04,17.91,45.8,34.1,63.64Z"/>
        <path class="cls-4" d="M142.5,118.2c-.11,2.97-.13,6.12,0,9.09.01.3-.02.61,0,.91l-19.55,15c-.71-4.05-1.18-6.72-1.36-10.91,0-.15,0-.3,0-.45l20.91-13.64Z"/>
        <path class="cls-3" d="M122.96,143.2c.03.15-.03.31,0,.45l-17.27,20.46c-1.21-3.95-2.39-8.22-3.18-12.27-.03-.15.03-.31,0-.45l19.09-19.09c.18,4.19.66,6.86,1.36,10.91Z"/>
        <path class="cls-1" d="M228.42,165.93c-.82-2.74-1.73-5.5-2.73-8.18-7.73-20.77-8.8-37.21,8.64-53.64.33-.31,1.01-.61,1.36-.91,1.55-1.32,3.18-2.69,5-3.64,6.49,2.73,13.12,5.11,18.41,10,1.08-6.36,2.46-12.33,6.59-17.5,6.49-8.12,24.24-9.96,25.91-20.91,1-6.54-4.07-5.03-3.64-10,.6-6.77,13.46-5.39,9.55,3.64-.37.86-2.04,1.24-2.27,1.82-.91,2.26-.28,6.39-2.27,10-5.41,9.79-17.88,9.77-24.09,16.82-4.1,4.64-6.58,12.51-5.91,18.64,5.03-2.68,9.24-7.91,14.77-9.77,9.17-3.09,18.89.92,26.14-8.41,4.87-6.27-.27-6.24,1.82-10.91s11.3-3.08,9.55,4.09c-.7,2.88-4.56,2.83-5.91,4.09-1.12,1.05-2.9,5.48-5.23,7.5-8.39,7.3-16.07,3.8-25,6.82-2.15.73-17.81,10.46-10.91,10.91,3.02.2,8.35-1.94,13.18-1.36,8.32.99,13.19,7.42,23.64,5.91,1.84-.27,9.25-3.96,9.32-5.68,0-.11-1.36-1.41-1.36-1.82-.21-13.52,17.51-2.77,7.5,3.41-1.47.91-9.95,5.87-11.37,6.36-13.98,4.87-18.47-4.06-29.09-5-3.04-.27-6.52.54-9.55.91,5.48,8.73,12.16,17.91,11.59,28.87-.85,16.31-22.98,19.63-35.69,17.96-3-.39-10.32-3.41-12.27-3.18-.43.05-4.72,2.67-5.68,3.18Z"/>
      </g>
    </g>
  </g>
</svg>