<?xml version="1.0" encoding="UTF-8"?>
<svg id="Layer_2" data-name="Layer 2" xmlns="http://www.w3.org/2000/svg" viewBox="0 0 151.69 169.4">
  <defs>
    <style>
      .cls-1 {
        fill: #fff;
      }

      .cls-1, .cls-2, .cls-3, .cls-4, .cls-5, .cls-6 {
        stroke-linecap: round;
        stroke-linejoin: round;
      }

      .cls-1, .cls-4, .cls-5, .cls-6 {
        stroke: #263238;
      }

      .cls-2 {
        fill: #0074d9;
        stroke: #242b2d;
      }

      .cls-3 {
        stroke: #fff;
      }

      .cls-3, .cls-4 {
        fill: none;
      }

      .cls-5 {
        fill: #263238;
      }

      .cls-6 {
        fill: #eac93d;
      }
    </style>
  </defs>
  <g id="Layer_1-2" data-name="Layer 1">
    <g id="Character">
      <g>
        <g>
          <path class="cls-1" d="M61.6,64.73s2.41,11.15,3.17,12.16,4.56,3.42,7.98,4.56c3.42,1.14,8.36,3.04,8.36,3.04l2.79,2.53s1.52-1.27,2.41-1.39c.89-.13,4.43-1.14,4.43-1.14,0,0-6.08-8.36-8.99-11.91-2.91-3.55-6.97-5.57-6.97-5.57l-1.14-4.69-12.03,2.41Z"/>
          <path class="cls-4" d="M69.33,69.16s1.39-1.14,3.42-1.65"/>
        </g>
        <path class="cls-2" d="M90.23,83.47s-3.55-.25-4.94.89c-1.39,1.14-1.39,2.66-1.39,2.66,0,0,.25,2.28-.25,2.91-.51.63-2.03,4.31-1.39,5.07.63.76,5.07,3.67,5.07,3.67,0,0,2.91,2.91,4.05,2.28s4.31-2.41,4.69-3.55c.38-1.14,1.01-3.67,1.01-4.94s-6.21-8.49-6.84-8.99Z"/>
        <g>
          <path class="cls-5" d="M24.04,91.16s13.75,16.98,14.6,18.67,8.83,24.79,9.17,25.8c.34,1.02-.34,3.39.17,4.07.51.68,1.87,5.94,1.7,6.45-.17.51,0,3.73,1.36,4.75,1.36,1.02,3.9,1.53,5.43,1.87,1.53.34,3.9,2.72,9.34,2.38,5.43-.34,4.92-3.06,2.72-5.94s-8.15-7.81-8.15-7.81c0,0-.51-1.36-1.19-3.23s.17,1.02-.68-1.87c-.85-2.89-.51-18.84-3.4-26.48s-5.6-15.11-7.81-18.84c-2.21-3.73-9.85-14.6-9.85-14.6l.34-4.45-17.83-.48-8.49-1.19,12.56,20.88Z"/>
          <path class="cls-5" d="M4.35,62.81s-4.75,8.49-3.23,15.96,8.66,18.16,9,20.54c.34,2.38-6.45,12.22-5.6,21.9s-3.73,35.74-3.73,35.74c0,0-.51,4.24-.17,5.09l.34.85,8.32,3.73s9.68,2.72,13.07,2.21,6.62-1.36,5.94-3.23-5.09-3.9-6.62-5.43c-1.53-1.53-3.4-4.41-3.4-4.41,0,0,.68-1.53.34-3.06-.34-1.53-.51-1.19-1.02-4.24s4.41-20.12,4.41-24.37,1.87-14.6,3.23-18.67,1.7-10.7,1.7-10.7c0,0,2.04-.68-1.36-6.79-3.4-6.11-5.94-13.75-5.94-13.75l-15.28-11.38Z"/>
          <path class="cls-3" d="M11.48,96.93s2.72-5.09,4.41-6.79c1.7-1.7,3.06-1.7,3.06-1.7"/>
          <path class="cls-3" d="M12.67,88.44s-2.04,3.73-2.38,6.79"/>
          <path class="cls-4" d="M16.91,94.38s.85-1.36,2.38-1.7"/>
        </g>
        <g>
          <path class="cls-2" d="M50.33,21.54s-11.65,1.9-19.25,6.33c-7.6,4.43-17.86,22.55-20.14,25.33s-7.47,9.75-6.59,11.27c.89,1.52,4.56,9.37,13.68,11.15s14.69.25,16.21-.76,3.04-2.28,3.55-2.91c.51-.63,8.74-9.5,8.74-9.5l11.78-8.11.25,11.78s6.08.25,11.65-1.39c5.57-1.65,6.21-2.15,6.21-2.15,0,0-1.9-3.93-2.53-12.92-.63-8.99-2.28-12.79-2.28-12.79,0,0-1.14-13.05-21.28-15.33Z"/>
          <g>
            <path class="cls-2" d="M10.56,57.51s1.9,11.78,5.57,16.59"/>
            <path class="cls-2" d="M9.04,61.18s1.14,5.32,2.79,7.98"/>
            <path class="cls-2" d="M13.73,50.16s0,7.47.63,9.37"/>
            <path class="cls-2" d="M45.27,36.23s4.18,6.21,7.22,7.47"/>
            <path class="cls-2" d="M49.45,44.21s3.04,1.77,4.18,2.03"/>
          </g>
        </g>
        <path class="cls-5" d="M63.38,40.91s0,3.42-1.27,6.46c-1.27,3.04-3.8,6.97-3.8,6.97,0,0,4.05-1.39,5.19-6.46,1.14-5.07,1.14-7.73,1.14-7.73l-1.27.76Z"/>
        <g>
          <path class="cls-1" d="M75.79,31.57l-2.73,3.01s-.91,4.92-1.55,5.29-3.74-.36-3.74-.36c0,0-4.65,3.92-5.01,3.92s-4.1-1.82-5.38-3.83c0,0-3.46,3.92-7.2.64-3.74-3.28-3.46-10.11-2.55-12.85.91-2.73,1.82-4.46,1.82-4.46l5.52-5.73,18.17,11.19,2.64,3.19Z"/>
          <path class="cls-6" d="M54.98,17.18l-3.79,7.95c-.71,1.49-.45,3.27.67,4.49h0c1.76,1.92,4.85,1.71,6.34-.43l4.32-6.24-7.53-5.77Z"/>
          <path class="cls-6" d="M59.37,3.55s-1.72,1.05-2.39,2.96-2.01,4.58-2.87,5.64c-.86,1.05-2.87,1.43-2.58,2.39.29.95,13.18,10.6,14.71,11.65,1.53,1.05,4.87,4.49,6.88,5.44s6.69,2.1,7.64,1.53-1.72-4.97-1.72-4.97c0,0,3.53-7.26,3.82-11.84s-3.44-11.46-8.02-14.14C70.26-.46,63.39.01,59.37,3.55Z"/>
          <path class="cls-5" d="M67.32,25.55c-.09-.36-4.19-6.11-4.19-6.11l.44-.88c.4-.41.65-.98.65-1.63,0-1.23-.92-2.23-2.05-2.23s-2.05,1-2.05,2.23c0,.66.27,1.25.69,1.66l-.05.03,3.55,6.01-.64,5.92s3.73-4.65,3.64-5.01Z"/>
          <path class="cls-4" d="M63.95,29.93s-2.82,4.83-3.92,7.02c-1.09,2.19,1.18,7.02,5.65,6.92s12.57-10.66,12.57-10.66"/>
          <path class="cls-4" d="M57.39,39.58s-2.82-3.83-3.37-5.74"/>
          <path class="cls-4" d="M71.36,34.07s-1.01-2.03-3.29-2.03"/>
          <path class="cls-4" d="M67.94,34.71s.51,1.01,1.9.89"/>
        </g>
        <path class="cls-5" d="M26.14,31.79s4.94-1.01,6.33-.51c1.39.51,6.71,5.07,8.11,10.13,1.39,5.07.89,10.51.25,11.91-.63,1.39-6.08,6.59-6.08,6.59l-.38,5.07s7.6-8.23,8.87-11.4c1.27-3.17,1.77-8.61-.13-14.06-1.9-5.45-6.46-8.99-6.46-8.99,0,0-3.93-1.14-4.69-1.14s-3.04.25-3.04.25l-2.79,2.15Z"/>
        <path class="cls-1" d="M17.65,69.16s.63,12.03.89,12.67c.25.63,4.31,5.7,8.23,8.61,3.93,2.91,15.2,10.89,15.2,10.89l4.69,2.41,2.91-7.35s-8.36-6.08-10.01-8.61c-1.65-2.53-3.04-4.69-4.69-6.21-1.65-1.52-3.42-3.42-3.42-3.42l-.89-6.46-12.92-2.53Z"/>
        <path class="cls-2" d="M48.69,95.5s-1.77,2.03-2.53,4.31c-.76,2.28-1.01,3.04-.63,3.55.38.51,2.66,1.9,4.56,3.17,1.9,1.27,5.45,4.56,5.45,4.56,0,0,3.29,1.01,5.7,1.01s4.31-1.65,4.31-1.65c0,0,1.01-5.07-.51-7.6-1.52-2.53-3.55-4.69-4.69-5.7-1.14-1.01-8.11-.51-8.11-.51l-3.55-1.14Z"/>
        <path class="cls-5" d="M67.43,103.86h-2.7c-1.45,0-2.62,1.17-2.62,2.62v.47c0,1.45,1.17,2.62,2.62,2.62h3.21l-.51-5.7Z"/>
        <rect class="cls-6" x="75.54" y="99.3" width="30.15" height="15.96"/>
        <rect class="cls-6" x="66.16" y="99.3" width="30.14" height="15.96"/>
        <path class="cls-5" d="M89.85,91.32s-4.56,5.57-4.69,8.23c-.1,2.11.04,11.99.1,16.02.02.96.78,1.74,1.74,1.77h0c1.05.04,1.91-.83,1.87-1.88-.18-4.32-.56-14.48-.17-16.17.51-2.15,1.9-2.41,2.66-4.94.76-2.53-.38-3.55-1.52-3.04Z"/>
        <path class="cls-1" d="M150.26,112.72h-52.37v-1.87h52.37c.52,0,.93.42.93.93h0c0,.52-.42.93-.93.93Z"/>
        <g>
          <path class="cls-2" d="M23.1,39.77s-3.55,3.93-3.67,5.83-2.66,25.33-2.66,25.33c0,0,2.53,1.65,5.7,1.9,3.17.25,6.46,1.14,8.36.76,1.9-.38,3.67-.76,3.67-.76l-.13-7.85,2.28-20.77"/>
          <path class="cls-2" d="M23.86,45.85s4.94,12.79,7.35,16.47"/>
          <path class="cls-2" d="M21.71,48.39s1.52,4.05,2.15,4.94"/>
        </g>
      </g>
    </g>
  </g>
</svg>