<?xml version="1.0" encoding="UTF-8"?>
<svg id="Layer_2" data-name="Layer 2" xmlns="http://www.w3.org/2000/svg" viewBox="0 0 239.38 214.77">
  <defs>
    <style>
      .cls-1, .cls-2 {
        fill: #263238;
      }

      .cls-1, .cls-3, .cls-4 {
        stroke: #263238;
        stroke-miterlimit: 10;
      }

      .cls-3 {
        fill: #eac93d;
      }

      .cls-4 {
        fill: #fff;
      }
    </style>
  </defs>
  <g id="Layer_1-2" data-name="Layer 1">
    <g id="Construction_Truck" data-name="Construction Truck">
      <g>
        <path class="cls-3" d="M152.17,71.82L107,15.7l9.13-13.48s-.02-2.01-2.78-1.69c-2.76.32-20.5.87-20.5.87,0,0-2.43.71-3.27,2.1-.84,1.39-70.43,73.57-70.43,73.57l6.39,4.36L97.76,23.88l36.61,65.53s9.15-16.96,17.8-17.59Z"/>
        <path class="cls-3" d="M143.52,71.21s-27.64,29.73-23.99,85.01h113.7l-4.17-30.77-39.11-6.26v-43.81l-46.42-4.17Z"/>
        <path class="cls-1" d="M143.52,71.21s-24.43,26.29-24.32,75.38h50.85l19.88-27.4v-43.81l-46.42-4.17Z"/>
        <path class="cls-4" d="M147.18,80.86c-6.58,10.35-12.53,33.64-12.53,33.64h34.42v-32.02l-21.89-1.61Z"/>
        <polygon class="cls-4" points="175.49 81.32 175.49 112.23 186.79 103 186.79 80.86 175.49 81.32"/>
        <rect class="cls-2" x="209.5" y="147.78" width="20" height="2.98"/>
        <rect class="cls-2" x="209.5" y="141.39" width="20" height="2.98"/>
        <rect class="cls-2" x="209.5" y="135.01" width="20" height="2.98"/>
        <polyline class="cls-4" points="189.26 160.88 149.66 160.88 142.98 162.68 147.86 168.33 185.66 168.33 189.26 162.68"/>
        <rect class="cls-3" x="118.04" y="154.45" width="120.84" height="10.8"/>
        <path class="cls-1" d="M213.94,167.64h-71.99c-12.88,0-23.32,10.44-23.32,23.31s10.44,23.32,23.32,23.32h71.99c12.88,0,23.32-10.44,23.32-23.32,0-12.88-10.44-23.31-23.32-23.31Z"/>
        <circle class="cls-4" cx="213.94" cy="190.96" r="15.15"/>
        <path class="cls-1" d="M223.71,190.96c0-5.4-4.37-9.77-9.77-9.77s-9.77,4.37-9.77,9.77,4.37,9.77,9.77,9.77,9.77-4.37,9.77-9.77Z"/>
        <circle class="cls-4" cx="141.95" cy="190.96" r="15.15"/>
        <path class="cls-1" d="M151.72,190.96c0-5.4-4.37-9.77-9.77-9.77s-9.77,4.37-9.77,9.77,4.37,9.77,9.77,9.77,9.77-4.37,9.77-9.77Z"/>
        <path class="cls-3" d="M206.58,201l-60.05-1.64c-4.69-.13-8.43-3.97-8.43-8.66h0c0-4.69,3.74-8.54,8.43-8.66l60.05-1.64c4.88-.13,8.9,3.78,8.9,8.66v3.27c0,4.88-4.03,8.79-8.9,8.66Z"/>
        <path class="cls-1" d="M26.83,74.61l-25.77,5s-2.55,24.42,3.16,37.11c5.71,12.69,18.07,22.1,18.07,22.1l1.57-1.33-5.76-7.59,21.71-24.48-12.98-30.8Z"/>
      </g>
    </g>
  </g>
</svg>