<?xml version="1.0" encoding="UTF-8"?>
<svg id="Layer_2" data-name="Layer 2" xmlns="http://www.w3.org/2000/svg" viewBox="0 0 236.17 412.01">
  <defs>
    <style>
      .cls-1 {
        fill: #263238;
      }

      .cls-2 {
        fill: #59a96b;
      }
    </style>
  </defs>
  <g id="Layer_2-2" data-name="Layer 2">
    <path class="cls-2" d="M47.17,107.01s1.6-7.95-3.1-5.26-7.79,7.77-7.79,7.77l.71,6.52-6.56,5.16-1.13,5.32,3.46,8.34,6.15-1.74c4.43-3.93,5.76-6.74,5.76-6.74,0,0,.91,9.02,2.86,9.26,1.95.23,5.8,1.19,5.8,1.19l4.89.58,4.45-6.71,1.68-2.19c2.95-4.88,5.66-10.5,5.66-10.5l-5.83-5.65-2.35-5.23-3.63-4.57c-3.43-2.71-7.3-.37-11.03,4.47Z"/>
    <path class="cls-2" d="M179.24,53.38s1.6-7.95-3.1-5.26c-4.7,2.69-7.78,7.77-7.78,7.77l.71,6.52-6.56,5.16-1.13,5.32,3.46,8.34,6.15-1.74c4.43-3.93,5.76-6.75,5.76-6.75,0,0,.91,9.03,2.86,9.26,1.95.23,5.8,1.19,5.8,1.19l4.89.58,4.45-6.71,1.68-2.19c2.95-4.88,5.66-10.5,5.66-10.5l-5.83-5.65-2.35-5.23-3.63-4.57c-3.43-2.71-7.3-.37-11.03,4.47Z"/>
    <path class="cls-2" d="M87.3,73.65s1.6-7.95-3.1-5.26c-4.7,2.69-7.78,7.77-7.78,7.77l.71,6.52-6.56,5.16-1.13,5.32,3.46,8.34,6.15-1.74c4.43-3.93,5.76-6.75,5.76-6.75,0,0,.91,9.03,2.86,9.26,1.95.23,5.8,1.19,5.8,1.19l4.89.58,4.45-6.71,1.68-2.19c2.95-4.88,5.66-10.5,5.66-10.5l-5.83-5.65-2.35-5.23-3.63-4.57c-3.43-2.71-7.3-.37-11.03,4.47Z"/>
    <path class="cls-2" d="M30.6,39.01s-8.5-10.8-11.99-3.39l-3.49,7.41-13.48,3.61-1.64,8.29,8.29,1.64s-4.14,7.34-4.44,9.91c-.31,2.57.75,4.66,3.25,5.61,2.5.95,9.62-4.07,9.62-4.07l.55,11.81s8.73,8.87,9.99,3.8c1.26-5.07,6.79-7.67,6.79-7.67,0,0,4.12,3.75,5.87.05,1.75-3.71.34,2.65,1.75-3.71,1.41-6.36,4.44-9.91,4.44-9.91l-1.65-8.03s-1.93-.23-2.45-6.82c-.52-6.59-2.1-15.25-11.38-8.53Z"/>
    <path class="cls-2" d="M112.54,37.37s-8.5-10.8-11.99-3.39-3.49,7.41-3.49,7.41l-13.48,3.61-1.64,8.29,8.29,1.64s-4.14,7.34-4.44,9.91c-.31,2.57.75,4.66,3.25,5.61,2.5.95,9.62-4.07,9.62-4.07l.55,11.81s8.73,8.87,9.99,3.8c1.26-5.07,6.79-7.67,6.79-7.67,0,0,4.12,3.75,5.87.05,1.75-3.71.34,2.65,1.75-3.71,1.41-6.36,4.44-9.91,4.44-9.91l-1.65-8.03s-1.93-.23-2.45-6.82c-.52-6.59-2.1-15.26-11.38-8.53Z"/>
    <path class="cls-2" d="M68.39,62.83s-8.5-10.8-11.99-3.39-3.49,7.41-3.49,7.41l-13.48,3.61-1.64,8.29,8.29,1.64s-4.14,7.34-4.44,9.91c-.31,2.57.75,4.66,3.25,5.61,2.5.95,9.62-4.07,9.62-4.07l.55,11.81s8.73,8.87,9.99,3.8c1.26-5.07,6.79-7.67,6.79-7.67,0,0,4.12,3.75,5.87.05s.34,2.65,1.75-3.71c1.41-6.36,4.44-9.91,4.44-9.91l-1.65-8.03s-1.93-.23-2.45-6.82c-.52-6.59-2.1-15.25-11.38-8.53Z"/>
    <path class="cls-2" d="M118.27,111.81s-8.5-10.8-11.99-3.39-3.49,7.41-3.49,7.41l-13.48,3.61-1.64,8.29,8.29,1.64s-4.14,7.34-4.44,9.91.75,4.66,3.25,5.61c2.5.95,9.62-4.07,9.62-4.07l.55,11.81s8.73,8.87,9.99,3.8c1.26-5.07,6.79-7.67,6.79-7.67,0,0,4.12,3.75,5.87.05,1.75-3.71.34,2.65,1.75-3.71s4.44-9.91,4.44-9.91l-1.65-8.03s-1.93-.23-2.45-6.82c-.52-6.59-2.1-15.25-11.38-8.53Z"/>
    <path class="cls-2" d="M134.51,5.99s-8.5-10.8-11.99-3.39-3.49,7.41-3.49,7.41l-13.48,3.61-1.64,8.29,8.29,1.64s-4.14,7.34-4.44,9.91.75,4.66,3.25,5.61c2.5.95,9.62-4.07,9.62-4.07l.55,11.81s8.73,8.87,9.99,3.8c1.26-5.07,6.79-7.67,6.79-7.67,0,0,4.12,3.75,5.87.05,1.75-3.71.34,2.65,1.75-3.71,1.41-6.36,4.44-9.91,4.44-9.91l-1.65-8.03s-1.93-.23-2.45-6.82c-.52-6.59-2.1-15.26-11.38-8.53Z"/>
    <path class="cls-2" d="M188.12,90.78s-8.5-10.8-11.99-3.39l-3.49,7.41-13.48,3.61-1.64,8.29,8.29,1.64s-4.14,7.34-4.44,9.91c-.31,2.57.75,4.66,3.25,5.61s9.62-4.07,9.62-4.07l.55,11.81s8.73,8.87,9.99,3.8c1.26-5.07,6.79-7.67,6.79-7.67,0,0,4.12,3.75,5.87.05s.34,2.65,1.75-3.71c1.41-6.36,4.44-9.91,4.44-9.91l-1.65-8.03s-1.93-.23-2.45-6.82c-.52-6.58-2.1-15.25-11.38-8.53Z"/>
    <path class="cls-2" d="M165.21,65.36s-8.5-10.8-11.99-3.39l-3.49,7.41-13.48,3.61-1.64,8.29,8.29,1.64s-4.14,7.34-4.44,9.91c-.31,2.57.75,4.66,3.25,5.61,2.5.95,9.62-4.07,9.62-4.07l.55,11.81s8.73,8.87,9.99,3.8c1.26-5.07,6.79-7.67,6.79-7.67,0,0,4.12,3.75,5.87.05s.34,2.65,1.75-3.71,4.44-9.91,4.44-9.91l-1.65-8.03s-1.93-.23-2.45-6.82c-.52-6.58-2.1-15.26-11.38-8.53Z"/>
    <path class="cls-2" d="M142.14,153.62s-3.34,13.33,4.66,11.56l8-1.77,11.11,8.45,7.56-3.77-3.77-7.56s8.33-1.22,10.56-2.55,3.22-3.44,2.45-6-9.11-5.12-9.11-5.12l9-7.66s1.67-12.33-3.11-10.22-10.22-.67-10.22-.67c0,0,.45-5.55-3.55-4.67s1.89-1.89-4,.89-10.56,2.55-10.56,2.55l-5.34,6.22s1,1.67-3.89,6.11c-4.89,4.45-10.78,11,.22,14.22Z"/>
    <path class="cls-2" d="M200.54,142.03s-2.6,10.37,3.63,8.99l6.22-1.38,8.64,6.57,5.88-2.94-2.94-5.88s-21.58-14.64-19.98-15.87c1.59-1.23,2.17-2.96,1.34-4.86-.83-1.9,21.67,10.1,21.67,10.1l-22.93-19.96s31.23,4.41,27.52,6.05c-3.72,1.64-7.95-.52-7.95-.52,0,0,.35-4.32-2.76-3.63-3.11.69,1.47-1.47-3.11.69-4.58,2.16-8.21,1.98-8.21,1.98l-4.15,4.84s.78,1.3-3.03,4.75c-3.8,3.46-8.39,8.55.17,11.06Z"/>
    <path class="cls-2" d="M125.11,55.76s-2.6,10.37,3.63,8.99l6.22-1.38,8.64,6.57,5.88-2.94-2.94-5.88s6.48-.95,8.21-1.98,2.51-2.68,1.9-4.67c-.6-1.99-7.08-3.98-7.08-3.98l7-5.96s1.3-9.59-2.42-7.95c-3.72,1.64-7.95-.52-7.95-.52,0,0,.35-4.32-2.76-3.63-3.11.69,1.47-1.47-3.11.69s-8.21,1.98-8.21,1.98l-4.15,4.84s.78,1.3-3.03,4.75c-3.8,3.46-8.39,8.55.17,11.06Z"/>
    <path class="cls-2" d="M113.14,104.66s-2.6,10.37,3.63,8.99l6.22-1.38,8.64,6.57,5.88-2.94-2.94-5.88s6.48-.95,8.21-1.98c1.73-1.04,2.51-2.68,1.9-4.67-.6-1.99-7.08-3.98-7.08-3.98l7-5.96s1.3-9.59-2.42-7.95c-3.72,1.64-7.95-.52-7.95-.52,0,0,.35-4.32-2.76-3.63-3.11.69,1.47-1.47-3.11.69-4.58,2.16-8.21,1.98-8.21,1.98l-4.15,4.84s.78,1.3-3.03,4.75c-3.8,3.46-8.39,8.55.17,11.06Z"/>
    <path class="cls-2" d="M70.86,24.23s-16.47,1.3-16.77,3.87-6.11,12.97-6.11,12.97l-.12,6.51,3.12,12.12,7.5,9.33,5.39-2.57,1.23-10.29,3.49-7.41,8.67-1.58,6.48-5.1s.77-6.43-1.42-9.96c-2.19-3.52-11.46-7.89-11.46-7.89Z"/>
    <path class="cls-2" d="M223.16,68.13s-16.47,1.3-16.77,3.87c-.31,2.57-6.11,12.97-6.11,12.97l-.12,6.51,3.12,12.12,7.5,9.33,5.39-2.57,1.23-10.29,3.49-7.41,8.67-1.58,6.48-5.1s.77-6.43-1.42-9.96c-2.19-3.52-11.46-7.89-11.46-7.89Z"/>
    <path class="cls-1" d="M226.85,136.03c-.32-.97-3.17-.37-7.16-.55-2.38-.1-4.76-.12-7.14-.11-2.38.01-4.75.11-7.12.29l-7.11.6h-.09c-.15.02-.29.06-.42.14l-13.45,7.56c-4.44,2.55-8.9,5.07-13.32,7.65-1.7-1.11-3.48-1.76-5.28-2.28-.91-.26-1.83-.43-2.77-.51-.94-.07-1.89-.13-2.82-.22-1.87-.2-3.75-.4-5.63-.56-1.14-.09-2.28-.18-3.42-.27l3.04-3.09,10.24-8.73c3.21-1.35,6.45-2.67,9.62-4.05l9.74-4.32,4.86-2.21c.84-.42,1.52-.61,2.4-.81.84-.19,1.72-.34,2.59-.48,3.5-.54,7.04-.97,10.58-1.4-3.57-.05-7.14-.03-10.72.22-.9.07-1.79.14-2.7.26-.46.06-.91.13-1.39.24-.51.11-.9.29-1.32.44l-5.01,1.87-19.96,7.68c-.13.05-.26.12-.37.22l-.02.02-10.54,8.82s-.07.06-.1.1c-2.48,2.57-4.96,5.14-7.42,7.72l-1.74,1.11c.74-1.13,1.46-2.27,2.15-3.43,1.11-1.87,2.07-3.82,3.01-5.78l2.91-5.83,1.79-2.8c.61-.97,1.25-1.93,1.85-2.92,1.2-1.97,2.43-3.91,3.61-5.9.04-.06.02-.14-.03-.19-.06-.05-.16-.05-.21.02-1.52,1.74-2.98,3.52-4.47,5.28-.75.88-1.46,1.78-2.19,2.67l-2.18,2.68-.02.03-.05.08-3.4,5.57c-1.16,1.84-2.31,3.69-3.3,5.62-1,1.93-1.92,3.9-2.79,5.9-.78,1.83-1.52,3.69-2.12,5.62-1.41,1.53-2.81,3.07-4.17,4.64-.76.86-1.51,1.73-2.26,2.63l-.56.68-.57.77c-.15.16-.22.31-.42.49l-.57.55c-.28.25-.58.5-.88.74l-11.36,5.17-2.42-4.17-1.42-8.42-1.77-5.55-4.92-8.84,4.42-5.21c2.04-2.38,4.08-4.76,6.14-7.08,1.03-1.13,2.11-2.32,3.14-3.21.11-.08.26-.21.31-.24l.04-.03h.02c.34-.08.73-.15,1.11-.21l2.31-.38c3.09-.5,6.21-.95,9.32-1.4h.04c.13-.02.26-.07.38-.13l15.71-8.45.04-.02c.07-.04.13-.08.18-.14.53-.54,1.03-1.1,1.51-1.67l11.42-5.71c4.46-2.22,8.89-4.5,13.33-6.76,2.23-.17,4.38-.57,6.51-1.53,1.08-.51,2.17-1.2,3.02-2.29.2-.28.38-.58.56-.88l.02-.05,4.82,1.53,5.98,1.86,11.98,3.62c.41.12.88.02,1.21-.31l.08-.08c1.26-1.27,2.55-2.5,3.78-3.79,1.07-.37,2.12-.78,3.17-1.21,1.15-.49,2.3-.97,3.44-1.51,1.14-.52,2.27-1.08,3.38-1.66,1.12-.58,2.22-1.2,3.3-1.89.05-.03.08-.09.07-.15-.01-.08-.09-.14-.17-.13-1.27.16-2.52.38-3.75.65-1.23.26-2.46.54-3.67.87-1.22.31-2.41.67-3.61,1.02-1.19.37-2.38.76-3.55,1.21l-.05.02c-.21.08-.41.21-.57.4-1.11,1.26-2.16,2.57-3.23,3.87l-11.41-2.46-6.13-1.27-4.87-.98.14-.3.71-1.47,2.88-5.87c.86-1.83,1.75-3.65,2.57-5.49,2.15-1.35,4.27-2.75,6.39-4.16,2.24-1.52,4.47-3.05,6.67-4.64l-.06.03c2.07-1.26,4.12-2.55,6.14-3.92.05-.04.08-.11.06-.18-.03-.08-.11-.12-.19-.09-2.3.81-4.55,1.71-6.79,2.64l-.06.03c-2.41,1.23-4.79,2.53-7.16,3.83-2.35,1.33-4.71,2.65-7.02,4.05-.25.15-.46.37-.59.66l-.02.04c-.92,1.96-1.76,3.97-2.63,5.96l-2.52,6.01-.64,1.5-.32.74-.29.51c-.46.67-1.22,1.24-2.08,1.69-1.73.89-3.85,1.39-5.86,1.62h-.08c-.11.02-.22.06-.32.12-4.39,2.5-8.79,4.97-13.16,7.51l-10.03,5.8c.7-.9,1.35-1.84,1.95-2.83.6-.99,1.14-2.04,1.57-3.12l1.27-3.1c1.71-4.13,3.45-8.25,5.29-12.33.92-2.03,1.86-4.06,2.88-6.04.5-.99,1.03-1.98,1.6-2.92.27-.48.57-.94.89-1.37.15-.24.32-.43.49-.6l.26-.28.32-.3c1.68-1.62,2.91-3.5,4.17-5.37,1.22-1.88,2.38-3.8,3.48-5.76.04-.07.02-.16-.05-.2-.07-.04-.16-.02-.21.05-1.16,1.91-2.39,3.78-3.67,5.61-1.3,1.8-2.62,3.65-4.23,5.09-.2.16-.41.36-.63.58-.23.21-.43.44-.59.67-.36.46-.69.93-.99,1.41-.62.95-1.19,1.93-1.73,2.92-1.1,1.97-2.12,3.97-3.11,5.98-2,4.02-3.88,8.1-5.69,12.2l-1.36,3.08c-.43.99-.94,1.92-1.52,2.83-1.14,1.77-2.53,3.45-4.01,4.89l-15.2,7.65c-.28-3.23-.63-6.46-1.09-9.69-.15-.92-.3-1.84-.51-2.78-.04-.23-.11-.47-.17-.71-.05-.23-.13-.48-.24-.76-.11-.29-.19-.46-.28-.67l-.26-.62c-.67-1.69-1.3-3.42-1.85-5.15-.54-1.73-1.02-3.5-1.28-5.2-.12-.81-.22-1.73-.14-2.19-.07.05.25-.78.32-1.2.12-.5.2-.97.29-1.44.28-1.89.45-3.75.5-5.62.06-1.87.04-3.74-.16-5.64,0-.06-.04-.11-.1-.13-.08-.03-.17.01-.2.09-1.28,3.56-2.08,7.19-2.98,10.68-.11.42-.22.87-.34,1.26-.12.49-.21.5-.41,1.48-.17,1.39.1,2.32.32,3.31.53,1.91,1.22,3.67,1.93,5.41.71,1.74,1.49,3.44,2.33,5.13l.33.63c.11.21.25.45.3.59.08.15.15.33.22.55.07.2.14.4.21.62.27.85.48,1.75.7,2.63.8,3.16,1.46,6.38,2.13,9.59l-9.15,1.07-2.36.3c-.4.06-.79.11-1.22.18l-.16.03s-.23.06-.33.1c-.12.04-.26.1-.35.15l-.2.12c-.29.17-.44.3-.64.45-1.38,1.14-2.42,2.28-3.54,3.45-2.18,2.33-4.22,4.74-6.22,7.19-1.22,1.47-2.4,2.97-3.57,4.47l-.4-.71c-.24-1.3-.54-2.58-.94-3.87-.1-.3-.22-.59-.32-.89-.04-3.02-.02-6.05.07-9.07.04-1.56.11-3.12.2-4.68.05-.78.1-1.55.17-2.33.06-.79.18-1.48.16-2.43.01-1.79-.55-3.49-1.35-4.96-.82-1.46-1.83-2.76-2.9-3.97-2.17-2.39-4.63-4.43-6.94-6.51-.57-.52-1.14-1.05-1.63-1.6-.12-.14-.25-.27-.37-.41l-.04-.06c2.18-3.5,4.29-7.04,6.41-10.58,1.09-1.89,2.18-3.77,3.24-5.69.26-.48.53-.96.78-1.46.26-.48.53-1.09.72-1.54l1.31-2.99c.88-2,1.75-4.02,2.57-6.07.39-1.04.77-2.08,1.08-3.17.3-1.1.57-2.19.66-3.47.04-.29,0-.7-.01-1.04-.02-.33-.06-.53-.09-.8l-.14-1.58-.26-3.23c-.18-2.17-.38-4.34-.73-6.53,0-.06-.05-.11-.12-.13-.08-.02-.16.03-.18.11-.52,2.16-.85,4.33-1.09,6.52-.13,1.09-.2,2.19-.27,3.3-.03.55-.04,1.11-.04,1.68,0,.27.02.62,0,.83-.03.2,0,.35-.07.59-.12.89-.41,1.91-.68,2.91-.27,1.01-.58,2.03-.88,3.05-.59,2.06-1.28,4.11-2,6.15l-1.11,3.08c-.2.57-.34.96-.56,1.46-.21.48-.43.97-.66,1.46-.91,1.96-1.87,3.91-2.83,5.86l-5.33,10.94-.03-.04c-.21-.28-.4-.61-.58-.96-.76-1.33-1.44-2.75-2.12-4.16-1.34-2.83-2.62-5.71-3.87-8.59-2.49-5.77-4.9-11.59-7.25-17.42-.03-.08-.11-.11-.19-.09-.08.03-.12.11-.09.19,2.16,5.91,4.39,11.8,6.7,17.66,1.16,2.93,2.34,5.85,3.61,8.75.64,1.45,1.27,2.89,2.03,4.32.18.36.37.71.61,1.08l.34.54c.13.17.27.32.4.48.54.64,1.11,1.2,1.69,1.76,2.31,2.18,4.66,4.24,6.67,6.56.98,1.17,1.88,2.39,2.57,3.69.67,1.3,1.07,2.7,1.02,4.06.01.63-.14,1.5-.21,2.27-.08.79-.16,1.58-.23,2.37-.13,1.58-.24,3.16-.32,4.74-.07,1.43-.13,2.86-.18,4.3-.4-.65-.83-1.27-1.31-1.88-.42-.6-.94-1.13-1.46-1.65-.49-.55-1.09-1-1.67-1.46-.56-.49-1.21-.86-1.84-1.24-.64-.4-1.27-.71-1.89-1-2.51-1.2-5.09-2.16-7.66-3.04-2.57-.9-5.16-1.68-7.62-2.6-1.22-.46-2.43-.98-3.43-1.61-.5-.32-.93-.68-1.2-1.05-.13-.19-.22-.37-.27-.56-.01-.1-.05-.19-.04-.3v-.16s0-.27,0-.27c.08-1.45-.02-2.82-.16-4.19-.14-1.36-.31-2.71-.54-4.05-.45-2.68-.93-5.34-1.57-7.98-.02-.07-.09-.12-.16-.11-.08,0-.14.08-.14.17.24,2.69.49,5.38.64,8.06.12,2.66.29,5.41,0,7.92l-.03.23-.02.35c-.03.23,0,.47.03.71.07.47.25.92.48,1.3.47.77,1.08,1.3,1.68,1.76,1.22.9,2.51,1.48,3.77,2.06,2.54,1.11,5.08,2.02,7.58,2.98,2.5.97,4.95,1.99,7.29,3.15.59.29,1.17.6,1.66.93.52.32,1.05.61,1.51,1.02.47.38.97.74,1.37,1.21.43.44.87.86,1.24,1.37,2.01,2.5,3.38,5.6,4.22,8.83l.88,5.25c0,.18.02.36.1.54.91,2.04,1.8,4.14,2.59,6.23.39,1.05.78,2.1,1.1,3.15.16.53.3,1.05.41,1.56.03.23.1.51.1.71l.02.3-.05.42c-.26,2.25-.56,4.5-.79,6.77,0,.02,0,.05,0,.07-1.35-1.66-2.72-3.3-4.09-4.93-1.96-2.33-3.98-4.6-6.02-6.87-2.08-2.24-4.12-4.48-6.45-6.58-.59-.52-1.17-1.03-1.94-1.54l-.3-.19-.41-.19c-.27-.11-.38-.14-.57-.22l-1.06-.39c-1.28-.49-2.58-.97-3.85-1.48-2.38-2.96-4.84-5.83-7.42-8.63-2.7-2.82-5.4-5.74-8.71-8.11-3.17-2.3-6.27-4.53-9.03-7.15-1.71-1.62-3.31-3.37-4.63-5.28,1.45-1.98,2.72-4.08,3.9-6.23,1.31-2.38,2.51-4.8,3.61-7.3,1.08-2.51,1.98-5.14,2.45-7.9.5-2.76.43-5.6.28-8.3-.17-2.7-.24-5.37-.32-8.06-.09-2.68-.27-5.36-.55-8.03-.43-5.36-.74-10.73-1.69-16.1-.01-.06-.06-.11-.13-.12-.08-.01-.16.05-.17.13-.38,2.7-.6,5.4-.77,8.11-.14,2.7-.32,5.41-.24,8.11.18,5.4.88,10.8,1.47,16.16.3,2.66.5,5.25.18,7.83-.3,2.58-1,5.13-1.92,7.62-1.73,4.72-3.76,9.39-6.34,13.73-.7-1.05-1.33-2.15-1.84-3.31-.38-.85-.67-1.72-.92-2.6-.24-.91-.36-1.75-.54-2.79-.37-1.98-.93-3.87-1.53-5.74-1.2-3.74-2.65-7.37-4.17-10.96-3.05-7.18-6.37-14.22-9.87-21.18-.04-.07-.12-.1-.2-.07-.08.04-.11.12-.07.2,3.21,7.08,6.25,14.25,8.99,21.51,1.36,3.63,2.65,7.29,3.73,10.99.53,1.85,1.02,3.71,1.3,5.57.12.88.25,1.96.48,2.95.24.99.55,1.98.93,2.92,1.55,3.8,4.1,7.03,6.9,9.84,2.8,2.83,5.96,5.27,8.99,7.66.77.6,1.46,1.2,2.14,1.83.68.64,1.35,1.32,2.02,1.99,1.34,1.36,2.65,2.78,3.94,4.21,2.6,2.84,5.19,5.74,7.76,8.63l.06.07c.14.15.32.28.53.35,1.46.51,2.9,1,4.37,1.44l1.1.33c.16.05.42.12.5.15.03.02.07.03.11.04l.18.11c.52.31,1.11.76,1.68,1.22,2.26,1.89.7,2.78,2.87,4.88,2.19,2.09,3.81,5.26,5.97,7.38l5.76,14.86c-.04.37-1.04,8.74-1.08,9.1-1.97,9.14-1,9.87-1.28,14.79-.43,7.71-3.86,28.97-3.25,31.96.39,1.88-9.55,111.07-20.33,167.5,4.71,3.52,9.42,7.05,14.12,10.57,6.96-.06,13.91-.12,20.87-.19l1.4-177.78s2.32-31.48,2.55-33.39c.23-1.91,1.25-15.85,2.43-17.65.84-1.27,11.29-10.58,12.49-13.64.07-.05.15-.11.22-.16l.71-.6c.23-.19.5-.51.73-.78l.49-.59.56-.62c.75-.82,1.54-1.65,2.34-2.46l15.44-15.68c1.29.37,2.57.73,3.86,1.09,1.82.5,3.65.96,5.47,1.42.91.24,1.82.51,2.73.77.91.25,1.84.4,2.78.48,1.89.13,3.79.15,5.78-.32,0,0,.01,0,.02-.01.03,0,.05,0,.08,0,4.67-2.16,9.3-4.39,13.95-6.6l13.6-6.58,6.9-.06c2.38-.04,4.75-.16,7.12-.37,2.37-.21,4.74-.45,7.1-.77,3.99-.55,6.86-.23,7.08-1.21.03-.13,0-.24-.02-.3ZM142.54,152.45c-.44.48-.88.95-1.33,1.43.1-.15.21-.29.31-.44.38-.56.75-1.13,1.12-1.69.05.05.12.06.18.03l.88-.54c-.39.41-.78.81-1.16,1.22Z"/>
    <path class="cls-1" d="M119.73,131.02l.1-.02s-.04.02-.05.02c-.01,0-.12.01-.05,0Z"/>
  </g>
</svg>