<?xml version="1.0" encoding="UTF-8"?>
<svg id="Layer_2" data-name="Layer 2" xmlns="http://www.w3.org/2000/svg" xmlns:xlink="http://www.w3.org/1999/xlink" viewBox="0 0 388.33 582.72">
  <defs>
    <style>
      .cls-1 {
        fill: url(#linear-gradient);
      }

      .cls-2 {
        fill: #59a96b;
      }

      .cls-3 {
        fill: #6fc280;
      }

      .cls-4 {
        fill: #49935e;
      }

      .cls-5 {
        fill: #1d8045;
      }

      .cls-6 {
        fill: #f3f3f3;
      }

      .cls-7 {
        fill: #1d5c41;
      }
    </style>
    <linearGradient id="linear-gradient" x1="171.69" y1="279.82" x2="218.8" y2="569.95" gradientUnits="userSpaceOnUse">
      <stop offset="0" stop-color="#4cae65"/>
      <stop offset="1" stop-color="#498c63"/>
    </linearGradient>
  </defs>
  <g id="Layer_1-2" data-name="Layer 1">
    <g id="Generative_Object" data-name="Generative Object">
      <g>
        <path class="cls-2" d="M388.03,422.52c-2.69.41-1.75-2.5-1.8-4.22-.22-8.11.16-16.25,0-24.36l-14.81,1.41-2.24-17.8c.19-119.9.23-239.85-.45-359.75l-157.98.94c-2.57-1.18-.5-6.55-1.8-7.49-1.14-.83-26.69-.84-27.83,0-1.22.9.32,5.66-.9,6.56H21.35c.95,174.49-2.81,349.23-.45,523.7-6.09.22.76,16.51-2.24,18.74-.72.53-15.05.14-17.5,1.87-2.63-82.26.08-167.53,0-250.14l17.06.47c-1.46-34.37,1.55-68.83,1.8-103.05,0-.21-1.8-3.54-1.8-3.75.37-60.15.71-120.38,0-180.81l-17.06,1.41C1.22,22.32.18,1.07,2.5,0h384.19c2.28,140.77,1.6,281.71,1.35,422.52Z"/>
        <path class="cls-5" d="M388.03,424.39c-.1,52.74,1.19,105.64-1.35,158.33H2.5c-1.55-6.78-1.13-13.75-1.35-20.61,2.46-1.73,16.79-1.34,17.5-1.87,3-2.23-3.84-18.52,2.24-18.74.1,7.02-.72,15.79,0,22.48.02.14-2.06,1.28.45,2.81h156.19c1.11.69-.91,4.08,3.14,5.62.24.09.6-.07.9,0-.39,2.81,2.4,1.82,4.04,1.87,7.98.24,30.27,3.56,27.83-7.49l155.74-1.87c.08-43.08-.11-86.21,0-129.28,3.04-.59,1.08,3.14,2.24,3.75.64.33,13.78.43,14.36,0,1.96-1.45-1.88-13.46,2.24-14.99Z"/>
        <path class="cls-3" d="M1.15,311.97C1.06,216.84-.41,121.33,1.15,26.23l17.06-1.41c.71,60.43.37,120.66,0,180.81,0,.21,1.8,3.54,1.8,3.75-.25,34.22-3.25,68.68-1.8,103.05l-17.06-.47Z"/>
        <path class="cls-4" d="M388.03,422.52c0,.62,0,1.26,0,1.87-4.12,1.53-.28,13.54-2.24,14.99-.59.43-13.72.33-14.36,0-1.17-.61.8-4.34-2.24-3.75.05-19.35-.03-38.74,0-58.08l2.24,17.8,14.81-1.41c.16,8.11-.22,16.25,0,24.36.05,1.71-.9,4.63,1.8,4.22Z"/>
        <path class="cls-7" d="M180.68,572.41c-4.05-1.54-2.03-4.93-3.14-5.62H21.35c-2.51-1.53-.43-2.67-.45-2.81l158.43.94,1.35,7.49Z"/>
        <g>
          <path class="cls-6" d="M369.18,377.55c-.03,19.35.05,38.74,0,58.08-.11,43.08.08,86.21,0,129.28h-158.43c-2.57,1.18-.5,6.55-1.8,7.49-1.12.82-25.41.44-27.38,0-.3-.07-.65.09-.9,0l-1.35-7.49-158.43-.94c-.72-6.7.1-15.46,0-22.48-2.36-174.47,1.4-349.21.45-523.7h158.88c1.22-.9-.32-5.66.9-6.56,1.14-.84,26.69-.83,27.83,0,1.3.95-.78,6.31,1.8,7.49l157.98-.94c.68,119.9.64,239.85.45,359.75Z"/>
          <g>
            <path class="cls-7" d="M369.18,564.92l-155.74,1.87c2.44,11.06-19.85,7.74-27.83,7.49-1.64-.05-4.43.94-4.04-1.87,1.97.44,26.26.82,27.38,0,1.3-.95-.78-6.31,1.8-7.49h158.43Z"/>
            <path class="cls-1" d="M346.74,561.17c.39-2.82-2.4-1.82-4.04-1.87-4.82-.17-16.85-1.75-19.3,1.87-3.13-.09-17.82,1.01-18.85-1.41l-.45-74.48h-54.76c-2.99-72.28-106.08-72.82-108.17-.47l-56.55,1.87-.45,74.48c-8.85-2.06-38.56,2.73-44.88,0-1-.43-7.65-16.3-14.81-15.46v-251.07l114.45-1.41c7.9,72.36,104.99,74.54,112.2,0h113.1l1.35,252.48c-5.43,2.14-8.68,5.06-12.57,9.37-3.47,3.84,1.66,4.98-6.28,6.09Z"/>
            <path class="cls-2" d="M248.9,100.24c14.08-4.42,41.87,2.74,54.31-.94.69-.2,1.18-1.71,1.35-1.87,3.84-3.89,1.4-13.24,2.24-19.67l57,57.62c1.96-1.78.97-47.66.9-54.34-.01-1.14-1.78,1.14-1.8,0-.11-9.5,4.01-34.41,1.8-41.22-.11-.33-3.22-3.41-4.49-5.15l5.39,2.34-.45,252.48h-114.9c-7.84-73.77-102.42-73.98-111.31,0l-114.45-.47V37.01c8.24-2.1,12.43-7.61,15.71-15.46h43.98l.45,74.48,56.1,1.41c.47,64.6,90.38,76.04,107.27,13.58.65-2.42.25-8.59.9-10.77Z"/>
            <path class="cls-2" d="M90.47,21.55c8.73-3.46,39.82,2.89,51.17,0l2.69,31.85,102.33-.94.9-29.98,52.06-.94,1.35,70.73-211.39,1.41c-1.76-8.23-2.5-70.79.9-72.14Z"/>
            <path class="cls-4" d="M300.96,537.75c-5.18,3.3-2.1,13.38-1.8,19.21l-2.24,2.34-41.74,1.87c-1.56-.11-7.43.49-8.08-.47l-1.35-30.45h-101.43l-2.69,30.92h-52.06v-71.2h210.94c.59,15.87.76,31.9.45,47.78Z"/>
            <path class="cls-2" d="M360.21,34.66c1.27,1.74,4.38,4.82,4.49,5.15,2.22,6.81-1.9,31.72-1.8,41.22.01,1.14,1.78-1.14,1.8,0,.07,6.68,1.07,52.55-.9,54.34l-57-57.62c-.85,6.43,1.59,15.78-2.24,19.67V22.95l44.43-1.41c2.36,5.1,8.36,9.2,11.22,13.12Z"/>
            <path class="cls-2" d="M144.33,293.23h100.54c3.46,31.58-27.63,54.97-56.55,51.53-20.84-2.48-47.15-27.94-43.98-51.53Z"/>
            <path class="cls-2" d="M186.51,237.96c29.94-4.08,57.19,19.2,59.69,50.12l-101.88,1.41c-1.78-22.81,20.64-48.59,42.19-51.53Z"/>
            <polygon class="cls-2" points="147.02 22.48 243.07 22.48 243.51 48.25 147.92 49.65 147.02 22.48"/>
            <polygon class="cls-5" points="147.02 534.94 242.17 534.94 243.51 559.77 147.02 561.17 147.02 534.94"/>
            <path class="cls-2" d="M146.12,105.86c29.72,25.95,66.72,26.12,96.94.94,3.11,10.71-11.19,28.05-19.75,33.73-28.36,18.8-74.75,3.11-77.2-34.66Z"/>
            <path class="cls-2" d="M188.31,434.7c26.78-2.81,50.83,13.87,56.1,41.69-11.13-5.06-20.58-14.35-32.76-17.33-25.66-6.28-45.05,2.86-65.53,17.8.46-21.76,22.64-40.11,42.19-42.16Z"/>
            <path class="cls-3" d="M146.12,97.43h97.84c5.45,2.48-14.15,14.46-17.06,15.93-25.02,12.66-61.36,10.56-80.79-12.18-1.52-1.78-2.15-1.87,0-3.75Z"/>
            <path class="cls-4" d="M191,460.93c19.67-1.08,40.58,9.78,54.31,23.89l-100.09.47c-3.28-1.95,12.99-12.3,14.36-13.12,8.13-4.83,22.1-10.73,31.42-11.24Z"/>
            <path class="cls-5" d="M300.96,537.75c-.07,3.65.97,22.35-1.35,23.42-14.59-.77-29.96,1.03-44.43,0l41.74-1.87,2.24-2.34c-.3-5.83-3.39-15.91,1.8-19.21Z"/>
            <path class="cls-2" d="M304.55,97.43c-.17.17-.66,1.67-1.35,1.87-12.43,3.67-40.23-3.48-54.31.94.3-1.02-.1-1.97,1.35-2.81h54.31Z"/>
            <path class="cls-2" d="M184.72,14.99c.96-.57,21.94-1,21.09,2.34-1.31,3.11-27.92,1.71-21.09-2.34Z"/>
            <path class="cls-2" d="M355.27,21.55c9.6,1.41,12-1.93,9.87,11.24-1.28,1.04-11.53-7.58-9.87-11.24Z"/>
            <path class="cls-7" d="M184.72,564.92c.79-.54,17.96-.31,18.85,0,10.89,3.83-28.31,6.5-18.85,0Z"/>
            <path class="cls-2" d="M31.22,21.55c.21.02,2.88,1.46,4.04,1.41-.58,2.67-7.6,11.24-10.32,8.9-2.52-2.17-1.31-11.03,6.28-10.31Z"/>
            <path class="cls-5" d="M363.35,550.87c4.57.07,3.76,14.94-7.18,10.31-2.61-2.77,6.5-10.32,7.18-10.31Z"/>
            <path class="cls-5" d="M25.84,550.87c8.6,3.87,12,14.66-1.35,8.9l1.35-8.9Z"/>
            <path class="cls-5" d="M346.74,561.17c-6.12.86-16.78.19-23.34,0,2.45-3.63,14.48-2.04,19.3-1.87,1.64.06,4.43-.95,4.04,1.87Z"/>
          </g>
        </g>
      </g>
    </g>
  </g>
</svg>