<?xml version="1.0" encoding="UTF-8"?>
<svg id="Layer_2" data-name="Layer 2" xmlns="http://www.w3.org/2000/svg" viewBox="0 0 730.89 421.96">
  <defs>
    <style>
      .cls-1 {
        fill: #737373;
      }

      .cls-2 {
        fill: #59a96b;
      }
    </style>
  </defs>
  <g id="Layer_1-2" data-name="Layer 1">
    <g id="Trees_2" data-name="Trees 2">
      <g>
        <g>
          <path class="cls-2" d="M579.08,79.28s-.45-5.54,2.54-3.33c2.98,2.21,4.67,5.92,4.67,5.92l-1.01,4.39,4.05,4.05.34,3.71-3.04,5.4-4.05-1.69c-2.7-3.04-3.37-5.06-3.37-5.06,0,0-1.35,6.07-2.7,6.07s-4.05.34-4.05.34h-3.37l-2.48-4.93-.96-1.63c-1.61-3.56-3-7.61-3-7.61l4.43-3.38,2.02-3.37,2.84-2.82c2.55-1.57,5,.34,7.15,3.94Z"/>
          <path class="cls-2" d="M493.49,32.05s-.45-5.54,2.54-3.33c2.98,2.21,4.67,5.92,4.67,5.92l-1.01,4.39,4.05,4.05.34,3.71-3.04,5.4-4.05-1.69c-2.7-3.04-3.37-5.06-3.37-5.06,0,0-1.35,6.07-2.7,6.07s-4.05.34-4.05.34h-3.37l-2.48-4.93-.96-1.63c-1.61-3.56-3-7.61-3-7.61l4.43-3.38,2.02-3.37,2.85-2.82c2.55-1.57,5,.34,7.15,3.94Z"/>
          <path class="cls-2" d="M554.46,53.31s-.45-5.54,2.54-3.33c2.98,2.21,4.67,5.92,4.67,5.92l-1.01,4.39,4.05,4.05.34,3.71-3.04,5.4-4.05-1.69c-2.7-3.04-3.37-5.06-3.37-5.06,0,0-1.35,6.07-2.7,6.07s-4.05.34-4.05.34h-3.37l-2.48-4.93-.96-1.63c-1.61-3.56-3-7.61-3-7.61l4.43-3.38,2.02-3.37,2.84-2.82c2.55-1.57,5,.34,7.15,3.94Z"/>
          <path class="cls-2" d="M595.88,34.31s6.66-6.67,8.44-1.33l1.78,5.33,8.89,3.55.44,5.78-5.78.44s2.22,5.33,2.22,7.11-.89,3.11-2.67,3.55c-1.78.44-6.22-3.55-6.22-3.55l-1.33,8s-6.66,5.33-7.11,1.78c-.44-3.56-4-5.78-4-5.78,0,0-3.11,2.22-4-.44-.89-2.67-.44,1.78-.89-2.67-.44-4.44-2.22-7.11-2.22-7.11l1.78-5.33s1.33,0,2.22-4.44,2.67-10.22,8.45-4.89Z"/>
          <path class="cls-2" d="M540.21,26.56s6.66-6.67,8.44-1.33l1.78,5.33,8.89,3.55.44,5.78-5.78.44s2.22,5.33,2.22,7.11-.89,3.11-2.67,3.55c-1.78.44-6.22-3.55-6.22-3.55l-1.33,8s-6.66,5.33-7.11,1.78c-.44-3.55-4-5.78-4-5.78,0,0-3.11,2.22-4-.44-.89-2.67-.44,1.78-.89-2.67-.44-4.44-2.22-7.11-2.22-7.11l1.78-5.33s1.33,0,2.22-4.44c.89-4.44,2.67-10.22,8.44-4.89Z"/>
          <path class="cls-2" d="M568.21,47.47s6.66-6.67,8.44-1.33l1.78,5.33,8.89,3.55.44,5.78-5.78.44s2.22,5.33,2.22,7.11-.89,3.11-2.67,3.56c-1.78.44-6.22-3.56-6.22-3.56l-1.33,8s-6.66,5.33-7.11,1.78c-.44-3.56-4-5.78-4-5.78,0,0-3.11,2.22-4-.44-.89-2.67-.44,1.78-.89-2.67-.44-4.44-2.22-7.11-2.22-7.11l1.78-5.33s1.33,0,2.22-4.44c.89-4.44,2.67-10.22,8.44-4.89Z"/>
          <path class="cls-2" d="M530.27,76.79s6.66-6.67,8.44-1.33l1.78,5.33,8.89,3.55.44,5.78-5.78.44s2.22,5.33,2.22,7.11-.89,3.11-2.67,3.55c-1.78.44-6.22-3.55-6.22-3.55l-1.33,8s-6.66,5.33-7.11,1.78c-.44-3.55-4-5.78-4-5.78,0,0-3.11,2.22-4-.44-.89-2.67-.44,1.78-.89-2.67-.44-4.44-2.22-7.11-2.22-7.11l1.78-5.33s1.33,0,2.22-4.44c.89-4.44,2.67-10.22,8.44-4.89Z"/>
          <path class="cls-2" d="M527.79,3.4s6.66-6.67,8.44-1.33l1.78,5.33,8.89,3.55.44,5.78-5.78.44s2.22,5.33,2.22,7.11-.89,3.11-2.67,3.55c-1.78.44-6.22-3.55-6.22-3.55l-1.33,8s-6.66,5.33-7.11,1.78c-.44-3.56-4-5.78-4-5.78,0,0-3.11,2.22-4-.44-.89-2.67-.44,1.78-.89-2.67s-2.22-7.11-2.22-7.11l1.78-5.33s1.33,0,2.22-4.44c.89-4.44,2.67-10.22,8.44-4.89Z"/>
          <path class="cls-2" d="M484.41,56.8s6.67-6.67,8.44-1.33l1.78,5.33,8.89,3.55.44,5.78-5.78.44s2.22,5.33,2.22,7.11-.89,3.11-2.67,3.55c-1.78.44-6.22-3.55-6.22-3.55l-1.33,8s-6.67,5.33-7.11,1.78c-.44-3.55-4-5.78-4-5.78,0,0-3.11,2.22-4-.44s-.44,1.78-.89-2.67c-.44-4.44-2.22-7.11-2.22-7.11l1.78-5.33s1.33,0,2.22-4.44c.89-4.44,2.67-10.22,8.44-4.89Z"/>
          <path class="cls-2" d="M502.07,41.35s6.66-6.67,8.44-1.33l1.78,5.33,8.89,3.56.44,5.78-5.78.44s2.22,5.33,2.22,7.11-.89,3.11-2.67,3.55c-1.78.44-6.22-3.55-6.22-3.55l-1.33,8s-6.67,5.33-7.11,1.78c-.44-3.55-4-5.78-4-5.78,0,0-3.11,2.22-4-.44-.89-2.67-.44,1.78-.89-2.67s-2.22-7.11-2.22-7.11l1.78-5.33s1.33,0,2.22-4.44c.89-4.44,2.67-10.22,8.45-4.89Z"/>
          <path class="cls-2" d="M510.63,103.32s1.19,9.35-4.11,7.49l-5.3-1.86-8.25,4.85-4.84-3.18,3.18-4.84s-5.58-1.51-6.98-2.59c-1.41-1.09-1.92-2.61-1.18-4.28s6.62-2.74,6.62-2.74l-5.51-5.95s-.14-8.53,2.95-6.71,7.02.37,7.02.37c0,0,.15-3.82,2.8-2.89,2.65.93-1.13-1.44,2.65.93s6.98,2.59,6.98,2.59l3.13,4.67s-.82,1.05,2.15,4.48c2.97,3.42,6.45,8.36-1.3,9.67Z"/>
          <path class="cls-2" d="M471.8,90.69s.93,7.27-3.2,5.83l-4.13-1.45-6.42,3.77-3.77-2.48,2.48-3.76s-4.34-1.17-5.43-2.02-1.49-2.03-.92-3.33c.57-1.31,5.15-2.13,5.15-2.13l-4.29-4.63s-.11-6.64,2.29-5.22c2.4,1.42,5.46.29,5.46.29,0,0,.11-2.97,2.18-2.25,2.06.72-.88-1.12,2.06.72,2.95,1.84,5.43,2.02,5.43,2.02l2.43,3.63s-.63.82,1.68,3.48c2.31,2.66,5.02,6.51-1.01,7.52Z"/>
          <path class="cls-2" d="M530.16,38.06s.93,7.27-3.2,5.83l-4.13-1.44-6.42,3.77-3.77-2.48,2.48-3.76s-4.34-1.17-5.43-2.02-1.49-2.03-.92-3.33c.57-1.31,5.15-2.13,5.15-2.13l-4.28-4.63s-.11-6.64,2.29-5.22c2.4,1.42,5.46.29,5.46.29,0,0,.11-2.97,2.18-2.25,2.06.72-.88-1.12,2.06.72,2.95,1.84,5.43,2.02,5.43,2.02l2.43,3.63s-.64.82,1.68,3.48c2.31,2.66,5.02,6.5-1.01,7.52Z"/>
          <path class="cls-2" d="M534.35,72.33s.93,7.27-3.2,5.83l-4.13-1.44-6.42,3.77-3.76-2.48,2.48-3.76s-4.34-1.17-5.43-2.02-1.49-2.03-.92-3.33c.57-1.31,5.15-2.13,5.15-2.13l-4.28-4.63s-.11-6.64,2.29-5.22c2.4,1.42,5.46.29,5.46.29,0,0,.11-2.97,2.18-2.25,2.06.72-.88-1.12,2.06.72,2.94,1.84,5.43,2.02,5.43,2.02l2.43,3.63s-.64.82,1.68,3.48,5.02,6.5-1.01,7.52Z"/>
          <path class="cls-2" d="M569.66,20.99s11.11,2.22,11.11,4,3.11,9.33,3.11,9.33l-.44,4.44-3.11,8-5.86,5.75-3.47-2.19v-7.11l-1.78-5.33-5.78-1.78-4-4s0-4.44,1.78-6.67c1.78-2.22,8.44-4.44,8.44-4.44Z"/>
          <path class="cls-2" d="M462.38,38.53s11.11,2.22,11.11,4,3.11,9.33,3.11,9.33l-.44,4.44-3.11,8-5.86,5.75-3.46-2.19v-7.11l-1.78-5.33-5.78-1.78-4-4s0-4.44,1.78-6.67c1.78-2.22,8.44-4.44,8.44-4.44Z"/>
        </g>
        <path class="cls-1" d="M454.58,84.56c1.65-.01,3.29.08,4.92.21,1.63.12,3.25.3,4.87.5,1.62.2,3.23.46,4.83.78l4.79.99h.06c.1.03.19.07.28.14l8.55,6.24c2.82,2.1,5.65,4.17,8.45,6.29,1.25-.62,2.51-.91,3.78-1.13.64-.1,1.28-.15,1.93-.13.65.03,1.3.06,1.94.08,1.29.02,2.58.03,3.88.07.78.03,1.57.06,2.35.09l-1.82-2.35-6.27-6.77c-2.08-1.18-4.17-2.34-6.23-3.54l-6.29-3.73-3.13-1.9c-.54-.36-.99-.54-1.57-.75-.56-.2-1.14-.37-1.72-.54-2.34-.65-4.71-1.24-7.09-1.81,2.43.25,4.86.56,7.28,1.02.61.12,1.21.24,1.82.39.31.08.61.16.93.28.34.12.59.27.86.4l3.26,1.68,12.97,6.85c.08.04.17.11.24.18h.01s6.46,6.88,6.46,6.88c.02.02.04.05.06.07,1.48,1.95,2.96,3.9,4.43,5.86l1.09.9c-.41-.83-.81-1.66-1.18-2.51-.6-1.36-1.1-2.77-1.58-4.18l-1.51-4.21-.99-2.05c-.34-.71-.69-1.42-1.02-2.14-.66-1.44-1.34-2.86-1.98-4.31-.02-.04,0-.1.04-.13.05-.03.11-.02.14.03.89,1.31,1.74,2.64,2.62,3.96.44.66.85,1.33,1.28,2l1.27,2v.02s.04.06.04.06l1.86,4.07c.64,1.35,1.27,2.7,1.79,4.09.53,1.39.99,2.81,1.42,4.24.38,1.31.73,2.63.99,4,.83,1.15,1.66,2.32,2.47,3.5.45.65.89,1.3,1.33,1.98l.33.51.32.57c.09.12.12.23.24.37l.34.42c.17.2.36.39.54.58l7.32,4.44,1.98-2.64,1.65-5.62,1.65-3.64,4.07-5.62-2.59-3.9c-1.2-1.78-2.39-3.57-3.61-5.32-.61-.85-1.25-1.75-1.88-2.44-.07-.07-.16-.16-.19-.19l-.02-.02h-.01c-.22-.08-.49-.16-.74-.24l-1.54-.45c-2.07-.59-4.15-1.15-6.23-1.71h-.03c-.09-.03-.17-.07-.25-.12l-10.01-7.03-.03-.02s-.08-.07-.11-.11c-.32-.41-.61-.83-.89-1.26l-7.32-4.82c-2.86-1.88-5.69-3.79-8.53-5.68-1.51-.3-2.93-.74-4.31-1.57-.7-.43-1.38-.99-1.87-1.8-.11-.2-.21-.43-.31-.64v-.03s-3.42.65-3.42.65l-4.22.78-8.45,1.49c-.29.05-.6-.06-.8-.31l-.05-.06c-.75-.96-1.53-1.91-2.27-2.89-.7-.34-1.38-.7-2.06-1.08-.74-.43-1.49-.85-2.22-1.31-.73-.44-1.46-.92-2.17-1.41-.71-.49-1.42-1-2.09-1.55-.03-.03-.05-.07-.04-.11.01-.06.07-.09.13-.08.85.21,1.68.46,2.5.74.82.28,1.63.57,2.43.89.8.31,1.59.65,2.38.99.78.35,1.56.71,2.32,1.11l.03.02c.14.07.26.18.36.32.66.95,1.26,1.93,1.89,2.9l7.97-.75,4.28-.37,3.39-.27-.08-.21-.37-1.06-1.49-4.23c-.44-1.32-.9-2.62-1.31-3.95-1.36-1.09-2.69-2.22-4.02-3.35-1.4-1.22-2.8-2.44-4.16-3.7l.04.03c-1.31-1.02-2.6-2.07-3.86-3.17-.04-.03-.05-.08-.02-.12.02-.05.09-.07.14-.05,1.5.74,2.96,1.53,4.41,2.35l.04.03c1.54,1.04,3.06,2.11,4.57,3.19,1.49,1.1,2.99,2.19,4.45,3.33.16.12.28.29.35.49v.03c.48,1.41.88,2.85,1.32,4.27l1.23,4.3.31,1.07.16.53.15.37c.26.49.73.94,1.28,1.32,1.11.75,2.51,1.26,3.86,1.58h.06c.07.03.15.06.21.11,2.79,2.06,5.58,4.1,8.35,6.18l6.36,4.76c-.4-.67-.77-1.36-1.1-2.09-.33-.72-.61-1.49-.82-2.25l-.61-2.22c-.83-2.95-1.68-5.9-2.6-8.82-.46-1.46-.94-2.92-1.47-4.35-.26-.72-.54-1.43-.85-2.12-.15-.35-.31-.69-.5-1.01-.08-.17-.18-.32-.29-.45l-.15-.21-.2-.23c-1.01-1.24-1.7-2.62-2.4-3.99-.68-1.38-1.32-2.79-1.9-4.21-.02-.05,0-.11.05-.13.05-.02.11,0,.14.05.64,1.39,1.32,2.77,2.04,4.12.74,1.33,1.49,2.7,2.47,3.81.12.12.25.28.38.45.14.16.26.33.35.5.21.34.4.69.56,1.04.35.7.65,1.41.94,2.13.59,1.43,1.12,2.88,1.64,4.33,1.03,2.9,1.98,5.83,2.89,8.77l.67,2.21c.21.71.48,1.39.81,2.05.63,1.29,1.44,2.55,2.33,3.66l9.73,6.44c.45-2.18.95-4.35,1.52-6.51.18-.62.35-1.23.57-1.85.05-.15.11-.31.18-.47.05-.15.13-.32.22-.5.1-.19.16-.3.24-.43l.23-.4c.6-1.1,1.16-2.22,1.68-3.36.51-1.14.98-2.3,1.29-3.44.15-.54.29-1.16.27-1.48.04.04-.1-.55-.12-.84-.04-.35-.06-.67-.08-1.01-.03-1.31,0-2.59.11-3.87.11-1.28.27-2.55.57-3.82,0-.04.04-.07.08-.08.06-.01.11.02.13.08.58,2.53.84,5.07,1.16,7.52.04.3.08.61.13.89.04.35.1.36.16,1.04,0,.96-.26,1.57-.48,2.23-.52,1.26-1.12,2.4-1.75,3.53-.63,1.13-1.29,2.22-2,3.31l-.27.41c-.09.13-.21.29-.25.38-.07.1-.13.21-.2.36-.07.13-.13.26-.19.41-.25.56-.47,1.15-.69,1.74-.8,2.09-1.51,4.23-2.23,6.36l6.14,1.47,1.58.4c.27.07.53.14.82.22l.11.03s.15.06.22.09c.08.04.17.09.23.13l.12.1c.18.14.28.24.4.36.84.89,1.47,1.75,2.13,2.64,1.29,1.76,2.49,3.57,3.65,5.4.71,1.1,1.39,2.22,2.07,3.34l.33-.46c.27-.87.58-1.71.95-2.56.09-.2.2-.39.29-.58.27-2.05.5-4.12.69-6.18.1-1.07.18-2.14.24-3.21.03-.53.06-1.07.08-1.6.03-.54,0-1.02.09-1.67.14-1.22.66-2.34,1.32-3.27.68-.93,1.47-1.73,2.3-2.47,1.67-1.45,3.51-2.64,5.25-3.87.43-.31.86-.62,1.24-.95.09-.08.19-.16.28-.25l.03-.04c-1.2-2.56-2.35-5.14-3.51-7.72-.59-1.37-1.18-2.75-1.75-4.14-.14-.35-.28-.7-.42-1.06-.14-.35-.27-.79-.36-1.11l-.65-2.14c-.44-1.44-.87-2.88-1.26-4.35-.18-.74-.36-1.48-.48-2.25-.12-.77-.21-1.54-.17-2.42,0-.2.06-.47.09-.71.04-.22.08-.35.12-.54l.22-1.07.44-2.18c.3-1.46.61-2.93,1.02-4.39.01-.04.04-.07.09-.08.06,0,.11.04.12.09.18,1.51.22,3.02.21,4.53,0,.75-.04,1.51-.08,2.27-.02.38-.07.76-.11,1.15-.02.18-.06.42-.07.57,0,.14-.02.24,0,.41,0,.61.12,1.33.23,2.04.1.71.23,1.43.35,2.15.23,1.45.54,2.9.86,4.35l.5,2.18c.09.4.15.68.26,1.04.1.35.22.7.33,1.05.46,1.41.95,2.82,1.45,4.22l2.74,7.88.02-.02c.16-.18.32-.38.48-.6.63-.84,1.21-1.76,1.78-2.66,1.14-1.82,2.24-3.67,3.33-5.54,2.16-3.73,4.28-7.49,6.35-11.28.03-.05.09-.07.14-.04.05.03.07.09.04.14-1.95,3.85-3.95,7.68-5.99,11.49-1.03,1.9-2.07,3.79-3.16,5.66-.55.93-1.1,1.87-1.73,2.78-.15.23-.31.46-.51.68l-.28.34c-.1.1-.21.2-.31.3-.42.39-.85.73-1.29,1.06-1.75,1.3-3.52,2.51-5.07,3.93-.77.71-1.47,1.48-2.05,2.31-.57.83-.95,1.75-1.03,2.68-.06.43-.03,1.03-.04,1.56,0,.55-.02,1.09-.04,1.64-.04,1.09-.09,2.17-.17,3.26-.07.98-.14,1.96-.23,2.94.33-.41.67-.8,1.04-1.18.34-.37.73-.69,1.13-1,.38-.33.82-.59,1.25-.86.42-.29.89-.49,1.35-.69.47-.22.92-.38,1.37-.53,1.8-.62,3.64-1.06,5.47-1.45,1.82-.4,3.65-.73,5.4-1.15.87-.22,1.73-.47,2.47-.82.36-.18.69-.39.9-.62.1-.12.18-.23.23-.36.02-.07.05-.13.05-.2l.02-.11v-.19c.07-1,.26-1.92.46-2.84.21-.92.43-1.82.69-2.72.52-1.79,1.07-3.56,1.72-5.31.02-.05.07-.08.12-.07.06.01.09.07.08.12-.38,1.81-.77,3.62-1.09,5.44-.3,1.81-.64,3.66-.64,5.39v.16s-.01.24-.01.24c0,.16-.04.32-.08.48-.09.32-.25.61-.43.85-.38.48-.84.8-1.29,1.06-.91.52-1.83.81-2.73,1.1-1.82.55-3.62.96-5.41,1.41-1.78.46-3.53.95-5.22,1.55-.43.15-.85.31-1.21.5-.38.17-.77.33-1.11.57-.35.22-.72.43-1.03.71-.33.26-.66.52-.95.83-1.57,1.54-2.76,3.54-3.59,5.67l-1.03,3.51c-.01.12-.05.25-.11.36-.78,1.32-1.56,2.67-2.27,4.03-.35.68-.7,1.37-1,2.06-.15.35-.29.69-.41,1.03-.04.16-.11.34-.13.48l-.03.21v.29c0,1.55.02,3.11-.01,4.67,0,.02,0,.03,0,.05,1.05-1.02,2.12-2.02,3.19-3.03,1.52-1.43,3.08-2.81,4.66-4.19,1.59-1.36,3.17-2.72,4.92-3.96.45-.31.88-.61,1.45-.89l.22-.1.29-.1c.19-.05.27-.07.41-.1l.75-.18c.91-.23,1.84-.45,2.74-.7,1.86-1.82,3.77-3.58,5.75-5.27,2.07-1.7,4.14-3.47,6.59-4.82,2.35-1.31,4.63-2.58,6.73-4.14,1.3-.96,2.53-2.03,3.58-3.22-.83-1.47-1.52-3-2.15-4.56-.7-1.72-1.32-3.47-1.87-5.26-.53-1.79-.93-3.66-1.03-5.58-.12-1.92.16-3.85.48-5.68.33-1.83.6-3.63.87-5.46.28-1.82.62-3.63,1.02-5.42.73-3.61,1.38-7.25,2.46-10.82.01-.04.05-.07.1-.07.06,0,.1.04.11.1.04,1.87-.03,3.73-.14,5.58-.12,1.85-.22,3.71-.49,5.54-.56,3.67-1.47,7.28-2.31,10.88-.42,1.79-.77,3.53-.76,5.32,0,1.78.27,3.57.69,5.35.79,3.35,1.8,6.7,3.2,9.86.57-.66,1.08-1.36,1.52-2.1.33-.54.6-1.12.84-1.7.23-.6.39-1.17.59-1.86.41-1.32.95-2.56,1.51-3.79,1.12-2.45,2.4-4.8,3.73-7.13,2.66-4.64,5.49-9.17,8.44-13.62.03-.04.09-.06.14-.03.05.03.06.09.03.14-2.76,4.56-5.41,9.19-7.87,13.92-1.22,2.36-2.4,4.75-3.43,7.18-.51,1.21-.99,2.45-1.34,3.69-.16.59-.33,1.32-.57,1.97-.25.66-.53,1.3-.87,1.91-1.36,2.46-3.36,4.45-5.5,6.14-2.14,1.7-4.49,3.1-6.74,4.48-.57.35-1.09.7-1.6,1.07-.52.38-1.03.79-1.54,1.19-1.02.82-2.03,1.68-3.02,2.55-2,1.73-4,3.49-5.98,5.24l-.05.04c-.11.09-.24.16-.39.2-1.04.23-2.06.44-3.09.63l-.78.13c-.11.02-.29.04-.35.06-.03,0-.05.01-.08.02l-.14.06c-.38.17-.82.43-1.24.7-1.69,1.1-.7,1.84-2.35,3.09-1.66,1.25-3.02,3.27-4.67,4.54l-5.13,9.65c0,.25,0,6.03,0,6.29.6,6.39-.12,6.8-.33,10.18-.33,5.29.28,20.04-.38,22.02-.66,1.98,8.94,260.14,8.94,260.14h-27.11l7.22-261.37s.97-21.63.97-22.95.43-10.89-.23-12.21c-.47-.93-6.83-8.12-7.4-10.3-.04-.04-.09-.08-.14-.13l-.43-.46c-.14-.15-.3-.39-.44-.59l-.28-.44-.33-.47c-.45-.62-.92-1.25-1.39-1.87l-9.24-11.93c-.91.15-1.81.29-2.72.43-1.28.2-2.56.36-3.84.53-.64.09-1.28.2-1.92.3-.64.1-1.28.13-1.93.1-1.3-.06-2.59-.21-3.91-.69,0,0,0,0-.01,0-.02,0-.04,0-.05,0-3.01-1.85-5.98-3.74-8.97-5.62l-8.73-5.59-4.7-.6c-1.62-.22-3.22-.5-4.82-.83-1.6-.34-3.19-.69-4.77-1.1-1.58-.41-3.16-.85-4.72-1.4-.04-.01-.07-.05-.07-.1,0-.06.05-.11.1-.11ZM527.72,89.74l-.07-.02s.02.01.03.02c0,0,.08.02.03,0ZM511.45,103.66c-.06-.11-.12-.21-.17-.32-.21-.41-.42-.83-.63-1.24-.04.03-.09.03-.12,0l-.56-.44c.23.31.46.61.69.92.26.36.53.72.79,1.08Z"/>
      </g>
      <g>
        <g>
          <path class="cls-2" d="M567.17,195.15s.46-5.78-2.65-3.47c-3.11,2.3-4.87,6.17-4.87,6.17l1.05,4.57-4.22,4.22-.35,3.87,3.16,5.62,4.22-1.76c2.81-3.16,3.52-5.27,3.52-5.27,0,0,1.41,6.33,2.81,6.33s4.22.35,4.22.35h3.52l2.59-5.14,1.01-1.7c1.68-3.71,3.13-7.93,3.13-7.93l-4.61-3.52-2.11-3.51-2.96-2.94c-2.66-1.63-5.21.35-7.45,4.11Z"/>
          <path class="cls-2" d="M656.35,145.93s.46-5.78-2.65-3.47c-3.11,2.3-4.87,6.17-4.87,6.17l1.05,4.57-4.22,4.22-.35,3.87,3.16,5.62,4.22-1.76c2.81-3.16,3.52-5.27,3.52-5.27,0,0,1.41,6.33,2.81,6.33s4.22.35,4.22.35h3.52l2.59-5.14,1.01-1.7c1.68-3.71,3.13-7.93,3.13-7.93l-4.61-3.52-2.11-3.51-2.96-2.94c-2.66-1.63-5.21.35-7.45,4.11Z"/>
          <path class="cls-2" d="M592.83,168.08s.46-5.78-2.65-3.47-4.87,6.17-4.87,6.17l1.05,4.57-4.22,4.22-.35,3.87,3.16,5.62,4.22-1.76c2.81-3.16,3.52-5.27,3.52-5.27,0,0,1.41,6.33,2.81,6.33s4.22.35,4.22.35h3.52l2.59-5.14,1.01-1.7c1.68-3.71,3.13-7.93,3.13-7.93l-4.61-3.52-2.11-3.51-2.96-2.94c-2.66-1.63-5.21.35-7.45,4.11Z"/>
          <path class="cls-2" d="M549.67,148.29s-6.95-6.95-8.8-1.39l-1.85,5.56-9.26,3.7-.46,6.02,6.02.46s-2.32,5.56-2.32,7.41.93,3.24,2.78,3.7,6.48-3.7,6.48-3.7l1.39,8.33s6.95,5.56,7.41,1.85,4.17-6.02,4.17-6.02c0,0,3.24,2.32,4.17-.46.93-2.78.46,1.85.93-2.78s2.32-7.41,2.32-7.41l-1.85-5.56s-1.39,0-2.32-4.63c-.93-4.63-2.78-10.65-8.8-5.09Z"/>
          <path class="cls-2" d="M607.67,140.21s-6.95-6.95-8.8-1.39l-1.85,5.56-9.26,3.7-.46,6.02,6.02.46s-2.32,5.56-2.32,7.41.93,3.24,2.78,3.7,6.48-3.7,6.48-3.7l1.39,8.33s6.95,5.56,7.41,1.85,4.17-6.02,4.17-6.02c0,0,3.24,2.32,4.17-.46.93-2.78.46,1.85.93-2.78s2.32-7.41,2.32-7.41l-1.85-5.56s-1.39,0-2.32-4.63c-.93-4.63-2.78-10.65-8.8-5.09Z"/>
          <path class="cls-2" d="M578.49,162s-6.95-6.95-8.8-1.39l-1.85,5.56-9.26,3.7-.46,6.02,6.02.46s-2.32,5.56-2.32,7.41.93,3.24,2.78,3.7,6.48-3.7,6.48-3.7l1.39,8.33s6.95,5.56,7.41,1.85,4.17-6.02,4.17-6.02c0,0,3.24,2.32,4.17-.46.93-2.78.46,1.85.93-2.78s2.32-7.41,2.32-7.41l-1.85-5.56s-1.39,0-2.32-4.63c-.93-4.63-2.78-10.65-8.8-5.09Z"/>
          <path class="cls-2" d="M618.03,192.55s-6.95-6.95-8.8-1.39l-1.85,5.56-9.26,3.7-.46,6.02,6.02.46s-2.32,5.56-2.32,7.41.93,3.24,2.78,3.7,6.48-3.7,6.48-3.7l1.39,8.33s6.95,5.56,7.41,1.85,4.17-6.02,4.17-6.02c0,0,3.24,2.32,4.17-.46.93-2.78.46,1.85.93-2.78s2.32-7.41,2.32-7.41l-1.85-5.56s-1.39,0-2.32-4.63c-.93-4.63-2.78-10.65-8.8-5.09Z"/>
          <path class="cls-2" d="M620.61,116.08s-6.95-6.95-8.8-1.39l-1.85,5.56-9.26,3.7-.46,6.02,6.02.46s-2.32,5.56-2.32,7.41.93,3.24,2.78,3.7,6.48-3.7,6.48-3.7l1.39,8.33s6.95,5.56,7.41,1.85,4.17-6.02,4.17-6.02c0,0,3.24,2.32,4.17-.46.93-2.78.46,1.85.93-2.78s2.32-7.41,2.32-7.41l-1.85-5.56s-1.39,0-2.32-4.63c-.93-4.63-2.78-10.65-8.8-5.09Z"/>
          <path class="cls-2" d="M665.82,171.72s-6.95-6.95-8.8-1.39l-1.85,5.56-9.26,3.7-.46,6.02,6.02.46s-2.32,5.56-2.32,7.41.93,3.24,2.78,3.7,6.48-3.7,6.48-3.7l1.39,8.33s6.95,5.56,7.41,1.85,4.17-6.02,4.17-6.02c0,0,3.24,2.32,4.17-.46.93-2.78.46,1.85.93-2.78s2.32-7.41,2.32-7.41l-1.85-5.56s-1.39,0-2.32-4.63c-.93-4.63-2.78-10.65-8.8-5.09Z"/>
          <path class="cls-2" d="M647.41,155.62s-6.95-6.95-8.8-1.39l-1.85,5.56-9.26,3.7-.46,6.02,6.02.46s-2.32,5.56-2.32,7.41.93,3.24,2.78,3.7,6.48-3.7,6.48-3.7l1.39,8.33s6.95,5.56,7.41,1.85,4.17-6.02,4.17-6.02c0,0,3.24,2.32,4.17-.46s.46,1.85.93-2.78,2.32-7.41,2.32-7.41l-1.85-5.56s-1.39,0-2.32-4.63c-.93-4.63-2.78-10.65-8.8-5.09Z"/>
          <path class="cls-2" d="M638.5,220.2s-1.24,9.74,4.28,7.81,5.53-1.93,5.53-1.93l8.6,5.06,5.04-3.32-3.32-5.04s5.81-1.57,7.28-2.7,2-2.72,1.23-4.46c-.77-1.75-6.9-2.86-6.9-2.86l5.74-6.2s.14-8.89-3.07-6.99c-3.21,1.9-7.31.39-7.31.39,0,0-.15-3.98-2.92-3.01-2.76.97,1.18-1.5-2.76.97s-7.28,2.7-7.28,2.7l-3.26,4.87s.85,1.1-2.24,4.66c-3.09,3.56-6.72,8.71,1.36,10.07Z"/>
          <path class="cls-2" d="M678.96,207.03s-.97,7.58,3.33,6.07l4.3-1.51,6.69,3.93,3.92-2.58-2.58-3.92s4.52-1.22,5.66-2.1c1.14-.88,1.55-2.11.96-3.47s-5.36-2.22-5.36-2.22l4.47-4.82s.11-6.92-2.39-5.44-5.69.3-5.69.3c0,0-.12-3.1-2.27-2.34-2.15.75.92-1.17-2.15.75s-5.66,2.1-5.66,2.1l-2.54,3.78s.66.85-1.75,3.63c-2.41,2.77-5.23,6.78,1.05,7.83Z"/>
          <path class="cls-2" d="M618.15,152.2s-.97,7.58,3.33,6.07l4.3-1.51,6.69,3.93,3.92-2.58-2.58-3.92s4.52-1.22,5.66-2.1c1.14-.88,1.55-2.11.96-3.47s-5.36-2.22-5.36-2.22l4.47-4.82s.11-6.92-2.39-5.44-5.69.3-5.69.3c0,0-.12-3.1-2.27-2.34-2.15.75.92-1.17-2.15.75s-5.66,2.1-5.66,2.1l-2.54,3.78s.66.85-1.75,3.63c-2.41,2.77-5.23,6.78,1.05,7.83Z"/>
          <path class="cls-2" d="M613.78,187.9s-.97,7.58,3.33,6.07l4.3-1.51,6.69,3.93,3.92-2.58-2.58-3.92s4.52-1.22,5.66-2.1c1.14-.88,1.55-2.11.96-3.47-.6-1.36-5.36-2.22-5.36-2.22l4.47-4.82s.11-6.92-2.39-5.44-5.69.3-5.69.3c0,0-.12-3.1-2.27-2.34-2.15.75.92-1.17-2.15.75s-5.66,2.1-5.66,2.1l-2.54,3.78s.66.85-1.75,3.63c-2.41,2.77-5.23,6.78,1.05,7.83Z"/>
          <path class="cls-2" d="M576.98,134.4s-11.57,2.32-11.57,4.17-3.24,9.72-3.24,9.72l.46,4.63,3.24,8.33,6.11,5.99,3.61-2.28v-7.41l1.85-5.56,6.02-1.85,4.17-4.17s0-4.63-1.85-6.95c-1.85-2.31-8.8-4.63-8.8-4.63Z"/>
          <path class="cls-2" d="M688.77,152.68s-11.57,2.32-11.57,4.17-3.24,9.72-3.24,9.72l.46,4.63,3.24,8.33,6.11,5.99,3.61-2.28v-7.41l1.85-5.56,6.02-1.85,4.17-4.17s0-4.63-1.85-6.95c-1.85-2.31-8.8-4.63-8.8-4.63Z"/>
        </g>
        <path class="cls-1" d="M696.9,200.64c-1.72-.01-3.43.09-5.13.22-1.7.13-3.39.32-5.08.52-1.69.21-3.36.48-5.03.81l-4.99,1.03h-.06c-.1.03-.2.08-.29.14l-8.9,6.5c-2.94,2.18-5.89,4.35-8.81,6.56-1.3-.65-2.62-.95-3.94-1.17-.67-.11-1.34-.15-2.01-.13-.67.03-1.35.07-2.02.08-1.35.02-2.69.03-4.04.08-.82.03-1.63.06-2.45.1l1.9-2.45,6.53-7.06c2.16-1.23,4.35-2.44,6.49-3.69l6.55-3.89,3.26-1.98c.56-.37,1.03-.56,1.64-.78.58-.21,1.19-.38,1.8-.56,2.44-.68,4.91-1.29,7.39-1.88-2.54.26-5.07.58-7.59,1.06-.63.12-1.26.25-1.89.41-.32.08-.63.17-.97.29-.35.12-.61.28-.9.42l-3.4,1.75-13.51,7.13c-.09.05-.17.11-.25.19h-.01s-6.73,7.16-6.73,7.16c-.02.02-.04.05-.07.08-1.54,2.03-3.09,4.06-4.62,6.11l-1.14.94c.43-.86.85-1.73,1.23-2.62.63-1.42,1.14-2.89,1.65-4.36l1.57-4.39,1.03-2.14c.35-.74.72-1.48,1.06-2.23.69-1.5,1.4-2.98,2.06-4.49.02-.05,0-.1-.04-.13-.05-.03-.12-.02-.15.03-.93,1.36-1.82,2.75-2.73,4.12-.46.69-.89,1.39-1.33,2.08l-1.32,2.09v.02s-.04.06-.04.06l-1.94,4.24c-.67,1.4-1.33,2.81-1.87,4.27-.55,1.45-1.03,2.93-1.48,4.42-.4,1.37-.77,2.75-1.03,4.17-.87,1.2-1.73,2.41-2.57,3.64-.47.68-.93,1.36-1.38,2.06l-.34.53-.34.59c-.09.12-.13.24-.26.39l-.36.44c-.18.2-.37.4-.56.6l-7.63,4.63-2.07-2.76-1.72-5.86-1.72-3.79-4.24-5.86,2.7-4.07c1.25-1.86,2.49-3.72,3.76-5.54.63-.89,1.3-1.83,1.96-2.54.07-.07.16-.17.2-.2l.02-.02h.01c.23-.09.51-.17.77-.25l1.6-.47c2.15-.62,4.33-1.2,6.49-1.78h.03c.09-.03.18-.07.26-.13l10.43-7.32.03-.02s.08-.07.12-.11c.33-.43.64-.87.93-1.31l7.62-5.02c2.98-1.95,5.93-3.95,8.89-5.92,1.57-.31,3.06-.77,4.49-1.63.72-.45,1.44-1.04,1.95-1.88.12-.21.22-.45.32-.67v-.03s3.56.68,3.56.68l4.4.81,8.81,1.55c.3.05.63-.06.83-.32l.05-.06c.78-1.01,1.6-1.99,2.36-3.01.73-.35,1.44-.73,2.15-1.13.77-.45,1.55-.88,2.31-1.36.77-.46,1.52-.96,2.26-1.46.74-.51,1.47-1.04,2.18-1.62.03-.03.05-.07.04-.11-.01-.06-.07-.1-.13-.08-.89.22-1.75.48-2.6.77-.85.29-1.7.6-2.53.93-.84.32-1.65.68-2.48,1.03-.82.36-1.62.74-2.41,1.15l-.04.02c-.14.08-.27.19-.37.33-.68.99-1.32,2.01-1.97,3.02l-8.3-.78-4.46-.38-3.54-.28.08-.22.38-1.1,1.55-4.41c.46-1.37.93-2.74,1.36-4.12,1.41-1.14,2.8-2.32,4.18-3.49,1.46-1.27,2.91-2.54,4.34-3.86l-.04.03c1.36-1.07,2.71-2.15,4.02-3.3.04-.03.05-.09.03-.13-.03-.05-.09-.08-.15-.05-1.56.77-3.08,1.6-4.59,2.45l-.04.03c-1.61,1.08-3.19,2.2-4.76,3.32-1.56,1.14-3.12,2.28-4.64,3.47-.16.13-.29.3-.36.51v.03c-.5,1.47-.92,2.97-1.37,4.45l-1.28,4.48-.32,1.12-.16.55-.16.39c-.27.51-.76.98-1.33,1.37-1.15.78-2.62,1.31-4.02,1.64h-.06c-.08.03-.15.07-.22.12-2.9,2.14-5.82,4.27-8.7,6.44l-6.63,4.96c.42-.7.8-1.42,1.15-2.18.34-.75.63-1.55.85-2.35l.64-2.31c.87-3.08,1.75-6.15,2.71-9.19.48-1.52.98-3.04,1.53-4.53.27-.75.56-1.49.89-2.21.15-.37.33-.71.52-1.05.09-.18.19-.33.3-.47l.16-.22.21-.24c1.06-1.29,1.77-2.73,2.5-4.16.71-1.44,1.37-2.9,1.98-4.38.02-.05,0-.12-.06-.14-.05-.02-.12,0-.14.05-.66,1.45-1.37,2.89-2.13,4.29-.77,1.39-1.55,2.81-2.57,3.97-.13.13-.26.29-.4.47-.14.17-.27.35-.36.53-.22.35-.41.71-.58,1.08-.36.73-.68,1.47-.98,2.22-.61,1.49-1.17,3-1.7,4.51-1.08,3.02-2.07,6.08-3.01,9.14l-.7,2.3c-.22.74-.5,1.44-.84,2.14-.66,1.35-1.5,2.66-2.43,3.81l-10.14,6.71c-.47-2.27-.99-4.53-1.59-6.78-.18-.64-.37-1.28-.59-1.93-.05-.16-.12-.33-.18-.49-.06-.16-.13-.33-.23-.52-.1-.2-.17-.31-.25-.45l-.24-.42c-.62-1.14-1.21-2.31-1.75-3.5-.53-1.18-1.02-2.4-1.35-3.58-.16-.56-.3-1.21-.28-1.54-.04.04.11-.58.13-.88.04-.37.06-.7.08-1.05.04-1.37,0-2.7-.12-4.03-.11-1.33-.28-2.66-.59-3.99,0-.04-.04-.07-.08-.08-.06-.01-.12.02-.13.08-.61,2.63-.87,5.28-1.21,7.83-.04.31-.08.63-.14.92-.04.36-.1.38-.17,1.08,0,1,.27,1.63.5,2.32.54,1.31,1.17,2.5,1.83,3.68.66,1.18,1.35,2.32,2.09,3.45l.28.42c.09.14.21.3.27.39.07.1.14.22.2.37.07.14.14.27.2.42.26.58.49,1.2.72,1.81.84,2.18,1.58,4.4,2.32,6.63l-6.4,1.53-1.65.41c-.28.07-.55.14-.85.23l-.11.03s-.15.06-.22.1c-.08.04-.18.09-.24.13l-.13.1c-.19.14-.29.25-.42.38-.88.93-1.53,1.82-2.22,2.75-1.35,1.84-2.6,3.72-3.81,5.63-.74,1.15-1.45,2.31-2.16,3.48l-.34-.47c-.28-.9-.6-1.79-.99-2.67-.09-.2-.2-.4-.3-.6-.28-2.14-.52-4.29-.72-6.44-.1-1.11-.18-2.23-.25-3.34-.03-.56-.06-1.11-.08-1.67-.03-.57,0-1.07-.09-1.74-.14-1.27-.68-2.43-1.38-3.41-.71-.97-1.53-1.8-2.4-2.57-1.74-1.51-3.66-2.75-5.47-4.04-.45-.32-.9-.65-1.29-.99-.1-.09-.2-.17-.29-.26l-.03-.04c1.25-2.67,2.45-5.36,3.66-8.05.62-1.43,1.23-2.86,1.82-4.31.15-.36.29-.73.43-1.1.14-.36.28-.82.38-1.15l.68-2.23c.45-1.5.91-3,1.31-4.53.19-.77.37-1.54.5-2.34.12-.8.22-1.6.18-2.52,0-.21-.06-.49-.09-.74-.04-.23-.09-.37-.13-.56l-.23-1.11-.46-2.27c-.31-1.52-.64-3.05-1.07-4.57-.01-.04-.05-.07-.09-.08-.06,0-.11.04-.12.1-.18,1.58-.23,3.15-.22,4.72,0,.79.04,1.57.08,2.36.02.4.07.79.11,1.2.02.19.06.44.07.59,0,.15.02.25,0,.43,0,.64-.13,1.39-.24,2.12-.11.74-.24,1.49-.37,2.24-.24,1.51-.56,3.02-.9,4.54l-.53,2.27c-.09.42-.16.71-.28,1.08-.11.36-.22.73-.34,1.09-.48,1.47-.99,2.93-1.51,4.4l-2.85,8.21-.02-.02c-.17-.18-.34-.4-.5-.63-.65-.88-1.26-1.83-1.86-2.77-1.19-1.9-2.34-3.83-3.47-5.77-2.26-3.89-4.46-7.81-6.62-11.75-.03-.05-.09-.07-.14-.04-.05.03-.07.09-.05.14,2.03,4.01,4.11,8,6.24,11.97,1.07,1.98,2.16,3.95,3.3,5.9.58.97,1.15,1.94,1.8,2.89.16.24.32.48.53.71l.29.35c.1.11.22.21.33.31.44.41.89.76,1.34,1.1,1.82,1.35,3.66,2.61,5.29,4.09.8.74,1.54,1.54,2.14,2.4.59.87.98,1.83,1.07,2.79.06.44.03,1.07.04,1.63,0,.57.02,1.14.04,1.7.04,1.13.1,2.26.17,3.39.07,1.02.15,2.04.24,3.06-.34-.42-.7-.84-1.09-1.22-.35-.39-.76-.72-1.18-1.04-.4-.35-.85-.62-1.31-.89-.44-.3-.93-.51-1.41-.72-.49-.23-.96-.4-1.43-.55-1.88-.64-3.79-1.1-5.7-1.51-1.9-.42-3.8-.76-5.63-1.2-.91-.23-1.8-.49-2.57-.85-.38-.18-.72-.4-.94-.64-.11-.12-.19-.24-.24-.38-.02-.07-.05-.13-.05-.21l-.02-.11v-.19c-.08-1.04-.27-2-.48-2.96-.22-.96-.45-1.9-.72-2.83-.54-1.87-1.11-3.71-1.79-5.53-.02-.05-.07-.08-.12-.07-.06.01-.09.07-.08.13.4,1.89.8,3.77,1.13,5.67.31,1.88.66,3.81.66,5.62v.17s.01.25.01.25c0,.17.04.33.09.5.09.33.26.63.45.88.4.5.88.83,1.34,1.11.94.54,1.9.84,2.85,1.14,1.9.57,3.78,1,5.63,1.48,1.85.47,3.68.99,5.44,1.62.44.16.88.32,1.26.52.39.18.8.34,1.16.6.37.23.75.45,1.08.74.34.27.69.54.99.87,1.64,1.6,2.87,3.68,3.74,5.91l1.07,3.65c.02.13.05.26.12.38.82,1.38,1.62,2.78,2.36,4.2.36.71.73,1.42,1.05,2.14.16.36.3.72.42,1.07.04.16.11.35.13.5l.04.21v.3c0,1.62-.02,3.24.01,4.87,0,.02,0,.04,0,.05-1.1-1.06-2.21-2.11-3.32-3.15-1.58-1.49-3.21-2.93-4.85-4.36-1.66-1.41-3.31-2.83-5.13-4.12-.47-.32-.92-.64-1.51-.93l-.23-.11-.31-.1c-.2-.06-.28-.07-.43-.11l-.78-.19c-.95-.24-1.91-.47-2.85-.72-1.94-1.9-3.93-3.73-5.99-5.49-2.16-1.77-4.32-3.62-6.87-5.02-2.45-1.36-4.83-2.69-7.01-4.31-1.35-1-2.63-2.11-3.73-3.36.86-1.53,1.58-3.12,2.24-4.75.73-1.8,1.37-3.62,1.95-5.48.56-1.87.97-3.81,1.07-5.81.12-2-.16-4.01-.5-5.91-.35-1.9-.63-3.79-.91-5.69-.29-1.9-.65-3.78-1.07-5.65-.76-3.76-1.43-7.55-2.56-11.28-.01-.04-.05-.08-.1-.08-.06,0-.11.05-.11.11-.04,1.95.03,3.89.14,5.82.13,1.93.23,3.87.52,5.78.58,3.82,1.53,7.59,2.41,11.34.44,1.86.8,3.68.79,5.54,0,1.85-.28,3.73-.72,5.57-.83,3.49-1.87,6.98-3.34,10.28-.59-.69-1.13-1.41-1.59-2.19-.34-.57-.62-1.16-.87-1.77-.24-.62-.4-1.21-.62-1.94-.43-1.38-.99-2.67-1.57-3.95-1.17-2.55-2.51-5.01-3.88-7.43-2.77-4.84-5.72-9.55-8.79-14.2-.03-.05-.1-.06-.15-.03-.05.03-.07.1-.03.15,2.88,4.75,5.64,9.58,8.2,14.5,1.27,2.46,2.5,4.95,3.58,7.48.53,1.27,1.03,2.55,1.4,3.84.16.61.34,1.37.59,2.05.26.68.55,1.36.91,1.99,1.42,2.56,3.5,4.64,5.73,6.4,2.23,1.77,4.67,3.23,7.03,4.67.59.36,1.14.73,1.67,1.12.54.4,1.07.82,1.6,1.24,1.07.86,2.11,1.75,3.15,2.66,2.09,1.8,4.16,3.64,6.23,5.47l.05.04c.11.1.25.17.4.2,1.08.24,2.14.46,3.22.65l.81.14c.12.02.31.05.37.07.03,0,.05.02.08.02l.14.06c.4.17.86.45,1.29.73,1.77,1.15.73,1.92,2.45,3.22,1.73,1.3,3.15,3.41,4.86,4.73l5.34,10.06c0,.26,0,6.29,0,6.55-.63,6.65.12,7.09.34,10.6.34,5.51-.29,20.88.4,22.95s-9.32,140.81-9.32,140.81h28.24l-7.52-142.09s-1.02-22.54-1.02-23.91-.45-11.35.24-12.73c.49-.97,7.12-8.46,7.71-10.73.05-.05.09-.09.14-.13l.45-.48c.15-.15.31-.41.45-.61l.29-.46.34-.48c.47-.65.96-1.3,1.45-1.95l9.63-12.43c.94.15,1.89.3,2.83.45,1.33.2,2.67.37,4,.55.67.09,1.33.21,2,.32.67.1,1.34.13,2.01.1,1.35-.07,2.7-.22,4.08-.72,0,0,0,0,.01-.01.02,0,.04,0,.06,0,3.13-1.93,6.23-3.9,9.34-5.86l9.1-5.82,4.89-.63c1.68-.23,3.36-.52,5.02-.87,1.66-.35,3.32-.72,4.97-1.15,1.65-.43,3.3-.89,4.92-1.46.04-.01.07-.05.07-.1,0-.06-.05-.11-.11-.11ZM620.68,206.05l.07-.02s-.02.02-.03.02c0,0-.09.02-.04,0ZM637.64,220.55c.06-.11.12-.22.18-.34.22-.43.44-.86.65-1.3.04.03.09.04.13,0l.58-.46c-.24.32-.48.64-.72.96-.28.37-.55.75-.82,1.12Z"/>
      </g>
      <g>
        <g>
          <path class="cls-2" d="M134.34,195.15s-.46-5.78,2.65-3.47c3.11,2.3,4.87,6.17,4.87,6.17l-1.05,4.57,4.22,4.22.35,3.87-3.16,5.62-4.22-1.76c-2.81-3.16-3.51-5.27-3.51-5.27,0,0-1.41,6.33-2.81,6.33s-4.22.35-4.22.35h-3.51l-2.59-5.14-1-1.7c-1.68-3.71-3.13-7.93-3.13-7.93l4.61-3.52,2.11-3.51,2.96-2.94c2.66-1.63,5.21.35,7.45,4.11Z"/>
          <path class="cls-2" d="M45.15,145.93s-.46-5.78,2.65-3.47c3.11,2.3,4.87,6.17,4.87,6.17l-1.06,4.57,4.22,4.22.35,3.87-3.16,5.62-4.22-1.76c-2.81-3.16-3.51-5.27-3.51-5.27,0,0-1.41,6.33-2.81,6.33s-4.22.35-4.22.35h-3.51l-2.59-5.14-1.01-1.7c-1.68-3.71-3.13-7.93-3.13-7.93l4.62-3.52,2.11-3.51,2.96-2.94c2.66-1.63,5.21.35,7.45,4.11Z"/>
          <path class="cls-2" d="M108.68,168.08s-.46-5.78,2.65-3.47c3.11,2.3,4.87,6.17,4.87,6.17l-1.06,4.57,4.22,4.22.35,3.87-3.16,5.62-4.22-1.76c-2.81-3.16-3.51-5.27-3.51-5.27,0,0-1.41,6.33-2.81,6.33s-4.22.35-4.22.35h-3.51l-2.59-5.14-1-1.7c-1.68-3.71-3.13-7.93-3.13-7.93l4.61-3.52,2.11-3.51,2.96-2.94c2.66-1.63,5.21.35,7.45,4.11Z"/>
          <path class="cls-2" d="M151.84,148.29s6.95-6.95,8.8-1.39l1.85,5.56,9.26,3.7.46,6.02-6.02.46s2.32,5.56,2.32,7.41-.93,3.24-2.78,3.7-6.48-3.7-6.48-3.7l-1.39,8.33s-6.95,5.56-7.41,1.85-4.17-6.02-4.17-6.02c0,0-3.24,2.32-4.17-.46s-.46,1.85-.93-2.78-2.32-7.41-2.32-7.41l1.85-5.56s1.39,0,2.32-4.63c.93-4.63,2.78-10.65,8.8-5.09Z"/>
          <path class="cls-2" d="M93.84,140.21s6.94-6.95,8.8-1.39l1.85,5.56,9.26,3.7.46,6.02-6.02.46s2.32,5.56,2.32,7.41-.93,3.24-2.78,3.7-6.48-3.7-6.48-3.7l-1.39,8.33s-6.94,5.56-7.41,1.85-4.17-6.02-4.17-6.02c0,0-3.24,2.32-4.17-.46s-.46,1.85-.93-2.78c-.46-4.63-2.32-7.41-2.32-7.41l1.85-5.56s1.39,0,2.32-4.63c.93-4.63,2.78-10.65,8.8-5.09Z"/>
          <path class="cls-2" d="M123.02,162s6.95-6.95,8.8-1.39l1.85,5.56,9.26,3.7.46,6.02-6.02.46s2.32,5.56,2.32,7.41-.93,3.24-2.78,3.7-6.48-3.7-6.48-3.7l-1.39,8.33s-6.94,5.56-7.41,1.85-4.17-6.02-4.17-6.02c0,0-3.24,2.32-4.17-.46s-.46,1.85-.93-2.78c-.46-4.63-2.32-7.41-2.32-7.41l1.85-5.56s1.39,0,2.32-4.63c.93-4.63,2.78-10.65,8.8-5.09Z"/>
          <path class="cls-2" d="M83.48,192.55s6.94-6.95,8.8-1.39l1.85,5.56,9.26,3.7.46,6.02-6.02.46s2.32,5.56,2.32,7.41-.93,3.24-2.78,3.7-6.48-3.7-6.48-3.7l-1.39,8.33s-6.94,5.56-7.41,1.85-4.17-6.02-4.17-6.02c0,0-3.24,2.32-4.17-.46s-.46,1.85-.93-2.78c-.46-4.63-2.32-7.41-2.32-7.41l1.85-5.56s1.39,0,2.32-4.63c.93-4.63,2.78-10.65,8.8-5.09Z"/>
          <path class="cls-2" d="M80.9,116.08s6.94-6.95,8.8-1.39l1.85,5.56,9.26,3.7.46,6.02-6.02.46s2.32,5.56,2.32,7.41-.93,3.24-2.78,3.7-6.48-3.7-6.48-3.7l-1.39,8.33s-6.94,5.56-7.41,1.85-4.17-6.02-4.17-6.02c0,0-3.24,2.32-4.17-.46s-.46,1.85-.93-2.78c-.46-4.63-2.32-7.41-2.32-7.41l1.85-5.56s1.39,0,2.32-4.63c.93-4.63,2.78-10.65,8.8-5.09Z"/>
          <path class="cls-2" d="M35.69,171.72s6.94-6.95,8.8-1.39l1.85,5.56,9.26,3.7.46,6.02-6.02.46s2.31,5.56,2.31,7.41-.93,3.24-2.78,3.7-6.48-3.7-6.48-3.7l-1.39,8.33s-6.94,5.56-7.41,1.85-4.17-6.02-4.17-6.02c0,0-3.24,2.32-4.17-.46s-.46,1.85-.93-2.78c-.46-4.63-2.32-7.41-2.32-7.41l1.85-5.56s1.39,0,2.32-4.63c.93-4.63,2.78-10.65,8.8-5.09Z"/>
          <path class="cls-2" d="M54.1,155.62s6.94-6.95,8.8-1.39l1.85,5.56,9.26,3.7.46,6.02-6.02.46s2.32,5.56,2.32,7.41-.93,3.24-2.78,3.7-6.48-3.7-6.48-3.7l-1.39,8.33s-6.94,5.56-7.41,1.85-4.17-6.02-4.17-6.02c0,0-3.24,2.32-4.17-.46s-.46,1.85-.93-2.78c-.46-4.63-2.31-7.41-2.31-7.41l1.85-5.56s1.39,0,2.31-4.63c.93-4.63,2.78-10.65,8.8-5.09Z"/>
          <path class="cls-2" d="M63.01,220.2s1.24,9.74-4.28,7.81l-5.53-1.93-8.6,5.06-5.04-3.32,3.32-5.04s-5.81-1.57-7.28-2.7-2-2.72-1.23-4.46c.77-1.75,6.9-2.86,6.9-2.86l-5.74-6.2s-.14-8.89,3.07-6.99,7.31.39,7.31.39c0,0,.15-3.98,2.92-3.01,2.76.97-1.18-1.5,2.76.97s7.27,2.7,7.27,2.7l3.26,4.87s-.85,1.1,2.25,4.66c3.09,3.56,6.72,8.71-1.36,10.07Z"/>
          <path class="cls-2" d="M22.55,207.03s.97,7.58-3.33,6.07l-4.3-1.51-6.69,3.93-3.92-2.58,2.58-3.92s-4.52-1.22-5.66-2.1c-1.14-.88-1.55-2.11-.96-3.47s5.36-2.22,5.36-2.22l-4.47-4.82s-.11-6.92,2.39-5.44c2.5,1.48,5.69.3,5.69.3,0,0,.12-3.1,2.27-2.34,2.15.75-.92-1.17,2.15.75,3.07,1.92,5.66,2.1,5.66,2.1l2.54,3.78s-.66.85,1.75,3.63c2.41,2.77,5.23,6.78-1.05,7.83Z"/>
          <path class="cls-2" d="M83.36,152.2s.97,7.58-3.33,6.07l-4.3-1.51-6.69,3.93-3.92-2.58,2.58-3.92s-4.52-1.22-5.66-2.1c-1.14-.88-1.55-2.11-.96-3.47s5.36-2.22,5.36-2.22l-4.46-4.82s-.11-6.92,2.39-5.44,5.69.3,5.69.3c0,0,.12-3.1,2.27-2.34,2.15.75-.92-1.17,2.15.75s5.66,2.1,5.66,2.1l2.54,3.78s-.66.85,1.75,3.63c2.41,2.77,5.23,6.78-1.05,7.83Z"/>
          <path class="cls-2" d="M87.73,187.9s.97,7.58-3.33,6.07l-4.3-1.51-6.69,3.93-3.92-2.58,2.58-3.92s-4.52-1.22-5.66-2.1c-1.14-.88-1.55-2.11-.96-3.47.6-1.36,5.36-2.22,5.36-2.22l-4.46-4.82s-.11-6.92,2.39-5.44,5.69.3,5.69.3c0,0,.12-3.1,2.27-2.34,2.15.75-.92-1.17,2.15.75s5.66,2.1,5.66,2.1l2.54,3.78s-.66.85,1.75,3.63c2.41,2.77,5.23,6.78-1.05,7.83Z"/>
          <path class="cls-2" d="M124.53,134.4s11.57,2.32,11.57,4.17,3.24,9.72,3.24,9.72l-.46,4.63-3.24,8.33-6.11,5.99-3.61-2.28v-7.41l-1.85-5.56-6.02-1.85-4.17-4.17s0-4.63,1.85-6.95c1.85-2.31,8.8-4.63,8.8-4.63Z"/>
          <path class="cls-2" d="M12.74,152.68s11.57,2.32,11.57,4.17,3.24,9.72,3.24,9.72l-.46,4.63-3.24,8.33-6.11,5.99-3.61-2.28v-7.41l-1.85-5.56-6.02-1.85-4.17-4.17s0-4.63,1.85-6.95c1.85-2.31,8.8-4.63,8.8-4.63Z"/>
        </g>
        <path class="cls-1" d="M4.61,200.64c1.72-.01,3.43.09,5.13.22,1.7.13,3.39.32,5.08.52,1.69.21,3.36.48,5.03.81l4.99,1.03h.06c.1.03.2.08.29.14l8.9,6.5c2.94,2.18,5.89,4.35,8.81,6.56,1.3-.65,2.62-.95,3.94-1.17.67-.11,1.34-.15,2.01-.13.67.03,1.35.07,2.02.08,1.35.02,2.69.03,4.04.08.82.03,1.63.06,2.45.1l-1.9-2.45-6.53-7.06c-2.16-1.23-4.35-2.44-6.49-3.69l-6.55-3.89-3.26-1.98c-.56-.37-1.03-.56-1.64-.78-.58-.21-1.19-.38-1.8-.56-2.44-.68-4.91-1.29-7.39-1.88,2.54.26,5.07.58,7.58,1.06.63.12,1.26.25,1.89.41.32.08.63.17.97.29.35.12.61.28.9.42l3.4,1.75,13.51,7.13c.09.05.17.11.25.19h.01s6.73,7.16,6.73,7.16c.02.02.04.05.06.08,1.54,2.03,3.09,4.06,4.62,6.11l1.14.94c-.43-.86-.85-1.73-1.23-2.62-.63-1.42-1.14-2.89-1.65-4.36l-1.57-4.39-1.03-2.14c-.35-.74-.72-1.48-1.06-2.23-.69-1.5-1.4-2.98-2.06-4.49-.02-.05,0-.1.04-.13.05-.03.12-.02.15.03.93,1.36,1.82,2.75,2.73,4.12.46.69.89,1.39,1.33,2.08l1.32,2.09v.02s.04.06.04.06l1.94,4.24c.67,1.4,1.33,2.81,1.87,4.27.55,1.45,1.03,2.93,1.49,4.42.4,1.37.76,2.75,1.03,4.17.87,1.2,1.73,2.41,2.57,3.64.47.68.93,1.36,1.38,2.06l.34.53.34.59c.09.12.13.24.26.39l.36.44c.18.2.37.4.56.6l7.63,4.63,2.07-2.76,1.72-5.86,1.72-3.79,4.24-5.86-2.69-4.07c-1.25-1.86-2.49-3.72-3.76-5.54-.63-.89-1.3-1.83-1.96-2.54-.07-.07-.17-.17-.2-.2l-.02-.02h-.01c-.23-.09-.51-.17-.77-.25l-1.61-.47c-2.15-.62-4.33-1.2-6.49-1.78h-.03c-.09-.03-.18-.07-.26-.13l-10.43-7.32-.03-.02s-.08-.07-.12-.11c-.33-.43-.64-.87-.93-1.31l-7.62-5.02c-2.98-1.95-5.93-3.95-8.89-5.92-1.57-.31-3.06-.77-4.49-1.63-.72-.45-1.44-1.04-1.95-1.88-.12-.21-.22-.45-.32-.67v-.03s-3.56.68-3.56.68l-4.4.81-8.81,1.55c-.3.05-.63-.06-.83-.32l-.05-.06c-.78-1.01-1.6-1.99-2.36-3.01-.73-.35-1.44-.73-2.15-1.13-.77-.45-1.55-.88-2.31-1.36-.76-.46-1.52-.96-2.26-1.46-.74-.51-1.48-1.04-2.18-1.62-.03-.03-.05-.07-.04-.11.01-.06.07-.1.13-.08.89.22,1.75.48,2.6.77.85.29,1.7.6,2.53.93.84.32,1.65.68,2.48,1.03.82.36,1.62.74,2.42,1.15l.04.02c.14.08.27.19.37.33.68.99,1.32,2.01,1.97,3.02l8.3-.78,4.46-.38,3.54-.28-.08-.22-.38-1.1-1.55-4.41c-.46-1.37-.93-2.74-1.36-4.12-1.41-1.14-2.8-2.32-4.18-3.49-1.46-1.27-2.91-2.54-4.34-3.86l.04.03c-1.36-1.07-2.71-2.15-4.02-3.3-.04-.03-.05-.09-.03-.13.03-.05.09-.08.15-.05,1.56.77,3.08,1.6,4.59,2.45l.04.03c1.61,1.08,3.19,2.2,4.76,3.32,1.56,1.14,3.12,2.28,4.64,3.47.16.13.29.3.36.51v.03c.5,1.47.92,2.97,1.37,4.45l1.28,4.48.32,1.12.16.55.16.39c.27.51.76.98,1.33,1.37,1.15.78,2.62,1.31,4.02,1.64h.06c.08.03.15.07.22.12,2.9,2.14,5.82,4.27,8.7,6.44l6.63,4.96c-.42-.7-.8-1.42-1.15-2.18-.34-.75-.63-1.55-.85-2.35l-.64-2.31c-.87-3.08-1.75-6.15-2.71-9.19-.48-1.52-.98-3.04-1.53-4.53-.27-.75-.56-1.49-.89-2.21-.15-.37-.33-.71-.52-1.05-.09-.18-.19-.33-.3-.47l-.16-.22-.21-.24c-1.06-1.29-1.77-2.73-2.5-4.16-.71-1.44-1.37-2.9-1.99-4.38-.02-.05,0-.12.06-.14.05-.02.12,0,.14.05.66,1.45,1.37,2.89,2.13,4.29.77,1.39,1.55,2.81,2.57,3.97.13.13.26.29.4.47.14.17.27.35.36.53.22.35.41.71.58,1.08.36.73.68,1.47.98,2.22.61,1.49,1.17,3,1.71,4.51,1.08,3.02,2.07,6.08,3.01,9.14l.7,2.3c.22.74.5,1.44.84,2.14.66,1.35,1.5,2.66,2.43,3.81l10.14,6.71c.47-2.27.99-4.53,1.59-6.78.19-.64.37-1.28.6-1.93.05-.16.12-.33.18-.49.06-.16.13-.33.23-.52.1-.2.17-.31.25-.45l.24-.42c.62-1.14,1.21-2.31,1.75-3.5.53-1.18,1.02-2.4,1.35-3.58.15-.56.3-1.21.29-1.54.04.04-.11-.58-.13-.88-.04-.37-.06-.7-.08-1.05-.04-1.37,0-2.7.12-4.03.11-1.33.29-2.66.59-3.99,0-.04.04-.07.08-.08.06-.01.12.02.13.08.61,2.63.87,5.28,1.21,7.83.04.31.08.63.14.92.04.36.1.38.17,1.08,0,1-.27,1.63-.5,2.32-.54,1.31-1.17,2.5-1.83,3.68-.65,1.18-1.35,2.32-2.09,3.45l-.28.42c-.1.14-.21.3-.26.39-.07.1-.14.22-.2.37-.07.14-.14.27-.2.42-.26.58-.49,1.2-.72,1.81-.84,2.18-1.57,4.4-2.32,6.63l6.4,1.53,1.65.41c.28.07.55.14.85.23l.11.03s.15.06.22.1c.08.04.18.09.24.13l.13.1c.19.14.29.25.42.38.88.93,1.53,1.82,2.22,2.75,1.35,1.84,2.6,3.72,3.81,5.63.74,1.15,1.45,2.31,2.16,3.48l.34-.47c.28-.9.61-1.79.99-2.67.09-.2.2-.4.3-.6.28-2.14.52-4.29.72-6.44.1-1.11.18-2.23.25-3.34.03-.56.06-1.11.08-1.67.03-.57,0-1.07.09-1.74.14-1.27.68-2.43,1.38-3.41.71-.97,1.53-1.8,2.4-2.57,1.74-1.51,3.66-2.75,5.47-4.04.45-.32.9-.65,1.29-.99.1-.09.2-.17.29-.26l.03-.04c-1.25-2.67-2.45-5.36-3.65-8.05-.62-1.43-1.23-2.86-1.82-4.31-.15-.36-.29-.73-.43-1.1-.14-.36-.28-.82-.38-1.15l-.68-2.23c-.45-1.5-.9-3-1.31-4.53-.19-.77-.37-1.54-.5-2.34-.12-.8-.22-1.6-.18-2.52,0-.21.06-.49.1-.74.04-.23.08-.37.13-.56l.23-1.11.46-2.27c.31-1.52.64-3.05,1.07-4.57.01-.04.05-.07.09-.08.06,0,.11.04.12.1.18,1.58.23,3.15.22,4.72,0,.79-.04,1.57-.08,2.36-.02.4-.07.79-.11,1.2-.02.19-.06.44-.07.59,0,.15-.02.25,0,.43,0,.64.13,1.39.24,2.12.11.74.24,1.49.37,2.24.24,1.51.56,3.02.9,4.54l.53,2.27c.09.42.16.71.28,1.08.11.36.22.73.34,1.09.48,1.47.99,2.93,1.51,4.4l2.86,8.21.02-.02c.17-.18.34-.4.5-.63.65-.88,1.26-1.83,1.86-2.77,1.19-1.9,2.34-3.83,3.47-5.77,2.26-3.89,4.46-7.81,6.62-11.75.03-.05.09-.07.14-.04.05.03.07.09.05.14-2.04,4.01-4.11,8-6.24,11.97-1.07,1.98-2.16,3.95-3.3,5.9-.58.97-1.15,1.94-1.81,2.89-.16.24-.32.48-.53.71l-.29.35c-.1.11-.22.21-.32.31-.44.41-.89.76-1.35,1.1-1.82,1.35-3.67,2.61-5.29,4.09-.8.74-1.54,1.54-2.14,2.4-.59.87-.99,1.83-1.07,2.79-.06.44-.03,1.07-.04,1.63,0,.57-.02,1.14-.04,1.7-.04,1.13-.1,2.26-.17,3.39-.07,1.02-.15,2.04-.24,3.06.34-.42.7-.84,1.09-1.22.35-.39.76-.72,1.18-1.04.4-.35.86-.62,1.31-.89.44-.3.93-.51,1.41-.72.49-.23.96-.4,1.43-.55,1.88-.64,3.79-1.1,5.7-1.51,1.9-.42,3.8-.76,5.63-1.2.91-.23,1.81-.49,2.57-.85.38-.18.72-.4.94-.64.11-.12.19-.24.24-.38.02-.07.05-.13.05-.21l.02-.11v-.19c.08-1.04.27-2,.48-2.96.21-.96.45-1.9.72-2.83.54-1.87,1.11-3.71,1.79-5.53.02-.05.07-.08.12-.07.06.01.09.07.08.13-.4,1.89-.81,3.77-1.13,5.67-.31,1.88-.66,3.81-.67,5.62v.17s-.01.25-.01.25c0,.17-.04.33-.08.5-.09.33-.26.63-.45.88-.4.5-.88.83-1.34,1.11-.94.54-1.9.84-2.85,1.14-1.9.57-3.78,1-5.63,1.48-1.85.47-3.68.99-5.44,1.62-.44.16-.88.32-1.26.52-.39.18-.8.34-1.16.6-.37.23-.75.45-1.07.74-.34.27-.69.54-.99.87-1.64,1.6-2.87,3.68-3.74,5.91l-1.07,3.65c-.01.13-.05.26-.12.38-.82,1.38-1.62,2.78-2.36,4.2-.36.71-.73,1.42-1.05,2.14-.16.36-.3.72-.42,1.07-.04.16-.11.35-.13.5l-.04.21v.3c0,1.62.02,3.24-.01,4.87,0,.02,0,.04,0,.05,1.1-1.06,2.21-2.11,3.32-3.15,1.58-1.49,3.21-2.93,4.85-4.36,1.66-1.41,3.31-2.83,5.13-4.12.47-.32.92-.64,1.51-.93l.23-.11.31-.1c.2-.06.28-.07.43-.11l.78-.19c.95-.24,1.91-.47,2.86-.72,1.94-1.9,3.93-3.73,5.99-5.49,2.16-1.77,4.32-3.62,6.87-5.02,2.44-1.36,4.83-2.69,7.01-4.31,1.35-1,2.63-2.11,3.73-3.36-.86-1.53-1.58-3.12-2.24-4.75-.73-1.8-1.37-3.62-1.95-5.48-.56-1.87-.97-3.81-1.07-5.81-.12-2,.16-4.01.5-5.91.35-1.9.63-3.79.91-5.69.29-1.9.65-3.78,1.07-5.65.76-3.76,1.43-7.55,2.56-11.28.01-.04.05-.08.1-.08.06,0,.11.05.11.11.04,1.95-.03,3.89-.14,5.82-.13,1.93-.23,3.87-.52,5.78-.58,3.82-1.54,7.59-2.41,11.34-.44,1.86-.8,3.68-.79,5.54,0,1.85.28,3.73.72,5.57.83,3.49,1.87,6.98,3.34,10.28.59-.69,1.13-1.41,1.59-2.19.34-.57.62-1.16.87-1.77.24-.62.4-1.21.62-1.94.43-1.38.99-2.67,1.57-3.95,1.17-2.55,2.51-5.01,3.88-7.43,2.77-4.84,5.72-9.55,8.79-14.2.03-.05.1-.06.15-.03.05.03.07.1.04.15-2.88,4.75-5.64,9.58-8.2,14.5-1.27,2.46-2.5,4.95-3.58,7.48-.53,1.27-1.04,2.55-1.4,3.84-.16.61-.34,1.37-.59,2.05-.26.68-.55,1.36-.91,1.99-1.42,2.56-3.5,4.64-5.73,6.4-2.23,1.77-4.68,3.23-7.03,4.67-.59.36-1.14.73-1.67,1.12-.54.4-1.07.82-1.6,1.24-1.07.86-2.11,1.75-3.15,2.66-2.09,1.8-4.17,3.64-6.23,5.47l-.05.04c-.11.1-.25.17-.4.2-1.08.24-2.14.46-3.22.65l-.81.14c-.12.02-.31.05-.37.07-.03,0-.05.02-.08.02l-.14.06c-.39.17-.86.45-1.29.73-1.76,1.15-.73,1.92-2.45,3.22-1.73,1.3-3.14,3.41-4.86,4.73l-5.34,10.06c0,.26,0,6.29,0,6.55.63,6.65-.12,7.09-.35,10.6-.34,5.51.29,20.88-.4,22.95s9.32,140.81,9.32,140.81h-28.24l7.52-142.09s1.01-22.54,1.01-23.91.45-11.35-.24-12.73c-.49-.97-7.12-8.46-7.71-10.73-.05-.05-.1-.09-.14-.13l-.45-.48c-.15-.15-.31-.41-.45-.61l-.29-.46-.34-.48c-.46-.65-.96-1.3-1.45-1.95l-9.63-12.43c-.94.15-1.89.3-2.83.45-1.33.2-2.67.37-4,.55-.67.09-1.33.21-2,.32-.67.1-1.34.13-2.01.1-1.35-.07-2.7-.22-4.08-.72,0,0,0,0-.01-.01-.02,0-.04,0-.06,0-3.13-1.93-6.23-3.9-9.34-5.86l-9.1-5.82-4.89-.63c-1.68-.23-3.36-.52-5.02-.87-1.66-.35-3.32-.72-4.97-1.15-1.65-.43-3.3-.89-4.92-1.46-.04-.01-.07-.05-.07-.1,0-.06.05-.11.11-.11ZM80.82,206.05l-.07-.02s.02.02.04.02c0,0,.09.02.03,0ZM63.87,220.55c-.06-.11-.12-.22-.18-.34-.22-.43-.44-.86-.65-1.3-.04.03-.09.04-.13,0l-.58-.46c.24.32.48.64.72.96.27.37.55.75.82,1.12Z"/>
      </g>
      <g>
        <g>
          <path class="cls-2" d="M205.82,224.95s-.4-5.02,2.3-3.02c2.7,2,4.23,5.36,4.23,5.36l-.92,3.97,3.66,3.66.3,3.36-2.75,4.89-3.66-1.53c-2.44-2.75-3.05-4.58-3.05-4.58,0,0-1.22,5.5-2.44,5.5s-3.66.3-3.66.3h-3.05l-2.25-4.46-.87-1.47c-1.46-3.23-2.72-6.89-2.72-6.89l4.01-3.06,1.83-3.05,2.57-2.55c2.31-1.42,4.52.31,6.47,3.57Z"/>
          <path class="cls-2" d="M128.35,182.2s-.4-5.02,2.3-3.02c2.7,2,4.23,5.36,4.23,5.36l-.92,3.97,3.66,3.66.3,3.36-2.75,4.88-3.66-1.53c-2.44-2.75-3.05-4.58-3.05-4.58,0,0-1.22,5.5-2.44,5.5s-3.66.3-3.66.3h-3.05l-2.25-4.46-.87-1.47c-1.46-3.23-2.72-6.89-2.72-6.89l4.01-3.06,1.83-3.05,2.57-2.55c2.31-1.42,4.53.31,6.47,3.57Z"/>
          <path class="cls-2" d="M183.53,201.44s-.4-5.02,2.3-3.02c2.7,2,4.23,5.36,4.23,5.36l-.92,3.97,3.66,3.66.3,3.36-2.75,4.89-3.66-1.53c-2.44-2.75-3.05-4.58-3.05-4.58,0,0-1.22,5.5-2.44,5.5s-3.66.3-3.66.3h-3.05l-2.25-4.46-.87-1.47c-1.46-3.23-2.72-6.89-2.72-6.89l4.01-3.06,1.83-3.05,2.57-2.55c2.31-1.42,4.52.31,6.47,3.57Z"/>
          <path class="cls-2" d="M221.02,184.25s6.03-6.03,7.64-1.21l1.61,4.83,8.04,3.22.4,5.23-5.23.4s2.01,4.83,2.01,6.43-.8,2.82-2.41,3.22-5.63-3.22-5.63-3.22l-1.21,7.24s-6.03,4.83-6.43,1.61c-.4-3.22-3.62-5.23-3.62-5.23,0,0-2.82,2.01-3.62-.4s-.4,1.61-.8-2.41c-.4-4.02-2.01-6.43-2.01-6.43l1.61-4.83s1.21,0,2.01-4.02c.8-4.02,2.41-9.25,7.64-4.42Z"/>
          <path class="cls-2" d="M170.64,177.23s6.03-6.03,7.64-1.21l1.61,4.83,8.04,3.22.4,5.23-5.23.4s2.01,4.83,2.01,6.43-.8,2.82-2.41,3.22-5.63-3.22-5.63-3.22l-1.21,7.24s-6.03,4.83-6.43,1.61c-.4-3.22-3.62-5.23-3.62-5.23,0,0-2.82,2.01-3.62-.4s-.4,1.61-.8-2.41c-.4-4.02-2.01-6.43-2.01-6.43l1.61-4.83s1.21,0,2.01-4.02c.8-4.02,2.41-9.25,7.64-4.42Z"/>
          <path class="cls-2" d="M195.98,196.16s6.03-6.03,7.64-1.21l1.61,4.83,8.04,3.22.4,5.23-5.23.4s2.01,4.83,2.01,6.43-.8,2.82-2.41,3.22-5.63-3.22-5.63-3.22l-1.21,7.24s-6.03,4.83-6.43,1.61c-.4-3.22-3.62-5.23-3.62-5.23,0,0-2.82,2.01-3.62-.4s-.4,1.61-.8-2.41c-.4-4.02-2.01-6.43-2.01-6.43l1.61-4.83s1.21,0,2.01-4.02c.8-4.02,2.41-9.25,7.64-4.42Z"/>
          <path class="cls-2" d="M161.64,222.69s6.03-6.03,7.64-1.21l1.61,4.83,8.04,3.22.4,5.23-5.23.4s2.01,4.83,2.01,6.43-.8,2.82-2.41,3.22-5.63-3.22-5.63-3.22l-1.21,7.24s-6.03,4.83-6.43,1.61c-.4-3.22-3.62-5.23-3.62-5.23,0,0-2.82,2.01-3.62-.4s-.4,1.61-.8-2.41c-.4-4.02-2.01-6.43-2.01-6.43l1.61-4.83s1.21,0,2.01-4.02c.8-4.02,2.41-9.25,7.64-4.42Z"/>
          <path class="cls-2" d="M159.39,156.27s6.03-6.03,7.64-1.21l1.61,4.83,8.04,3.22.4,5.23-5.23.4s2.01,4.83,2.01,6.43-.8,2.82-2.41,3.22-5.63-3.22-5.63-3.22l-1.21,7.24s-6.03,4.83-6.43,1.61c-.4-3.22-3.62-5.23-3.62-5.23,0,0-2.82,2.01-3.62-.4s-.4,1.61-.8-2.41c-.4-4.02-2.01-6.43-2.01-6.43l1.61-4.83s1.21,0,2.01-4.02c.8-4.02,2.41-9.25,7.64-4.42Z"/>
          <path class="cls-2" d="M120.13,204.6s6.03-6.03,7.64-1.21l1.61,4.83,8.04,3.22.4,5.23-5.23.4s2.01,4.83,2.01,6.43-.8,2.82-2.41,3.22-5.63-3.22-5.63-3.22l-1.21,7.24s-6.03,4.83-6.43,1.61c-.4-3.22-3.62-5.23-3.62-5.23,0,0-2.82,2.01-3.62-.4s-.4,1.61-.8-2.41c-.4-4.02-2.01-6.43-2.01-6.43l1.61-4.83s1.21,0,2.01-4.02c.8-4.02,2.41-9.25,7.64-4.42Z"/>
          <path class="cls-2" d="M136.11,190.62s6.03-6.03,7.64-1.21l1.61,4.83,8.04,3.22.4,5.23-5.23.4s2.01,4.83,2.01,6.43-.8,2.82-2.41,3.22c-1.61.4-5.63-3.22-5.63-3.22l-1.21,7.24s-6.03,4.83-6.43,1.61c-.4-3.22-3.62-5.23-3.62-5.23,0,0-2.82,2.01-3.62-.4s-.4,1.61-.8-2.41c-.4-4.02-2.01-6.43-2.01-6.43l1.61-4.83s1.21,0,2.01-4.02c.8-4.02,2.41-9.25,7.64-4.42Z"/>
          <path class="cls-2" d="M143.86,246.71s1.08,8.46-3.72,6.78l-4.8-1.68-7.47,4.39-4.38-2.88,2.88-4.38s-5.05-1.36-6.32-2.35c-1.27-.98-1.73-2.36-1.07-3.88s5.99-2.48,5.99-2.48l-4.99-5.38s-.12-7.72,2.67-6.07,6.35.34,6.35.34c0,0,.13-3.46,2.53-2.62,2.4.84-1.03-1.3,2.4.84s6.32,2.35,6.32,2.35l2.83,4.23s-.74.95,1.95,4.05c2.69,3.1,5.84,7.57-1.18,8.75Z"/>
          <path class="cls-2" d="M108.71,235.28s.84,6.58-2.89,5.27l-3.73-1.31-5.81,3.42-3.41-2.24,2.24-3.41s-3.93-1.06-4.92-1.83-1.35-1.83-.83-3.02c.52-1.18,4.66-1.93,4.66-1.93l-3.88-4.19s-.1-6.01,2.07-4.72,4.94.26,4.94.26c0,0,.1-2.69,1.97-2.04,1.87.65-.8-1.01,1.87.65,2.67,1.67,4.92,1.83,4.92,1.83l2.2,3.29s-.57.74,1.52,3.15c2.09,2.41,4.54,5.89-.92,6.81Z"/>
          <path class="cls-2" d="M161.54,187.64s.84,6.58-2.9,5.27l-3.73-1.31-5.81,3.42-3.41-2.24,2.24-3.41s-3.93-1.06-4.91-1.83c-.99-.77-1.35-1.84-.83-3.01.52-1.18,4.66-1.93,4.66-1.93l-3.88-4.19s-.1-6.01,2.07-4.72,4.94.26,4.94.26c0,0,.1-2.69,1.97-2.04,1.87.65-.8-1.01,1.87.65,2.66,1.67,4.91,1.83,4.91,1.83l2.2,3.29s-.57.74,1.52,3.15c2.09,2.41,4.54,5.89-.92,6.8Z"/>
          <path class="cls-2" d="M165.33,218.66s.84,6.58-2.9,5.27l-3.73-1.31-5.81,3.42-3.41-2.24,2.24-3.41s-3.93-1.06-4.91-1.83-1.35-1.83-.83-3.02c.52-1.18,4.66-1.93,4.66-1.93l-3.88-4.19s-.1-6.01,2.07-4.72,4.94.26,4.94.26c0,0,.1-2.69,1.97-2.04s-.8-1.01,1.87.65c2.66,1.67,4.91,1.83,4.91,1.83l2.2,3.29s-.57.74,1.52,3.15c2.09,2.41,4.54,5.89-.92,6.8Z"/>
          <path class="cls-2" d="M197.29,172.19s10.05,2.01,10.05,3.62,2.82,8.44,2.82,8.44l-.4,4.02-2.82,7.24-5.31,5.2-3.14-1.98v-6.43l-1.61-4.83-5.23-1.61-3.62-3.62s0-4.02,1.61-6.03c1.61-2.01,7.64-4.02,7.64-4.02Z"/>
          <path class="cls-2" d="M100.19,188.07s10.05,2.01,10.05,3.62,2.82,8.45,2.82,8.45l-.4,4.02-2.82,7.24-5.31,5.2-3.14-1.98v-6.43l-1.61-4.83-5.23-1.61-3.62-3.62s0-4.02,1.61-6.03c1.61-2.01,7.64-4.02,7.64-4.02Z"/>
        </g>
        <path class="cls-1" d="M93.13,229.72c1.5-.01,2.98.07,4.46.19,1.48.11,2.94.27,4.41.46,1.46.18,2.92.42,4.37.7l4.34.89h.06c.09.03.18.07.25.12l7.73,5.65c2.55,1.9,5.11,3.78,7.65,5.7,1.13-.56,2.27-.83,3.42-1.02.58-.09,1.16-.13,1.75-.11.59.02,1.17.06,1.76.07,1.17.02,2.34.03,3.51.07.71.03,1.42.05,2.13.08l-1.65-2.12-5.67-6.13c-1.88-1.07-3.78-2.12-5.63-3.2l-5.69-3.38-2.83-1.72c-.48-.32-.89-.49-1.42-.67-.51-.18-1.03-.33-1.56-.49-2.12-.59-4.27-1.12-6.42-1.64,2.2.23,4.4.51,6.59.92.55.11,1.09.21,1.64.36.28.07.55.14.84.25.31.11.53.24.78.37l2.95,1.52,11.74,6.2c.08.04.15.1.21.16h.01s5.85,6.22,5.85,6.22c.02.02.04.04.06.07,1.34,1.77,2.68,3.53,4.01,5.3l.99.81c-.37-.75-.74-1.51-1.07-2.27-.55-1.23-.99-2.51-1.43-3.79l-1.37-3.81-.9-1.86c-.31-.64-.63-1.28-.92-1.93-.6-1.3-1.21-2.59-1.79-3.9-.02-.04,0-.09.03-.11.04-.03.1-.02.13.02.81,1.18,1.58,2.39,2.37,3.58.4.6.77,1.2,1.15,1.81l1.15,1.81v.02s.03.05.03.05l1.69,3.68c.58,1.22,1.15,2.44,1.62,3.7.48,1.26.9,2.55,1.29,3.84.34,1.19.66,2.39.9,3.62.76,1.05,1.5,2.1,2.23,3.16.4.59.81,1.18,1.2,1.79l.29.46.29.52c.08.11.11.2.22.33l.31.38c.16.18.32.35.49.52l6.62,4.02,1.79-2.39,1.5-5.09,1.5-3.29,3.68-5.09-2.34-3.53c-1.08-1.61-2.16-3.23-3.26-4.81-.55-.77-1.13-1.59-1.7-2.21-.06-.06-.14-.15-.17-.17l-.02-.02h-.01c-.2-.07-.44-.14-.67-.21l-1.39-.41c-1.87-.53-3.76-1.04-5.64-1.55h-.02c-.08-.03-.15-.06-.22-.11l-9.06-6.36-.02-.02s-.07-.06-.1-.1c-.29-.37-.55-.75-.81-1.14l-6.62-4.36c-2.59-1.7-5.15-3.43-7.72-5.15-1.36-.27-2.66-.67-3.9-1.42-.63-.39-1.25-.9-1.69-1.63-.1-.18-.19-.39-.28-.58v-.03s-3.09.59-3.09.59l-3.82.71-7.65,1.35c-.26.05-.55-.05-.72-.28l-.04-.05c-.68-.87-1.39-1.73-2.05-2.61-.63-.31-1.25-.63-1.86-.98-.67-.39-1.35-.77-2.01-1.18-.67-.4-1.32-.83-1.96-1.27-.65-.44-1.28-.9-1.9-1.41-.03-.02-.04-.06-.03-.1.01-.05.06-.08.12-.07.77.19,1.52.42,2.26.67.74.25,1.47.52,2.19.81.73.28,1.44.59,2.15.9.71.31,1.41.64,2.1,1l.03.02c.12.07.24.16.32.29.6.86,1.14,1.75,1.71,2.62l7.21-.68,3.87-.33,3.07-.25-.07-.19-.33-.96-1.35-3.83c-.39-1.19-.81-2.38-1.18-3.57-1.23-.99-2.43-2.01-3.63-3.03-1.27-1.1-2.53-2.21-3.77-3.35l.04.02c-1.18-.93-2.36-1.87-3.5-2.87-.03-.03-.04-.07-.02-.11.02-.05.08-.07.13-.04,1.36.67,2.68,1.39,3.99,2.12l.04.02c1.4.94,2.77,1.91,4.13,2.89,1.35.99,2.71,1.98,4.03,3.01.14.11.25.26.32.45v.02c.43,1.28.8,2.58,1.19,3.87l1.11,3.89.28.97.14.48.14.34c.23.44.66.85,1.16,1.19,1,.68,2.27,1.14,3.49,1.43h.05c.07.03.13.06.19.1,2.52,1.86,5.05,3.71,7.56,5.59l5.76,4.31c-.37-.61-.7-1.23-1-1.89-.3-.65-.55-1.34-.74-2.04l-.55-2.01c-.75-2.67-1.52-5.34-2.36-7.99-.42-1.32-.85-2.64-1.33-3.93-.24-.65-.49-1.29-.77-1.92-.13-.32-.29-.62-.45-.91-.07-.16-.16-.29-.26-.41l-.14-.19-.18-.21c-.92-1.12-1.54-2.37-2.18-3.61-.62-1.25-1.19-2.52-1.72-3.81-.02-.05,0-.1.05-.12.05-.02.1,0,.12.05.58,1.26,1.19,2.51,1.85,3.73.67,1.21,1.35,2.44,2.24,3.45.11.11.23.25.35.41.12.15.24.3.32.46.19.31.36.62.51.94.31.63.59,1.28.85,1.92.53,1.29,1.01,2.6,1.48,3.92.93,2.63,1.79,5.28,2.61,7.94l.61,2c.19.64.44,1.25.73,1.86.57,1.17,1.3,2.31,2.11,3.31l8.81,5.83c.41-1.97.86-3.93,1.38-5.89.16-.56.32-1.11.52-1.68.04-.14.1-.28.16-.43.05-.14.12-.29.2-.45.09-.17.15-.27.22-.39l.21-.37c.54-.99,1.05-2.01,1.52-3.04.46-1.03.88-2.08,1.17-3.11.13-.49.26-1.05.25-1.34.04.04-.1-.5-.11-.76-.04-.32-.05-.61-.07-.91-.03-1.19,0-2.34.1-3.5.1-1.16.25-2.31.51-3.46,0-.04.04-.06.07-.07.05-.01.1.02.11.07.53,2.29.76,4.59,1.05,6.8.04.27.07.55.12.8.04.31.09.33.15.94,0,.87-.23,1.42-.44,2.02-.47,1.14-1.02,2.17-1.59,3.19-.57,1.02-1.17,2.01-1.81,2.99l-.25.37c-.08.12-.19.26-.23.34-.06.09-.12.2-.18.32-.06.12-.12.24-.17.37-.23.5-.43,1.04-.63,1.57-.73,1.89-1.37,3.83-2.02,5.76l5.56,1.33,1.43.36c.24.07.48.12.74.2l.1.03s.13.05.2.08c.07.04.15.08.21.12l.11.09c.17.12.25.22.36.33.76.8,1.33,1.58,1.93,2.39,1.17,1.6,2.26,3.23,3.31,4.89.64,1,1.26,2.01,1.87,3.02l.3-.41c.24-.78.53-1.55.86-2.32.08-.18.18-.35.26-.53.25-1.86.45-3.73.62-5.6.09-.97.16-1.93.22-2.9.03-.48.05-.97.07-1.45.02-.49,0-.93.08-1.51.12-1.1.6-2.11,1.2-2.96.61-.84,1.33-1.57,2.08-2.24,1.51-1.32,3.18-2.39,4.76-3.51.39-.28.78-.56,1.12-.86.09-.08.18-.15.26-.23l.03-.03c-1.09-2.32-2.13-4.65-3.17-6.99-.54-1.24-1.07-2.49-1.58-3.75-.13-.32-.26-.63-.38-.96-.12-.31-.24-.71-.33-1l-.59-1.94c-.39-1.3-.79-2.6-1.14-3.93-.17-.67-.32-1.34-.43-2.04-.1-.7-.19-1.39-.15-2.19,0-.18.05-.43.08-.64.04-.2.07-.32.11-.49l.2-.96.4-1.97c.27-1.32.55-2.65.93-3.97,0-.04.04-.06.08-.07.05,0,.1.03.1.08.16,1.37.2,2.73.19,4.1,0,.68-.04,1.36-.07,2.05-.02.34-.06.69-.1,1.04-.02.17-.06.38-.06.51,0,.13-.02.21,0,.37,0,.56.11,1.21.21,1.84.09.64.21,1.29.32,1.95.21,1.31.49,2.63.78,3.94l.46,1.98c.08.36.14.62.24.94.09.31.2.63.3.95.42,1.27.86,2.55,1.31,3.82l2.48,7.13.02-.02c.15-.16.29-.35.43-.55.57-.76,1.09-1.59,1.61-2.41,1.04-1.65,2.03-3.33,3.01-5.01,1.96-3.38,3.87-6.78,5.75-10.21.02-.04.08-.06.12-.04.05.02.06.08.04.12-1.77,3.49-3.57,6.95-5.42,10.4-.93,1.72-1.87,3.43-2.86,5.13-.5.85-.99,1.69-1.57,2.51-.14.21-.28.41-.46.62l-.25.31c-.09.09-.19.18-.28.27-.38.36-.77.66-1.17.96-1.59,1.18-3.18,2.27-4.59,3.55-.69.65-1.34,1.34-1.86,2.09-.51.75-.85,1.59-.93,2.43-.05.39-.03.93-.04,1.42,0,.49-.02.99-.04,1.48-.04.98-.09,1.97-.15,2.95-.06.89-.13,1.77-.21,2.66.29-.37.61-.73.94-1.06.3-.34.66-.63,1.02-.91.34-.3.74-.54,1.13-.78.38-.26.81-.44,1.23-.63.43-.2.83-.34,1.24-.48,1.63-.56,3.3-.96,4.95-1.31,1.65-.37,3.3-.66,4.89-1.04.79-.2,1.57-.42,2.23-.74.33-.16.62-.35.81-.56.1-.11.16-.21.21-.33.02-.06.04-.11.04-.18v-.1s.03-.17.03-.17c.05-.9.22-1.74.4-2.57.19-.83.39-1.65.63-2.46.47-1.62.97-3.23,1.55-4.8.02-.04.06-.07.11-.06.05.01.08.06.07.11-.35,1.64-.7,3.28-.98,4.92-.27,1.63-.58,3.31-.58,4.88v.14s-.01.21-.01.21c0,.14-.04.29-.07.43-.08.29-.22.55-.39.77-.35.44-.76.72-1.17.96-.82.47-1.65.73-2.48.99-1.65.5-3.28.87-4.89,1.28-1.61.41-3.19.86-4.73,1.41-.38.14-.77.28-1.09.45-.34.16-.69.3-1,.52-.32.2-.65.39-.93.64-.3.24-.6.47-.86.75-1.42,1.39-2.49,3.2-3.25,5.14l-.93,3.17c-.01.11-.04.22-.1.33-.71,1.19-1.41,2.42-2.05,3.65-.32.62-.63,1.24-.91,1.86-.14.31-.26.62-.37.93-.04.14-.1.31-.12.43l-.03.18v.26c0,1.41.02,2.82,0,4.23v.05c.95-.92,1.92-1.83,2.88-2.74,1.38-1.29,2.79-2.55,4.21-3.79,1.44-1.23,2.87-2.46,4.46-3.58.4-.28.8-.55,1.31-.8l.2-.09.27-.09c.17-.05.24-.06.37-.09l.68-.17c.83-.21,1.66-.41,2.48-.63,1.68-1.65,3.41-3.24,5.21-4.77,1.87-1.54,3.75-3.14,5.96-4.36,2.12-1.18,4.19-2.33,6.09-3.74,1.17-.87,2.29-1.84,3.24-2.92-.75-1.33-1.37-2.71-1.94-4.12-.63-1.56-1.19-3.14-1.69-4.76-.48-1.62-.84-3.31-.93-5.05-.11-1.74.14-3.48.44-5.14.3-1.65.54-3.29.79-4.94.25-1.65.56-3.28.93-4.91.66-3.27,1.24-6.56,2.22-9.8.01-.04.05-.07.09-.07.05,0,.1.04.1.09.04,1.69-.02,3.38-.12,5.05-.11,1.68-.2,3.36-.45,5.02-.51,3.32-1.33,6.59-2.09,9.85-.38,1.62-.69,3.2-.68,4.81,0,1.61.24,3.23.62,4.84.72,3.04,1.63,6.06,2.9,8.93.51-.6.98-1.23,1.38-1.9.29-.49.54-1.01.76-1.54.21-.54.35-1.05.54-1.68.37-1.19.86-2.32,1.36-3.43,1.01-2.22,2.18-4.35,3.37-6.45,2.4-4.2,4.97-8.3,7.63-12.33.03-.04.08-.05.13-.03.04.03.06.09.03.13-2.5,4.13-4.9,8.32-7.12,12.6-1.1,2.14-2.17,4.3-3.11,6.5-.46,1.1-.9,2.21-1.21,3.34-.14.53-.3,1.19-.51,1.78-.22.6-.48,1.18-.79,1.73-1.23,2.23-3.04,4.03-4.98,5.56-1.94,1.54-4.06,2.81-6.1,4.06-.52.31-.99.63-1.45.97-.47.34-.93.71-1.39,1.08-.93.74-1.83,1.52-2.74,2.31-1.81,1.56-3.62,3.16-5.41,4.75l-.04.04c-.1.08-.21.15-.35.18-.94.21-1.86.4-2.8.57l-.7.12c-.1.02-.27.04-.32.06-.02,0-.05.01-.07.02l-.12.05c-.34.15-.74.39-1.12.63-1.53,1-.64,1.66-2.13,2.8-1.5,1.13-2.73,2.96-4.22,4.11l-4.64,8.73c0,.23,0,5.46,0,5.69.54,5.78-.11,6.16-.3,9.21-.3,4.79.25,18.14-.34,19.93-.6,1.8,8.09,122.3,8.09,122.3h-24.53l6.53-123.41s.88-19.57.88-20.77.39-9.86-.21-11.05c-.42-.85-6.18-7.35-6.7-9.32-.04-.04-.08-.08-.12-.11l-.39-.42c-.13-.13-.27-.35-.39-.53l-.26-.4-.3-.42c-.4-.56-.83-1.13-1.26-1.69l-8.37-10.8c-.82.13-1.64.26-2.46.39-1.16.18-2.32.32-3.48.48-.58.08-1.16.18-1.74.27-.58.09-1.16.11-1.75.09-1.17-.06-2.35-.19-3.54-.62,0,0,0,0,0,0-.02,0-.03,0-.05,0-2.72-1.68-5.41-3.39-8.12-5.09l-7.9-5.06-4.25-.54c-1.46-.2-2.92-.45-4.36-.75-1.44-.3-2.89-.62-4.32-1-1.43-.37-2.86-.77-4.28-1.27-.04-.01-.06-.05-.06-.09,0-.05.04-.09.1-.1ZM159.33,234.42l-.06-.02s.02.01.03.02c0,0,.08.02.03,0ZM144.6,247.01c-.05-.1-.11-.19-.16-.29-.19-.37-.38-.75-.57-1.12-.03.02-.08.03-.11,0l-.5-.4c.21.28.42.56.63.84.24.33.48.65.71.98Z"/>
      </g>
      <g>
        <g>
          <path class="cls-2" d="M65.75,171.36s.51-6.38-2.92-3.84c-3.44,2.54-5.38,6.82-5.38,6.82l1.17,5.05-4.66,4.66-.39,4.27,3.5,6.21,4.66-1.94c3.11-3.49,3.88-5.83,3.88-5.83,0,0,1.55,6.99,3.11,6.99s4.66.39,4.66.39h3.88l2.86-5.68,1.11-1.87c1.86-4.1,3.46-8.76,3.46-8.76l-5.1-3.89-2.33-3.88-3.28-3.25c-2.94-1.8-5.76.39-8.23,4.54Z"/>
          <path class="cls-2" d="M164.29,116.98s.51-6.38-2.92-3.84c-3.44,2.54-5.38,6.82-5.38,6.82l1.16,5.05-4.66,4.66-.39,4.27,3.49,6.21,4.66-1.94c3.11-3.49,3.88-5.83,3.88-5.83,0,0,1.55,6.99,3.11,6.99s4.66.39,4.66.39h3.88l2.86-5.68,1.11-1.87c1.85-4.1,3.46-8.76,3.46-8.76l-5.1-3.89-2.33-3.88-3.27-3.25c-2.94-1.8-5.76.39-8.23,4.54Z"/>
          <path class="cls-2" d="M94.1,141.46s.51-6.38-2.92-3.84c-3.44,2.54-5.38,6.82-5.38,6.82l1.17,5.05-4.66,4.66-.39,4.27,3.5,6.21,4.66-1.94c3.11-3.49,3.88-5.83,3.88-5.83,0,0,1.55,6.99,3.11,6.99s4.66.39,4.66.39h3.88l2.86-5.68,1.11-1.87c1.86-4.1,3.46-8.76,3.46-8.76l-5.1-3.89-2.33-3.88-3.28-3.25c-2.94-1.8-5.76.39-8.23,4.54Z"/>
          <path class="cls-2" d="M46.41,119.59s-7.67-7.67-9.72-1.54l-2.05,6.14-10.23,4.09-.51,6.65,6.65.51s-2.56,6.14-2.56,8.18,1.02,3.58,3.07,4.09c2.05.51,7.16-4.09,7.16-4.09l1.53,9.21s7.67,6.14,8.18,2.05c.51-4.09,4.6-6.65,4.6-6.65,0,0,3.58,2.56,4.6-.51,1.02-3.07.51,2.05,1.02-3.07.51-5.12,2.56-8.18,2.56-8.18l-2.05-6.14s-1.53,0-2.56-5.12c-1.02-5.11-3.07-11.76-9.72-5.63Z"/>
          <path class="cls-2" d="M110.5,110.66s-7.67-7.67-9.72-1.54l-2.05,6.14-10.23,4.09-.51,6.65,6.65.51s-2.56,6.14-2.56,8.18,1.02,3.58,3.07,4.09c2.05.51,7.16-4.09,7.16-4.09l1.54,9.21s7.67,6.14,8.18,2.05,4.6-6.65,4.6-6.65c0,0,3.58,2.56,4.6-.51,1.02-3.07.51,2.05,1.02-3.07.51-5.12,2.56-8.18,2.56-8.18l-2.05-6.14s-1.54,0-2.56-5.12c-1.02-5.11-3.07-11.76-9.72-5.63Z"/>
          <path class="cls-2" d="M78.26,134.74s-7.67-7.67-9.72-1.54l-2.05,6.14-10.23,4.09-.51,6.65,6.65.51s-2.56,6.14-2.56,8.18,1.02,3.58,3.07,4.09c2.05.51,7.16-4.09,7.16-4.09l1.54,9.21s7.67,6.14,8.18,2.05c.51-4.09,4.6-6.65,4.6-6.65,0,0,3.58,2.56,4.6-.51,1.02-3.07.51,2.05,1.02-3.07.51-5.12,2.56-8.18,2.56-8.18l-2.05-6.14s-1.54,0-2.56-5.12c-1.02-5.11-3.07-11.76-9.72-5.63Z"/>
          <path class="cls-2" d="M121.94,168.49s-7.67-7.67-9.72-1.54l-2.05,6.14-10.23,4.09-.51,6.65,6.65.51s-2.56,6.14-2.56,8.18,1.02,3.58,3.07,4.09c2.05.51,7.16-4.09,7.16-4.09l1.54,9.21s7.67,6.14,8.18,2.05c.51-4.09,4.6-6.65,4.6-6.65,0,0,3.58,2.56,4.6-.51,1.02-3.07.51,2.05,1.02-3.07s2.56-8.18,2.56-8.18l-2.05-6.14s-1.54,0-2.56-5.12-3.07-11.77-9.72-5.63Z"/>
          <path class="cls-2" d="M124.8,84s-7.67-7.67-9.72-1.54l-2.05,6.14-10.23,4.09-.51,6.65,6.65.51s-2.56,6.14-2.56,8.18,1.02,3.58,3.07,4.09,7.16-4.09,7.16-4.09l1.54,9.21s7.67,6.14,8.18,2.05c.51-4.09,4.6-6.65,4.6-6.65,0,0,3.58,2.56,4.6-.51,1.02-3.07.51,2.05,1.02-3.07.51-5.12,2.56-8.18,2.56-8.18l-2.05-6.14s-1.54,0-2.56-5.12c-1.02-5.11-3.07-11.76-9.72-5.63Z"/>
          <path class="cls-2" d="M174.74,145.48s-7.67-7.67-9.72-1.54l-2.05,6.14-10.23,4.09-.51,6.65,6.65.51s-2.56,6.14-2.56,8.18,1.02,3.58,3.07,4.09c2.05.51,7.16-4.09,7.16-4.09l1.54,9.21s7.67,6.14,8.18,2.05c.51-4.09,4.6-6.65,4.6-6.65,0,0,3.58,2.56,4.6-.51,1.02-3.07.51,2.05,1.02-3.07.51-5.12,2.56-8.18,2.56-8.18l-2.05-6.14s-1.54,0-2.56-5.12c-1.02-5.12-3.07-11.77-9.72-5.63Z"/>
          <path class="cls-2" d="M154.41,127.69s-7.67-7.67-9.72-1.54l-2.05,6.14-10.23,4.09-.51,6.65,6.65.51s-2.56,6.14-2.56,8.18,1.02,3.58,3.07,4.09c2.05.51,7.16-4.09,7.16-4.09l1.54,9.21s7.67,6.14,8.18,2.05c.51-4.09,4.6-6.65,4.6-6.65,0,0,3.58,2.56,4.6-.51,1.02-3.07.51,2.05,1.02-3.07s2.56-8.18,2.56-8.18l-2.05-6.14s-1.54,0-2.56-5.12c-1.02-5.11-3.07-11.76-9.72-5.63Z"/>
          <path class="cls-2" d="M144.56,199.04s-1.37,10.76,4.73,8.63l6.11-2.14,9.5,5.59,5.57-3.66-3.66-5.57s6.42-1.73,8.04-2.99,2.21-3,1.36-4.93c-.85-1.93-7.62-3.16-7.62-3.16l6.34-6.85s.16-9.82-3.39-7.73c-3.55,2.1-8.08.43-8.08.43,0,0-.17-4.4-3.22-3.33s1.3-1.66-3.05,1.07c-4.36,2.73-8.04,2.99-8.04,2.99l-3.6,5.38s.94,1.21-2.48,5.15c-3.42,3.94-7.43,9.63,1.5,11.13Z"/>
          <path class="cls-2" d="M189.27,184.49s-1.07,8.37,3.68,6.71l4.75-1.66,7.39,4.35,4.33-2.85-2.85-4.33s4.99-1.35,6.25-2.32,1.72-2.33,1.06-3.84c-.66-1.5-5.93-2.46-5.93-2.46l4.93-5.33s.12-7.64-2.64-6.01c-2.76,1.63-6.28.33-6.28.33,0,0-.13-3.42-2.51-2.59-2.38.83,1.01-1.29-2.38.83s-6.25,2.32-6.25,2.32l-2.8,4.18s.73.94-1.93,4.01c-2.66,3.07-5.78,7.49,1.17,8.66Z"/>
          <path class="cls-2" d="M122.08,123.91s-1.07,8.37,3.68,6.71l4.75-1.66,7.39,4.35,4.33-2.85-2.85-4.33s4.99-1.35,6.25-2.32c1.26-.97,1.72-2.33,1.06-3.84-.66-1.5-5.93-2.46-5.93-2.46l4.93-5.33s.12-7.64-2.64-6.01c-2.76,1.63-6.28.33-6.28.33,0,0-.13-3.42-2.51-2.59-2.38.83,1.01-1.29-2.38.83s-6.25,2.32-6.25,2.32l-2.8,4.18s.73.94-1.93,4.01c-2.66,3.06-5.78,7.49,1.17,8.66Z"/>
          <path class="cls-2" d="M117.25,163.36s-1.07,8.37,3.68,6.71l4.75-1.66,7.39,4.35,4.33-2.85-2.85-4.33s4.99-1.35,6.25-2.32,1.72-2.33,1.06-3.84c-.66-1.5-5.93-2.46-5.93-2.46l4.93-5.33s.12-7.64-2.64-6.01c-2.76,1.63-6.28.33-6.28.33,0,0-.13-3.42-2.51-2.59s1.01-1.29-2.38.83c-3.39,2.12-6.25,2.32-6.25,2.32l-2.8,4.18s.73.94-1.93,4.01-5.78,7.49,1.17,8.66Z"/>
          <path class="cls-2" d="M76.59,104.24s-12.79,2.56-12.79,4.6-3.58,10.74-3.58,10.74l.51,5.12,3.58,9.21,6.75,6.61,3.99-2.52v-8.18l2.05-6.14,6.65-2.05,4.6-4.6s0-5.12-2.05-7.67c-2.05-2.56-9.72-5.12-9.72-5.12Z"/>
          <path class="cls-2" d="M200.1,124.44s-12.79,2.56-12.79,4.6-3.58,10.74-3.58,10.74l.51,5.12,3.58,9.21,6.75,6.61,3.99-2.52v-8.18l2.05-6.14,6.65-2.05,4.6-4.6s0-5.12-2.05-7.67c-2.05-2.56-9.72-5.11-9.72-5.11Z"/>
        </g>
        <path class="cls-1" d="M209.09,177.43c-1.9-.01-3.79.09-5.67.24-1.88.14-3.75.35-5.61.58-1.86.23-3.72.53-5.56.9l-5.52,1.14h-.07c-.11.04-.22.09-.32.16l-9.84,7.18c-3.24,2.41-6.5,4.8-9.73,7.24-1.43-.71-2.89-1.05-4.35-1.3-.74-.12-1.48-.17-2.22-.15-.74.03-1.49.07-2.23.09-1.49.02-2.97.04-4.46.09-.9.03-1.8.07-2.71.11l2.09-2.7,7.21-7.8c2.39-1.36,4.81-2.7,7.17-4.07l7.24-4.3,3.6-2.19c.62-.41,1.14-.62,1.81-.86.64-.23,1.32-.43,1.99-.62,2.69-.75,5.43-1.42,8.16-2.08-2.8.29-5.6.64-8.38,1.17-.7.13-1.39.27-2.09.45-.35.09-.7.18-1.07.32-.39.14-.68.31-.99.47l-3.75,1.93-14.93,7.88c-.1.05-.19.12-.27.21h-.01s-7.44,7.92-7.44,7.92c-.02.03-.05.06-.07.09-1.71,2.25-3.41,4.49-5.1,6.75l-1.26,1.04c.47-.96.93-1.92,1.36-2.89.7-1.57,1.26-3.19,1.82-4.81l1.74-4.85,1.14-2.37c.39-.82.8-1.63,1.18-2.46.76-1.65,1.54-3.3,2.28-4.96.02-.05,0-.11-.04-.15-.05-.04-.13-.02-.16.03-1.03,1.51-2.01,3.04-3.01,4.56-.51.76-.98,1.53-1.47,2.3l-1.46,2.3v.02s-.04.07-.04.07l-2.15,4.68c-.74,1.55-1.47,3.11-2.07,4.71-.61,1.6-1.14,3.24-1.64,4.89-.44,1.51-.85,3.03-1.14,4.6-.96,1.33-1.91,2.66-2.84,4.02-.52.75-1.02,1.5-1.52,2.28l-.38.59-.37.65c-.1.14-.14.26-.28.43l-.39.49c-.2.22-.41.44-.62.66l-8.43,5.11-2.28-3.04-1.9-6.47-1.9-4.19-4.68-6.47,2.98-4.49c1.38-2.05,2.75-4.11,4.15-6.12.7-.98,1.44-2.02,2.16-2.81.08-.08.18-.19.22-.21l.03-.03h.01c.26-.09.56-.18.85-.27l1.77-.52c2.38-.68,4.78-1.32,7.18-1.97h.03c.1-.03.2-.08.28-.14l11.53-8.09.03-.02s.09-.08.13-.13c.37-.47.7-.96,1.03-1.45l8.42-5.54c3.29-2.16,6.55-4.36,9.82-6.54,1.73-.35,3.38-.85,4.96-1.8.8-.5,1.59-1.14,2.15-2.07.13-.24.24-.49.35-.74v-.04s3.93.75,3.93.75l4.86.9,9.73,1.72c.34.06.7-.07.92-.35l.05-.07c.87-1.11,1.77-2.2,2.61-3.32.8-.39,1.59-.81,2.37-1.24.85-.49,1.71-.98,2.55-1.51.85-.51,1.68-1.05,2.5-1.62.82-.56,1.63-1.15,2.41-1.79.04-.03.05-.08.04-.12-.02-.07-.08-.1-.15-.09-.98.24-1.94.53-2.88.86-.94.32-1.88.66-2.79,1.03-.93.35-1.83.75-2.74,1.14-.9.4-1.79.82-2.67,1.28l-.04.02c-.16.08-.3.21-.41.36-.76,1.09-1.45,2.22-2.17,3.34l-9.18-.87-4.92-.42-3.91-.31.09-.24.42-1.22,1.71-4.87c.5-1.51,1.03-3.02,1.51-4.55,1.56-1.26,3.09-2.56,4.62-3.85,1.61-1.4,3.22-2.81,4.79-4.26l-.04.03c1.51-1.18,3-2.38,4.45-3.64.04-.04.05-.09.03-.14-.03-.06-.1-.08-.16-.05-1.72.85-3.41,1.76-5.07,2.7l-.04.03c-1.78,1.19-3.52,2.43-5.26,3.67-1.72,1.26-3.45,2.52-5.13,3.83-.18.14-.32.34-.4.57v.03c-.55,1.63-1.01,3.28-1.51,4.92l-1.41,4.95-.36,1.24-.18.61-.18.43c-.3.57-.84,1.08-1.47,1.52-1.27.86-2.89,1.45-4.44,1.81h-.06c-.09.04-.17.07-.24.13-3.21,2.37-6.43,4.72-9.62,7.12l-7.32,5.49c.47-.77.89-1.57,1.27-2.4.38-.83.7-1.71.94-2.6l.71-2.55c.96-3.4,1.94-6.79,3-10.16.53-1.68,1.08-3.36,1.69-5.01.3-.82.62-1.65.98-2.44.17-.4.36-.79.57-1.16.1-.2.21-.37.33-.52l.18-.24.23-.26c1.17-1.42,1.96-3.01,2.77-4.6.78-1.59,1.51-3.21,2.19-4.84.02-.06,0-.13-.06-.15-.06-.03-.13,0-.16.06-.73,1.6-1.52,3.19-2.35,4.74-.85,1.53-1.71,3.11-2.84,4.38-.14.14-.29.32-.44.52-.16.19-.3.38-.4.58-.24.39-.46.79-.64,1.2-.4.8-.75,1.62-1.09,2.45-.68,1.65-1.29,3.31-1.88,4.98-1.19,3.34-2.28,6.71-3.32,10.1l-.77,2.54c-.25.81-.56,1.59-.93,2.36-.73,1.49-1.66,2.94-2.69,4.21l-11.21,7.42c-.52-2.51-1.1-5-1.76-7.49-.21-.71-.4-1.42-.66-2.13-.06-.18-.13-.36-.2-.54-.06-.18-.15-.37-.26-.57-.11-.22-.19-.34-.28-.5l-.26-.46c-.69-1.26-1.34-2.56-1.93-3.86-.59-1.31-1.12-2.65-1.49-3.96-.17-.62-.33-1.34-.31-1.7-.05.05.12-.64.14-.97.05-.4.07-.78.09-1.16.04-1.51,0-2.98-.13-4.46-.13-1.47-.32-2.94-.65-4.4,0-.04-.04-.08-.09-.09-.07-.01-.13.03-.15.09-.67,2.91-.96,5.83-1.34,8.65-.05.34-.09.7-.15,1.02-.05.4-.11.41-.19,1.2,0,1.1.29,1.81.56,2.57.6,1.45,1.29,2.76,2.02,4.06.72,1.3,1.49,2.56,2.3,3.81l.31.47c.1.15.24.33.29.44.07.11.15.25.23.41.07.15.15.3.22.47.29.64.54,1.32.8,2,.93,2.4,1.74,4.87,2.57,7.32l-7.07,1.69-1.82.46c-.31.08-.61.16-.94.26l-.12.04s-.17.07-.25.11c-.09.04-.2.1-.26.15l-.14.11c-.21.16-.32.28-.46.41-.97,1.02-1.69,2.01-2.45,3.04-1.49,2.03-2.87,4.11-4.21,6.22-.82,1.27-1.6,2.55-2.38,3.84l-.38-.52c-.31-1-.67-1.98-1.1-2.95-.1-.23-.22-.45-.34-.67-.31-2.36-.58-4.74-.79-7.12-.11-1.23-.21-2.46-.28-3.69-.04-.62-.07-1.23-.09-1.84-.03-.63,0-1.18-.1-1.92-.16-1.4-.76-2.69-1.52-3.76-.78-1.07-1.69-1.99-2.65-2.84-1.93-1.67-4.04-3.04-6.05-4.46-.5-.36-.99-.71-1.43-1.1-.11-.1-.22-.19-.32-.29l-.04-.04c1.38-2.95,2.71-5.92,4.04-8.89.68-1.58,1.36-3.16,2.01-4.77.16-.4.32-.8.48-1.22.16-.4.31-.9.42-1.27l.75-2.47c.5-1.65,1-3.31,1.45-5,.21-.85.41-1.7.55-2.59.13-.89.24-1.77.2-2.78,0-.23-.07-.55-.1-.81-.05-.26-.09-.41-.14-.62l-.25-1.23-.51-2.51c-.34-1.68-.7-3.37-1.18-5.05-.01-.05-.05-.08-.1-.09-.07,0-.13.04-.13.11-.2,1.74-.26,3.48-.24,5.21,0,.87.05,1.74.09,2.61.03.44.07.88.12,1.32.02.21.07.48.08.65,0,.16.03.27,0,.47-.01.71-.14,1.54-.26,2.34-.12.81-.27,1.64-.41,2.48-.27,1.67-.62,3.34-.99,5.01l-.58,2.51c-.1.46-.18.78-.3,1.2-.12.4-.25.8-.38,1.21-.53,1.62-1.1,3.24-1.67,4.86l-3.15,9.07-.02-.03c-.19-.2-.37-.44-.55-.69-.72-.97-1.39-2.02-2.05-3.06-1.32-2.1-2.58-4.23-3.83-6.37-2.49-4.29-4.93-8.63-7.31-12.98-.03-.06-.1-.08-.16-.05-.06.03-.08.1-.05.16,2.25,4.43,4.54,8.84,6.9,13.22,1.18,2.19,2.38,4.37,3.64,6.52.64,1.08,1.27,2.15,1.99,3.2.17.26.36.52.58.79l.32.39c.11.12.24.23.36.34.48.45.98.84,1.49,1.22,2.02,1.5,4.05,2.89,5.84,4.52.88.82,1.7,1.7,2.36,2.65.65.96,1.09,2.02,1.18,3.09.07.49.03,1.19.04,1.8,0,.63.02,1.26.04,1.88.04,1.25.11,2.5.19,3.75.08,1.13.17,2.26.26,3.38-.38-.47-.77-.92-1.2-1.35-.39-.43-.84-.8-1.3-1.15-.44-.38-.94-.68-1.44-.99-.48-.33-1.03-.56-1.56-.8-.54-.26-1.06-.44-1.58-.61-2.08-.71-4.19-1.21-6.29-1.67-2.1-.47-4.2-.84-6.22-1.33-1-.25-1.99-.54-2.84-.94-.42-.2-.79-.44-1.04-.71-.12-.13-.21-.27-.26-.41-.02-.07-.06-.15-.06-.23l-.02-.12v-.21c-.08-1.15-.3-2.21-.53-3.27-.24-1.05-.5-2.1-.8-3.13-.6-2.06-1.23-4.1-1.97-6.11-.02-.05-.08-.09-.14-.07-.06.01-.1.08-.09.14.44,2.09.89,4.17,1.25,6.26.35,2.08.73,4.21.73,6.21v.18s.01.27.01.27c0,.18.05.37.09.55.1.37.28.7.5.98.44.56.97.92,1.48,1.22,1.04.59,2.1.93,3.15,1.26,2.1.63,4.17,1.11,6.22,1.63,2.05.52,4.06,1.1,6.01,1.79.49.18.97.36,1.39.57.44.2.88.38,1.28.66.41.26.83.49,1.19.82.38.3.76.6,1.1.96,1.81,1.77,3.17,4.07,4.13,6.53l1.18,4.04c.02.14.05.28.13.41.9,1.52,1.79,3.07,2.61,4.64.4.79.81,1.57,1.16,2.37.18.4.33.79.47,1.18.04.18.12.39.15.55l.04.24v.33c0,1.79-.02,3.58.01,5.38,0,.02,0,.04,0,.06-1.21-1.17-2.44-2.33-3.67-3.48-1.75-1.65-3.55-3.24-5.36-4.82-1.84-1.56-3.65-3.13-5.67-4.55-.51-.35-1.02-.7-1.66-1.02l-.25-.12-.34-.11c-.22-.06-.31-.08-.47-.12l-.87-.21c-1.05-.26-2.11-.52-3.15-.8-2.14-2.1-4.34-4.12-6.62-6.07-2.38-1.96-4.77-3.99-7.59-5.55-2.7-1.51-5.33-2.97-7.75-4.76-1.49-1.11-2.91-2.34-4.12-3.71.95-1.69,1.75-3.45,2.47-5.25.81-1.99,1.52-4,2.15-6.06.61-2.07,1.07-4.21,1.19-6.42.14-2.21-.18-4.43-.55-6.53-.38-2.1-.69-4.18-1-6.29-.32-2.1-.71-4.18-1.18-6.24-.84-4.16-1.58-8.34-2.83-12.46-.01-.05-.06-.08-.11-.09-.07,0-.12.05-.12.12-.05,2.15.03,4.29.16,6.43.14,2.13.26,4.27.57,6.38.64,4.22,1.7,8.38,2.66,12.53.48,2.06.88,4.07.87,6.12,0,2.05-.31,4.12-.79,6.16-.92,3.86-2.07,7.71-3.69,11.36-.65-.76-1.25-1.56-1.75-2.42-.37-.63-.69-1.29-.96-1.96-.27-.69-.44-1.34-.68-2.14-.47-1.52-1.09-2.95-1.73-4.36-1.29-2.82-2.77-5.53-4.29-8.21-3.06-5.35-6.32-10.56-9.71-15.69-.03-.05-.11-.07-.16-.04-.06.04-.07.11-.04.16,3.18,5.25,6.23,10.59,9.06,16.02,1.4,2.72,2.76,5.47,3.95,8.27.59,1.4,1.14,2.82,1.54,4.24.18.68.38,1.52.65,2.27.29.76.61,1.5,1,2.2,1.57,2.83,3.87,5.12,6.33,7.07,2.46,1.96,5.17,3.57,7.76,5.16.66.4,1.25.8,1.84,1.23.6.44,1.18.91,1.77,1.37,1.18.95,2.33,1.93,3.48,2.94,2.31,1.99,4.6,4.02,6.89,6.04l.05.05c.12.11.27.19.44.23,1.19.26,2.37.51,3.56.72l.89.16c.13.02.34.05.41.07.03,0,.06.02.09.02l.15.07c.44.19.95.49,1.43.8,1.95,1.27.81,2.12,2.71,3.56,1.91,1.44,3.47,3.77,5.37,5.23l5.9,11.11c0,.29,0,6.95,0,7.24-.69,7.35.14,7.83.38,11.72.38,6.09-.32,23.07.44,25.36s-10.29,155.57-10.29,155.57h31.21l-8.31-156.99s-1.12-24.9-1.12-26.42-.5-12.54.26-14.06c.54-1.08,7.87-9.35,8.52-11.86.05-.05.1-.1.16-.15l.5-.53c.16-.17.34-.45.5-.68l.33-.51.38-.54c.51-.72,1.06-1.44,1.6-2.15l10.64-13.73c1.04.17,2.09.33,3.13.5,1.47.22,2.95.41,4.42.61.74.1,1.47.23,2.21.35.74.11,1.48.15,2.22.12,1.49-.07,2.99-.24,4.51-.79,0,0,0,0,.01-.01.02,0,.04,0,.06,0,3.46-2.13,6.88-4.31,10.32-6.47l10.05-6.43,5.41-.69c1.86-.25,3.71-.57,5.55-.96,1.84-.39,3.67-.79,5.5-1.27,1.82-.47,3.64-.98,5.44-1.61.05-.02.08-.06.08-.11,0-.06-.06-.12-.12-.12ZM124.88,183.41l.08-.03s-.03.02-.04.02c0,0-.1.02-.04,0ZM143.61,199.43c.07-.12.13-.25.2-.37.25-.48.48-.95.72-1.43.04.03.1.04.14,0l.64-.51c-.26.35-.53.71-.8,1.06-.3.41-.6.83-.91,1.24Z"/>
      </g>
      <g>
        <g>
          <path class="cls-2" d="M707.04,279.14s-.29-3.64,1.67-2.19c1.96,1.45,3.07,3.89,3.07,3.89l-.66,2.88,2.66,2.66.22,2.43-1.99,3.54-2.66-1.11c-1.77-1.99-2.21-3.32-2.21-3.32,0,0-.89,3.98-1.77,3.98s-2.66.22-2.66.22h-2.21l-1.63-3.24-.63-1.07c-1.06-2.34-1.97-4.99-1.97-4.99l2.91-2.21,1.33-2.21,1.87-1.85c1.68-1.03,3.28.22,4.69,2.59Z"/>
          <path class="cls-2" d="M650.88,248.14s-.29-3.64,1.67-2.19c1.96,1.45,3.07,3.89,3.07,3.89l-.66,2.88,2.66,2.66.22,2.43-1.99,3.54-2.66-1.11c-1.77-1.99-2.21-3.32-2.21-3.32,0,0-.89,3.98-1.77,3.98s-2.66.22-2.66.22h-2.21l-1.63-3.24-.63-1.07c-1.06-2.34-1.97-4.99-1.97-4.99l2.91-2.21,1.33-2.21,1.87-1.85c1.68-1.03,3.28.22,4.69,2.59Z"/>
          <path class="cls-2" d="M690.88,262.09s-.29-3.64,1.67-2.19c1.96,1.45,3.07,3.89,3.07,3.89l-.66,2.88,2.66,2.66.22,2.43-1.99,3.54-2.66-1.11c-1.77-1.99-2.21-3.32-2.21-3.32,0,0-.89,3.98-1.77,3.98s-2.66.22-2.66.22h-2.21l-1.63-3.24-.63-1.07c-1.06-2.34-1.97-4.99-1.97-4.99l2.91-2.21,1.33-2.21,1.87-1.85c1.68-1.03,3.28.22,4.69,2.59Z"/>
          <path class="cls-2" d="M718.06,249.63s4.37-4.37,5.54-.88l1.17,3.5,5.83,2.33.29,3.79-3.79.29s1.46,3.5,1.46,4.66-.58,2.04-1.75,2.33c-1.17.29-4.08-2.33-4.08-2.33l-.88,5.25s-4.37,3.5-4.66,1.17c-.29-2.33-2.62-3.79-2.62-3.79,0,0-2.04,1.46-2.62-.29-.58-1.75-.29,1.17-.58-1.75-.29-2.92-1.46-4.66-1.46-4.66l1.17-3.5s.88,0,1.46-2.92c.58-2.92,1.75-6.7,5.54-3.21Z"/>
          <path class="cls-2" d="M681.54,244.54s4.37-4.37,5.54-.88l1.17,3.5,5.83,2.33.29,3.79-3.79.29s1.46,3.5,1.46,4.67-.58,2.04-1.75,2.33-4.08-2.33-4.08-2.33l-.88,5.25s-4.37,3.5-4.66,1.17c-.29-2.33-2.62-3.79-2.62-3.79,0,0-2.04,1.46-2.62-.29-.58-1.75-.29,1.17-.58-1.75-.29-2.92-1.46-4.66-1.46-4.66l1.17-3.5s.88,0,1.46-2.92c.58-2.92,1.75-6.71,5.54-3.21Z"/>
          <path class="cls-2" d="M699.91,258.26s4.37-4.37,5.54-.88l1.17,3.5,5.83,2.33.29,3.79-3.79.29s1.46,3.5,1.46,4.66-.58,2.04-1.75,2.33c-1.17.29-4.08-2.33-4.08-2.33l-.88,5.25s-4.37,3.5-4.66,1.17c-.29-2.33-2.62-3.79-2.62-3.79,0,0-2.04,1.46-2.62-.29-.58-1.75-.29,1.17-.58-1.75-.29-2.92-1.46-4.66-1.46-4.66l1.17-3.5s.88,0,1.46-2.92c.58-2.92,1.75-6.71,5.54-3.21Z"/>
          <path class="cls-2" d="M675.02,277.5s4.37-4.37,5.54-.88l1.17,3.5,5.83,2.33.29,3.79-3.79.29s1.46,3.5,1.46,4.66-.58,2.04-1.75,2.33c-1.17.29-4.08-2.33-4.08-2.33l-.88,5.25s-4.37,3.5-4.66,1.17c-.29-2.33-2.62-3.79-2.62-3.79,0,0-2.04,1.46-2.62-.29-.58-1.75-.29,1.17-.58-1.75-.29-2.92-1.46-4.66-1.46-4.66l1.17-3.5s.88,0,1.46-2.92c.58-2.92,1.75-6.7,5.54-3.21Z"/>
          <path class="cls-2" d="M673.39,229.35s4.37-4.37,5.54-.88l1.17,3.5,5.83,2.33.29,3.79-3.79.29s1.46,3.5,1.46,4.67-.58,2.04-1.75,2.33c-1.17.29-4.08-2.33-4.08-2.33l-.88,5.25s-4.37,3.5-4.66,1.17c-.29-2.33-2.62-3.79-2.62-3.79,0,0-2.04,1.46-2.62-.29-.58-1.75-.29,1.17-.58-1.75-.29-2.92-1.46-4.67-1.46-4.67l1.17-3.5s.88,0,1.46-2.92c.58-2.92,1.75-6.71,5.54-3.21Z"/>
          <path class="cls-2" d="M644.92,264.38s4.37-4.37,5.54-.88l1.17,3.5,5.83,2.33.29,3.79-3.79.29s1.46,3.5,1.46,4.66-.58,2.04-1.75,2.33c-1.17.29-4.08-2.33-4.08-2.33l-.88,5.25s-4.37,3.5-4.66,1.17-2.62-3.79-2.62-3.79c0,0-2.04,1.46-2.62-.29-.58-1.75-.29,1.17-.58-1.75-.29-2.92-1.46-4.66-1.46-4.66l1.17-3.5s.88,0,1.46-2.92c.58-2.91,1.75-6.7,5.54-3.21Z"/>
          <path class="cls-2" d="M656.51,254.24s4.37-4.37,5.54-.88l1.17,3.5,5.83,2.33.29,3.79-3.79.29s1.46,3.5,1.46,4.67-.58,2.04-1.75,2.33c-1.17.29-4.08-2.33-4.08-2.33l-.88,5.25s-4.37,3.5-4.66,1.17c-.29-2.33-2.62-3.79-2.62-3.79,0,0-2.04,1.46-2.62-.29-.58-1.75-.29,1.17-.58-1.75-.29-2.92-1.46-4.66-1.46-4.66l1.17-3.5s.88,0,1.46-2.92c.58-2.92,1.75-6.7,5.54-3.21Z"/>
          <path class="cls-2" d="M662.13,294.91s.78,6.14-2.7,4.92l-3.48-1.22-5.41,3.18-3.18-2.09,2.09-3.18s-3.66-.99-4.58-1.7-1.26-1.71-.77-2.81c.48-1.1,4.34-1.8,4.34-1.8l-3.61-3.9s-.09-5.6,1.93-4.4c2.02,1.2,4.6.24,4.6.24,0,0,.1-2.51,1.84-1.9s-.74-.94,1.74.61,4.58,1.7,4.58,1.7l2.05,3.06s-.53.69,1.41,2.94c1.95,2.25,4.23,5.49-.85,6.35Z"/>
          <path class="cls-2" d="M636.65,286.62s.61,4.77-2.1,3.82l-2.71-.95-4.21,2.48-2.47-1.62,1.62-2.47s-2.85-.77-3.56-1.32-.98-1.33-.6-2.19c.38-.86,3.38-1.4,3.38-1.4l-2.81-3.04s-.07-4.36,1.5-3.42c1.57.93,3.58.19,3.58.19,0,0,.08-1.95,1.43-1.48,1.35.47-.58-.73,1.35.47s3.56,1.32,3.56,1.32l1.6,2.38s-.42.54,1.1,2.28c1.52,1.75,3.29,4.27-.66,4.93Z"/>
          <path class="cls-2" d="M674.94,252.09s.61,4.77-2.1,3.82l-2.71-.95-4.21,2.48-2.47-1.62,1.62-2.47s-2.85-.77-3.56-1.32-.98-1.33-.6-2.19c.38-.86,3.38-1.4,3.38-1.4l-2.81-3.04s-.07-4.36,1.5-3.42,3.58.19,3.58.19c0,0,.08-1.95,1.43-1.48s-.58-.73,1.35.47,3.56,1.32,3.56,1.32l1.6,2.38s-.42.54,1.1,2.28c1.52,1.75,3.29,4.27-.66,4.93Z"/>
          <path class="cls-2" d="M677.69,274.57s.61,4.77-2.1,3.82l-2.71-.95-4.21,2.48-2.47-1.62,1.62-2.47s-2.85-.77-3.56-1.32-.98-1.33-.6-2.19c.38-.86,3.38-1.4,3.38-1.4l-2.81-3.04s-.07-4.36,1.5-3.42,3.58.19,3.58.19c0,0,.08-1.95,1.43-1.48,1.35.47-.58-.73,1.35.47s3.56,1.32,3.56,1.32l1.6,2.38s-.42.54,1.1,2.28c1.52,1.75,3.29,4.27-.66,4.94Z"/>
          <path class="cls-2" d="M700.86,240.88s7.29,1.46,7.29,2.62,2.04,6.12,2.04,6.12l-.29,2.92-2.04,5.25-3.85,3.77-2.27-1.44v-4.67l-1.17-3.5-3.79-1.17-2.62-2.62s0-2.92,1.17-4.37c1.17-1.46,5.54-2.92,5.54-2.92Z"/>
          <path class="cls-2" d="M630.47,252.39s7.29,1.46,7.29,2.62,2.04,6.12,2.04,6.12l-.29,2.92-2.04,5.25-3.85,3.77-2.27-1.44v-4.66l-1.17-3.5-3.79-1.17-2.62-2.62s0-2.92,1.17-4.37c1.17-1.46,5.54-2.92,5.54-2.92Z"/>
        </g>
        <path class="cls-1" d="M625.35,282.6c1.09,0,2.16.05,3.23.14,1.07.08,2.14.2,3.2.33,1.06.13,2.12.3,3.17.51l3.15.65h.04c.06.02.13.05.18.09l5.61,4.09c1.85,1.37,3.71,2.74,5.54,4.13.82-.41,1.65-.6,2.48-.74.42-.07.84-.1,1.27-.08.42.02.85.04,1.27.05.85.01,1.7.02,2.54.05.51.02,1.03.04,1.54.06l-1.19-1.54-4.11-4.44c-1.36-.77-2.74-1.54-4.09-2.32l-4.12-2.45-2.05-1.25c-.35-.23-.65-.35-1.03-.49-.37-.13-.75-.24-1.13-.35-1.53-.43-3.09-.81-4.65-1.19,1.6.17,3.19.37,4.78.67.4.08.79.16,1.19.26.2.05.4.1.61.18.22.08.39.17.57.27l2.14,1.1,8.51,4.49c.06.03.11.07.16.12h0s4.24,4.51,4.24,4.51c.01.01.03.03.04.05.97,1.28,1.94,2.56,2.91,3.85l.72.59c-.27-.55-.53-1.09-.78-1.65-.4-.89-.72-1.82-1.04-2.74l-.99-2.76-.65-1.35c-.22-.47-.46-.93-.67-1.4-.43-.94-.88-1.88-1.3-2.83-.01-.03,0-.07.02-.08.03-.02.07-.01.09.02.59.86,1.15,1.73,1.72,2.6.29.43.56.87.84,1.31l.83,1.31h0s.02.05.02.05l1.22,2.67c.42.88.84,1.77,1.18,2.69.34.92.65,1.85.93,2.79.25.86.48,1.73.65,2.62.55.76,1.09,1.52,1.62,2.29.29.43.58.85.87,1.3l.21.34.21.37c.06.08.08.15.16.24l.22.28c.11.13.23.25.35.38l4.8,2.91,1.3-1.73,1.08-3.69,1.08-2.39,2.67-3.69-1.7-2.56c-.79-1.17-1.57-2.34-2.37-3.49-.4-.56-.82-1.15-1.23-1.6-.05-.04-.1-.11-.13-.12l-.02-.02h0c-.15-.05-.32-.1-.48-.15l-1.01-.29c-1.36-.39-2.72-.76-4.09-1.12h-.02c-.06-.02-.11-.05-.16-.08l-6.57-4.61h-.02s-.05-.06-.07-.08c-.21-.27-.4-.55-.59-.83l-4.8-3.16c-1.88-1.23-3.73-2.48-5.6-3.73-.99-.2-1.92-.49-2.83-1.03-.46-.29-.91-.65-1.23-1.18-.08-.13-.14-.28-.2-.42v-.02s-2.24.43-2.24.43l-2.77.51-5.55.98c-.19.03-.4-.04-.52-.2l-.03-.04c-.49-.63-1.01-1.25-1.49-1.89-.46-.22-.91-.46-1.35-.71-.49-.28-.98-.56-1.46-.86-.48-.29-.96-.6-1.42-.92-.47-.32-.93-.65-1.37-1.02-.02-.02-.03-.04-.02-.07,0-.04.05-.06.08-.05.56.14,1.1.3,1.64.49.54.18,1.07.37,1.59.58.53.2,1.04.43,1.56.65.51.23,1.02.47,1.52.73h.02c.09.06.17.13.23.22.43.62.83,1.27,1.24,1.9l5.23-.49,2.81-.24,2.23-.18-.05-.14-.24-.69-.97-2.77c-.29-.86-.59-1.72-.86-2.59-.89-.72-1.76-1.46-2.64-2.2-.92-.8-1.84-1.6-2.73-2.43l.03.02c-.86-.67-1.71-1.36-2.53-2.08-.02-.02-.03-.05-.02-.08.02-.03.06-.05.09-.03.98.49,1.94,1.01,2.89,1.54l.03.02c1.01.68,2.01,1.38,3,2.09.98.72,1.96,1.44,2.92,2.18.1.08.18.19.23.32v.02c.31.93.58,1.87.86,2.8l.8,2.82.2.7.1.35.1.24c.17.32.48.62.84.86.73.49,1.65.83,2.53,1.03h.04s.1.04.14.07c1.83,1.35,3.66,2.69,5.48,4.05l4.17,3.13c-.27-.44-.51-.89-.72-1.37-.22-.48-.4-.97-.54-1.48l-.4-1.45c-.55-1.94-1.1-3.87-1.71-5.79-.3-.96-.62-1.91-.97-2.85-.17-.47-.35-.94-.56-1.39-.1-.23-.21-.45-.33-.66-.05-.11-.12-.21-.19-.3l-.1-.14-.13-.15c-.67-.81-1.11-1.72-1.58-2.62-.45-.91-.86-1.83-1.25-2.76-.01-.03,0-.07.03-.09.03-.02.07,0,.09.03.42.92.86,1.82,1.34,2.7.48.87.98,1.77,1.62,2.5.08.08.16.18.25.29.09.11.17.22.23.33.14.22.26.45.37.68.23.46.43.93.62,1.39.39.94.73,1.89,1.07,2.84.68,1.9,1.3,3.83,1.9,5.76l.44,1.45c.14.46.32.91.53,1.35.41.85.95,1.68,1.53,2.4l6.39,4.23c.3-1.43.62-2.85,1-4.27.12-.4.23-.81.38-1.21.03-.1.07-.2.11-.31.04-.1.08-.21.15-.33.06-.13.11-.2.16-.28l.15-.27c.39-.72.76-1.46,1.1-2.2.33-.74.64-1.51.85-2.26.1-.36.19-.76.18-.97.03.03-.07-.36-.08-.55-.03-.23-.04-.44-.05-.66-.02-.86,0-1.7.08-2.54.07-.84.18-1.68.37-2.51,0-.02.03-.05.05-.05.04,0,.08.02.08.05.38,1.66.55,3.32.76,4.93.03.2.05.4.09.58.03.23.07.24.11.68,0,.63-.17,1.03-.32,1.46-.34.82-.74,1.57-1.15,2.32-.41.74-.85,1.46-1.31,2.17l-.18.27c-.06.09-.14.19-.17.25-.04.06-.09.14-.13.23-.04.09-.09.17-.12.27-.16.37-.31.75-.46,1.14-.53,1.37-.99,2.77-1.46,4.17l4.03.96,1.04.26c.18.05.34.09.53.15l.07.02s.1.04.14.06c.05.02.11.06.15.08l.08.06c.12.09.18.16.26.24.55.58.96,1.15,1.4,1.73.85,1.16,1.64,2.34,2.4,3.54.46.72.91,1.45,1.36,2.19l.22-.3c.17-.57.38-1.13.62-1.68.06-.13.13-.25.19-.38.18-1.35.33-2.7.45-4.06.06-.7.12-1.4.16-2.1.02-.35.04-.7.05-1.05.02-.36,0-.67.06-1.1.09-.8.43-1.53.87-2.14.45-.61.97-1.14,1.51-1.62,1.1-.95,2.3-1.73,3.45-2.54.28-.2.57-.41.82-.63.06-.05.13-.11.18-.17l.02-.02c-.79-1.68-1.54-3.37-2.3-5.07-.39-.9-.78-1.8-1.15-2.72-.09-.23-.18-.46-.27-.7-.09-.23-.18-.52-.24-.73l-.43-1.4c-.29-.94-.57-1.89-.83-2.85-.12-.48-.24-.97-.31-1.48-.08-.51-.14-1.01-.11-1.59,0-.13.04-.31.06-.46.03-.15.05-.23.08-.35l.15-.7.29-1.43c.2-.96.4-1.92.67-2.88,0-.03.03-.05.06-.05.04,0,.07.02.08.06.11.99.15,1.98.14,2.97,0,.49-.03.99-.05,1.49-.02.25-.04.5-.07.75-.01.12-.04.27-.04.37,0,.09-.01.15,0,.27,0,.4.08.88.15,1.34.07.46.15.94.23,1.41.15.95.35,1.9.56,2.86l.33,1.43c.06.26.1.45.17.68.07.23.14.46.22.69.3.92.63,1.85.95,2.77l1.8,5.17v-.02c.12-.12.22-.25.33-.4.41-.55.79-1.15,1.17-1.75.75-1.19,1.47-2.41,2.18-3.63,1.42-2.45,2.81-4.92,4.17-7.4.02-.03.06-.04.09-.03.03.02.05.06.03.09-1.28,2.53-2.59,5.04-3.93,7.54-.67,1.25-1.36,2.49-2.08,3.72-.36.61-.72,1.22-1.14,1.82-.1.15-.2.3-.33.45l-.18.22c-.07.07-.14.13-.2.2-.28.26-.56.48-.85.69-1.15.85-2.31,1.64-3.33,2.58-.5.47-.97.97-1.34,1.51-.37.55-.62,1.15-.67,1.76-.04.28-.02.68-.03,1.03,0,.36-.01.72-.03,1.07-.03.71-.06,1.43-.11,2.14-.04.64-.09,1.29-.15,1.93.21-.27.44-.52.68-.77.22-.24.48-.45.74-.66.25-.22.54-.39.82-.56.28-.19.58-.32.89-.45.31-.15.6-.25.9-.35,1.18-.4,2.39-.69,3.59-.95,1.2-.27,2.39-.48,3.54-.76.57-.14,1.14-.31,1.62-.54.24-.11.45-.25.59-.4.07-.08.12-.15.15-.24.01-.04.03-.08.03-.13v-.07s.02-.12.02-.12c.04-.65.16-1.26.29-1.86.14-.6.28-1.2.46-1.78.34-1.17.7-2.34,1.12-3.48.01-.03.04-.05.08-.04.04,0,.06.04.05.08-.25,1.19-.51,2.38-.71,3.57-.2,1.18-.42,2.4-.42,3.54v.26c0,.11-.04.21-.06.32-.06.21-.16.4-.28.56-.25.32-.55.52-.85.7-.59.34-1.2.53-1.79.72-1.19.36-2.38.63-3.55.93-1.17.3-2.32.62-3.43,1.02-.28.1-.55.2-.79.33-.25.11-.5.22-.73.38-.23.14-.47.28-.68.47-.22.17-.43.34-.62.55-1.03,1.01-1.81,2.32-2.35,3.72l-.67,2.3c0,.08-.03.16-.08.24-.51.87-1.02,1.75-1.49,2.65-.23.45-.46.9-.66,1.35-.1.23-.19.45-.27.67-.03.1-.07.22-.08.31l-.02.13v.19c0,1.02.01,2.04,0,3.07v.03c.69-.67,1.39-1.33,2.09-1.99,1-.94,2.02-1.85,3.05-2.75,1.05-.89,2.08-1.78,3.23-2.6.29-.2.58-.4.95-.58l.15-.07.19-.06c.12-.04.18-.04.27-.07l.49-.12c.6-.15,1.21-.3,1.8-.46,1.22-1.2,2.47-2.35,3.77-3.46,1.36-1.12,2.72-2.28,4.32-3.16,1.54-.86,3.04-1.69,4.41-2.71.85-.63,1.66-1.33,2.35-2.11-.54-.96-1-1.97-1.41-2.99-.46-1.13-.86-2.28-1.23-3.45-.35-1.18-.61-2.4-.68-3.66-.08-1.26.1-2.52.32-3.72.22-1.2.4-2.39.57-3.58.18-1.19.41-2.38.67-3.56.48-2.37.9-4.75,1.61-7.1,0-.03.03-.05.06-.05.04,0,.07.03.07.07.03,1.23-.02,2.45-.09,3.66-.08,1.22-.15,2.43-.33,3.64-.37,2.41-.97,4.78-1.52,7.14-.28,1.17-.5,2.32-.5,3.49,0,1.17.17,2.35.45,3.51.52,2.2,1.18,4.4,2.1,6.47.37-.43.71-.89,1-1.38.21-.36.39-.73.55-1.11.15-.39.25-.76.39-1.22.27-.87.62-1.68.99-2.49.74-1.61,1.58-3.15,2.45-4.68,1.74-3.05,3.6-6.02,5.53-8.94.02-.03.06-.04.09-.02.03.02.04.06.02.09-1.81,2.99-3.55,6.03-5.16,9.13-.8,1.55-1.57,3.12-2.25,4.71-.34.8-.65,1.61-.88,2.42-.1.39-.22.86-.37,1.29-.16.43-.35.85-.57,1.26-.89,1.61-2.21,2.92-3.61,4.03-1.4,1.11-2.94,2.04-4.42,2.94-.37.23-.72.46-1.05.7-.34.25-.67.52-1.01.78-.67.54-1.33,1.1-1.98,1.67-1.32,1.13-2.62,2.29-3.92,3.44l-.03.03c-.07.06-.16.11-.25.13-.68.15-1.35.29-2.03.41l-.51.09c-.08.01-.19.03-.23.04-.02,0-.03.01-.05.01l-.09.04c-.25.11-.54.28-.81.46-1.11.72-.46,1.21-1.54,2.03-1.09.82-1.98,2.15-3.06,2.98l-3.36,6.33c0,.17,0,3.96,0,4.13.4,4.19-.08,4.46-.22,6.68-.22,3.47.18,13.15-.25,14.45-.43,1.3,5.87,88.66,5.87,88.66h-17.78l4.74-89.47s.64-14.19.64-15.06.28-7.15-.15-8.01c-.31-.61-4.48-5.33-4.86-6.76-.03-.03-.06-.05-.09-.08l-.28-.3c-.09-.1-.2-.26-.29-.39l-.19-.29-.22-.3c-.29-.41-.6-.82-.91-1.23l-6.07-7.83c-.59.1-1.19.19-1.78.28-.84.13-1.68.23-2.52.35-.42.06-.84.13-1.26.2-.42.06-.84.08-1.27.07-.85-.04-1.7-.14-2.57-.45,0,0,0,0,0,0-.01,0-.02,0-.03,0-1.97-1.21-3.92-2.46-5.88-3.69l-5.73-3.67-3.08-.39c-1.06-.14-2.11-.33-3.16-.55-1.05-.22-2.09-.45-3.13-.72-1.04-.27-2.08-.56-3.1-.92-.03,0-.05-.04-.05-.06,0-.03.03-.06.07-.06ZM673.34,286l-.04-.02s.02.01.02.01c0,0,.05.01.02,0ZM662.67,295.13c-.04-.07-.08-.14-.11-.21-.14-.27-.28-.54-.41-.82-.02.02-.05.02-.08,0l-.36-.29c.15.2.3.4.45.61.17.24.34.47.52.71Z"/>
      </g>
      <g>
        <g>
          <path class="cls-2" d="M265.5,279.14s-.29-3.64,1.67-2.19c1.96,1.45,3.07,3.89,3.07,3.89l-.66,2.88,2.66,2.66.22,2.43-1.99,3.54-2.66-1.11c-1.77-1.99-2.21-3.32-2.21-3.32,0,0-.89,3.98-1.77,3.98s-2.66.22-2.66.22h-2.21l-1.63-3.24-.63-1.07c-1.06-2.34-1.97-4.99-1.97-4.99l2.91-2.21,1.33-2.21,1.87-1.85c1.68-1.03,3.28.22,4.69,2.59Z"/>
          <path class="cls-2" d="M209.34,248.14s-.29-3.64,1.67-2.19c1.96,1.45,3.07,3.89,3.07,3.89l-.66,2.88,2.66,2.66.22,2.43-1.99,3.54-2.66-1.11c-1.77-1.99-2.21-3.32-2.21-3.32,0,0-.88,3.98-1.77,3.98s-2.66.22-2.66.22h-2.21l-1.63-3.24-.63-1.07c-1.06-2.34-1.97-4.99-1.97-4.99l2.91-2.21,1.33-2.21,1.87-1.85c1.67-1.03,3.28.22,4.69,2.59Z"/>
          <path class="cls-2" d="M249.34,262.09s-.29-3.64,1.67-2.19c1.96,1.45,3.06,3.89,3.06,3.89l-.66,2.88,2.66,2.66.22,2.43-1.99,3.54-2.66-1.11c-1.77-1.99-2.21-3.32-2.21-3.32,0,0-.88,3.98-1.77,3.98s-2.66.22-2.66.22h-2.21l-1.63-3.24-.63-1.07c-1.06-2.34-1.97-4.99-1.97-4.99l2.91-2.21,1.33-2.21,1.87-1.85c1.68-1.03,3.28.22,4.69,2.59Z"/>
          <path class="cls-2" d="M276.52,249.63s4.37-4.37,5.54-.88l1.17,3.5,5.83,2.33.29,3.79-3.79.29s1.46,3.5,1.46,4.66-.58,2.04-1.75,2.33c-1.17.29-4.08-2.33-4.08-2.33l-.88,5.25s-4.37,3.5-4.66,1.17c-.29-2.33-2.62-3.79-2.62-3.79,0,0-2.04,1.46-2.62-.29-.58-1.75-.29,1.17-.58-1.75-.29-2.92-1.46-4.66-1.46-4.66l1.17-3.5s.88,0,1.46-2.92c.58-2.92,1.75-6.7,5.54-3.21Z"/>
          <path class="cls-2" d="M240,244.54s4.37-4.37,5.54-.88l1.17,3.5,5.83,2.33.29,3.79-3.79.29s1.46,3.5,1.46,4.67-.58,2.04-1.75,2.33c-1.17.29-4.08-2.33-4.08-2.33l-.88,5.25s-4.37,3.5-4.66,1.17c-.29-2.33-2.62-3.79-2.62-3.79,0,0-2.04,1.46-2.62-.29-.58-1.75-.29,1.17-.58-1.75-.29-2.92-1.46-4.66-1.46-4.66l1.17-3.5s.88,0,1.46-2.92c.58-2.92,1.75-6.71,5.54-3.21Z"/>
          <path class="cls-2" d="M258.37,258.26s4.37-4.37,5.54-.88l1.17,3.5,5.83,2.33.29,3.79-3.79.29s1.46,3.5,1.46,4.66-.58,2.04-1.75,2.33c-1.17.29-4.08-2.33-4.08-2.33l-.88,5.25s-4.37,3.5-4.67,1.17c-.29-2.33-2.62-3.79-2.62-3.79,0,0-2.04,1.46-2.62-.29-.58-1.75-.29,1.17-.58-1.75-.29-2.92-1.46-4.66-1.46-4.66l1.17-3.5s.88,0,1.46-2.92c.58-2.92,1.75-6.71,5.54-3.21Z"/>
          <path class="cls-2" d="M233.47,277.5s4.37-4.37,5.54-.88l1.17,3.5,5.83,2.33.29,3.79-3.79.29s1.46,3.5,1.46,4.66-.58,2.04-1.75,2.33c-1.17.29-4.08-2.33-4.08-2.33l-.88,5.25s-4.37,3.5-4.66,1.17c-.29-2.33-2.62-3.79-2.62-3.79,0,0-2.04,1.46-2.62-.29-.58-1.75-.29,1.17-.58-1.75-.29-2.92-1.46-4.66-1.46-4.66l1.17-3.5s.88,0,1.46-2.92c.58-2.92,1.75-6.7,5.54-3.21Z"/>
          <path class="cls-2" d="M231.85,229.35s4.37-4.37,5.54-.88l1.17,3.5,5.83,2.33.29,3.79-3.79.29s1.46,3.5,1.46,4.67-.58,2.04-1.75,2.33c-1.17.29-4.08-2.33-4.08-2.33l-.88,5.25s-4.37,3.5-4.66,1.17c-.29-2.33-2.62-3.79-2.62-3.79,0,0-2.04,1.46-2.62-.29-.58-1.75-.29,1.17-.58-1.75-.29-2.92-1.46-4.67-1.46-4.67l1.17-3.5s.88,0,1.46-2.92c.58-2.92,1.75-6.71,5.54-3.21Z"/>
          <path class="cls-2" d="M203.38,264.38s4.37-4.37,5.54-.88l1.17,3.5,5.83,2.33.29,3.79-3.79.29s1.46,3.5,1.46,4.66-.58,2.04-1.75,2.33c-1.17.29-4.08-2.33-4.08-2.33l-.88,5.25s-4.37,3.5-4.66,1.17c-.29-2.33-2.62-3.79-2.62-3.79,0,0-2.04,1.46-2.62-.29s-.29,1.17-.58-1.75c-.29-2.92-1.46-4.66-1.46-4.66l1.17-3.5s.88,0,1.46-2.92c.58-2.91,1.75-6.7,5.54-3.21Z"/>
          <path class="cls-2" d="M214.97,254.24s4.37-4.37,5.54-.88l1.17,3.5,5.83,2.33.29,3.79-3.79.29s1.46,3.5,1.46,4.67-.58,2.04-1.75,2.33c-1.17.29-4.08-2.33-4.08-2.33l-.88,5.25s-4.37,3.5-4.66,1.17c-.29-2.33-2.62-3.79-2.62-3.79,0,0-2.04,1.46-2.62-.29s-.29,1.17-.58-1.75c-.29-2.92-1.46-4.66-1.46-4.66l1.17-3.5s.88,0,1.46-2.92c.58-2.92,1.75-6.7,5.54-3.21Z"/>
          <path class="cls-2" d="M220.58,294.91s.78,6.14-2.7,4.92l-3.48-1.22-5.41,3.18-3.18-2.09,2.09-3.18s-3.66-.99-4.58-1.7-1.26-1.71-.77-2.81,4.34-1.8,4.34-1.8l-3.62-3.9s-.09-5.6,1.93-4.4c2.02,1.2,4.6.24,4.6.24,0,0,.1-2.51,1.84-1.9s-.74-.94,1.74.61c2.48,1.55,4.58,1.7,4.58,1.7l2.05,3.06s-.54.69,1.41,2.94c1.95,2.25,4.23,5.49-.85,6.35Z"/>
          <path class="cls-2" d="M195.11,286.62s.61,4.77-2.1,3.82l-2.71-.95-4.21,2.48-2.47-1.62,1.62-2.47s-2.85-.77-3.56-1.32c-.72-.55-.98-1.33-.6-2.19s3.38-1.4,3.38-1.4l-2.81-3.04s-.07-4.36,1.5-3.42c1.57.93,3.58.19,3.58.19,0,0,.07-1.95,1.43-1.48,1.35.47-.58-.73,1.35.47,1.93,1.21,3.56,1.32,3.56,1.32l1.6,2.38s-.42.54,1.1,2.28c1.51,1.75,3.29,4.27-.66,4.93Z"/>
          <path class="cls-2" d="M233.4,252.09s.61,4.77-2.1,3.82l-2.71-.95-4.21,2.48-2.47-1.62,1.62-2.47s-2.85-.77-3.56-1.32c-.72-.55-.98-1.33-.6-2.19.38-.86,3.38-1.4,3.38-1.4l-2.81-3.04s-.07-4.36,1.5-3.42c1.57.93,3.58.19,3.58.19,0,0,.07-1.95,1.43-1.48s-.58-.73,1.35.47c1.93,1.21,3.56,1.32,3.56,1.32l1.6,2.38s-.42.54,1.1,2.28c1.52,1.75,3.29,4.27-.66,4.93Z"/>
          <path class="cls-2" d="M236.15,274.57s.61,4.77-2.1,3.82l-2.71-.95-4.21,2.48-2.47-1.62,1.62-2.47s-2.85-.77-3.56-1.32c-.72-.55-.98-1.33-.6-2.19s3.38-1.4,3.38-1.4l-2.81-3.04s-.07-4.36,1.5-3.42c1.57.93,3.58.19,3.58.19,0,0,.07-1.95,1.43-1.48,1.35.47-.58-.73,1.35.47,1.93,1.21,3.56,1.32,3.56,1.32l1.6,2.38s-.42.54,1.1,2.28c1.52,1.75,3.29,4.27-.66,4.94Z"/>
          <path class="cls-2" d="M259.32,240.88s7.29,1.46,7.29,2.62,2.04,6.12,2.04,6.12l-.29,2.92-2.04,5.25-3.85,3.77-2.27-1.44v-4.67l-1.17-3.5-3.79-1.17-2.62-2.62s0-2.92,1.17-4.37c1.17-1.46,5.54-2.92,5.54-2.92Z"/>
          <path class="cls-2" d="M188.93,252.39s7.29,1.46,7.29,2.62,2.04,6.12,2.04,6.12l-.29,2.92-2.04,5.25-3.85,3.77-2.27-1.44v-4.66l-1.17-3.5-3.79-1.17-2.62-2.62s0-2.92,1.17-4.37c1.17-1.46,5.54-2.92,5.54-2.92Z"/>
        </g>
        <path class="cls-1" d="M183.81,282.6c1.09,0,2.16.05,3.23.14,1.07.08,2.13.2,3.2.33,1.06.13,2.12.3,3.17.51l3.15.65h.04c.06.02.13.05.18.09l5.61,4.09c1.85,1.37,3.71,2.74,5.54,4.13.82-.41,1.65-.6,2.48-.74.42-.07.84-.1,1.27-.08.42.02.85.04,1.27.05.85.01,1.7.02,2.54.05.51.02,1.03.04,1.54.06l-1.19-1.54-4.11-4.44c-1.36-.77-2.74-1.54-4.09-2.32l-4.12-2.45-2.05-1.25c-.35-.23-.65-.35-1.03-.49-.37-.13-.75-.24-1.13-.35-1.53-.43-3.09-.81-4.65-1.19,1.6.17,3.19.37,4.78.67.4.08.79.16,1.19.26.2.05.4.1.61.18.22.08.38.17.57.27l2.14,1.1,8.51,4.49c.06.03.11.07.15.12h0s4.24,4.51,4.24,4.51c.01.01.03.03.04.05.97,1.28,1.94,2.56,2.91,3.85l.72.59c-.27-.55-.53-1.09-.78-1.65-.4-.89-.72-1.82-1.04-2.74l-.99-2.76-.65-1.35c-.22-.47-.46-.93-.67-1.4-.43-.94-.88-1.88-1.3-2.83-.01-.03,0-.07.02-.08.03-.02.07-.01.09.02.59.86,1.15,1.73,1.72,2.6.29.43.56.87.84,1.31l.83,1.31h0s.02.05.02.05l1.22,2.67c.42.88.84,1.77,1.18,2.69.35.92.65,1.85.93,2.79.25.86.48,1.73.65,2.62.55.76,1.09,1.52,1.62,2.29.29.43.58.85.87,1.3l.21.34.21.37c.06.08.08.15.16.24l.22.28c.11.13.23.25.35.38l4.8,2.91,1.3-1.73,1.08-3.69,1.08-2.39,2.67-3.69-1.7-2.56c-.79-1.17-1.57-2.34-2.37-3.49-.4-.56-.82-1.15-1.23-1.6-.05-.04-.1-.11-.13-.12v-.02s-.02,0-.02,0c-.15-.05-.32-.1-.48-.15l-1.01-.29c-1.36-.39-2.72-.76-4.09-1.12h-.02c-.06-.02-.11-.05-.16-.08l-6.57-4.61h-.02s-.05-.06-.07-.08c-.21-.27-.4-.55-.59-.83l-4.8-3.16c-1.87-1.23-3.73-2.48-5.6-3.73-.99-.2-1.93-.49-2.83-1.03-.46-.29-.91-.65-1.23-1.18-.08-.13-.14-.28-.2-.42v-.02s-2.24.43-2.24.43l-2.77.51-5.55.98c-.19.03-.4-.04-.52-.2l-.03-.04c-.49-.63-1.01-1.25-1.49-1.89-.46-.22-.91-.46-1.35-.71-.49-.28-.98-.56-1.46-.86-.48-.29-.96-.6-1.42-.92-.47-.32-.93-.65-1.37-1.02-.02-.02-.03-.04-.02-.07,0-.04.05-.06.08-.05.56.14,1.1.3,1.64.49.54.18,1.07.37,1.59.58.53.2,1.04.43,1.56.65.51.23,1.02.47,1.52.73h.02c.09.06.17.13.23.22.43.62.83,1.27,1.24,1.9l5.23-.49,2.81-.24,2.23-.18-.05-.14-.24-.69-.98-2.77c-.29-.86-.59-1.72-.86-2.59-.89-.72-1.76-1.46-2.63-2.2-.92-.8-1.84-1.6-2.73-2.43l.02.02c-.86-.67-1.71-1.36-2.53-2.08-.02-.02-.03-.05-.02-.08.02-.03.06-.05.09-.03.98.49,1.94,1.01,2.89,1.54l.02.02c1.01.68,2.01,1.38,3,2.09.98.72,1.96,1.44,2.92,2.18.1.08.18.19.23.32v.02c.31.93.58,1.87.86,2.8l.8,2.82.2.7.1.35.1.24c.17.32.48.62.84.86.73.49,1.65.83,2.53,1.03h.04s.1.04.14.07c1.83,1.35,3.66,2.69,5.48,4.05l4.17,3.13c-.27-.44-.51-.89-.72-1.37-.21-.48-.4-.97-.54-1.48l-.4-1.45c-.55-1.94-1.1-3.87-1.71-5.79-.3-.96-.62-1.91-.96-2.85-.17-.47-.35-.94-.56-1.39-.1-.23-.21-.45-.33-.66-.05-.11-.12-.21-.19-.3l-.1-.14-.13-.15c-.67-.81-1.12-1.72-1.58-2.62-.45-.91-.86-1.83-1.25-2.76-.01-.03,0-.07.04-.09.03-.02.07,0,.09.03.42.92.87,1.82,1.34,2.7.48.87.98,1.77,1.62,2.5.08.08.16.18.25.29.09.11.17.22.23.33.14.22.26.45.37.68.23.46.43.93.62,1.39.39.94.74,1.89,1.07,2.84.68,1.9,1.3,3.83,1.9,5.76l.44,1.45c.14.46.32.91.53,1.35.41.85.95,1.68,1.53,2.4l6.39,4.23c.3-1.43.62-2.85,1-4.27.12-.4.23-.81.38-1.21.03-.1.07-.2.12-.31.04-.1.08-.21.15-.33.06-.13.11-.2.16-.28l.15-.27c.39-.72.76-1.46,1.1-2.2.33-.74.64-1.51.85-2.26.1-.36.19-.76.18-.97.03.03-.07-.36-.08-.55-.03-.23-.04-.44-.05-.66-.02-.86,0-1.7.07-2.54.07-.84.18-1.68.37-2.51,0-.02.02-.05.05-.05.04,0,.07.02.08.05.38,1.66.55,3.32.76,4.93.03.2.05.4.09.58.03.23.07.24.11.68,0,.63-.17,1.03-.32,1.46-.34.82-.74,1.57-1.15,2.32-.41.74-.85,1.46-1.31,2.17l-.18.27c-.06.09-.13.19-.17.25-.04.06-.09.14-.13.23-.04.09-.09.17-.12.27-.16.37-.31.75-.46,1.14-.53,1.37-.99,2.77-1.46,4.17l4.03.96,1.04.26c.18.05.35.09.54.15l.07.02s.1.04.14.06c.05.02.11.06.15.08l.08.06c.12.09.18.16.26.24.55.58.96,1.15,1.4,1.73.85,1.16,1.63,2.34,2.4,3.54.46.72.91,1.45,1.36,2.19l.22-.3c.18-.57.38-1.13.62-1.68.06-.13.13-.25.19-.38.18-1.35.33-2.7.45-4.06.06-.7.12-1.4.16-2.1.02-.35.04-.7.05-1.05.02-.36,0-.67.06-1.1.09-.8.43-1.53.87-2.14.45-.61.96-1.14,1.51-1.62,1.1-.95,2.3-1.73,3.45-2.54.28-.2.57-.41.82-.63.06-.05.13-.11.18-.17l.02-.02c-.79-1.68-1.54-3.37-2.3-5.07-.39-.9-.77-1.8-1.15-2.72-.09-.23-.18-.46-.27-.7-.09-.23-.18-.52-.24-.73l-.43-1.4c-.29-.94-.57-1.89-.83-2.85-.12-.48-.24-.97-.31-1.48-.08-.51-.14-1.01-.11-1.59,0-.13.04-.31.06-.46.03-.15.05-.23.08-.35l.15-.7.29-1.43c.2-.96.4-1.92.67-2.88,0-.03.03-.05.06-.05.04,0,.07.02.08.06.12.99.15,1.98.14,2.97,0,.49-.03.99-.05,1.49-.01.25-.04.5-.07.75-.01.12-.04.27-.04.37,0,.09-.01.15,0,.27,0,.4.08.88.15,1.34.07.46.15.94.23,1.41.15.95.35,1.9.56,2.86l.33,1.43c.06.26.1.45.17.68.07.23.14.46.22.69.3.92.63,1.85.95,2.77l1.8,5.17v-.02c.12-.12.23-.25.32-.4.41-.55.79-1.15,1.17-1.75.75-1.19,1.47-2.41,2.18-3.63,1.42-2.45,2.81-4.92,4.17-7.4.02-.03.06-.04.09-.03.03.02.05.06.03.09-1.28,2.53-2.59,5.04-3.93,7.54-.68,1.25-1.36,2.49-2.08,3.72-.36.61-.72,1.22-1.14,1.82-.1.15-.2.3-.33.45l-.18.22c-.07.07-.14.13-.2.2-.27.26-.56.48-.85.69-1.15.85-2.31,1.64-3.33,2.58-.5.47-.97.97-1.35,1.51-.37.55-.62,1.15-.67,1.76-.04.28-.02.68-.03,1.03,0,.36-.01.72-.02,1.07-.03.71-.06,1.43-.11,2.14-.04.64-.09,1.29-.15,1.93.21-.27.44-.52.68-.77.22-.24.48-.45.74-.66.25-.22.54-.39.82-.56.28-.19.58-.32.89-.45.31-.15.6-.25.9-.35,1.18-.4,2.39-.69,3.59-.95,1.2-.27,2.39-.48,3.54-.76.57-.14,1.14-.31,1.62-.54.24-.11.45-.25.59-.4.07-.08.12-.15.15-.24.01-.04.03-.08.03-.13v-.07s.02-.12.02-.12c.04-.65.16-1.26.29-1.86.14-.6.28-1.2.45-1.78.34-1.17.7-2.34,1.12-3.48.01-.03.05-.05.08-.04.04,0,.06.04.05.08-.25,1.19-.51,2.38-.71,3.57-.2,1.18-.42,2.4-.42,3.54v.26c0,.11-.04.21-.06.32-.06.21-.16.4-.29.56-.25.32-.55.52-.85.7-.59.34-1.2.53-1.79.72-1.19.36-2.38.63-3.55.93-1.17.3-2.32.62-3.43,1.02-.28.1-.55.2-.79.33-.25.11-.5.22-.73.38-.23.14-.47.28-.68.47-.21.17-.43.34-.62.55-1.03,1.01-1.81,2.32-2.35,3.72l-.67,2.3c0,.08-.03.16-.07.24-.51.87-1.02,1.75-1.49,2.65-.23.45-.46.9-.66,1.35-.1.23-.19.45-.27.67-.03.1-.07.22-.08.31l-.02.13v.19c0,1.02.01,2.04,0,3.07v.03c.69-.67,1.39-1.33,2.09-1.99,1-.94,2.02-1.85,3.05-2.75,1.05-.89,2.08-1.78,3.23-2.6.29-.2.58-.4.95-.58l.15-.07.19-.06c.12-.04.18-.04.27-.07l.49-.12c.6-.15,1.21-.3,1.8-.46,1.22-1.2,2.47-2.35,3.77-3.46,1.36-1.12,2.72-2.28,4.32-3.16,1.54-.86,3.04-1.69,4.42-2.71.85-.63,1.66-1.33,2.35-2.11-.54-.96-1-1.97-1.41-2.99-.46-1.13-.86-2.28-1.23-3.45-.35-1.18-.61-2.4-.68-3.66-.08-1.26.1-2.52.32-3.72.22-1.2.39-2.39.57-3.58.18-1.19.41-2.38.67-3.56.48-2.37.9-4.75,1.61-7.1,0-.03.03-.05.06-.05.04,0,.07.03.07.07.03,1.23-.02,2.45-.09,3.66-.08,1.22-.15,2.43-.33,3.64-.37,2.41-.97,4.78-1.52,7.14-.27,1.17-.5,2.32-.5,3.49,0,1.17.17,2.35.45,3.51.52,2.2,1.18,4.4,2.1,6.47.37-.43.71-.89,1-1.38.21-.36.39-.73.55-1.11.15-.39.25-.76.39-1.22.27-.87.62-1.68.99-2.49.74-1.61,1.58-3.15,2.45-4.68,1.74-3.05,3.6-6.02,5.54-8.94.02-.03.06-.04.09-.02.03.02.04.06.02.09-1.81,2.99-3.55,6.03-5.16,9.13-.8,1.55-1.57,3.12-2.25,4.71-.33.8-.65,1.61-.88,2.42-.1.39-.22.86-.37,1.29-.16.43-.35.85-.57,1.26-.89,1.61-2.2,2.92-3.61,4.03-1.4,1.11-2.94,2.04-4.42,2.94-.37.23-.71.46-1.05.7-.34.25-.67.52-1.01.78-.67.54-1.33,1.1-1.98,1.67-1.32,1.13-2.62,2.29-3.92,3.44l-.03.03c-.07.06-.16.11-.25.13-.68.15-1.35.29-2.03.41l-.51.09c-.07.01-.19.03-.23.04-.02,0-.03.01-.05.01l-.09.04c-.25.11-.54.28-.81.46-1.11.72-.46,1.21-1.54,2.03-1.09.82-1.98,2.15-3.06,2.98l-3.36,6.33c0,.17,0,3.96,0,4.13.4,4.19-.08,4.46-.22,6.68-.22,3.47.18,13.15-.25,14.45-.43,1.3,5.87,88.66,5.87,88.66h-17.79l4.74-89.47s.64-14.19.64-15.06.29-7.15-.15-8.01c-.31-.61-4.48-5.33-4.86-6.76-.03-.03-.06-.05-.09-.08l-.28-.3c-.09-.1-.2-.26-.29-.39l-.19-.29-.22-.3c-.29-.41-.6-.82-.91-1.23l-6.07-7.83c-.59.1-1.19.19-1.78.28-.84.13-1.68.23-2.52.35-.42.06-.84.13-1.26.2-.42.06-.84.08-1.27.07-.85-.04-1.7-.14-2.57-.45,0,0,0,0,0,0-.01,0-.02,0-.04,0-1.97-1.21-3.92-2.46-5.88-3.69l-5.73-3.67-3.07-.39c-1.06-.14-2.11-.33-3.16-.55-1.05-.22-2.09-.45-3.13-.72-1.04-.27-2.08-.56-3.1-.92-.03,0-.05-.04-.05-.06,0-.04.03-.07.07-.07ZM231.8,286l-.04-.02s.01.01.02.01c0,0,.06.01.02,0ZM221.12,295.13c-.04-.07-.08-.14-.12-.21-.14-.27-.27-.54-.41-.82-.02.02-.05.02-.08,0l-.37-.29c.15.2.3.4.45.61.17.24.34.47.52.71Z"/>
      </g>
    </g>
  </g>
</svg>