<?xml version="1.0" encoding="UTF-8"?>
<svg id="Layer_2" data-name="Layer 2" xmlns="http://www.w3.org/2000/svg" viewBox="0 0 900.2 55.48">
  <defs>
    <style>
      .cls-1 {
        fill: #1b2926;
      }
    </style>
  </defs>
  <g id="Layer_1-2" data-name="Layer 1">
    <g>
      <path class="cls-1" d="M900.2,14.38c-3-1.3-6-1.5-9.4-2.3-3.8-.9-6.5.4-10,1.3-2.6.7-3,1.2-5.6,0-1.3-.6-2.7-1.9-4-2.4-1.7-.6-6.9.3-8.5,2-2.3,2.4-1.1,4.6-5,3-3.5-1.4-6.6-4-10.3-5.3-3.4-1.3-6.4-2.7-9.5-4.8-2.1-1.5-5-3.6-6.8-5.4-1.2-1.3-8.4.2-10.8,2.7-1.5,1.5-3,3.7-5,4.5-.8.3-1.9,0-2.7.3-.9.4-2,2.2-2.8,2.3-1.6,0-1.4-2.4-2.1-3-2.4-2.1-6.5.6-8.8,2.5-2,1.6-3.3,3.3-5.5,4.6-3.8,2.3-6.9,4.3-10.1,7.4-3.1,2.9-6.4,5.6-10.1,7.2-2.3,1-5.1,1.3-7.4,2.3-2.6,1.1-4.1.3-6.7,1.6-3.1,1.5-5,1.2-8.1,2-2.3.6-5.5-1.2-7.9-.5-4,1.2-7.4,4.6-11.3,3.6-3-.8-5.2-3-8.3-3.1-3.2-.2-5.5.4-8.6,0-2.9-.3-5.9-2.1-8.2-.7-1.2.7-4.1.4-5.3.2-4.9-1.1-5.2.8-8.6-2.7-2.3-2.5-2.5-2.3-5.3-1.6-1.8.4-2.5.1-4-.3-2.8-.9-4.5-5.3-7.2-6.7-4.9-2.5-10-6.3-15.9-7.2-2.1-.3-2.5.9-4.1,1.3-1.2.3-2.5.1-3.8.1-3.7,0-7.1,0-10.6.7-4.3.9-6.6,1.4-9.7-2-1.4-1.5-11.9-3.2-13.4-2.4-4.6,2.6-8.3,7-12.3,10.4-3.3,2.7-7.4,4.4-11.6,5.3-3.3.7-5.5-5.7-8.7-4.9-2.6.6-7.6,5.5-10.1,4.2-3.2-1.6-6.4-1.4-10.3-.7-5.9,1.1-14.5,5.4-19.9,2.4-3-1.7-4.8-2.2-7.9-3-1.2-.3-2.7-.5-4-.9-1.2-.4-2.7-.5-3.9-.4-3.1,0-4.1,1.2-6.9,2.4-2.5,1.1-3.8.8-5.6-1.2-2.2-2.5-4.4-4.3-7.4-6.2-2.1-1.3-5.3-2.8-7.5-3.5-2.8-.9-5.7-1.5-8.5-2.8-.8-.4-1.7-1.4-2.5-1.5-1.6,0-3.8,1.7-5.4,2.2-3.6,1.1-6.8,2.2-10.6,2-3.4-.2-5-3.8-7.9-4.1-1.7-.2-4,1.9-5.3,2.7-2.2,1.5-4,.2-6.4,1.5-.5.3-2.5-.5-4.6-1.8-.5-.3-1-.7-1.6-1v40.8h450V14.68h0l.3-.3Z"/>
      <path class="cls-1" d="M450.2,14.38c-3-1.3-6-1.5-9.4-2.3-3.8-.9-6.5.4-10,1.3-2.6.7-3,1.2-5.6,0-1.3-.6-2.7-1.9-4-2.4-1.7-.6-6.9.3-8.5,2-2.3,2.4-1.1,4.6-5,3-3.5-1.4-6.6-4-10.3-5.3-3.4-1.3-6.4-2.7-9.5-4.8-2.1-1.5-5-3.6-6.8-5.4-1.2-1.3-8.4.2-10.8,2.7-1.5,1.5-3,3.7-5,4.5-.8.3-1.9,0-2.7.3-.9.4-2,2.2-2.8,2.3-1.6,0-1.4-2.4-2.1-3-2.4-2.1-6.5.6-8.8,2.5-2,1.6-3.3,3.3-5.5,4.6-3.8,2.3-6.9,4.3-10.1,7.4-3.1,2.9-6.4,5.6-10.1,7.2-2.3,1-5.1,1.3-7.4,2.3-2.6,1.1-4.1.3-6.7,1.6-3.1,1.5-5,1.2-8.1,2-2.3.6-5.5-1.2-7.9-.5-4,1.2-7.4,4.6-11.3,3.6-3-.8-5.2-3-8.3-3.1-3.2-.2-5.5.4-8.6,0-2.9-.3-5.9-2.1-8.2-.7-1.2.7-4.1.4-5.3.2-4.9-1.1-5.2.8-8.6-2.7-2.3-2.5-2.5-2.3-5.3-1.6-1.8.4-2.5.1-4-.3-2.8-.9-4.5-5.3-7.2-6.7-4.9-2.5-10-6.3-15.9-7.2-2.1-.3-2.5.9-4.1,1.3-1.2.3-2.5.1-3.8.1-3.7,0-7.1,0-10.6.7-4.3.9-6.6,1.4-9.7-2-1.4-1.5-11.9-3.2-13.4-2.4-4.6,2.6-8.3,7-12.3,10.4-3.3,2.7-7.4,4.4-11.6,5.3-3.3.7-6,2.9-9.2,3.7-2.6.6-7.8-1.1-10.3-2.4-3.2-1.6-5.7-3.4-9.5-2.7-5.9,1.1-14.5,5.4-19.9,2.4-3-1.7-4.8-2.2-7.9-3-1.2-.3-2.7-.5-4-.9-1.2-.4-2.7-.5-3.9-.4-3.1,0-4.1,1.2-6.9,2.4-2.5,1.1-3.8.8-5.6-1.2-2.2-2.5-4.4-4.3-7.4-6.2-2.1-1.3-5.3-2.8-7.5-3.5-2.8-.9-5.7-1.5-8.5-2.8-.8-.4-1.7-1.4-2.5-1.5-1.6,0-3.8,1.7-5.4,2.2-3.6,1.1-6.8,2.2-10.6,2-3.4-.2-5-3.8-7.9-4.1-1.7-.2-4,1.9-5.3,2.7-2.2,1.5-4,.2-6.4,1.5-.5.3-2.5-.5-4.6-1.8-.5-.3-1-.7-1.6-1v40.8h450V14.68h0l.2-.3Z"/>
    </g>
  </g>
</svg>