<?xml version="1.0" encoding="utf-8"?>
<!-- Generator: Adobe Illustrator 27.5.0, SVG Export Plug-In . SVG Version: 6.00 Build 0)  -->
<svg version="1.1" id="Layer_1" xmlns="http://www.w3.org/2000/svg" xmlns:xlink="http://www.w3.org/1999/xlink" x="0px" y="0px"
	 viewBox="0 0 434.834 200.222" style="enable-background:new 0 0 434.834 200.222;" xml:space="preserve">
<g>
	<g>
		<path style="fill:#F6F6F6;" d="M358.142,141.951c-1.189-1.092-2.38-2.181-3.566-3.277c-6.472-5.977-12.889-12.022-19.133-18.257
			c-3.12-3.116-6.197-6.279-9.215-9.502c-2.5-2.669-4.84-5.487-7.202-8.287c-4.686-5.555-9.41-11.113-14.706-16.06
			c-0.21-0.149-0.42-0.301-0.632-0.443c-3.188-2.133-6.616-3.158-9.989-4.216c-7.26-2.277-14.572-4.047-21.822-6.426
			c-14.238-4.674-28.388-10.054-42.396-16.299c-7.15-3.188-14.168-6.956-21.268-10.402c-3.116-1.512-6.391-2.2-9.472-3.835
			c-3.398-1.802-6.145-6.174-8.598-10.221c-1.906-3.144-3.393-6.557-5.035-9.976c-3.512-2.03-7.043-4.025-10.578-6.013
			c-0.91-0.512-1.849-0.99-2.718-1.574c-0.819-0.55-1.629-1.113-2.433-1.686c-1.62-1.154-3.214-2.348-4.797-3.557
			c-3.169-2.421-6.292-4.904-9.496-7.275c-0.75-0.555-1.505-1.103-2.266-1.643c-1.392,0.679-2.785,1.359-4.177,2.038
			c-2.695,1.314-5.387,2.637-8.06,4c-2.233,1.138-4.453,2.306-6.651,3.515c-1.21,1.541-2.444,3.035-3.694,4.543
			c-5.46,6.587-10.853,13.509-16.868,18.746c-6.19,5.389-12.998,9-19.657,12.528c-1.224,0.648-2.452,1.282-3.682,1.912
			c-4.541,3.639-9.124,7.22-13.75,10.742c-4.884,3.718-9.813,7.371-14.785,10.962c-2.436,1.759-4.882,3.503-7.337,5.233
			c-4.041,4.778-8.053,9.583-12.006,14.439c-4.857,5.968-9.63,12.012-14.27,18.163c-1.093,1.449-2.178,2.906-3.257,4.367
			c-0.209,1.131-0.418,2.262-0.625,3.393c-1.013,5.543-2.04,11.075-3.17,16.594c-0.529,2.586-1.056,5.175-1.54,7.773H358.142z"/>
		<g>
			<path style="fill:#DFECF3;" d="M32.33,105.807c-0.838,1.088-1.641,2.207-2.374,3.374c-0.596,0.95-1.159,1.936-1.586,2.981
				c-0.435,1.063-0.447,2.242-0.342,3.375c0.134,1.446,0.477,2.871,0.88,4.26c0.738,2.544,1.72,5.008,2.784,7.422
				c1.249-2.416,2.253-4.958,3.101-7.553c1.591-4.868,2.666-9.894,3.94-14.856c0.757-2.948,1.59-5.889,2.632-8.745
				c-1.066,0.954-2.094,1.957-3.096,2.974C36.168,101.174,34.166,103.424,32.33,105.807z"/>
			<path style="fill:#DFECF3;" d="M136.57,34.356c-0.433-1.846-0.855-3.696-1.256-5.55c-0.231,3.549-0.365,7.106-0.448,10.66
				c-0.155,6.685-0.125,13.374-0.198,20.06c-0.074,6.83,0.023,13.654,0.199,20.481c0.089,3.471,0.199,6.942,0.299,10.413
				c0.09,3.127,0.062,6.256,0.051,9.384c-0.02,6.129-0.023,12.346,1.189,18.371c0.166-0.45,0.325-0.903,0.467-1.363
				c1.871-6.039,2.059-12.51,2.723-18.77c0.367-3.459,0.898-6.896,1.272-10.355c0.403-3.735,0.713-7.482,0.901-11.236
				c0.187-3.725,0.256-7.457,0.173-11.187c-0.079-3.549-0.501-7.103-1.044-10.604C139.833,47.812,138.149,41.091,136.57,34.356z"/>
			<path style="fill:#DFECF3;" d="M162.662,31.13c-0.867,5.761-1.651,11.535-2.35,17.321c-0.632,5.23-1.19,10.469-1.684,15.715
				c0.904-2.989,1.822-5.973,2.654-8.984c0.881-3.189,1.666-6.41,2.225-9.678c0.561-3.283,0.868-6.586,0.777-9.922
				c-0.088-3.212-0.464-6.405-0.824-9.594C163.187,27.701,162.92,29.415,162.662,31.13z"/>
			<path style="fill:#DFECF3;" d="M62.444,75.204c-1.393,1.136-2.933,2.063-4.358,3.153c-1.411,1.08-2.784,2.292-3.374,4.059
				c-0.626,1.877-0.632,3.935-0.546,5.897c0.088,2.009,0.336,4.007,0.419,6.017c0.102,2.474,0.131,4.954,0.155,7.43
				c0.047,4.946,0.024,9.901,0.36,14.838c0.083-0.21,0.169-0.418,0.249-0.629c1.362-3.59,2.357-7.315,3.321-11.036
				c0.979-3.776,1.917-7.57,3.146-11.27c1.235-3.72,2.789-7.32,4.439-10.859c1.676-3.595,3.461-7.134,5.173-10.711
				c1.074-2.244,2.118-4.505,3.086-6.8c-2.509,1.744-4.857,3.757-7.168,5.744C65.718,72.433,64.105,73.85,62.444,75.204z"/>
		</g>
		<path style="fill:#D5DEE2;" d="M153.252,16.966c-0.203,5.908-0.651,11.802-0.929,17.706c-0.138,2.939-0.235,5.881-0.232,8.823
			c0.003,2.941,0.108,5.881,0.12,8.822c0.047,11.665-0.383,23.361,0.589,34.997c0.012-0.123,0.023-0.246,0.036-0.369
			c0.621-6.246,1.376-12.476,2.195-18.697c0.829-6.297,1.726-12.584,2.621-18.871c0.896-6.291,1.792-12.581,2.619-18.882
			c0.831-6.323,1.592-12.656,2.214-19.005c0.036-0.367,0.07-0.734,0.105-1.101c-2.492-1.927-4.974-3.869-7.505-5.742
			c-0.669-0.495-1.344-0.983-2.021-1.466C153.415,7.762,153.409,12.373,153.252,16.966z"/>
		<path style="fill:#D5DEE2;" d="M193.667,45.927c-0.832,3.848-1.812,7.661-2.867,11.449c-1.07,3.84-2.217,7.656-3.379,11.468
			c-1.149,3.771-2.314,7.538-3.431,11.32c-0.99,3.352-1.938,6.717-2.801,10.107c0.059-0.089,0.12-0.176,0.178-0.266
			c2.126-3.285,3.894-6.804,5.579-10.348c1.72-3.619,3.347-7.285,5.143-10.865c0.88-1.755,1.848-3.452,2.775-5.18
			c1.021-1.903,2.026-3.814,3.026-5.729c1.902-3.643,3.788-7.295,5.725-10.919c-1.643-0.582-3.284-1.173-4.873-2.016
			c-1.503-0.797-2.878-2.098-4.157-3.65C194.305,42.847,193.999,44.39,193.667,45.927z"/>
		<path style="fill:#D5DEE2;" d="M241.759,129.969c0.148-4.883,0.436-9.759,0.641-14.64c-0.397,1.899-0.792,3.799-1.188,5.698
			c-0.984,4.721-1.985,9.44-3.115,14.126c-0.549,2.275-1.127,4.544-1.756,6.798h5.612c-0.077-1.601-0.193-3.199-0.259-4.8
			C241.595,134.762,241.687,132.358,241.759,129.969z"/>
		<path style="fill:#D5DEE2;" d="M272.416,130.478c1.398-3.645,2.628-7.433,3.15-11.333c-1.379,1.599-2.631,3.31-3.78,5.092
			c-2.35,3.644-4.31,7.542-6.149,11.483c-0.964,2.066-1.891,4.149-2.821,6.231h4.572
			C269.165,138.176,270.918,134.383,272.416,130.478z"/>
		<path style="fill:#D5DEE2;" d="M225.401,131.976c0.248-6.408,0.738-12.803,1.085-19.205c0.347-6.421,0.467-12.825,0.216-19.253
			c-0.128-3.27-0.296-6.539-0.359-9.812c-0.009-0.447-0.014-0.894-0.021-1.341c-0.361,2.746-0.698,5.495-1.025,8.242
			c-0.876,7.37-1.655,14.728-2.97,22.033c-1.331,7.396-2.993,14.725-4.843,21.999c-0.622,2.444-1.266,4.881-1.927,7.313h9.714
			C225.211,138.626,225.272,135.297,225.401,131.976z"/>
		<path style="fill:#D5DEE2;" d="M202.741,117.974c1.395-4.411,2.894-8.788,4.575-13.091c1.415-3.621,2.96-7.187,4.66-10.673
			c-2.916,4.005-5.646,8.153-8.298,12.349c-2.689,4.255-5.297,8.563-7.939,12.85c-1.313,2.13-2.616,4.27-3.987,6.361
			c-1.403,2.14-2.804,4.281-4.187,6.435c-2.059,3.208-4.075,6.447-5.995,9.746h13.339c1.189-3.528,2.432-7.037,3.623-10.564
			C200.032,126.947,201.328,122.443,202.741,117.974z"/>
		<path style="fill:#D5DEE2;" d="M165.069,117.351c0.992-3.626,1.956-7.262,2.796-10.93c0.838-3.656,1.492-7.344,2.121-11.043
			c1.236-7.273,2.389-14.561,3.74-21.813c1.198-6.433,2.555-12.839,4.256-19.15c-0.018,0.04-0.036,0.08-0.053,0.121
			c-2.777,6.369-5.3,12.856-7.643,19.41c-2.312,6.465-4.45,12.997-6.495,19.558c-2.056,6.598-4.017,13.227-5.968,19.859
			c-1.952,6.635-3.892,13.273-5.907,19.888c-0.885,2.906-1.788,5.807-2.708,8.702h8.892c0.384-1.533,0.789-3.059,1.207-4.577
			C161.15,130.676,163.236,124.053,165.069,117.351z"/>
		<path style="fill:#D5DEE2;" d="M306.211,98.146c1.344,6.464,2.954,12.864,4.648,19.238c1.701,6.397,3.488,12.769,5.191,19.165
			c0.479,1.799,0.949,3.599,1.41,5.403h40.682c-1.189-1.092-2.38-2.181-3.566-3.277c-6.472-5.977-12.889-12.022-19.133-18.257
			c-3.12-3.116-6.197-6.279-9.215-9.502c-2.5-2.669-4.84-5.487-7.202-8.287c-4.686-5.555-9.41-11.113-14.706-16.06
			c-0.066-0.047-0.133-0.093-0.2-0.14C304.695,90.357,305.404,94.263,306.211,98.146z"/>
		<path style="fill:#D5DEE2;" d="M287.944,134.094c1.534-4.829,3.02-9.676,4.401-14.555c1.363-4.817,2.626-9.666,3.71-14.559
			c0.964-4.349,1.785-8.735,2.375-13.156c-0.184,0.36-0.366,0.721-0.554,1.078c-2.834,5.398-6.042,10.574-9.325,15.688
			c-1.65,2.571-3.322,5.127-4.983,7.691c-1.405,2.168-2.733,4.372-3.998,6.631c-2.466,4.402-4.777,8.894-7.171,13.337
			c-1.03,1.912-2.075,3.816-3.15,5.702h16.159C286.262,139.335,287.11,136.717,287.944,134.094z"/>
		<path style="fill:#D5DEE2;" d="M134.251,113.867c-0.252-6.391-0.507-12.781-0.83-19.169c-0.32-6.336-0.707-12.67-1.228-18.992
			c-0.498-6.054-1.122-12.098-1.922-18.117c-0.112,0.456-0.225,0.911-0.335,1.368c-1.493,6.16-2.866,12.35-4.148,18.561
			c-1.301,6.302-2.507,12.626-3.64,18.963c-1.128,6.311-2.184,12.637-3.181,18.972c-0.975,6.188-1.894,12.385-2.771,18.588
			c-0.373,2.636-0.735,5.273-1.093,7.91h20.451c-0.182-3.005-0.345-6.011-0.492-9.018
			C134.75,126.58,134.502,120.224,134.251,113.867z"/>
		<path style="opacity:0.6;fill:#D5DEE2;" d="M19.478,141.951h73.664c-0.034-0.48-0.065-0.96-0.102-1.44
			c-0.295-3.783-0.626-7.56-0.868-11.348c-0.49-7.661-0.808-15.332-1.207-22.998c-0.191-3.675-0.35-7.338-0.41-11.018
			c-0.059-3.618-0.096-7.236-0.174-10.854c-0.152-6.999-0.442-14.02-1.442-20.951c-2.67,5.004-5.238,10.068-7.594,15.24
			c-2.182,4.79-4.185,9.67-5.904,14.66c-0.741,2.152-1.388,4.319-2.289,6.409c-0.889,2.062-1.923,4.053-3.054,5.982
			c-4.573,7.798-10.614,14.5-16.002,21.675c-0.088,0.118-0.272,0.04-0.306-0.084c-0.711-2.564-1.171-5.191-1.48-7.838
			c-1.072-9.173-0.373-18.607-2.568-27.616c-0.05,2.89-0.043,5.78-0.013,8.67c0.123,11.958,0.601,24.048-1.431,35.879
			c-0.017,0.098-0.137,0.162-0.225,0.133c-2.538-0.859-5.296-0.869-7.929-1.16c-2.231-0.247-4.581-0.578-6.57-1.728
			c-1.839-1.063-2.996-2.923-3.833-4.874c-0.972-2.266-1.582-4.678-2.245-7.055c-0.599-2.147-1.21-4.35-2.252-6.32
			c-0.164,2.527-0.099,5.057,0.061,7.583c0.242,3.82,0.826,7.865-0.212,11.613C24.202,137.727,22.044,140.11,19.478,141.951z"/>
		<g>
			<path style="fill:#D5DEE2;" d="M241.757,136.43c1.264-12.437,2.329-24.894,3.434-37.347c0.899-10.134,1.827-20.267,2.908-30.382
				c-0.149,0.851-0.298,1.702-0.447,2.552c-1.455,8.32-3.051,16.613-4.674,24.9c-1.577,8.048-3.21,16.071-5.04,24.062
				c-1.658,7.239-3.367,14.466-4.885,21.738h8.129C241.378,140.111,241.57,138.271,241.757,136.43z"/>
			<path style="fill:#D5DEE2;" d="M259.859,117.101c0.718-4.554,1.398-9.114,2.065-13.676c0.481-3.293,0.955-6.587,1.429-9.881
				c-0.902,3.509-1.873,6.999-2.88,10.477c-1.191,4.112-2.426,8.209-3.642,12.312c-1.224,4.131-2.429,8.268-3.548,12.43
				c-1.112,4.135-2.14,8.296-3.016,12.492c-0.048,0.232-0.094,0.465-0.142,0.697h5.291c0.77-3.733,1.487-7.478,2.161-11.231
				C258.389,126.19,259.142,121.649,259.859,117.101z"/>
			<path style="fill:#D5DEE2;" d="M184.039,24.139c-1.917,8.537-3.717,17.101-5.517,25.665c-1.954,9.293-3.916,18.586-6.051,27.837
				c-2.072,8.977-4.368,17.893-6.652,26.814c-2.285,8.925-4.538,17.862-6.465,26.878c-0.754,3.526-1.453,7.066-2.086,10.619h5.686
				c1.316-2.84,2.694-5.651,4.061-8.464c4.249-8.742,8.633-17.413,13.081-26.047c4.41-8.561,8.857-17.1,13.221-25.686
				c4.355-8.57,8.668-17.163,12.966-25.763c1.091-2.183,2.18-4.367,3.27-6.551c-0.447-0.219-0.893-0.441-1.34-0.658
				c-3.116-1.512-6.391-2.2-9.472-3.835c-3.398-1.802-6.145-6.174-8.598-10.221c-1.906-3.144-3.393-6.557-5.035-9.976
				C184.752,24.545,184.395,24.344,184.039,24.139z"/>
			<path style="opacity:0.6;fill:#D5DEE2;" d="M128.834,121.591c0.737-19.464,1.059-38.939,1.453-58.413
				c0.196-9.693,0.453-19.386,1.001-29.066c0.263-4.649,0.695-9.287,0.766-13.945c0.027-1.78,0.032-3.563,0.06-5.345
				c-0.62,0.76-1.246,1.516-1.876,2.276c-5.46,6.587-10.853,13.509-16.868,18.746c-6.19,5.389-12.998,9-19.657,12.528
				c-0.418,0.221-0.837,0.439-1.255,0.657c-0.925,6.446-2.017,12.865-3.15,19.275c-1.445,8.174-2.953,16.336-4.259,24.535
				c-1.297,8.141-2.295,16.296-2.915,24.523c-0.612,8.124-1.014,16.264-1.705,24.382c-0.006,0.069-0.012,0.137-0.018,0.206h47.485
				C128.27,135.168,128.577,128.38,128.834,121.591z"/>
			<g>
				<path style="fill:#DFECF3;" d="M109.528,78.972c0.58-3.417,1.057-6.852,1.459-10.297c0.855-7.323,1.388-14.68,1.948-22.031
					c0.229-2.999,0.464-5.999,0.726-8.995c-0.129,0.848-0.261,1.696-0.386,2.545c-0.999,6.766-1.889,13.551-2.559,20.362
					C110.114,66.678,109.695,72.821,109.528,78.972z"/>
				<path style="fill:#DFECF3;" d="M115.608,70.524c-0.52,4.684-0.917,9.384-1.161,14.093c-0.241,4.641-0.336,9.292-0.245,13.939
					c0.083,4.246,0.323,8.488,0.754,12.711c0.064-0.242,0.132-0.482,0.193-0.725c1.085-4.268,1.775-8.637,2.277-13.018
					c0.5-4.367,0.811-8.755,1.083-13.143c0.135-2.182,0.313-4.367,0.371-6.553c0.061-2.286-0.017-4.573-0.169-6.854
					c-0.303-4.548-0.902-9.067-1.319-13.604C116.7,61.741,116.097,66.126,115.608,70.524z"/>
				<path style="fill:#DFECF3;" d="M96.874,102.267c-0.019-0.707-0.066-1.415-0.068-2.122c-0.006-1.415-0.109-2.828-0.262-4.234
					c-0.176-1.621-0.418-3.232-0.663-4.842c-0.231,2.334-0.428,4.671-0.578,7.011c-0.177,2.757-0.292,5.518-0.328,8.281
					c-0.036,2.748,0.007,5.498,0.152,8.243c0.124,2.353,0.328,4.701,0.621,7.037c0.453-2.821,0.749-5.668,0.934-8.52
					c0.187-2.897,0.259-5.801,0.232-8.704C96.905,103.7,96.893,102.983,96.874,102.267z"/>
			</g>
			<path style="opacity:0.6;fill:#D5DEE2;" d="M108.128,134.348c0.901-6.752,1.523-13.547,1.817-20.358
				c0.279-6.459,0.256-12.933-0.128-19.387c-0.035,0.174-0.068,0.348-0.104,0.522c-0.804,3.9-1.792,7.755-2.791,11.605
				c-0.991,3.822-1.996,7.641-2.837,11.502c-0.42,1.927-0.782,3.863-1.113,5.808c-0.339,1.991-0.667,3.986-0.878,5.996
				c-0.18,1.713-0.274,3.432-0.268,5.155c0.006,1.668,0.073,3.335,0.111,5.002c0.013,0.586,0.024,1.172,0.028,1.758h5.025
				C107.407,139.423,107.789,136.889,108.128,134.348z"/>
			<path style="fill:#D5DEE2;" d="M27.192,128.21c-0.898-4.441-1.796-8.882-2.694-13.323c-0.166,0.899-0.332,1.798-0.497,2.697
				c-1.013,5.543-2.04,11.075-3.17,16.594c-0.529,2.586-1.056,5.175-1.54,7.773H29.97C29.044,137.371,28.118,132.79,27.192,128.21z"
				/>
		</g>
		<g>
			<path style="fill:#DFECF3;" d="M232.622,107.466c0.701-2.053,1.408-4.107,2.193-6.127c0.729-1.879,1.357-3.803,1.754-5.788
				c0.199-0.998,0.349-2.011,0.426-3.027c0.077-1.018,0.034-2.058-0.02-3.076c-0.113-2.1-0.396-4.186-0.719-6.261
				c-0.277-1.781-0.592-3.563-0.856-5.352c-0.282,1.132-0.549,2.268-0.798,3.407c-1.098,5.013-1.919,10.088-2.623,15.175
				c-0.683,4.933-1.242,9.882-1.877,14.821c-0.286,2.221-0.566,4.444-0.824,6.669C230.331,114.406,231.441,110.923,232.622,107.466z
				"/>
			<path style="fill:#DFECF3;" d="M255.026,77.451c-0.925,2.007-1.73,4.071-2.454,6.164c-0.712,2.06-1.347,4.147-1.948,6.244
				c-0.6,2.09-1.188,4.181-1.67,6.304c-0.974,4.285-1.791,8.606-2.689,12.909c-0.085,0.409-0.172,0.817-0.259,1.225
				c-0.7,5.067-1.101,10.171-0.754,15.277c0.081-0.245,0.166-0.489,0.244-0.735c1.453-4.571,2.451-9.285,3.314-14.009
				c0.867-4.748,1.586-9.523,2.443-14.273c0.864-4.795,2.035-9.516,3.031-14.283c0.405-1.94,0.8-3.883,1.196-5.826
				C255.354,76.793,255.179,77.118,255.026,77.451z"/>
			<path style="fill:#DFECF3;" d="M263.794,106.367c-0.862,3.537-1.623,7.101-2.278,10.685c-0.649,3.55-1.195,7.121-1.621,10.708
				c-0.367,3.084-0.639,6.18-0.813,9.282c0.043-0.11,0.088-0.219,0.13-0.329c1.373-3.577,2.467-7.265,3.422-10.983
				c0.967-3.764,1.791-7.565,2.602-11.367c0.4-1.879,0.797-3.759,1.207-5.636c0.394-1.806,0.644-3.636,0.822-5.477
				c0.36-3.733,0.449-7.487,0.739-11.225c0.009-0.114,0.018-0.228,0.028-0.342c-0.469,1.395-0.923,2.796-1.355,4.203
				C265.612,99.347,264.653,102.844,263.794,106.367z"/>
			<path style="fill:#DFECF3;" d="M298.464,103.475c-1.681,5.228-2.876,10.612-3.882,16.019c-0.919,4.934-1.673,9.898-2.476,14.854
				c1.198-2.594,2.258-5.256,3.165-7.976c0.913-2.741,1.672-5.537,2.261-8.373c0.581-2.799,1.04-5.657,1.211-8.517
				c0.136-2.276,0.066-4.567,0.002-6.858C298.649,102.908,298.555,103.191,298.464,103.475z"/>
		</g>
	</g>
	<g>
		<path style="fill:#D2D4D5;" d="M428.19,126.91c-7.14-2.352-44.551,7.295-55.975,4.992H94.524c-0.333,0.119-0.667,0.236-1,0.355
			c-14.59,5.228-29.12,10.622-43.737,15.773c-8.735,3.078-17.509,6.014-26.325,8.823c-1.619,1.762-15.121-6.269-16.754-4.521
			c-0.001,0.001-0.002,0.002-0.003,0.003c0.151,1.569,0.834,21.723,0.966,23.531c4.365,1.944,8.806,3.723,13.291,5.372
			c0.9,0.331,1.803,0.656,2.706,0.978c8.354,1.93,16.704,3.882,25.062,5.799c4.659,0.472,9.307,1.062,13.939,1.689
			c12.211,1.652,24.395,3.652,36.692,4.576c12.735,0.958,25.469,1.903,38.198,2.937c6.854-0.841,13.698-1.819,20.531-2.438
			c33.259-3.014,66.687-3.421,100.058-3.828c5.875-0.072,11.749-0.145,17.624-0.235c2.931-0.408,5.861-0.826,8.789-1.254
			c12.898-1.889,25.768-3.96,38.63-6.078c12.799-2.108,25.591-4.263,38.397-6.332c12.861-2.078,25.737-4.068,38.645-5.835
			c1.711-0.234,3.423-0.464,5.136-0.69c4.276-3.458,8.468-7.019,12.526-10.729c3.544-3.24,6.985-6.593,10.297-10.069
			C427.756,149.605,428.615,127.049,428.19,126.91z"/>
		<g>
			<path style="fill:#D5DEE2;" d="M410.155,146.495c2.271-2.221,4.675-4.3,7.088-6.366c2.439-2.089,4.894-4.162,7.25-6.346
				c1.313-1.217,2.596-2.472,3.818-3.782c0.007-1.848-0.023-3.061-0.12-3.093c-7.14-2.352-44.551,7.295-55.975,4.992H94.524
				c-0.333,0.119-0.667,0.236-1,0.355c-14.59,5.228-29.12,10.622-43.737,15.773c-8.735,3.078-17.509,6.014-26.325,8.823
				c-1.619,1.762-15.121-6.269-16.754-4.521c-0.001,0.001-0.002,0.002-0.003,0.003c0.005,0.05,0.01,0.12,0.016,0.208
				c2.916,2.575,6.42,4.532,9.874,6.23c4.18,2.054,8.533,3.734,12.929,5.262c12.08,4.197,24.867,4.368,37.446,5.803
				c13.462,1.536,26.889,3.354,40.367,4.767c6.622,0.694,13.307,0.628,19.939,1.236c3.346,0.307,6.639,0.904,9.931,1.507
				c2.808-0.303,5.609-0.67,8.406-1.054c6.515-0.896,13.005-1.712,19.562-2.218c12.159-0.938,24.248-2.743,36.445-3.2
				c5.968-0.224,11.954-0.15,17.926-0.163c6.116-0.013,12.231-0.01,18.347-0.016c14.006-0.013,28.02-0.071,42.023-0.464
				c1.616-0.166,3.231-0.335,4.842-0.532c3.184-0.388,6.336-1.061,9.493-1.627c3.192-0.572,6.386-1.133,9.584-1.671
				c6.327-1.064,12.681-1.946,19.012-2.989c6.301-1.038,12.586-2.169,18.874-3.284c12.407-2.199,24.869-4.026,37.298-6.088
				c6.182-1.025,12.355-2.111,18.505-3.315c3.579-0.701,7.14-1.477,10.699-2.262C408.853,147.796,409.498,147.139,410.155,146.495z"
				/>
		</g>
		<g>
			<path style="fill:#D5DEE2;" d="M8.405,163.953c-0.576-3.037-1.113-6.082-1.571-9.139c0.252,5.814,0.729,19.573,0.838,21.052
				c1.119,0.498,2.243,0.985,3.371,1.462C10.177,172.868,9.253,168.418,8.405,163.953z"/>
			<path style="fill:#D5DEE2;" d="M39.828,155.897c-1.017,2.335-2.01,4.681-2.955,7.046c-2.109,5.274-4.04,10.628-5.618,16.086
				c-0.445,1.54-0.863,3.094-1.245,4.658c1.914,0.444,3.829,0.887,5.743,1.331c0.142-1.681,0.251-3.366,0.391-5.047
				c0.211-2.546,0.601-5.05,1.082-7.558C38.273,166.948,39.617,161.476,39.828,155.897z"/>
			<path style="fill:#D5DEE2;" d="M161.553,188.582c-0.213-4.438-0.725-8.97-2.343-13.138c-0.266,1.871-0.543,3.741-0.823,5.611
				c-0.69,4.609-1.382,9.232-1.834,13.875c0.512-0.05,1.024-0.102,1.536-0.149c1.202-0.109,2.405-0.207,3.607-0.31
				C161.678,192.508,161.647,190.544,161.553,188.582z"/>
			<path style="fill:#D5DEE2;" d="M209.37,188.518c-0.444-4.285-1.193-8.583-2.67-12.642c-0.398,1.621-0.586,3.286-0.661,4.954
				c-0.165,3.664,0.17,7.327,0.248,10.989c0.001,0.045,0.002,0.091,0.002,0.137c1.123-0.037,2.246-0.075,3.369-0.11
				C209.578,190.734,209.485,189.625,209.37,188.518z"/>
			<path style="fill:#D5DEE2;" d="M244.057,178.539c-0.306,1.112-0.529,2.246-0.677,3.39c-0.394,3.058-0.351,6.141-0.402,9.219
				c1.136-0.016,2.273-0.033,3.409-0.048c-0.064-1.008-0.138-2.015-0.234-3.021C245.846,184.852,245.344,181.54,244.057,178.539z"/>
			<path style="fill:#D5DEE2;" d="M282.889,180.094c-0.353-1.819-0.688-3.646-0.935-5.483c-0.2-1.492-0.348-2.99-0.499-4.488
				c-0.35-3.451-0.693-6.915-1.401-10.316c-0.327-1.568-0.73-3.128-1.308-4.624c-0.419-1.085-0.942-2.156-1.651-3.085
				c-0.582,3.609-0.727,7.279-0.731,10.93c-0.003,3.57,0.137,7.137,0.233,10.705c0.088,3.278,0.042,6.55,0.047,9.828
				c0.004,2.339,0.022,4.68,0.093,7.018c2.608-0.365,5.215-0.735,7.821-1.116c0.089-0.013,0.178-0.027,0.267-0.04
				C284.183,186.313,283.494,183.212,282.889,180.094z"/>
			<path style="fill:#D5DEE2;" d="M331.321,177.747c-1.193-4.099-2.536-8.164-4.229-12.086c-0.326,1.773-0.496,3.571-0.552,5.372
				c-0.122,3.901,0.218,7.811,0.761,11.672c1.722-0.285,3.444-0.569,5.167-0.855C332.096,180.48,331.718,179.111,331.321,177.747z"
				/>
			<path style="fill:#D5DEE2;" d="M117.375,158.166c-1.114,3.219-2.141,6.469-3.075,9.745c-1.966,6.894-3.561,13.896-4.756,20.965
				c-0.343,2.028-0.648,4.063-0.921,6.103c2.559,0.192,5.118,0.386,7.677,0.581c-0.094-4.717-0.139-9.434,0.103-14.151
				C116.802,173.669,117.642,165.922,117.375,158.166z"/>
		</g>
		<path style="fill:#D5DEE2;" d="M18.336,171.3c0.391-3.21,1.102-6.374,1.67-9.556c0.295-1.65,0.587-3.302,0.882-4.953
			c-4.453-1.26-12.909-5.82-14.18-4.46c-0.001,0.001-0.002,0.002-0.003,0.003c0.151,1.569,0.834,21.723,0.966,23.531
			c3.243,1.445,6.528,2.797,9.842,4.074C17.791,177.061,17.986,174.173,18.336,171.3z"/>
		<path style="fill:#D5DEE2;" d="M147.796,192.247c-0.682-3.851-1.112-7.724-1.472-11.617c-0.693-7.505-1.178-15.217-3.539-22.427
			c-0.913,3.202-1.636,6.456-2.214,9.735c-1.15,6.514-1.782,13.104-2.41,19.684c-0.305,3.19-0.607,6.383-0.964,9.569
			c0.12,0.01,0.241,0.019,0.362,0.029c3.636-0.446,7.27-0.93,10.901-1.379C148.232,194.643,148.008,193.446,147.796,192.247z"/>
		<path style="fill:#D5DEE2;" d="M170.626,163.053c-0.068-0.012-0.112-0.044-0.145-0.083c0.076,1.064,0.172,2.126,0.283,3.183
			c0.419,3.992,1.051,7.957,1.572,11.935c0.249,1.902,0.5,3.813,0.611,5.729c0.106,1.833,0.191,3.667,0.284,5.501
			c0.072,1.412,0.148,2.832,0.239,4.254c1.12-0.076,2.239-0.157,3.359-0.228c0.031-4.89,0.035-9.78,0.175-14.668
			c0.138-4.808,0.419-9.618,0.969-14.396C175.504,164.107,173.045,163.46,170.626,163.053z"/>
		<path style="fill:#D5DEE2;" d="M265.824,185.297c-0.687-3.3-1.183-6.64-1.769-9.959c-1.113-6.308-2.351-12.69-4.704-18.671
			c-0.411,3.044-0.698,6.104-0.881,9.169c-0.367,6.134-0.353,12.285-0.199,18.426c0.056,2.229,0.134,4.458,0.217,6.686
			c2.827-0.035,5.654-0.076,8.481-0.113C266.596,188.987,266.208,187.142,265.824,185.297z"/>
		<path style="fill:#D5DEE2;" d="M371.192,164.161c-1.628-4.138-3.298-8.259-5.033-12.353c-0.399-0.941-0.785-1.877-1.135-2.838
			c-0.316-0.87-0.639-1.739-1.002-2.59c-0.668-1.567-1.48-3.099-2.627-4.368c-0.516,1.666-0.217,3.539,0.014,5.226
			c0.302,2.205,0.53,4.42,0.8,6.629c0.502,4.096,1.026,8.19,1.437,12.296c0.2,2.003,0.345,4.01,0.562,6.01
			c0.159,1.463,0.301,2.927,0.44,4.392c3.571-0.573,7.144-1.136,10.718-1.69C373.923,171.325,372.595,167.727,371.192,164.161z"/>
		<path style="fill:#D5DEE2;" d="M428.19,126.91c-3.091-1.018-11.856,0.212-21.728,1.749c-0.33,4.529-0.516,9.069-0.593,13.61
			c-0.051,3.034-0.009,6.07-0.106,9.104c-0.095,2.969-0.28,5.934-0.432,8.9c-0.175,3.42-0.311,6.861-0.212,10.29
			c0.083-0.011,0.165-0.022,0.248-0.033c4.276-3.458,8.468-7.019,12.526-10.729c3.544-3.24,6.985-6.593,10.297-10.069
			C427.756,149.605,428.615,127.049,428.19,126.91z"/>
		<path style="fill:#D5DEE2;" d="M302.278,182.197c-0.84-2.948-1.574-5.933-2.298-8.912c-0.724-2.977-1.444-5.961-2.41-8.87
			c-0.812-2.449-1.804-4.868-3.199-7.045c0.068,2.887,0.186,5.773,0.365,8.656c0.357,5.779,0.935,11.547,1.781,17.275
			c0.21,1.42,0.436,2.837,0.68,4.252c2.131-0.33,4.261-0.659,6.391-0.995C303.139,185.107,302.694,183.656,302.278,182.197z"/>
		<path style="fill:#D5DEE2;" d="M83.981,157.989c-1.121,3.434-2.006,6.941-2.804,10.463c-0.794,3.505-1.504,7.028-2.281,10.537
			c-0.704,3.181-1.287,6.367-1.773,9.589c-0.155,1.028-0.305,2.061-0.457,3.095c2.146,0.3,4.292,0.595,6.44,0.875
			c-0.009-0.31-0.016-0.621-0.025-0.931c-0.047-1.716-0.092-3.433-0.101-5.15c-0.009-1.785,0.063-3.552,0.198-5.332
			C83.762,173.445,84.734,165.698,83.981,157.989z"/>
		<path style="fill:#EBEBEC;" d="M275.771,167.897c2.931-0.408,5.861-0.826,8.789-1.254c12.898-1.888,25.768-3.96,38.63-6.078
			c12.799-2.108,25.591-4.263,38.397-6.332c12.861-2.077,25.737-4.068,38.645-5.835c1.711-0.234,3.423-0.464,5.136-0.69
			c4.276-3.457,8.468-7.019,12.526-10.729c3.544-3.24,6.985-6.593,10.297-10.069c-0.434-0.126-0.866-0.255-1.29-0.395
			c-7.14-2.353-14.166-5.087-21.191-7.759c-10.949-4.164-22.07-7.372-33.494-9.675H94.524c-0.333,0.119-0.667,0.236-1,0.355
			c-14.59,5.228-29.12,10.622-43.737,15.773c-8.735,3.078-17.509,6.015-26.325,8.823c-1.619,1.762-3.25,3.514-4.883,5.263
			c-4.013,4.297-7.955,8.652-11.871,13.038c-0.062,0.069-0.123,0.138-0.185,0.207c4.732,2.148,9.562,4.086,14.44,5.879
			c0.9,0.331,1.803,0.656,2.706,0.978c8.354,1.93,16.704,3.882,25.062,5.799c4.659,0.472,9.307,1.062,13.939,1.689
			c12.211,1.652,24.395,3.652,36.692,4.576c12.735,0.958,25.469,1.903,38.198,2.937c6.854-0.841,13.698-1.819,20.531-2.438
			c33.259-3.014,66.687-3.421,100.058-3.829C264.021,168.06,269.896,167.986,275.771,167.897z"/>
		<path style="fill:#F6F6F6;" d="M48.73,165.196c0.178,0.018,0.355,0.039,0.533,0.057c4.31-2.312,8.589-4.682,12.852-7.07
			c13.774-7.718,71.059-38.227,85.902-45.825c2.138-1.094,4.279-2.184,6.417-3.277h-25.135
			c-8.229,3.588-93.779,43.987-105.735,50.278c0.035,0.012,0.069,0.025,0.104,0.038C32.023,161.326,40.373,163.278,48.73,165.196z"
			/>
		<path style="fill:#F6F6F6;" d="M152.538,172.533c2.879-1.935,5.784-3.829,8.704-5.693c11.954-7.63,63.206-38.826,76.829-46.877
			c6.2-3.664,12.424-7.288,18.664-10.882h-15.299c-9.442,5.027-18.901,10.023-28.356,15.025
			c-14.952,7.909-72.535,40.903-86.375,49.431c3.618,0.282,7.236,0.567,10.853,0.861C142.557,173.785,147.551,173.1,152.538,172.533
			z"/>
		<path style="fill:#F6F6F6;" d="M284.559,166.642c12.898-1.888,25.768-3.96,38.63-6.078c3.61-0.595,7.22-1.193,10.829-1.792
			c7.937-6.099,47.953-35.62,60.222-44c-7.238-2.29-14.566-4.187-22.026-5.691h-17.317c-2.068,1.366-4.137,2.728-6.2,4.101
			c-14.083,9.367-64.202,46.156-75.484,54.749c0.852-0.012,1.704-0.021,2.556-0.034
			C278.702,167.489,281.631,167.071,284.559,166.642z"/>
	</g>
	<g>
		<g>
			<path style="fill:#F6F6F6;" d="M367.863,86.152c-0.464-1.784-1.8-3.245-2.767-4.772c-1.122-1.771-2.219-3.559-3.336-5.333
				c-2.241-3.56-4.555-7.095-7.261-10.323c-2.386-2.845-5.057-5.443-7.6-8.151c-2.124-0.006-4.248,0.014-6.371,0.064
				c-2.574,0.061-5.147,0.168-7.717,0.325c-2.839,1.268-5.675,2.544-8.503,3.837c-2.636,1.206-5.265,2.426-7.884,3.668
				c-2.507,1.188-4.961,2.493-7.419,3.778c-4.876,2.548-9.728,5.143-14.65,7.602c-2.987,1.493-6.002,2.933-9.057,4.282
				c-1.622,1.642-3.009,3.558-4.418,5.333c-1.336,1.682-2.768,3.283-4.175,4.905c-0.721,0.831-1.435,1.668-2.123,2.528
				c-0.392,0.49-0.843,0.997-1.205,1.542c0.326,0.96,0.663,1.918,1.01,2.871c0.636,1.746,1.304,3.481,1.993,5.207
				c0.054,0.136,0.111,0.271,0.165,0.407c0.045,0.039,0.09,0.076,0.135,0.115c1.063,0.919,2.105,1.862,3.133,2.82
				c0.671,0.625,1.335,1.257,1.997,1.893c0.549,0.057,1.098,0.11,1.647,0.161c2.331,0.22,4.651,0.51,6.965,0.865
				c4.61,0.706,9.223,1.483,13.806,2.352c9.234,1.751,18.354,4.135,27.678,5.393c0.38-0.079,0.761-0.158,1.141-0.238
				c3.854-0.808,7.704-1.637,11.551-2.475c3.848-0.838,7.694-1.685,11.541-2.528c2.913-0.638,5.828-1.272,8.744-1.9
				c0.3-2.151,0.571-4.306,0.83-6.463c0.31-2.584,0.606-5.169,0.921-7.752c0.314-2.576,0.649-5.15,1.038-7.717
				c0.094-0.619,0.191-1.237,0.292-1.855C367.932,86.446,367.901,86.298,367.863,86.152z"/>
			<path style="opacity:0.6;fill:#CCD5D9;" d="M288.113,87.076c0.164,0.261,0.325,0.525,0.484,0.789
				c-0.302-1.092-0.614-2.18-0.944-3.264c-0.405-1.329-0.812-2.659-1.17-4.002c-0.395,0.178-0.79,0.355-1.187,0.529
				c-0.183,0.185-0.362,0.375-0.54,0.567c0.063,0.241,0.132,0.48,0.204,0.718C286.037,83.951,287.115,85.487,288.113,87.076z"/>
			<path style="opacity:0.6;fill:#CCD5D9;" d="M333.654,58.137c0.915,1.202,1.723,2.481,2.519,3.763
				c0.697,1.124,1.38,2.253,2.153,3.327c0.148,0.205,0.293,0.413,0.439,0.619c-0.899-1.544-1.764-3.107-2.599-4.686
				c-0.577-1.091-1.139-2.189-1.691-3.292c-0.329,0.017-0.658,0.036-0.987,0.056C333.543,57.995,333.599,58.065,333.654,58.137z"/>
			<path style="opacity:0.5;fill:#D5DEE2;" d="M367.863,86.152c-0.464-1.784-1.8-3.245-2.767-4.772
				c-1.122-1.771-2.219-3.559-3.336-5.333c-2.241-3.56-4.555-7.095-7.261-10.323c-2.302-2.746-4.869-5.261-7.331-7.867
				c-0.035,1.068-0.06,2.135-0.105,3.199c-0.031,0.72-0.099,1.439-0.109,2.159c-0.009,0.668,0.023,1.337,0.05,2.004
				c0.058,1.404,0.155,2.852-0.101,4.243c-0.465,2.524-6.97,6.781-7.961,7.546c-1.289,0.995-2.477,2.105-3.658,3.224
				c-1.203,1.14-2.404,2.289-3.719,3.301c-1.169,0.9-2.435,1.733-3.863,2.148c-0.731,0.213-1.481,0.318-2.233,0.427
				c-0.928,0.136-1.85,0.353-2.774,0.517c-1.863,0.331-3.733,0.622-5.607,0.888c-3.783,0.537-7.579,0.97-11.372,1.423
				c-3.792,0.453-7.562,1.032-11.319,1.72c-6.928,1.269-13.796,2.838-20.683,4.311c-0.118,0.154-0.232,0.31-0.338,0.47
				c0.326,0.96,0.663,1.918,1.01,2.871c0.636,1.746,1.304,3.481,1.993,5.207c0.054,0.136,0.111,0.271,0.165,0.407
				c0.045,0.039,0.09,0.076,0.135,0.115c1.063,0.919,2.105,1.862,3.133,2.82c0.671,0.625,1.335,1.257,1.996,1.893
				c0.549,0.057,1.098,0.11,1.647,0.162c2.331,0.22,4.651,0.51,6.965,0.865c4.61,0.706,9.223,1.483,13.806,2.352
				c9.234,1.751,18.354,4.136,27.678,5.393c0.38-0.079,0.761-0.158,1.141-0.238c3.854-0.808,7.704-1.637,11.551-2.475
				c3.848-0.838,7.694-1.685,11.541-2.528c2.913-0.638,5.828-1.272,8.744-1.9c0.3-2.151,0.571-4.306,0.83-6.462
				c0.31-2.584,0.606-5.169,0.921-7.752c0.314-2.576,0.649-5.15,1.038-7.717c0.094-0.619,0.191-1.237,0.292-1.855
				C367.932,86.446,367.901,86.298,367.863,86.152z"/>
			<path style="opacity:0.6;fill:#CCD5D9;" d="M283.529,106.309c-1.354-1.32-2.697-2.651-4.013-4.009
				c-1.305-1.346-2.583-2.718-3.813-4.132c-0.788-0.906-1.554-1.831-2.296-2.775c-0.01,0.015-0.021,0.029-0.031,0.044
				c0.326,0.96,0.663,1.918,1.01,2.871c0.636,1.746,1.304,3.481,1.993,5.207c0.054,0.136,0.111,0.271,0.165,0.407
				c0.045,0.039,0.09,0.076,0.135,0.115c1.063,0.919,2.105,1.862,3.133,2.82c0.671,0.625,1.335,1.257,1.996,1.893
				c0.549,0.057,1.098,0.11,1.647,0.162c1.039,0.098,2.076,0.212,3.111,0.338C285.552,108.27,284.537,107.292,283.529,106.309z"/>
			<path style="opacity:0.6;fill:#CCD5D9;" d="M286.38,94.037c1.031,0.049,2.055,0.115,3.07,0.312
				c0.961,0.186,1.904,0.448,2.845,0.715c1.904,0.542,3.841,1.138,5.841,1.114c1.064-0.013,2.057-0.244,3.049-0.615
				c0.869-0.325,1.753-0.61,2.643-0.871c1.846-0.54,3.72-0.976,5.585-1.443c1.888-0.473,3.773-0.977,5.6-1.654
				c1.806-0.67,3.517-1.554,5.181-2.521c1.584-0.921,3.13-1.92,4.702-2.871c-0.735,0.13-1.467,0.292-2.201,0.422
				c-1.863,0.331-3.733,0.622-5.607,0.888c-3.783,0.537-7.579,0.97-11.372,1.423c-3.792,0.453-7.562,1.032-11.319,1.72
				c-5.355,0.981-10.673,2.14-15.991,3.297C281.064,93.945,283.723,93.91,286.38,94.037z"/>
			<path style="opacity:0.6;fill:#CCD5D9;" d="M308.886,113.048c-1.001-1.253-2.015-2.496-3.024-3.742
				c-0.465-0.574-0.924-1.151-1.361-1.747c-0.432-0.59-0.852-1.189-1.282-1.78c-0.731-1.005-1.495-2.007-2.404-2.86
				c0.457,0.836,0.894,1.683,1.316,2.538c0.889,1.801,1.717,3.631,2.569,5.45c0.227,0.483,0.456,0.966,0.688,1.447
				c1.171,0.229,2.341,0.466,3.509,0.709C308.893,113.057,308.89,113.052,308.886,113.048z"/>
			<path style="opacity:0.6;fill:#CCD5D9;" d="M320.857,108.944c-0.517-2.442-1.102-4.872-1.814-7.265
				c-0.154,1.19-0.275,2.384-0.366,3.58c-0.184,2.425-0.257,4.857-0.274,7.289c-0.006,0.847-0.003,1.693,0.002,2.54
				c1.264,0.266,2.528,0.527,3.794,0.778C321.773,113.554,321.344,111.243,320.857,108.944z"/>
			<path style="opacity:0.6;fill:#CCD5D9;" d="M346.953,63.214c-0.009,0.668,0.023,1.337,0.05,2.004
				c0.058,1.404,0.155,2.852-0.101,4.243c-0.043,0.236-0.139,0.487-0.279,0.748c1.265,0.813,2.519,1.645,3.762,2.492
				c1.855,1.265,3.688,2.564,5.506,3.883c1.834,1.331,3.652,2.682,5.464,4.042c1.805,1.355,3.602,2.718,5.402,4.08
				c0.274,0.207,0.548,0.413,0.822,0.62c-0.597-1.424-1.67-2.663-2.484-3.948c-1.122-1.771-2.219-3.559-3.336-5.333
				c-2.241-3.56-4.555-7.095-7.261-10.323c-2.302-2.746-4.869-5.261-7.331-7.867c-0.035,1.068-0.06,2.135-0.105,3.199
				C347.031,61.775,346.963,62.494,346.953,63.214z"/>
			<path style="opacity:0.6;fill:#CCD5D9;" d="M364.245,110.494c-0.673-0.857-1.278-1.765-1.876-2.674
				c-0.523-0.796-1.029-1.609-1.61-2.364c-0.87-1.131-1.767-2.242-2.64-3.37c-1.817-2.35-3.595-4.73-5.282-7.175
				c-1.634-2.367-3.153-4.805-4.62-7.278c-1.33-2.242-2.675-4.502-4.395-6.471c0.073,0.214,0.146,0.427,0.22,0.641
				c0.935,2.685,1.957,5.34,3.011,7.98c1.045,2.616,2.122,5.218,3.179,7.829c0.539,1.332,0.985,2.707,1.479,4.057
				c0.496,1.353,0.999,2.704,1.503,4.055c0.501,1.344,1.003,2.688,1.498,4.035c0.324,0.881,0.692,1.744,1.077,2.599
				c0.116-0.025,0.232-0.051,0.348-0.076c2.707-0.593,5.415-1.181,8.124-1.766C364.256,110.508,364.25,110.501,364.245,110.494z"/>
			<path style="opacity:0.6;fill:#CCD5D9;" d="M336.022,107.77c-0.936-2.732-1.803-5.481-2.597-8.258
				c-0.788-2.757-1.541-5.525-2.386-8.266c-0.429-1.392-0.883-2.776-1.376-4.146c-0.23-0.637-0.469-1.271-0.718-1.901
				c-0.042,0.02-0.084,0.041-0.126,0.061c0.066,2.172,0.201,4.342,0.383,6.507c0.238,2.832,0.556,5.658,0.912,8.477
				c0.342,2.706,0.753,5.405,1.059,8.116c0.298,2.635,0.525,5.278,0.84,7.911c0.048,0.398,0.098,0.796,0.15,1.194
				c0.294-0.061,0.587-0.122,0.881-0.183c1.925-0.403,3.849-0.812,5.771-1.225C337.928,113.281,336.967,110.529,336.022,107.77z"/>
		</g>
		<g>
			<path style="fill:#F6F6F6;" d="M300.195,111.005c-0.261-0.885-0.952-1.595-1.461-2.343c-0.59-0.868-1.167-1.745-1.755-2.615
				c-1.178-1.745-2.392-3.477-3.798-5.048c-1.239-1.385-2.617-2.642-3.933-3.956c-1.063,0.031-2.125,0.075-3.186,0.134
				c-1.287,0.072-2.572,0.166-3.855,0.286c-1.4,0.68-2.798,1.364-4.192,2.056c-1.299,0.645-2.595,1.298-3.885,1.961
				c-1.235,0.635-2.442,1.327-3.651,2.009c-2.398,1.353-4.784,2.729-7.207,4.037c-1.471,0.795-2.956,1.564-4.463,2.287
				c-0.785,0.847-1.448,1.828-2.125,2.739c-0.641,0.863-1.332,1.687-2.01,2.521c-0.348,0.427-0.691,0.857-1.021,1.298
				c-0.188,0.251-0.406,0.512-0.578,0.791c0.178,0.475,0.362,0.949,0.551,1.42c0.346,0.863,0.708,1.72,1.08,2.573
				c0.029,0.067,0.06,0.134,0.089,0.201c0.023,0.019,0.046,0.037,0.069,0.055c0.547,0.442,1.083,0.898,1.612,1.361
				c0.346,0.302,0.688,0.608,1.029,0.915c0.275,0.02,0.551,0.037,0.827,0.055c1.17,0.073,2.335,0.181,3.498,0.321
				c2.318,0.279,4.638,0.594,6.944,0.955c4.648,0.728,9.248,1.775,13.933,2.255c0.189-0.046,0.378-0.091,0.567-0.137
				c1.915-0.466,3.828-0.942,5.739-1.423c1.912-0.481,3.822-0.966,5.733-1.449c1.447-0.366,2.895-0.73,4.344-1.09
				c0.116-1.081,0.217-2.163,0.312-3.246c0.114-1.298,0.22-2.596,0.337-3.893c0.116-1.294,0.242-2.587,0.396-3.877
				c0.037-0.311,0.076-0.622,0.116-0.933C300.234,111.15,300.217,111.077,300.195,111.005z"/>
			<path style="opacity:0.6;fill:#CCD5D9;" d="M260.313,112.744c0.086,0.128,0.171,0.257,0.255,0.387
				c-0.169-0.541-0.342-1.081-0.525-1.618c-0.224-0.659-0.449-1.317-0.65-1.983c-0.195,0.095-0.39,0.19-0.585,0.284
				c-0.089,0.096-0.175,0.193-0.261,0.292c0.035,0.12,0.074,0.238,0.114,0.356C259.225,111.214,259.789,111.965,260.313,112.744z"/>
			<path style="opacity:0.6;fill:#CCD5D9;" d="M282.633,97.537c0.477,0.587,0.902,1.214,1.32,1.842
				c0.367,0.551,0.727,1.105,1.131,1.63c0.077,0.1,0.153,0.202,0.23,0.303c-0.475-0.758-0.932-1.526-1.375-2.303
				c-0.306-0.536-0.605-1.077-0.899-1.62c-0.164,0.014-0.329,0.029-0.493,0.044C282.575,97.468,282.604,97.503,282.633,97.537z"/>
			<path style="opacity:0.64;fill:#D5DEE2;" d="M300.195,111.005c-0.261-0.885-0.952-1.595-1.461-2.343
				c-0.59-0.868-1.167-1.745-1.755-2.615c-1.178-1.745-2.392-3.477-3.798-5.048c-1.196-1.337-2.52-2.554-3.793-3.818
				c0,0.535,0.004,1.069-0.001,1.602c-0.004,0.36-0.026,0.722-0.02,1.082c0.006,0.334,0.033,0.668,0.057,1.002
				c0.051,0.701,0.123,1.424,0.017,2.124c-0.192,1.27-3.378,3.504-3.862,3.903c-0.629,0.518-1.205,1.093-1.778,1.671
				c-0.584,0.589-1.166,1.184-1.808,1.711c-0.571,0.469-1.19,0.906-1.898,1.136c-0.362,0.118-0.736,0.183-1.11,0.25
				c-0.462,0.083-0.92,0.206-1.379,0.303c-0.927,0.196-1.858,0.371-2.791,0.534c-1.884,0.329-3.776,0.607-5.667,0.894
				c-1.89,0.287-3.766,0.637-5.635,1.042c-3.446,0.746-6.856,1.64-10.278,2.488c-0.056,0.079-0.111,0.159-0.162,0.241
				c0.178,0.475,0.362,0.949,0.551,1.42c0.346,0.863,0.708,1.72,1.08,2.573c0.029,0.067,0.06,0.134,0.089,0.201
				c0.023,0.019,0.046,0.037,0.069,0.055c0.547,0.442,1.083,0.898,1.612,1.361c0.346,0.302,0.688,0.608,1.029,0.915
				c0.275,0.02,0.551,0.037,0.827,0.054c1.17,0.073,2.335,0.181,3.498,0.321c2.318,0.279,4.638,0.594,6.944,0.955
				c4.648,0.728,9.248,1.775,13.933,2.255c0.189-0.046,0.378-0.091,0.567-0.137c1.915-0.466,3.828-0.942,5.739-1.423
				c1.912-0.481,3.822-0.966,5.733-1.449c1.447-0.366,2.895-0.73,4.344-1.09c0.116-1.081,0.217-2.163,0.312-3.246
				c0.114-1.298,0.22-2.596,0.337-3.893c0.116-1.294,0.242-2.587,0.396-3.877c0.037-0.311,0.076-0.622,0.116-0.933
				C300.234,111.15,300.217,111.077,300.195,111.005z"/>
			<path style="opacity:0.6;fill:#CCD5D9;" d="M258.328,122.439c-0.698-0.639-1.392-1.283-2.072-1.941
				c-0.674-0.652-1.336-1.318-1.974-2.006c-0.409-0.44-0.807-0.891-1.193-1.352c-0.005,0.007-0.01,0.015-0.014,0.022
				c0.178,0.475,0.362,0.949,0.551,1.42c0.346,0.863,0.708,1.72,1.08,2.573c0.029,0.067,0.06,0.134,0.089,0.201
				c0.023,0.019,0.046,0.037,0.069,0.055c0.547,0.442,1.083,0.898,1.612,1.361c0.346,0.302,0.688,0.608,1.029,0.915
				c0.275,0.02,0.551,0.037,0.827,0.054c0.521,0.032,1.042,0.073,1.562,0.119C259.371,123.388,258.848,122.915,258.328,122.439z"/>
			<path style="opacity:0.6;fill:#CCD5D9;" d="M259.558,116.254c0.517,0.008,1.03,0.025,1.541,0.107
				c0.484,0.078,0.96,0.193,1.435,0.312c0.961,0.241,1.94,0.508,2.94,0.464c0.532-0.023,1.025-0.155,1.515-0.357
				c0.43-0.177,0.867-0.333,1.308-0.478c0.915-0.3,1.845-0.548,2.771-0.811c0.937-0.267,1.872-0.549,2.775-0.917
				c0.893-0.364,1.734-0.834,2.551-1.344c0.778-0.486,1.535-1.011,2.306-1.512c-0.366,0.077-0.729,0.169-1.094,0.246
				c-0.927,0.196-1.858,0.371-2.791,0.534c-1.884,0.329-3.776,0.607-5.667,0.894c-1.89,0.287-3.766,0.637-5.635,1.042
				c-2.663,0.576-5.305,1.242-7.947,1.905C256.897,116.294,258.227,116.233,259.558,116.254z"/>
			<path style="opacity:0.6;fill:#CCD5D9;" d="M271.121,125.405c-0.521-0.611-1.048-1.216-1.573-1.824
				c-0.242-0.28-0.481-0.561-0.709-0.852c-0.226-0.288-0.445-0.581-0.67-0.87c-0.382-0.491-0.78-0.98-1.248-1.392
				c0.242,0.411,0.475,0.828,0.699,1.249c0.473,0.887,0.917,1.789,1.372,2.685c0.121,0.238,0.244,0.476,0.367,0.713
				c0.59,0.096,1.178,0.195,1.767,0.298C271.125,125.409,271.123,125.407,271.121,125.405z"/>
			<path style="opacity:0.6;fill:#CCD5D9;" d="M277.044,123.16c-0.298-1.214-0.629-2.42-1.024-3.605
				c-0.058,0.598-0.099,1.197-0.126,1.797c-0.053,1.216-0.051,2.434-0.02,3.651c0.011,0.424,0.025,0.847,0.042,1.271
				c0.636,0.113,1.273,0.223,1.91,0.328C277.577,125.452,277.325,124.302,277.044,123.16z"/>
			<path style="opacity:0.6;fill:#CCD5D9;" d="M289.367,99.865c0.006,0.334,0.033,0.668,0.057,1.002
				c0.051,0.701,0.123,1.424,0.017,2.124c-0.018,0.119-0.062,0.246-0.128,0.379c0.646,0.387,1.287,0.782,1.922,1.186
				c0.949,0.603,1.886,1.224,2.817,1.854c0.939,0.636,1.87,1.283,2.798,1.935c0.924,0.649,1.846,1.302,2.768,1.954
				c0.14,0.099,0.281,0.198,0.421,0.297c-0.321-0.703-0.878-1.305-1.306-1.935c-0.59-0.868-1.167-1.745-1.755-2.615
				c-1.178-1.745-2.392-3.477-3.798-5.048c-1.196-1.337-2.52-2.554-3.793-3.818c0,0.535,0.004,1.069-0.001,1.602
				C289.383,99.143,289.36,99.504,289.367,99.865z"/>
			<path style="opacity:0.6;fill:#CCD5D9;" d="M298.775,123.24c-0.351-0.418-0.668-0.862-0.982-1.308
				c-0.275-0.39-0.541-0.788-0.844-1.157c-0.453-0.552-0.92-1.093-1.375-1.644c-0.946-1.146-1.874-2.309-2.757-3.505
				c-0.855-1.158-1.654-2.353-2.428-3.567c-0.701-1.1-1.41-2.209-2.302-3.167c0.04,0.106,0.08,0.212,0.12,0.317
				c0.511,1.328,1.064,2.64,1.634,3.944c0.564,1.292,1.145,2.576,1.716,3.866c0.291,0.658,0.536,1.339,0.805,2.006
				c0.27,0.669,0.543,1.337,0.817,2.004c0.272,0.664,0.545,1.329,0.814,1.994c0.176,0.436,0.374,0.861,0.581,1.283
				c0.058-0.015,0.115-0.029,0.173-0.044c1.345-0.34,2.69-0.678,4.036-1.014C298.781,123.247,298.778,123.243,298.775,123.24z"/>
			<path style="opacity:0.6;fill:#CCD5D9;" d="M284.612,122.33c-0.512-1.352-0.99-2.713-1.432-4.09
				c-0.439-1.367-0.859-2.739-1.326-4.097c-0.237-0.689-0.486-1.375-0.755-2.052c-0.125-0.315-0.255-0.628-0.389-0.939
				c-0.021,0.011-0.041,0.022-0.062,0.032c0.068,1.086,0.17,2.169,0.296,3.249c0.164,1.413,0.369,2.821,0.592,4.226
				c0.214,1.349,0.463,2.692,0.66,4.043c0.191,1.313,0.347,2.632,0.547,3.944c0.03,0.198,0.062,0.397,0.095,0.595
				c0.146-0.035,0.292-0.07,0.438-0.106c0.956-0.233,1.912-0.468,2.868-0.705C285.654,125.056,285.129,123.694,284.612,122.33z"/>
		</g>
		<g>
			<path style="fill:#F6F6F6;" d="M424.586,108.898c-0.345-1.171-1.26-2.11-1.932-3.099c-0.78-1.148-1.544-2.308-2.321-3.458
				c-1.558-2.308-3.164-4.599-5.024-6.677c-1.639-1.832-3.462-3.495-5.202-5.233c-1.406,0.041-2.811,0.099-4.215,0.177
				c-1.702,0.095-3.402,0.22-5.1,0.379c-1.852,0.899-3.702,1.804-5.545,2.72c-1.719,0.854-3.433,1.717-5.139,2.594
				c-1.634,0.84-3.23,1.755-4.83,2.657c-3.172,1.79-6.328,3.609-9.533,5.341c-1.945,1.051-3.91,2.068-5.903,3.026
				c-1.039,1.121-1.916,2.418-2.811,3.623c-0.848,1.142-1.762,2.231-2.659,3.334c-0.46,0.565-0.914,1.134-1.351,1.717
				c-0.249,0.332-0.537,0.678-0.765,1.046c0.236,0.629,0.479,1.255,0.729,1.878c0.458,1.142,0.937,2.276,1.429,3.404
				c0.039,0.089,0.079,0.177,0.118,0.266c0.03,0.025,0.061,0.049,0.092,0.073c0.723,0.585,1.432,1.188,2.133,1.8
				c0.457,0.399,0.91,0.804,1.361,1.21c0.364,0.026,0.729,0.05,1.093,0.072c1.547,0.096,3.089,0.239,4.628,0.425
				c3.066,0.369,6.135,0.786,9.186,1.264c6.148,0.963,12.233,2.348,18.43,2.982c0.25-0.061,0.5-0.12,0.75-0.181
				c2.533-0.616,5.063-1.246,7.592-1.883c2.529-0.636,5.056-1.278,7.584-1.917c1.914-0.484,3.829-0.965,5.746-1.442
				c0.153-1.43,0.286-2.862,0.412-4.294c0.15-1.716,0.291-3.434,0.445-5.149c0.154-1.712,0.32-3.422,0.523-5.128
				c0.049-0.412,0.1-0.823,0.154-1.234C424.638,109.091,424.615,108.994,424.586,108.898z"/>
			<path style="opacity:0.6;fill:#CCD5D9;" d="M371.832,111.2c0.114,0.169,0.226,0.34,0.337,0.512
				c-0.223-0.716-0.452-1.429-0.694-2.14c-0.296-0.871-0.594-1.742-0.859-2.623c-0.258,0.126-0.516,0.251-0.774,0.375
				c-0.117,0.127-0.232,0.256-0.345,0.386c0.047,0.158,0.098,0.315,0.15,0.471C370.392,109.175,371.139,110.169,371.832,111.2z"/>
			<path style="opacity:0.6;fill:#CCD5D9;" d="M401.355,91.085c0.631,0.776,1.193,1.605,1.747,2.437
				c0.485,0.729,0.961,1.462,1.496,2.156c0.102,0.133,0.202,0.267,0.304,0.4c-0.628-1.002-1.233-2.019-1.819-3.046
				c-0.405-0.709-0.8-1.424-1.189-2.143c-0.217,0.019-0.435,0.038-0.652,0.058C401.279,90.993,401.318,91.038,401.355,91.085z"/>
			<path style="opacity:0.64;fill:#D5DEE2;" d="M424.586,108.898c-0.345-1.171-1.26-2.11-1.932-3.099
				c-0.78-1.148-1.544-2.308-2.321-3.458c-1.558-2.308-3.164-4.599-5.024-6.677c-1.582-1.768-3.333-3.378-5.018-5.051
				c0,0.707,0.005,1.414-0.002,2.119c-0.005,0.477-0.035,0.954-0.026,1.431c0.008,0.442,0.043,0.884,0.076,1.325
				c0.068,0.928,0.163,1.884,0.023,2.81c-0.254,1.68-4.468,4.635-5.108,5.162c-0.832,0.686-1.594,1.445-2.352,2.211
				c-0.772,0.779-1.543,1.565-2.391,2.263c-0.755,0.62-1.575,1.198-2.511,1.503c-0.479,0.156-0.973,0.242-1.469,0.33
				c-0.611,0.109-1.216,0.272-1.825,0.401c-1.226,0.259-2.457,0.491-3.691,0.706c-2.492,0.435-4.995,0.803-7.495,1.183
				c-2.5,0.38-4.982,0.843-7.453,1.378c-4.558,0.987-9.069,2.17-13.595,3.291c-0.075,0.104-0.147,0.21-0.214,0.318
				c0.236,0.629,0.479,1.255,0.729,1.878c0.458,1.142,0.937,2.276,1.429,3.404c0.039,0.089,0.079,0.177,0.118,0.266
				c0.03,0.025,0.061,0.049,0.092,0.073c0.723,0.585,1.432,1.188,2.133,1.8c0.457,0.399,0.91,0.804,1.361,1.21
				c0.364,0.026,0.729,0.049,1.093,0.072c1.547,0.096,3.089,0.239,4.628,0.425c3.066,0.369,6.135,0.786,9.186,1.264
				c6.148,0.963,12.233,2.348,18.43,2.982c0.25-0.061,0.5-0.12,0.75-0.181c2.533-0.616,5.063-1.246,7.592-1.883
				c2.529-0.636,5.056-1.278,7.584-1.917c1.914-0.484,3.829-0.965,5.746-1.442c0.153-1.43,0.286-2.862,0.412-4.294
				c0.15-1.716,0.291-3.434,0.445-5.149c0.154-1.712,0.32-3.422,0.523-5.128c0.049-0.412,0.1-0.823,0.154-1.234
				C424.638,109.091,424.615,108.994,424.586,108.898z"/>
			<path style="opacity:0.6;fill:#CCD5D9;" d="M369.206,124.024c-0.924-0.845-1.841-1.697-2.741-2.568
				c-0.892-0.863-1.767-1.744-2.611-2.654c-0.541-0.583-1.067-1.179-1.578-1.788c-0.006,0.01-0.013,0.02-0.019,0.03
				c0.236,0.629,0.479,1.255,0.729,1.878c0.458,1.142,0.937,2.276,1.429,3.404c0.039,0.089,0.079,0.177,0.118,0.266
				c0.03,0.025,0.061,0.049,0.092,0.073c0.723,0.585,1.432,1.188,2.133,1.8c0.457,0.399,0.91,0.804,1.361,1.21
				c0.364,0.026,0.729,0.049,1.093,0.072c0.69,0.043,1.378,0.096,2.066,0.158C370.586,125.279,369.895,124.653,369.206,124.024z"/>
			<path style="opacity:0.6;fill:#CCD5D9;" d="M370.833,115.842c0.684,0.011,1.362,0.033,2.038,0.142
				c0.64,0.103,1.27,0.256,1.898,0.413c1.271,0.318,2.566,0.671,3.889,0.613c0.704-0.031,1.356-0.205,2.004-0.472
				c0.568-0.234,1.147-0.441,1.731-0.632c1.21-0.396,2.441-0.725,3.666-1.073c1.239-0.353,2.476-0.726,3.67-1.213
				c1.181-0.482,2.294-1.103,3.375-1.778c1.029-0.643,2.031-1.337,3.051-2c-0.484,0.102-0.965,0.224-1.447,0.326
				c-1.226,0.259-2.457,0.491-3.691,0.706c-2.492,0.435-4.995,0.803-7.495,1.183c-2.5,0.38-4.982,0.843-7.453,1.378
				c-3.522,0.762-7.017,1.642-10.512,2.52C367.313,115.894,369.072,115.815,370.833,115.842z"/>
			<path style="opacity:0.6;fill:#CCD5D9;" d="M386.129,127.946c-0.689-0.808-1.386-1.609-2.081-2.412
				c-0.32-0.37-0.636-0.742-0.938-1.127c-0.298-0.381-0.589-0.769-0.886-1.151c-0.505-0.649-1.031-1.297-1.651-1.842
				c0.32,0.544,0.628,1.095,0.925,1.652c0.626,1.173,1.213,2.366,1.815,3.552c0.16,0.315,0.322,0.629,0.486,0.943
				c0.78,0.127,1.559,0.259,2.337,0.395C386.134,127.952,386.132,127.949,386.129,127.946z"/>
			<path style="opacity:0.6;fill:#CCD5D9;" d="M393.963,124.976c-0.394-1.605-0.832-3.2-1.354-4.769
				c-0.077,0.791-0.132,1.583-0.167,2.377c-0.071,1.609-0.067,3.22-0.027,4.829c0.014,0.56,0.034,1.121,0.055,1.681
				c0.842,0.149,1.684,0.295,2.527,0.434C394.668,128.008,394.335,126.488,393.963,124.976z"/>
			<path style="opacity:0.6;fill:#CCD5D9;" d="M410.263,94.163c0.008,0.442,0.043,0.884,0.076,1.325
				c0.068,0.928,0.163,1.884,0.023,2.81c-0.024,0.157-0.082,0.325-0.169,0.501c0.854,0.512,1.702,1.035,2.542,1.569
				c1.255,0.798,2.495,1.619,3.726,2.453c1.242,0.842,2.474,1.697,3.702,2.559c1.223,0.858,2.441,1.723,3.661,2.585
				c0.186,0.131,0.372,0.262,0.557,0.393c-0.425-0.93-1.161-1.727-1.728-2.56c-0.78-1.148-1.544-2.308-2.321-3.458
				c-1.558-2.308-3.164-4.599-5.024-6.677c-1.582-1.768-3.333-3.378-5.018-5.051c0,0.707,0.005,1.414-0.002,2.119
				C410.285,93.208,410.255,93.686,410.263,94.163z"/>
			<path style="opacity:0.6;fill:#CCD5D9;" d="M422.708,125.083c-0.464-0.553-0.883-1.141-1.298-1.73
				c-0.363-0.515-0.715-1.043-1.116-1.53c-0.6-0.73-1.217-1.446-1.818-2.174c-1.252-1.516-2.479-3.054-3.647-4.636
				c-1.131-1.532-2.188-3.113-3.212-4.718c-0.928-1.456-1.866-2.922-3.045-4.189c0.053,0.14,0.105,0.28,0.159,0.419
				c0.676,1.757,1.408,3.492,2.162,5.217c0.747,1.709,1.515,3.408,2.269,5.113c0.385,0.87,0.709,1.771,1.065,2.653
				c0.357,0.885,0.719,1.768,1.08,2.651c0.36,0.879,0.72,1.758,1.077,2.638c0.233,0.576,0.495,1.139,0.768,1.697
				c0.076-0.019,0.152-0.039,0.229-0.058c1.779-0.45,3.558-0.897,5.339-1.341C422.716,125.092,422.712,125.087,422.708,125.083z"/>
			<path style="opacity:0.6;fill:#CCD5D9;" d="M403.974,123.879c-0.677-1.788-1.309-3.589-1.894-5.41
				c-0.58-1.808-1.137-3.624-1.754-5.419c-0.314-0.912-0.643-1.818-0.999-2.715c-0.165-0.417-0.337-0.831-0.515-1.243
				c-0.027,0.014-0.054,0.029-0.082,0.043c0.09,1.436,0.225,2.869,0.391,4.298c0.218,1.869,0.488,3.732,0.783,5.59
				c0.283,1.784,0.613,3.561,0.873,5.348c0.253,1.738,0.459,3.481,0.724,5.217c0.04,0.262,0.082,0.525,0.125,0.787
				c0.193-0.047,0.386-0.093,0.579-0.14c1.265-0.308,2.53-0.619,3.793-0.933C405.352,127.485,404.658,125.684,403.974,123.879z"/>
		</g>
		<g>
			<path style="fill:#F6F6F6;" d="M386.272,102.467c-0.558-1.262-1.721-2.18-2.62-3.191c-1.043-1.173-2.069-2.361-3.108-3.537
				c-2.084-2.359-4.22-4.691-6.609-6.749c-2.105-1.814-4.392-3.41-6.597-5.104c-1.569,0.252-3.136,0.523-4.698,0.816
				c-1.894,0.355-3.781,0.745-5.661,1.171c-1.944,1.279-3.885,2.564-5.818,3.86c-1.802,1.209-3.596,2.427-5.381,3.66
				c-1.708,1.18-3.364,2.44-5.025,3.685c-3.294,2.47-6.565,4.972-9.904,7.382c-2.027,1.463-4.08,2.891-6.174,4.256
				c-1,1.408-1.793,2.991-2.62,4.472c-0.784,1.404-1.648,2.759-2.493,4.126c-0.433,0.701-0.859,1.405-1.263,2.123
				c-0.23,0.409-0.502,0.838-0.704,1.285c0.357,0.67,0.721,1.337,1.092,1.999c0.681,1.213,1.383,2.414,2.1,3.606
				c0.056,0.094,0.114,0.187,0.171,0.281c0.038,0.023,0.076,0.046,0.114,0.069c0.896,0.55,1.779,1.122,2.654,1.705
				c0.571,0.381,1.138,0.768,1.703,1.157c0.412-0.024,0.824-0.051,1.236-0.079c1.748-0.119,3.497-0.184,5.249-0.201
				c3.49-0.035,6.992-0.017,10.481,0.072c7.032,0.179,14.056,0.841,21.095,0.645c0.271-0.105,0.543-0.208,0.814-0.313
				c2.75-1.061,5.493-2.138,8.234-3.221c2.741-1.083,5.48-2.173,8.22-3.259c2.075-0.823,4.152-1.642,6.229-2.458
				c-0.038-1.625-0.098-3.25-0.167-4.874c-0.082-1.946-0.176-3.891-0.255-5.837c-0.078-1.941-0.142-3.883-0.164-5.825
				c-0.005-0.469-0.008-0.937-0.008-1.406C386.359,102.676,386.318,102.571,386.272,102.467z"/>
			<path style="opacity:0.6;fill:#CCD5D9;" d="M327.476,112.769c0.153,0.173,0.303,0.348,0.453,0.525
				c-0.355-0.77-0.716-1.536-1.091-2.298c-0.459-0.933-0.921-1.866-1.347-2.815c-0.27,0.179-0.541,0.357-0.813,0.534
				c-0.113,0.159-0.222,0.321-0.33,0.484c0.076,0.171,0.156,0.339,0.237,0.506C325.565,110.711,326.547,111.715,327.476,112.769z"/>
			<path style="opacity:0.6;fill:#CCD5D9;" d="M357.624,85.9c0.821,0.777,1.572,1.625,2.315,2.476
				c0.651,0.746,1.291,1.498,1.992,2.198c0.134,0.134,0.266,0.27,0.399,0.404c-0.85-1.032-1.678-2.082-2.485-3.148
				c-0.558-0.736-1.105-1.479-1.646-2.228c-0.241,0.052-0.482,0.106-0.722,0.16C357.525,85.808,357.575,85.854,357.624,85.9z"/>
			<path style="opacity:0.5;fill:#D5DEE2;" d="M386.272,102.467c-0.558-1.262-1.721-2.18-2.62-3.191
				c-1.043-1.173-2.069-2.361-3.108-3.537c-2.084-2.359-4.22-4.691-6.609-6.749c-2.031-1.75-4.231-3.299-6.364-4.927
				c0.103,0.793,0.213,1.585,0.308,2.376c0.064,0.535,0.1,1.075,0.18,1.608c0.074,0.495,0.178,0.985,0.279,1.474
				c0.212,1.03,0.458,2.088,0.437,3.146c-0.039,1.921-4.33,5.849-4.97,6.534c-0.832,0.89-1.575,1.854-2.313,2.822
				c-0.751,0.987-1.5,1.981-2.349,2.887c-0.755,0.806-1.589,1.573-2.594,2.052c-0.515,0.245-1.056,0.413-1.598,0.585
				c-0.669,0.212-1.324,0.484-1.987,0.716c-1.336,0.469-2.683,0.91-4.034,1.332c-2.729,0.853-5.481,1.631-8.229,2.423
				c-2.747,0.792-5.461,1.674-8.153,2.635c-4.965,1.773-9.848,3.76-14.757,5.679c-0.069,0.128-0.134,0.257-0.193,0.388
				c0.357,0.67,0.721,1.337,1.092,1.999c0.681,1.213,1.383,2.414,2.1,3.606c0.056,0.094,0.114,0.187,0.171,0.281
				c0.038,0.023,0.076,0.046,0.114,0.069c0.896,0.55,1.779,1.122,2.654,1.705c0.571,0.381,1.138,0.768,1.703,1.157
				c0.412-0.024,0.824-0.051,1.236-0.079c1.748-0.119,3.497-0.184,5.249-0.201c3.49-0.035,6.992-0.017,10.481,0.072
				c7.032,0.179,14.056,0.841,21.095,0.645c0.271-0.105,0.543-0.208,0.814-0.313c2.749-1.062,5.493-2.138,8.234-3.221
				c2.741-1.083,5.48-2.173,8.22-3.259c2.075-0.823,4.152-1.642,6.229-2.458c-0.038-1.625-0.098-3.25-0.167-4.874
				c-0.082-1.946-0.176-3.891-0.255-5.837c-0.078-1.941-0.142-3.883-0.164-5.825c-0.005-0.469-0.008-0.937-0.008-1.406
				C386.359,102.676,386.318,102.571,386.272,102.467z"/>
			<path style="opacity:0.6;fill:#CCD5D9;" d="M326.409,127.528c-1.159-0.812-2.312-1.633-3.448-2.477
				c-1.126-0.837-2.235-1.696-3.315-2.592c-0.692-0.574-1.369-1.165-2.031-1.773c-0.005,0.012-0.012,0.024-0.017,0.036
				c0.357,0.67,0.721,1.337,1.092,1.999c0.681,1.213,1.383,2.414,2.1,3.606c0.056,0.094,0.114,0.187,0.171,0.281
				c0.038,0.023,0.076,0.046,0.114,0.069c0.896,0.55,1.779,1.122,2.654,1.705c0.571,0.381,1.138,0.768,1.703,1.157
				c0.412-0.024,0.824-0.051,1.236-0.079c0.779-0.053,1.559-0.094,2.339-0.126C328.14,128.733,327.273,128.133,326.409,127.528z"/>
			<path style="opacity:0.6;fill:#CCD5D9;" d="M327.035,118.119c0.768-0.088,1.532-0.163,2.305-0.14
				c0.732,0.022,1.461,0.101,2.188,0.185c1.471,0.171,2.975,0.377,4.449,0.118c0.784-0.138,1.49-0.428,2.178-0.822
				c0.603-0.345,1.221-0.662,1.848-0.962c1.298-0.621,2.63-1.169,3.951-1.74c1.337-0.577,2.669-1.177,3.937-1.897
				c1.254-0.713,2.41-1.572,3.523-2.487c1.059-0.872,2.081-1.796,3.127-2.688c-0.527,0.185-1.048,0.393-1.575,0.577
				c-1.336,0.469-2.683,0.91-4.034,1.332c-2.729,0.853-5.481,1.631-8.229,2.423c-2.747,0.792-5.461,1.674-8.153,2.635
				c-3.837,1.37-7.625,2.868-11.414,4.364C323.097,118.693,325.057,118.346,327.035,118.119z"/>
			<path style="opacity:0.6;fill:#CCD5D9;" d="M345.953,129.448c-0.891-0.805-1.789-1.601-2.685-2.399
				c-0.413-0.368-0.822-0.738-1.216-1.126c-0.39-0.384-0.773-0.775-1.162-1.16c-0.661-0.654-1.346-1.303-2.12-1.823
				c0.439,0.562,0.864,1.135,1.278,1.716c0.874,1.223,1.706,2.475,2.555,3.716c0.226,0.33,0.453,0.658,0.682,0.986
				c0.893,0.028,1.785,0.062,2.677,0.1C345.959,129.453,345.956,129.451,345.953,129.448z"/>
			<path style="opacity:0.6;fill:#CCD5D9;" d="M354.3,124.972c-0.677-1.742-1.402-3.465-2.216-5.147
				c0.029,0.897,0.084,1.794,0.161,2.689c0.156,1.814,0.396,3.619,0.677,5.417c0.098,0.626,0.202,1.251,0.308,1.876
				c0.965,0.044,1.931,0.084,2.896,0.117C355.533,128.267,354.937,126.612,354.3,124.972z"/>
			<path style="opacity:0.6;fill:#CCD5D9;" d="M368.06,88.046c0.074,0.495,0.178,0.985,0.279,1.474
				c0.212,1.03,0.458,2.088,0.437,3.146c-0.004,0.179-0.044,0.376-0.116,0.586c1.033,0.448,2.059,0.911,3.079,1.387
				c1.523,0.711,3.034,1.449,4.535,2.204c1.515,0.762,3.022,1.541,4.524,2.327c1.496,0.783,2.989,1.573,4.482,2.362
				c0.227,0.12,0.455,0.239,0.682,0.359c-0.613-0.98-1.555-1.766-2.311-2.616c-1.043-1.173-2.069-2.361-3.108-3.537
				c-2.084-2.359-4.22-4.691-6.609-6.749c-2.031-1.75-4.231-3.299-6.364-4.927c0.103,0.793,0.213,1.585,0.308,2.376
				C367.944,86.973,367.98,87.513,368.06,88.046z"/>
			<path style="opacity:0.6;fill:#CCD5D9;" d="M386.536,120.884c-0.601-0.552-1.157-1.149-1.709-1.749
				c-0.482-0.525-0.954-1.064-1.475-1.552c-0.779-0.73-1.576-1.443-2.356-2.171c-1.625-1.516-3.226-3.06-4.767-4.662
				c-1.492-1.552-2.909-3.169-4.291-4.819c-1.253-1.496-2.519-3.002-4.027-4.249c0.08,0.149,0.159,0.298,0.24,0.447
				c1.015,1.871,2.089,3.708,3.187,5.531c1.087,1.806,2.197,3.598,3.292,5.399c0.559,0.919,1.054,1.881,1.582,2.818
				c0.53,0.94,1.064,1.877,1.599,2.814c0.532,0.933,1.065,1.865,1.593,2.799c0.346,0.612,0.721,1.205,1.109,1.79
				c0.082-0.033,0.165-0.065,0.248-0.098c1.928-0.765,3.858-1.526,5.788-2.284C386.545,120.893,386.54,120.888,386.536,120.884z"/>
			<path style="opacity:0.6;fill:#CCD5D9;" d="M365.36,122.276c-1.021-1.906-1.993-3.831-2.915-5.786
				c-0.915-1.941-1.804-3.895-2.759-5.818c-0.485-0.976-0.987-1.944-1.517-2.896c-0.246-0.443-0.5-0.882-0.759-1.318
				c-0.029,0.02-0.057,0.041-0.086,0.06c0.311,1.597,0.672,3.183,1.068,4.761c0.518,2.063,1.093,4.112,1.696,6.152
				c0.579,1.958,1.208,3.902,1.761,5.867c0.538,1.91,1.024,3.835,1.575,5.742c0.083,0.288,0.169,0.576,0.255,0.864
				c0.21-0.08,0.419-0.161,0.629-0.242c1.373-0.53,2.745-1.064,4.115-1.601C367.433,126.117,366.391,124.2,365.36,122.276z"/>
		</g>
	</g>
</g>
</svg>
