<?xml version="1.0" encoding="UTF-8"?>
<svg id="Layer_2" data-name="Layer 2" xmlns="http://www.w3.org/2000/svg" viewBox="0 0 269.68 111.18">
  <defs>
    <style>
      .cls-1 {
        stroke-width: 1px;
      }

      .cls-1, .cls-2, .cls-3, .cls-4, .cls-5, .cls-6, .cls-7, .cls-8, .cls-9, .cls-10, .cls-11, .cls-12, .cls-13, .cls-14, .cls-15, .cls-16, .cls-17, .cls-18, .cls-19 {
        stroke: #263238;
        stroke-linecap: round;
        stroke-linejoin: round;
      }

      .cls-1, .cls-2, .cls-3, .cls-4, .cls-6, .cls-7, .cls-8, .cls-9, .cls-10, .cls-12, .cls-13, .cls-14, .cls-15, .cls-16, .cls-17, .cls-19 {
        fill: #fff;
      }

      .cls-2 {
        stroke-width: 1px;
      }

      .cls-4 {
        stroke-width: 1px;
      }

      .cls-5 {
        fill: #ab6e58;
      }

      .cls-6 {
        stroke-width: 1px;
      }

      .cls-7 {
        stroke-width: 1px;
      }

      .cls-8 {
        stroke-width: 1px;
      }

      .cls-9 {
        stroke-width: 1px;
      }

      .cls-10 {
        stroke-width: 1px;
      }

      .cls-11 {
        stroke-width: .5px;
      }

      .cls-11, .cls-18 {
        fill: none;
      }

      .cls-12 {
        stroke-width: 1px;
      }

      .cls-13 {
        stroke-width: 1px;
      }

      .cls-14 {
        stroke-width: 1px;
      }

      .cls-15 {
        stroke-width: 1px;
      }

      .cls-16 {
        stroke-width: 1px;
      }

      .cls-17 {
        stroke-width: 1px;
      }

      .cls-19 {
        stroke-width: 1px;
      }
    </style>
  </defs>
  <g id="Layer_1-2" data-name="Layer 1">
    <g id="Logs">
      <g>
        <path class="cls-5" d="M174.67,90.7c-4.04-4.89-11.09-5.83-16.24-2.33l-.38-.62c.66-.36,1.3-.79,1.9-1.28,5.19-4.29,5.93-11.97,1.64-17.16-4.04-4.89-11.09-5.83-16.24-2.33l-.27-.44c4.7-1.69,8.07-6.18,8.07-11.46,0-6.73-5.46-12.19-12.19-12.19-2.04,0-3.96.51-5.64,1.39l-.04-.14-.49-.05c3.02-2.22,4.98-5.78,4.98-9.82,0-6.73-5.46-12.19-12.19-12.19-2.74,0-5.27.91-7.31,2.44l-.02-.06-.93.02c5.59-2.01,9.01-7.85,7.81-13.85-1.32-6.6-7.75-10.88-14.35-9.56,0,0-19.85-.11-23.13-.38-3.28-.27-10.92-.27-14.2,0s-10.92.27-10.92.27l-.08,3.63-9.48,18.49L10.74,110.23h50.72c1,.27,2.05.42,3.13.42s2.13-.15,3.13-.42h18.7c2.05.54,4.21.55,6.28,0h18.69c1,.27,2.05.42,3.13.42s2.13-.15,3.13-.42h19.24c2.07.55,4.23.54,6.28,0h18.97c3.67.98,7.74.24,10.89-2.37,5.19-4.28,5.93-11.97,1.64-17.16Z"/>
        <g>
          <g>
            <path class="cls-3" d="M22.73,65.12c6.6-1.32,13.03,2.95,14.35,9.56,1.32,6.6-2.95,13.03-9.56,14.35-6.6,1.32-13.03-2.95-14.35-9.56-1.32-6.6,2.95-13.03,9.56-14.35Z"/>
            <path class="cls-11" d="M24.42,66.25s6.61,3.41,9.38,8.39-1.67,9.42-5.39,10.56c-3.72,1.14-10.14-1.32-11.55-5.39-1.41-4.06-.84-8.12,2.27-9.34s9-.42,10.48,3.03c1.48,3.45,2.13,4.71-.34,6.19-2.47,1.48-7.74,2.74-8.81-1.59s1.1-6.34,3.72-4.1,2.93,3.58.93,3.08"/>
          </g>
          <g>
            <path class="cls-3" d="M47.7,65.12c6.6-1.32,13.03,2.95,14.35,9.56,1.32,6.6-2.95,13.03-9.56,14.35-6.6,1.32-13.02-2.95-14.35-9.56-1.32-6.6,2.96-13.03,9.56-14.35Z"/>
            <path class="cls-11" d="M49.39,66.25s6.61,3.41,9.38,8.39-1.67,9.42-5.39,10.56-10.14-1.32-11.55-5.39c-1.41-4.06-.84-8.12,2.27-9.34s9-.42,10.48,3.03c1.48,3.45,2.13,4.71-.34,6.19-2.47,1.48-7.74,2.74-8.81-1.59s1.1-6.34,3.72-4.1,2.93,3.58.93,3.08"/>
          </g>
          <g>
            <circle class="cls-12" cx="63.26" cy="55.84" r="12.19"/>
            <path class="cls-11" d="M62.59,45.01s6.61,3.41,9.38,8.39-1.67,9.42-5.39,10.56-10.14-1.32-11.55-5.39c-1.41-4.06-.84-8.12,2.27-9.34s9-.42,10.48,3.03c1.48,3.45,2.13,4.71-.34,6.19-2.47,1.48-7.74,2.74-8.81-1.59s1.1-6.34,3.72-4.1,2.93,3.58.93,3.08"/>
          </g>
          <g>
            <circle class="cls-19" cx="63.28" cy="13.04" r="12.19"/>
            <path class="cls-11" d="M62.59,2.21s6.61,3.41,9.38,8.39-1.67,9.42-5.39,10.56-10.14-1.32-11.55-5.39c-1.41-4.06-.84-8.12,2.27-9.34s9-.42,10.48,3.03c1.48,3.45,2.13,4.71-.34,6.19-2.47,1.48-7.74,2.74-8.81-1.59s1.1-6.34,3.72-4.1,2.93,3.58.93,3.08"/>
          </g>
          <g>
            <circle class="cls-2" cx="12.69" cy="98.46" r="12.19"/>
            <path class="cls-11" d="M23.45,99.9s-4.65,5.81-10.07,7.55c-5.42,1.74-8.91-3.48-9.29-7.36s3.29-9.68,7.55-10.26,8.13.77,8.71,4.07c.58,3.29-1.36,8.91-5.03,9.68-3.68.77-5.03,1.16-6-1.55-.97-2.71-1.16-8.13,3.29-8.33,4.45-.19,6,2.32,3.29,4.45-2.71,2.13-4.08,2.17-3.2.31"/>
          </g>
          <g>
            <circle class="cls-16" cx="37.66" cy="98.49" r="12.19"/>
            <path class="cls-11" d="M31.92,89.25s7.44-.11,12.23,2.96c4.79,3.07,2.98,9.09.24,11.85-2.74,2.76-9.56,3.62-12.72.71s-4.58-6.77-2.41-9.31,7.73-4.62,10.67-2.28,4.1,3.14,2.62,5.61c-1.47,2.47-5.53,6.07-8.52,2.76-2.98-3.31-2.03-6.11,1.34-5.37,3.37.73,4.27,1.77,2.28,2.27"/>
          </g>
          <g>
            <path class="cls-3" d="M105.62,89.06c5.19-4.29,12.88-3.55,17.16,1.64,4.29,5.19,3.55,12.88-1.64,17.16-5.19,4.29-12.88,3.55-17.16-1.64-4.28-5.19-3.55-12.88,1.64-17.16Z"/>
            <path class="cls-11" d="M107.64,89.25s7.44-.11,12.23,2.96c4.79,3.07,2.98,9.09.24,11.85-2.74,2.76-9.56,3.62-12.72.71s-4.58-6.77-2.41-9.31,7.73-4.62,10.67-2.28,4.1,3.14,2.62,5.61-5.53,6.07-8.52,2.76c-2.98-3.31-2.03-6.11,1.34-5.37s4.27,1.77,2.28,2.27"/>
          </g>
          <g>
            <path class="cls-3" d="M92.54,67.66c5.19-4.29,12.88-3.55,17.16,1.64,4.29,5.19,3.55,12.88-1.64,17.16-5.19,4.29-12.88,3.55-17.16-1.64s-3.55-12.88,1.64-17.16Z"/>
            <path class="cls-11" d="M94.56,67.86s7.44-.11,12.23,2.96c4.79,3.07,2.98,9.09.24,11.85-2.74,2.76-9.56,3.62-12.72.71s-4.58-6.77-2.41-9.31,7.73-4.62,10.67-2.28c2.94,2.35,4.1,3.14,2.62,5.61s-5.53,6.07-8.52,2.76c-2.98-3.31-2.03-6.11,1.34-5.37,3.37.73,4.27,1.77,2.28,2.27"/>
          </g>
          <g>
            <path class="cls-3" d="M43.81,24.87c5.19-4.29,12.88-3.55,17.16,1.64,4.29,5.19,3.55,12.88-1.64,17.16s-12.88,3.55-17.16-1.64c-4.29-5.19-3.55-12.88,1.64-17.16Z"/>
            <path class="cls-11" d="M45.83,25.06s7.44-.11,12.23,2.96c4.79,3.07,2.98,9.09.24,11.85-2.74,2.76-9.56,3.62-12.72.71s-4.58-6.77-2.41-9.31,7.73-4.62,10.67-2.28c2.94,2.35,4.1,3.14,2.62,5.61s-5.53,6.07-8.52,2.76c-2.98-3.31-2.03-6.11,1.34-5.37,3.37.73,4.27,1.77,2.28,2.27"/>
          </g>
          <g>
            <circle class="cls-4" cx="62.62" cy="98.49" r="12.19"/>
            <path class="cls-11" d="M73.37,99.9s-4.65,5.81-10.07,7.55c-5.42,1.74-8.91-3.48-9.29-7.36-.39-3.87,3.29-9.68,7.55-10.26s8.13.77,8.71,4.07c.58,3.29-1.36,8.91-5.03,9.68-3.68.77-5.03,1.16-6-1.55-.97-2.71-1.16-8.13,3.29-8.33,4.45-.19,6,2.32,3.29,4.45-2.71,2.13-4.08,2.17-3.2.31"/>
          </g>
          <g>
            <circle class="cls-2" cx="75.69" cy="34.27" r="12.19"/>
            <path class="cls-11" d="M86.45,35.71s-4.65,5.81-10.07,7.55c-5.42,1.74-8.91-3.48-9.29-7.36s3.29-9.68,7.55-10.26c4.26-.58,8.13.77,8.71,4.07.58,3.29-1.36,8.91-5.03,9.68s-5.03,1.16-6-1.55c-.97-2.71-1.16-8.13,3.29-8.33,4.45-.19,6,2.32,3.29,4.45-2.71,2.13-4.08,2.17-3.2.31"/>
          </g>
          <g>
            <circle class="cls-3" cx="89.07" cy="55.07" r="12.19"/>
            <path class="cls-11" d="M99.82,56.51s-4.65,5.81-10.07,7.55-8.91-3.48-9.29-7.36,3.29-9.68,7.55-10.26c4.26-.58,8.13.77,8.71,4.07.58,3.29-1.36,8.91-5.03,9.68s-5.03,1.16-6-1.55c-.97-2.71-1.16-8.13,3.29-8.33,4.45-.19,6,2.32,3.29,4.45-2.71,2.13-4.08,2.17-3.2.31"/>
          </g>
          <g>
            <circle class="cls-3" cx="39.33" cy="55.37" r="12.19"/>
            <path class="cls-11" d="M50.09,56.8s-4.65,5.81-10.07,7.55c-5.42,1.74-8.91-3.48-9.29-7.36s3.29-9.68,7.55-10.26,8.13.77,8.71,4.07c.58,3.29-1.36,8.91-5.03,9.68s-5.03,1.16-6-1.55c-.97-2.71-1.16-8.13,3.29-8.33,4.45-.19,6,2.32,3.29,4.45-2.71,2.13-4.08,2.17-3.2.31"/>
          </g>
          <g>
            <circle class="cls-1" cx="88.13" cy="98.43" r="12.19"/>
            <path class="cls-11" d="M80.15,105.81s-1.49-7.29.64-12.57c2.13-5.28,8.38-4.61,11.6-2.43,3.22,2.18,5.33,8.73,3.05,12.37-2.28,3.64-5.8,5.75-8.7,4.09s-5.98-6.74-4.22-10.06c1.76-3.32,2.33-4.61,5.03-3.62s6.99,4.31,4.29,7.86c-2.7,3.55-5.63,3.12-5.53-.32s.95-4.52,1.81-2.66"/>
          </g>
          <g>
            <circle class="cls-9" cx="75.58" cy="76.76" r="12.19"/>
            <path class="cls-11" d="M67.6,84.11s-1.49-7.29.64-12.57c2.13-5.28,8.38-4.61,11.6-2.43,3.22,2.18,5.33,8.73,3.05,12.37-2.28,3.64-5.8,5.75-8.7,4.09s-5.98-6.74-4.22-10.06c1.76-3.32,2.33-4.61,5.03-3.62s6.99,4.31,4.29,7.86c-2.7,3.55-5.63,3.12-5.53-.32s.95-4.52,1.81-2.66"/>
          </g>
        </g>
        <line class="cls-18" x1="110.7" y1="24.47" x2="86.39" y2="24.47"/>
        <line class="cls-18" x1="117.53" y1="24.47" x2="113.43" y2="24.47"/>
        <line class="cls-18" x1="130.09" y1="44.09" x2="98.14" y2="44.09"/>
        <line class="cls-18" x1="134.8" y1="44.09" x2="133.1" y2="44.09"/>
        <line class="cls-18" x1="119.17" y1="67.26" x2="110.97" y2="67.35"/>
        <line class="cls-18" x1="145.36" y1="66.98" x2="123.81" y2="67.21"/>
        <line class="cls-18" x1="129.27" y1="87.75" x2="124.63" y2="87.75"/>
        <line class="cls-18" x1="158.05" y1="87.75" x2="133.92" y2="87.75"/>
      </g>
      <g>
        <path class="cls-5" d="M266.39,90.7c-4.04-4.89-11.09-5.83-16.24-2.33l-.38-.62c.66-.36,1.3-.79,1.9-1.28,5.19-4.29,5.93-11.97,1.64-17.16-4.04-4.89-11.09-5.83-16.24-2.33l-.27-.44c4.7-1.69,8.07-6.18,8.07-11.46,0-6.73-5.46-12.19-12.19-12.19-2.04,0-3.96.51-5.65,1.39l-.03-.14-.49-.05c3.02-2.22,4.98-5.78,4.98-9.82,0-6.73-5.46-12.19-12.19-12.19-2.74,0-5.27.91-7.31,2.44l-.02-.06-.93.02c5.59-2.01,9.01-7.85,7.81-13.85-1.32-6.6-7.75-10.88-14.35-9.56,0,0-19.85-.11-23.13-.38-3.28-.27-10.92-.27-14.2,0s-10.92.27-10.92.27l-.08,3.63-9.48,18.49-44.25,87.13h50.72c1,.27,2.05.42,3.13.42s2.13-.15,3.13-.42h18.7c2.05.54,4.21.55,6.28,0h18.69c1,.27,2.05.42,3.13.42s2.13-.15,3.13-.42h19.24c2.07.55,4.23.54,6.28,0h18.97c3.67.98,7.74.24,10.9-2.37,5.19-4.28,5.93-11.97,1.64-17.16Z"/>
        <g>
          <g>
            <path class="cls-3" d="M114.45,65.12c6.6-1.32,13.03,2.95,14.35,9.56,1.32,6.6-2.95,13.03-9.56,14.35-6.6,1.32-13.03-2.95-14.35-9.56-1.32-6.6,2.96-13.03,9.56-14.35Z"/>
            <path class="cls-11" d="M116.14,66.25s6.61,3.41,9.38,8.39-1.67,9.42-5.39,10.56-10.14-1.32-11.55-5.39c-1.41-4.06-.84-8.12,2.27-9.34,3.11-1.22,9-.42,10.48,3.03,1.48,3.45,2.13,4.71-.34,6.19-2.47,1.48-7.74,2.74-8.81-1.59s1.1-6.34,3.72-4.1,2.93,3.58.93,3.08"/>
          </g>
          <g>
            <path class="cls-3" d="M139.42,65.12c6.6-1.32,13.02,2.95,14.35,9.56s-2.95,13.03-9.56,14.35c-6.6,1.32-13.03-2.95-14.35-9.56-1.32-6.6,2.95-13.03,9.56-14.35Z"/>
            <path class="cls-11" d="M141.11,66.25s6.61,3.41,9.38,8.39-1.67,9.42-5.39,10.56-10.14-1.32-11.55-5.39c-1.41-4.06-.84-8.12,2.27-9.34s9-.42,10.48,3.03c1.48,3.45,2.13,4.71-.34,6.19-2.47,1.48-7.74,2.74-8.81-1.59s1.1-6.34,3.72-4.1,2.93,3.58.93,3.08"/>
          </g>
          <g>
            <circle class="cls-7" cx="155.03" cy="55.82" r="12.19"/>
            <path class="cls-11" d="M154.31,45.01s6.61,3.41,9.38,8.39-1.67,9.42-5.39,10.56-10.14-1.32-11.55-5.39-.84-8.12,2.27-9.34,9-.42,10.48,3.03c1.48,3.45,2.13,4.71-.34,6.19-2.47,1.48-7.74,2.74-8.81-1.59s1.1-6.34,3.72-4.1,2.93,3.58.93,3.08"/>
          </g>
          <g>
            <path class="cls-3" d="M152.62,1.09c6.6-1.32,13.02,2.95,14.35,9.56,1.32,6.6-2.95,13.03-9.56,14.35-6.6,1.32-13.03-2.95-14.35-9.56-1.32-6.6,2.96-13.02,9.56-14.35Z"/>
            <path class="cls-11" d="M154.31,2.21s6.61,3.41,9.38,8.39-1.67,9.42-5.39,10.56-10.14-1.32-11.55-5.39-.84-8.12,2.27-9.34,9-.42,10.48,3.03c1.48,3.45,2.13,4.71-.34,6.19-2.47,1.48-7.74,2.74-8.81-1.59s1.1-6.34,3.72-4.1,2.93,3.58.93,3.08"/>
          </g>
          <g>
            <circle class="cls-6" cx="104.39" cy="98.45" r="12.19"/>
            <path class="cls-11" d="M115.17,99.9s-4.65,5.81-10.07,7.55c-5.42,1.74-8.91-3.48-9.29-7.36-.39-3.87,3.29-9.68,7.55-10.26s8.13.77,8.71,4.07c.58,3.29-1.36,8.91-5.03,9.68-3.68.77-5.03,1.16-6-1.55-.97-2.71-1.16-8.13,3.29-8.33,4.45-.19,6,2.32,3.29,4.45-2.71,2.13-4.08,2.17-3.2.31"/>
          </g>
          <g>
            <circle class="cls-17" cx="129.4" cy="98.47" r="12.19"/>
            <path class="cls-11" d="M123.64,89.25s7.44-.11,12.23,2.96c4.79,3.07,2.98,9.09.24,11.85-2.74,2.76-9.56,3.62-12.72.71s-4.58-6.77-2.41-9.31,7.73-4.62,10.67-2.28,4.1,3.14,2.62,5.61c-1.47,2.47-5.53,6.07-8.52,2.76-2.98-3.31-2.03-6.11,1.34-5.37,3.37.73,4.27,1.77,2.28,2.27"/>
          </g>
          <g>
            <path class="cls-3" d="M197.34,89.06c5.19-4.29,12.88-3.55,17.16,1.64,4.28,5.19,3.55,12.88-1.64,17.16s-12.88,3.55-17.16-1.64-3.55-12.88,1.64-17.16Z"/>
            <path class="cls-11" d="M199.36,89.25s7.44-.11,12.23,2.96c4.79,3.07,2.98,9.09.24,11.85s-9.56,3.62-12.72.71-4.58-6.77-2.41-9.31,7.73-4.62,10.67-2.28,4.1,3.14,2.62,5.61-5.53,6.07-8.52,2.76c-2.98-3.31-2.03-6.11,1.34-5.37,3.37.73,4.27,1.77,2.28,2.27"/>
          </g>
          <g>
            <path class="cls-3" d="M184.26,67.66c5.19-4.29,12.88-3.55,17.16,1.64,4.28,5.19,3.55,12.88-1.64,17.16s-12.88,3.55-17.16-1.64c-4.29-5.19-3.55-12.88,1.64-17.16Z"/>
            <path class="cls-11" d="M186.28,67.86s7.44-.11,12.23,2.96c4.79,3.07,2.98,9.09.24,11.85s-9.56,3.62-12.72.71-4.58-6.77-2.41-9.31,7.73-4.62,10.67-2.28c2.94,2.35,4.1,3.14,2.63,5.61s-5.53,6.07-8.52,2.76-2.03-6.11,1.34-5.37c3.37.73,4.27,1.77,2.28,2.27"/>
          </g>
          <g>
            <circle class="cls-8" cx="143.27" cy="34.28" r="12.19"/>
            <path class="cls-11" d="M137.55,25.06s7.44-.11,12.23,2.96,2.98,9.09.24,11.85c-2.74,2.76-9.56,3.62-12.72.71s-4.58-6.77-2.41-9.31,7.73-4.62,10.67-2.28c2.94,2.35,4.1,3.14,2.62,5.61s-5.53,6.07-8.52,2.76c-2.98-3.31-2.03-6.11,1.34-5.37,3.37.73,4.27,1.77,2.28,2.27"/>
          </g>
          <g>
            <circle class="cls-14" cx="154.35" cy="98.48" r="12.19"/>
            <path class="cls-11" d="M165.1,99.9s-4.65,5.81-10.07,7.55c-5.42,1.74-8.91-3.48-9.29-7.36s3.29-9.68,7.55-10.26c4.26-.58,8.13.77,8.71,4.07.58,3.29-1.36,8.91-5.03,9.68-3.68.77-5.03,1.16-6-1.55-.97-2.71-1.16-8.13,3.29-8.33,4.45-.19,6,2.32,3.29,4.45-2.71,2.13-4.08,2.17-3.2.31"/>
          </g>
          <g>
            <circle class="cls-15" cx="167.4" cy="34.24" r="12.19"/>
            <path class="cls-11" d="M178.17,35.71s-4.65,5.81-10.07,7.55c-5.42,1.74-8.91-3.48-9.29-7.36s3.29-9.68,7.55-10.26,8.13.77,8.71,4.07c.58,3.29-1.36,8.91-5.03,9.68s-5.03,1.16-6-1.55c-.97-2.71-1.16-8.13,3.29-8.33,4.45-.19,6,2.32,3.29,4.45s-4.08,2.17-3.2.31"/>
          </g>
          <g>
            <circle class="cls-3" cx="180.79" cy="55.07" r="12.19"/>
            <path class="cls-11" d="M191.54,56.51s-4.65,5.81-10.07,7.55-8.91-3.48-9.29-7.36,3.29-9.68,7.55-10.26,8.13.77,8.71,4.07c.58,3.29-1.36,8.91-5.03,9.68s-5.03,1.16-6-1.55c-.97-2.71-1.16-8.13,3.29-8.33,4.45-.19,6,2.32,3.29,4.45-2.71,2.13-4.08,2.17-3.2.31"/>
          </g>
          <g>
            <circle class="cls-3" cx="131.05" cy="55.37" r="12.19"/>
            <path class="cls-11" d="M141.81,56.8s-4.65,5.81-10.07,7.55c-5.42,1.74-8.91-3.48-9.29-7.36s3.29-9.68,7.55-10.26c4.26-.58,8.13.77,8.71,4.07.58,3.29-1.36,8.91-5.03,9.68s-5.03,1.16-6-1.55c-.97-2.71-1.16-8.13,3.29-8.33,4.45-.19,6,2.32,3.29,4.45-2.71,2.13-4.08,2.17-3.2.31"/>
          </g>
          <g>
            <circle class="cls-13" cx="179.82" cy="98.45" r="12.19"/>
            <path class="cls-11" d="M171.87,105.81s-1.49-7.29.64-12.57,8.38-4.61,11.6-2.43c3.22,2.18,5.33,8.73,3.05,12.37-2.28,3.64-5.8,5.75-8.7,4.09s-5.98-6.74-4.22-10.06c1.76-3.32,2.33-4.61,5.03-3.62s6.99,4.31,4.29,7.86c-2.7,3.55-5.63,3.12-5.53-.32.1-3.45.95-4.52,1.81-2.66"/>
          </g>
          <g>
            <circle class="cls-10" cx="167.31" cy="76.79" r="12.19"/>
            <path class="cls-11" d="M159.32,84.11s-1.49-7.29.64-12.57c2.13-5.28,8.38-4.61,11.6-2.43,3.22,2.18,5.33,8.73,3.05,12.37-2.28,3.64-5.8,5.75-8.7,4.09s-5.98-6.74-4.22-10.06c1.76-3.32,2.33-4.61,5.03-3.62s6.99,4.31,4.29,7.86c-2.7,3.55-5.63,3.12-5.53-.32.1-3.45.95-4.52,1.81-2.66"/>
          </g>
        </g>
        <line class="cls-18" x1="202.42" y1="24.47" x2="178.11" y2="24.47"/>
        <line class="cls-18" x1="209.25" y1="24.47" x2="205.15" y2="24.47"/>
        <line class="cls-18" x1="221.81" y1="44.09" x2="189.86" y2="44.09"/>
        <line class="cls-18" x1="226.52" y1="44.09" x2="224.82" y2="44.09"/>
        <line class="cls-18" x1="210.89" y1="67.26" x2="202.69" y2="67.35"/>
        <line class="cls-18" x1="237.08" y1="66.98" x2="215.53" y2="67.21"/>
        <line class="cls-18" x1="220.99" y1="87.75" x2="216.35" y2="87.75"/>
        <line class="cls-18" x1="249.77" y1="87.75" x2="225.64" y2="87.75"/>
      </g>
    </g>
  </g>
</svg>