<?xml version="1.0" encoding="UTF-8"?>
<svg id="Layer_2" data-name="Layer 2" xmlns="http://www.w3.org/2000/svg" viewBox="0 0 100.76 44.4">
  <defs>
    <style>
      .cls-1 {
        fill: #263238;
      }

      .cls-2 {
        fill: #59a96b;
      }
    </style>
  </defs>
  <g id="Layer_3" data-name="Layer 3">
    <path class="cls-1" d="M47.47.53l-11.59,1.3c-2.03,28.82-3.59,40.03-3.59,40.03h39.52l.33-41.85-24.67.53Z"/>
    <path class="cls-2" d="M16.14,42.25l-3.94-6.81,9.32,5.02s-1.43-4.66-4.3-7.89c-2.87-3.23-7.17-6.45-7.17-6.45,0,0,4.66,1.08,10.76,5.74l6.1,4.66s-.36-8.61-2.87-10.76c-2.51-2.15-4.3-5.02-4.3-5.02,0,0,8.25,3.23,10.04,7.89,1.79,4.66,2.15,8.96,2.15,8.96,0,0,1.08-6.45,2.87-9.68s5.38-6.81,5.38-6.81l-1.43,12.19,5.38-5.38-.72,7.53,5.38-1.43,9.68-1.08,3.23.72-8.96,4.3h8.25l4.66,1.79.36-8.25,2.51,5.38,1.79-10.76,2.51,8.96,10.76-5.02-4.66,7.53,5.02-1.43-.36,2.87,5.38-.72-3.94,3.59,15.78,2.51H0l16.14-2.15Z"/>
  </g>
</svg>