<?xml version="1.0" encoding="UTF-8"?>
<svg id="Layer_2" data-name="Layer 2" xmlns="http://www.w3.org/2000/svg" viewBox="0 0 152.9 317.3">
  <defs>
    <style>
      .cls-1 {
        fill: #1b2926;
      }
    </style>
  </defs>
  <g id="Layer_1-2" data-name="Layer 1">
    <g>
      <path class="cls-1" d="M65.8,121.2c.1.8.4,1.1.4,1.9-.2-.2-1.1-.9-1.2-1.1,0-.5.6-.7.8-.8h0Z"/>
      <path class="cls-1" d="M43.8,115.3v.3c-.6,0-.7-.2-1.2-.7.3-.2.5-.5.8-.3.2.1.3.4.4.7Z"/>
      <path class="cls-1" d="M45.5,114c0,.2,0,.4-.1.5-.1-.2,0-.6.1-.5Z"/>
      <path class="cls-1" d="M52.6,116.4c0-.2,0-.3-.1-.6.2.2.3.3.1.6Z"/>
      <path class="cls-1" d="M47.7,129.5c-1.1-1.2.6-.3,0,0h0Z"/>
      <path class="cls-1" d="M92.7,39.3v-.2c.1,0,0,.2,0,.2Z"/>
      <path class="cls-1" d="M73.6,46.5c0-.5.4.2,0,0h0Z"/>
      <path class="cls-1" d="M92.5,42.8c-.6-.1,0-.2,0,0h0Z"/>
      <path class="cls-1" d="M105.5,88.8s.2,0,.3.1c0,.3-.3,0-.3-.1Z"/>
      <path class="cls-1" d="M95.3,86.4c1.5-1,1.6.4,0,0h0Z"/>
      <path class="cls-1" d="M99.2,89.5c0,.1-.2.2-.3.3,0-.2.2-.4.3-.3Z"/>
      <path class="cls-1" d="M144.2,80.3c-.4.5-.6.4-1.2.1-1-.3-1.4-.5-2.5-.6,0-.6,0-1.1.1-1.7.2.3.7,1,1,1s.5-.4.4-.6c.8,0,.4.4.6.8.4.9,1.4,0,2-.4h.5c-.3.4-.6.8-1,1.2l.1.2Z"/>
      <path class="cls-1" d="M142.2,78.6c-.1,0-.2-.2-.3-.3.2-.1.3.2.3.3Z"/>
      <path class="cls-1" d="M144.7,79.1s0-.2-.1-.3c.2,0,0,.1.1.3Z"/>
      <path class="cls-1" d="M93.4,92.1c-.5.4-1.5.3-2.2,0h-.3c.3-.3.7-.7,1.1-.7s1.1.5,1.5.7h-.1Z"/>
      <path class="cls-1" d="M91.2,90.3s-2,.2-1.6-.1c.3,0,.7-.3,1.1-.3.5,0,.4-.1.6.4h-.1Z"/>
      <path class="cls-1" d="M97.4,84.7c-.3,0-.4,0-.3,0,0-.3.2-.3.3,0Z"/>
      <path class="cls-1" d="M106.8,114c0,.3-.2.3-.4,0,0-.2.2-.2.4,0Z"/>
      <path class="cls-1" d="M139.7,96.1c0-.1.1-.1.2-.2,0,0,0,.2-.2.2Z"/>
      <path class="cls-1" d="M150.7,98.1c-.8.4-1.2.6-1.7,1.4-.1,0-.2-.2-.3-.3.6-1.2,1-1.8,2-1.1h0Z"/>
      <path class="cls-1" d="M150.4,87c.2,0,.4.2.6.3-.3-.2-.3.4-.6-.3Z"/>
      <path class="cls-1" d="M151.5,85.3c-.6,0-.5,0-.5,1,.5,0,1-.2,1.2.6-.7.3-1.1.5-1.8.2-.1-.4-.5-.4-.8-.5.3-.5.6-1.3,1-1.6.4-.2,1-.2,1.5-.3-.5.4,0,.4.3.7h-.9v-.1Z"/>
      <path class="cls-1" d="M53.6,68.4c0-.5.5-.3,0,0h0Z"/>
      <path class="cls-1" d="M63.6,7.5c0-.2,0-.5-.1-.7.3,0,.8-.2,1.1,0,.3.1.3.3.5.7-.3.1-.8.4-1.1.4-.2.2-.4.1-.3-.3l-.1-.1Z"/>
      <path class="cls-1" d="M66.7,2.8c.2,0,.4,0,.7-.1.3.4-.5.6-.6.7v-.6h-.1Z"/>
      <path class="cls-1" d="M65.1,1.6c.1.2.2.3.3.5h-.3v-.6.1Z"/>
      <path class="cls-1" d="M71.4,18.2c-.5.4-.7,0-1.2-.3,0,0,.4-.6.5-.6s.6.8.7.9Z"/>
      <path class="cls-1" d="M69.2,14.6c-.2.2-.3.4-.5.1,0-.1.2-.2.3-.4,0,0,.1.1.2.2v.1Z"/>
      <path class="cls-1" d="M64.6,10.1c-.2-.1-.4-.2-.5-.3.2-.2.3-.4.5-.6.3.2,0,.6,0,.9Z"/>
      <path class="cls-1" d="M68.8,7c.2,0,.5,0,.5.2h-.5v-.2Z"/>
      <path class="cls-1" d="M66,1.7c0-.2,0-.4.2-.4,0,.2,0,.4-.2.4Z"/>
      <path class="cls-1" d="M68.3,18.5q-.3-.3,0-.7v.7Z"/>
      <path class="cls-1" d="M67.4,11.5h.2c-.1.3-.3.6-.4.9-.2-.6-.2-.7.2-.9-.1,0-.3.1,0,0Z"/>
      <path class="cls-1" d="M18.3,44.5c.3.5.9,1.2.9,1.8s-.2,1.5-.2,2.1c-.8-.5-1.6-1-2.4-1.6.3-.5.3-.6.7-.6.3,0,.7.2.9.3,0-.5-.2-1.3-.3-1.7,0-.1.2-.2.3-.4l.1.1Z"/>
      <path class="cls-1" d="M36.3,58.7q0-1,.6-1.3c.2.3.2.4,0,.4,0,.5-.4.7-.7,1l.1-.1Z"/>
      <path class="cls-1" d="M30.5,55.8c.3-.2.4-.1.4.1-.3.3-.4.2-.4-.1Z"/>
      <path class="cls-1" d="M45.3,69c.8-.5.4.5,0,0h0Z"/>
      <path class="cls-1" d="M4,76.1c0-.4-.1-1-.2-1.3,0,0,.1-.2.2-.3.3.5.6.9.7,1.4,0,.4-.1,1.2-.2,1.6-.6-.4-1.2-.8-1.8-1.2.5-.6.7-.4,1.3-.2Z"/>
      <path class="cls-1" d="M18.4,84.6c0,.4-.2.6-.5.8q0-.8.5-1c.2.4,0,.3,0,.2Z"/>
      <path class="cls-1" d="M46,40.3h0s.3-.1,0,0Z"/>
      <path class="cls-1" d="M30.5,18.7c-.2.2-.3.6-.7.6-.3,0-.4-.3-.5-.6,0-.1,0-.2-.1-.3,0,0,.2-.2.2-.3,0-.4-.6-1-.9-1.4.5,0,1.2-.2,1.1-.9.5-.1.6-.3.9.1.2.2.4.7.6,1,.2.3.4.6.6,1,.1-.1.2,0,0,.2v.6c-.4,0-.9-.2-1.2,0h0Z"/>
      <path class="cls-1" d="M13,26.7c0-.1-.1-.2-.2-.3-.2-.4.2,0,0-.6-.1-.2-.4-.5-.6-.7.1,0,.3-.1.4-.2.3,0,.9.1,1.2.3.3.2.5.9.7,1.3-.3.1-.6.4-.9.4-.2.2-.4.2-.5-.2h-.1Z"/>
      <path class="cls-1" d="M60.4,99.7l.1-.1-.1.1Z"/>
      <path class="cls-1" d="M57,95.1c.3.8-.6.9-.7,1.4-.4,0-.6.1-.9-.2-.2-.2-.5-.6-.6-.9-.4-.9-.2-1.5.5-1.6.6,0,1.4.5,1.7,1.3Z"/>
      <path class="cls-1" d="M64.1,99.1c0,.4.3.4-.1.8-.2.2-.8.3-1.1.4,0,0,.8-1.8.4-1.8.3-.3.6-.7,1-.8.2,0,.8-.1.9.1-.5.4-1,.6-1.1,1.3h0Z"/>
      <path class="cls-1" d="M20.5,109.5c-.3.2-.5.3-.7.1,0,0-.5-.8-.4-.8-.2-.4-.3-.3-.3-.9.6.3,1.3.5,1.9.8q-.2.5-.6.8h.1Z"/>
      <path class="cls-1" d="M56.2,108.2c-.4.3-.7.7-1.1.7-.3,0-.5-.3-.7-.7l-.1-.3c.8-.3,1.1,0,1.9.3h0Z"/>
      <path class="cls-1" d="M40.2,109.4c.1-.3.3-.6.4-.9,0,.6-.1.5-.4.9Z"/>
      <path class="cls-1" d="M52.3,109.7l-.3.5c0-.3,0-.7.3-.5Z"/>
      <path class="cls-1" d="M39.6,110c.1-.2.3-.3.5-.5,0,0-.4.4-.5.5Z"/>
      <path class="cls-1" d="M114.1,14.8q0,.4-.1.2c-.1.4-.5.7-.8.3.3-.2.6-.4.9-.6v.1Z"/>
      <path class="cls-1" d="M96.9,22.4c0,.5.2.9,0,1.5-.5-.4-.9-.8-1.4-1.3.4-.6.7-.6,1.2-.7v.1h.4c0,.3-.2.5-.4.5l.2-.1Z"/>
      <path class="cls-1" d="M119.3,10.2c.3.1.6-.2.9,0l.2.2s-.5.5-.6.5c-.3,0-.3-.3-.5-.7h0Z"/>
      <path class="cls-1" d="M106.9,22.1v-.2c.1,0,0,.1,0,.2Z"/>
      <path class="cls-1" d="M112.4,15.5c0-.2-.1-.4-.2-.6.2-.2.4-.2.5,0-.1.2-.2.4-.3.6Z"/>
      <path class="cls-1" d="M113.4,16.1h-.3c0-.2.2-.3.3,0Z"/>
      <path class="cls-1" d="M112.1,18.4c-.5,0-.5-.2,0-.3v.3Z"/>
      <path class="cls-1" d="M99.1,23.3c-.2.2-.5-.2-.6-.3.2-.2.4,0,.6.3Z"/>
      <path class="cls-1" d="M96.6,21.1s-.5-.5,0,0h0Z"/>
      <path class="cls-1" d="M97.1,19.7c0,.1.1,1,.1,1.3-.1.7-.2.5-.7.8,0-.2,0-.4.1-.6l-1.5-1.5c.4-.3,1.6-.4,2,0h0Z"/>
      <path class="cls-1" d="M101,16.5h.3c0,.1-.1.3-.2.4,0-.1-.1-.3-.1-.4Z"/>
      <path class="cls-1" d="M101.1,20.5c.3.1.6.2.9.4v1c-.5-.2-.9-.5-.9-1.3v-.1Z"/>
      <path class="cls-1" d="M107.6,25.4c.3,0,.6,0,.9-.1-.2.3-.4.5-.5.8-.1-.2-.2-.5-.3-.7h-.1Z"/>
      <path class="cls-1" d="M69.4,24.9c-.5-.3,0-.3,0,0h0Z"/>
      <path class="cls-1" d="M71.1,31.2c-.1,0-.2,0-.3-.1,0,0,.4-.1.3.1Z"/>
      <path class="cls-1" d="M84.1,6.6s.1,0,.2.1c0,0-.4,0-.2-.1Z"/>
      <path class="cls-1" d="M70,28.3c-.2,0,0-.5,0,0h0Z"/>
      <path class="cls-1" d="M59.2,17.9c-.1,0-.3-.2-.4-.2-.2,0-.4.4-.6.4-.5,0-.5-.1-1,.6,0-.2-.5-1-.5-1.3s.3-.5.6-.7c0,.2.2.7.4.8,0-.5,0-1.1.1-1.6.1-.8.2-.8.7-1.1.2.1.4.3.5.4-.5.3,1.4,2.1.2,2.8v-.1Z"/>
      <path class="cls-1" d="M57.7,19.2s-.7.4-.8,0c0-.1.2-.5.3-.5.3-.2.7,0,.5.5Z"/>
      <path class="cls-1" d="M57.8,19.1h.6c-.2.3-.6.4-.6,0Z"/>
      <path class="cls-1" d="M64.6,26.5c.1.1.3.2.4.3-.27.13-.4.03-.4-.3Z"/>
      <path class="cls-1" d="M102,66.7c-.2.2-.2-.5,0,0h0Z"/>
      <path class="cls-1" d="M97.1,64.6c0-.1,0-.2.1-.3,0,.1,0,.2-.1.3Z"/>
      <path class="cls-1" d="M98.6,67.3c-.1.6-.5-.4,0,0h0Z"/>
      <path class="cls-1" d="M93.7,65.8v.4c-.1,0-.4-.6,0-.4Z"/>
      <path class="cls-1" d="M85.8,67.9c-.6-.7-.7-.6-1.4-.4.1-.7.2-.5.2-.3.2-.4.5-.5.8-.5.2,0,.3,0,.5.2.3.2.5.5.8.7q-.4.9-.9.2v.1Z"/>
      <path class="cls-1" d="M85.8,73c-.1.2-.3.5-.4.6,0,.1-.1.2-.2.3,0-.2-.2-.4-.3-.6-.2-.2-.8.6-1,.3.2-.4.4-.7.6-1.1.5-.1,1-.5,1.3.5h0Z"/>
      <path class="cls-1" d="M86.6,75.1c.3-.7.5-1,.4-1.8h-.7c0,.3.2,2,.3,1.9v-.1ZM86.6,74.2c-.1.1-.2,0-.2-.4.1-.1.2,0,.2.4Z"/>
      <path class="cls-1" d="M100.7,61.5c.5-.3.9,0,1.4.1v.7c-.3-.8-.9-.5-1.3-.9l-.1.1Z"/>
      <path class="cls-1" d="M84.6,71.3c0-1,.5-1.2.9-1.2,0,1-.6.9-.9,1.2Z"/>
      <path class="cls-1" d="M86.1,76.4c.1-.3.3-.7.4-1,.1.6-.2,1-.4,1Z"/>
      <path class="cls-1" d="M87.4,68.4s.2.3.3.4c0,0-.1.1-.2.2v-.6h-.1Z"/>
      <path class="cls-1" d="M111.9,69.4s0-.2.1-.3c0,.1.2.2.2.3,0,.3-.2.3-.3,0Z"/>
      <path class="cls-1" d="M42.2,99.6c-.1.2-.3-.4,0,0h0Z"/>
      <path class="cls-1" d="M41.4,93.3c0-.2-.2-.8-.2-1,0-.8,0-1.5.6-1.4.4,0,.4.2.6.5.1.2.5,1.2.5,1.4,0,.6-.7.7-.8,1.1-.4,0-.5,0-.6-.5l-.1-.1Z"/>
      <path class="cls-1" d="M14.1,96.7c0,.5-.8.7-1.1.8,0-.8-.3-1.3-.2-2.1.2.2,1.2,1,1.2,1.3h.1Z"/>
      <path class="cls-1" d="M41,93.7v-.3c.2.2,0,.1,0,.3Z"/>
      <path class="cls-1" d="M106.1,78.2v.4s-.1-.1,0-.4Z"/>
      <path class="cls-1" d="M113.4,76.5s-.1,0-.2-.2c.2-.2.3.1.2.2Z"/>
      <path class="cls-1" d="M111.2,69.7c0,.2-.2.4-.2.6-.2-.2.1-.7.2-.6Z"/>
      <path class="cls-1" d="M120,73.6v-.8c.2.3.4.5,0,.8Z"/>
      <path class="cls-1" d="M110.1,71.5v.4c-.2-.1,0-.2,0-.4Z"/>
      <path class="cls-1" d="M130,79c0,.2-.2.4-.2.6-.1-.2.2-.6.2-.6Z"/>
      <path class="cls-1" d="M62.1,84.6s-.1,0-.1-.2c.2-.1.2.1.1.2Z"/>
      <path class="cls-1" d="M54.4,90.5c.5.1.4,0,.6.6,0,.2.3,1.1.3,1.3,0,.8-.3,1.2-.9,1-.4-.2-1-1.2-.9-1.9,0-.6.7-.6.9-1h0Z"/>
      <path class="cls-1" d="M59.8,91.2c0,.1.1.3.2.4.2-.2.4-.4.6-.6.4.6,0,1.4.2,2-.6,0-.6-.2-.8.6-.1-.2-.2-.4-.4-.6,0,.1-.1.3-.2.4-.3-.6-.6-1-.6-1.7.6,0,.8.2,1-.5h0Z"/>
      <path class="cls-1" d="M82.9,88.8c0,.8.3,1.3.1,2.1-.2-.2-1.2-1.1-1.2-1.3,0-.6.8-.6,1.1-.7v-.1Z"/>
      <path class="cls-1" d="M58,79.1c.2.2.3.5.3.8v.3c-.7,0-.8-.2-1.3-.8.3-.2.6-.5.9-.2l.1-.1Z"/>
      <path class="cls-1" d="M60.4,78.7c0,.2-.2.4-.2.6-.1-.2.2-.6.2-.6Z"/>
      <path class="cls-1" d="M68.3,81.4c.2.3.3.4,0,.7v-.7Z"/>
      <path class="cls-1" d="M55.4,90.6v.3c-.2-.2,0-.1,0-.3Z"/>
      <path class="cls-1" d="M59.3,80.7c-.1,0,0-.2,0-.3v.3Z"/>
      <path class="cls-1" d="M59.7,25.7c0-.6.8-.8,1-.9,0,.8.4,1.2.3,2-.2-.2-1.3-.9-1.3-1.2v.1Z"/>
      <path class="cls-1" d="M0,71c0,.6,0,.1.3.5.3.6.4.3.4,1.2q.6-.3.9.4c.5-.6.3-1.8-.3-2.2.1-.2.2-.4.3-.6.1,0,.3.1.4.2.4-.3.3-.8.7-.7.6.1.3.6.5,1,.2.1.4.3.6.4,0,.3.1.5.2.8.4-.3.6-.3.6-.7,0-.1-.2-.6-.3-.7-.3-.5-.8-.9-1.2-1.3.7-.6,1-.4,1.8-.3.2.2.4.2.5,0,0,0,.1-.2.2-.3.2,0,.6.5.8.7v-1.2c.6.1.4.2.6.8.1.3.3.5.5.5.1.2.4.6.6.5,0-.4-.1-.8-.2-1.2.6.4.2,1.8.9.2-.4,0-.5-.5-.4-.9.2.1.4.3.6.4v.2c-.1.2,0,.3,0,.3.1.1.3.2.4.3,0,.1-.6.5-.6.7s.2.9.3,1.2c.1.6.2.5.5.8.4.4.3,0,.5.6,0-.2.2-.5.2-.7,0,0,.2.1.3.2.3.3.8.6,1.1.8.1,0,.9.3,1,.4-.3-.4.2,1.2.1.9v.2c0-.2-.1-.3-.3-.5-.3-.3-.6-.4-1-.2-.5.2-.5.6-.8,1-.3.5-.7.8-1.1.5-.7-.5-.5-1-1.1.1-.3.5-.6,1.2-1.2.6-.1-.3-.2-.6-.4-.8h-1.1c0-.2-.2-.4-.3-.7,0-.3-.1-.4-.3-.3,0,.2-.1.3-.1.5.3.4,1.2,1.4,1.1,2-.6-.1-.7,0-1.1.5.2.2.3.4.5.6v.7c0,.3.3.5.6.7.6.3,1.1,0,1.7.4.5.3.9.7,1.4.9.8.3,1,0,1.6-.7.3.6.4.9.5,1.5.1.9-.1,1-.6,1.7.2.1.7.3.9.5.2.2.2.5.4.6.4.3.2.2.6,0,.3-.1.5-.3.7-.5-.2-.2-.4-.4-.6-.6.3,0,.7-.3.9-.2.4.2.1.4.3.6.1.1,1.1.5,1.4.4,0,0,.4-.8.4-.9,0-.4-.2-.2-.3-.5,0-.3.2-.6,0-.8-.1-.1-.5.5-.6.6.1-.8-.5-.9-1-.7-.3.1-.4.4-.7.3-.2,0-.5-.4-.7-.5,0-.2.2-.3.3-.5-.8-.5-1.2-.7-1.8-1.5.6.2,1.3.2,1.9.6.5.3.8,1,1.3,1.3.6.3,1.1-.3,1.5-.4.7-.1.7.6,1,1.1.3.6.1.4.7.4h1.4c.2,0,.3-.3.4-.3.3,0,.8.3,1,.4.5.4.7,1.1.6,1.9-.1.7-.8.9-.9,1.6-.1.6.3,1.3.5,1.5s.5.4.8.5c.4.2.3.2.7,0,.5-.2.9-.7,1.4-.9.7-.2.8.4,1.3.8.5.3.2,0,.7-.2.3-.1.3,0,.6.2-.4.4-1,1-1.3,1.5,0,.1,0,.2.1.4,0,0-.2.2-.3.2-.2.3-.6.5-.9.7.3.7.6.2,1.2-.1.2,0,.5-.2.6-.4s0-.6.2-.7c.3-.4.8-.3,1.1,0,.4.4.3.7.3,1.3.4,0,.7-.1,1.1-.2-.2-1.8.8-.6,1.4-1.5.3-.5.2-1.3.8-1.6.8-.3.6.6.5,1.4h1.2c-.2.3.4.7.7.6.5,0,1.2-1,1.7-1.2.6-.4,1.2-.3,1.9-.5q.2,0,.4-.1c.1-.1.4-.8.5-.8.2,0,.9.7,1.2.7.2,0,.9.1,1,0,.2-.2,0-1.3,0-1.5h.7c.8,0,1.8.3,2.6,0,.9-.3,1.6-.4,2.5-.4s1.8.3,2.8.4c.6,0,1.1,0,1.7-.2v.4c-.2.3,0,.3-.2.5-.1.2-.6.3-.8.4.1.8,1.2.1,1.5,0-.2,0,.3-.9.5-1.3.6,0,1.1,0,1.7-.4h0c0,.2,0,.4-.2.8-.2.4-.6.7-.8,1.1-.2.4,0,.8-.4,1.1-.5.4-.6-.6-.8-1.2-.2.8-.7,1.3-1.1,1.9,0,0,.2.1.3.2.5.2.3-.4.6-.4.2,0,.1.7,0,.8-.3.5-.6-.3-.7.6-.3-.2-.6,0-.8.2.1,0,.3-.2.4-.2-.4.2-1,.6-1.1,1.2,0,.5,0,.3.2.4-.2,0-.3,0-.5-.6-.4.4-.3.5-.3,1.2,0,.6,0,.8.4,1.1-.2.3-.3.4-.4.5h-.4c-.5.2-.3.8-.8.4-.4-.4-.1-.7-.4-1.1-.3-.4-.4-.4-.5-1.1,0,0-.7.3-.7.4s.2.8.3.9c.3.6.7,1,1.1,1.5-.4.3-.6.4-.9.4,0-.3-.1-.6-.3-.7-.3-.3-1.4-.3-1.8,0,0,0-.1.1-.2.1,0,0-.1-.1-.2-.2v.4c-.2.2-.3.5-.5.5,0-.1,0-.2-.1-.5-.1-.4-.2-.4-.5-.6-.1-.2-.4-.6-.5-.5,0,.4,0,.8.1,1.2-.3-.2,0-.7-.3-.9-.3-.4-.5.1-.6.5h-.3s-.2-.2-.3-.3c.1-.1.6-.5.7-.7,0-.2-.2-.9-.2-1.2,0-.2,0-.4-.1-.6,0-.2-.1-.3-.3-.3-.4-.4-.3,0-.5-.6,0,.2-.2.5-.3.7-.1,0-.3-.2-.4-.3,0,.2,0,.4-.2.6h-.2c0,.2,0,.5.1.7v.2c-.1,0-.2,0-.3.1-.1-.4-.3-.8-.6-1.2,0,.1-.1.3-.2.4-.1-.2-.3-.4-.4-.6-.2.8-.2.7-.8.7.2.4,0,.9.1,1.4,0,0-.2,0-.2-.1-.4,0-.2,0-.4.2-.4.3-.6.6-.7-.2-.2.3-.4.6-.6.9,0-.4-.3-.2-.5,0,0-.4-.1-.6,0-1.1-.5,0-.4,0-.6.7-.2-.4-.2-.8-.5-.6h0c-.1-.4-.5-1-.8-1.1-.2-.2-.5,0-.7,0h0c-.1,0-.5,0-.6-.2-.1-.1-.1-.4-.2-.5,0,0-.4-.3-.5,0v.7c-.1.4,0,.2-.3.3h-.5c-.2.1-.2.6-.3.7,0,0-.3-.1-.4,0-.4.1-.6.8-.9.1v-.4c.2,0,.5.2.3-.3,0,0-.2-.1-.3-.2v-.3c-.2-.4-.5.1-.7,0-.1-.1,0-.9,0-1.1-.4.2-.4.5-.7.8-.1.1-.2.2-.3.2h-.2s0,.1.1.2h0v.1h-.2c0,.1,0,.2.1.3h-.1c-.3,0,0-.2-.3-.4-.3-.3-.4-.2-.5.4,0-.2-.1-.4-.2-.6-.6.3-.4.5-.2,1.2h-.6c-.1,0-.2-.1-.3-.4-.2-.6.2-.9-.3-1,0,.4,0,1-.2,1.1.1,0-.2-1-.5-.4-.2.3,0,.6,0,.8,0,0-.1,0-.3-.2-.4-.4-.7-1.5-1.3-1.5-.4,0-.5.6-.8.8-.7.3-.1-.6-.2-1,0-.5-.6-.7-1-.9-.2,0-.2-.2-.4-.1.1.2.2.3.3.5-.3.2-.3,0-.6-.3-.1.3-.4.3-.6.7.3.2.3.4.1.7,0-.1-.1-.2-.2-.3-.3.3-.4.7-.5,1.2-.3.3,0-.2-.4.4v.2c-.1,0-.2,0-.4-.1v.6c-.1-.3-.3-.4-.3.1,0,.2,0,.4.1.5-.2.2-.4.1-.7,0,0,.6-.1.7.2,1.1.1.2.7.8.9.9.5,0,1.4-1.2,1.6-.1h.7s-.3.6-.4.7q0,.3.1.5v1.5c.1,0,.2-.1.4-.2.1.5-.3,1-.6,1.1-.6.3-1-.2-1.2-.8-.4.3-.1.7.1.9.4.5.4.6.9.6.7-.1,1.4-.7,2-1,0-.2-.2-.6-.2-.8,0-.3.2-.3.4-.6.3-.4.3-.2.2-.7,0-.3-.2-.6-.2-.8.1,0,.6.2.7.3v.9c.2,0,.4,0,.7-.1,0,.2.1.4.2.6h0c-.1,0-.2.1-.3.2,0,.2.1.2.3.3-.2.5,0,.5,0,1.1,0,.5,0,.4-.2.8-.3.7-.4,1.6.3,1.5.3,0,.7,0,.9-.2.2,0,.2-.1.2-.4.2-.2.1-.4,0-.6,0-.2-.1-.8.2-1,.4-.2.6.8.7,1-.2,0-.5.1-.7.2.3.1.8.2.9.5.3.8,0,1.3.6,1.6-.1.1-.1.3,0,.6-.4-.3-.9-1.2-1.2-.6-.3.4,0,1.2,0,1.7h-1c0,.1,0,.3.1.4-.2-.2-.4-.3-.6-.4.2.2.4.3.6.4,0,.3,0,.6-.1.8-.3.4-.6.3-1,.2.1.7,0,.9.6,1.1.4.1.8.4,1.2.4.6,0,1.7-1.5,2.2-.6.1,0,.2,0,.4-.1.1,0,.3.2.4.2,0,.1-.1.3-.1.4,0,.3.2.2.3.4.2.4.3.9.4,1.4.4-.3.6-.3.5.4,0,.1-.1.2-.2.3-.7-.2-1.3-.4-2-.6-.7-.2-1.4-.1-2.2,0,.7,0,1.4,0,2.1.2.7.2,1.3.5,2,.7-.1.1-.3.2-.4.2-.2,0-.5.1-.7.1-.5,0-.3,0-.6-.3-.2,0-.6-.4-.4.2,0,.3.8.5,1,.6.5.3.7,0,1.2-.3.2-.1.4-.3.6-.4h0c1.2.3,2.5.5,3.7.8.2.3.5.3.9.2.5.1,1,.2,1.5.3,1.7.4,3.4.7,5.1.3,1.7-.3,3.3-1.1,5-1.4.2,0,.4,0,.6-.1.2.2.3.6.5.7.3.1,1-.4,1.4-.7,0-.3-.2-.4-.4-.4.4-.1.8-.3,1.1-.5.2.3.4.4.9.3.2,0,1.1,0,1.1-.2-.3,0-1-.1-1.4-.5.3-.2.7-.2,1-.5.2-.1.3-.3.5-.4v.4c0,.1,0,.2-.1.3,0,0,.1.2.2.3.2.5.7.9,1.1,1.3-.3,0-1-.3-1.2,0,.4.3.7.7,1.1.7s.9-.1,1.4-.2c-.2-.3-.5-.6-.7-.8.2-.1.3-.2.5-.3v-.4c.2-.4,0-.5.5-.5.6,0,.9.4,1.4-.4-.4-.2-.8-.4-1.2-.6.4,0,.8-.1,1.2-.2h.5v-.4c.1-.2,0-.5.3-.7s.4.2.6.4c0-.4.2-.9.3-1.3.2.4.3,0,.6-.2s.5-.4.8-.3c-.1-.6.6-.4.7-.3.2.1.3.5.5.6.2.2.4.2.6.3.5.2,1.2.5,1.7.1.3-.3.3-.9.8-.9-.2-.2-.8-.6-.6-.9-.2,0-.6,0-.8-.3-.2-.2-.2-.4-.4-.6.4-.3.8-.5,1.2-.7h.4c.2,0,.4,0,.6-.1h.8c.3,0,.9.2,1.1.3.8.3,1.5.5,2.4.7.6.1,1.3.2,2,0,.6-.2.9-.8,1.4-1.1.6-.4,1.4,0,2,.2.8.2,1.8.2,2.5.7,0,0,0,.1.2.2.2,3.6.4,7.1.6,10.7,0,1.4.1,2.7.2,4.1h-2.3c-.7.1-1.3.5-2,.6h-.3c-.2-.3-.4-.6-.8-.6-.5,0-1.1.5-1.6.7-1.1.5-1.9,1.3-2.9,2-.3.2-.5.2-.6.2,0,0-.2,0-.2-.1h-.2v-.8s-.2.1-.3.2c-.2-.5.1-1,.4-1.1.6-.2.8.2,1.1.7.4-.4-.5-1.4-.8-1.5-.2,0-.9.5-1.1.7-.3.2-.5.3-.8.5,0,.1.3.7.3.9,0,0,0,.1-.1.2h-.3c-.2-.1-.4-.3-.6-.3h-.7v-1.5c0-.4.4-1.3,0-1.6-.2-.2-1.1,0-1.3.3s0,.6,0,.8h-.2l-.1-.1h.1-.2s-.1-.2-.2-.2q-.2-.1-.3,0s-.1,0-.2-.2c-.3-.7,0-1.2-.7-1.4-.5-.2-.9.2-1.4.2,0,0-.1-.1-.2-.1s-.2.2-.3.2c-.3,0-.6-.3-.8-.5-.1.5,0,.4.3.5-.1.1-.2.3-.3.4,0,0,.2.1.2.2-.2.3-.3.5-.2.8,0,.1.3.3.4.4.3.3.5.5.7,1-.2-.5-.3.1-.5.1-.2-.5-.2-.7-.5-.8s-.8,0-1.1-.1v-.3h0q.4-.3.3-.8c-.2.2-.3.4-.3.6-.2.4-.4.8-.8.9h-.5c0,.2,0,.4-.1.7h-.3v-.4c0-.5.4-.8.5-1.2h0c0-.2,0-.4.1-.5,0,.1.2.3.3.4,0-.3.4-1,.1-1.2-.2-.1-.2.2-.4.2-.1,0-.2.4-.4.2v-.7c0-.3,0-.4,0-.3,0-.2-.3-1.1-.5-1.2-.2-.1-.9.4-.8.7.1.5.6,0,.8.6-.2,0-.4.2-.5.3h-.4q-.1,0-.2-.4c-.2-.5,0-.5-.5-.7-.3-.1-.6-.1-.9-.2,0,.2.6.5.8.7.2.3.2.6.1.9h0s-.2-.2-.3-.2v.6h-.2v-.3c0,.1-.1.2-.2.4,0,0-.2-.1-.3-.2v-.9q0-.4-.2-.9v-.2c.1-.2.3-.3.5-.5h-.1c.1-.2,0-.4-.2-.5-.3-.6-.8-.5-1.3-.6.1.3.3.6.4.9-.4.2-.3.4-.4,1-.4-.2-.7-.5-1-.3v-.2c-.3,0-.5.2-.8.2.1.4,0,.6,0,.7h0c-.2.2-.6,0-.9.6-.2.4,0,1-.5,1.3-.6.3-.5-.4-.5-1-.3,0-.5,0-.8.1-.1-.1-.2-.2-.3-.3-.3-.2-.5-.4-.8-.1-.2.2-.2.6-.5.5,0,0,.1.2.2.3-.1.1-.2.3-.3.4-.4.3-.8.4-1.2.6h-.3c-.1.1-.2.5-.3.6-.2.1-.1,0-.1,0v-.3c-.1-.4-1.1-.4-1.3-.3-.4.2-.4.3-.9.2.3.2.3.3,0,.4,0,.1.2.3.3.4v.3c.1.2.3.3.4.5.1.2.3.6.5.4v-.4c.2,0,.4-.2.6-.3,0,.3,0,.6.1.9h-.8s0,.1.1.2c-.1,0-.3.1-.3.3-.1.5.2.5-.1.9-.3.3-.9.4-.2.6.4.1.5,0,.9-.5-.1,0,0-.5,0-.8.3.4.6.9,1,1.3,0,.3,0,.8-.4.9-.2,0-.6-.9-.7-1.2-.1.8-.4,1.3-.7,1.9h.1c-.4.3-.8.8-1.2.8.4,0,.9-.5,1.3-.8h.1c.1,0,.2-.2.3-.3h.2v.2c.1.3,0,.5-.2.5-.2.3-.3,0-.3.5-.3-.2-.5,0-.6.3.1,0,.2-.2.3-.3-.3.2-.9.8-.7,1.4,0,.2.3.3.5.5.2.3.2.5.2.9q.5-.2.8.5c.3-.4.2-.5.1-1.1,0-.5,0-.7-.4-1,.1-.3.2-.4.3-.5,0,0,.2,0,.2.1,0,0,0-.2.1-.2.3-.3.3-.7.7-.2.2.3,0,.4.2.7,0,.2.2.2.3.4.3.3.3.5.5.9,0,0,.3-.2.4-.3v.5c.1.4.6.7.8,1-.4,0-.9-.2-.6.3.4.5.9.2,1.4,0-.2-.2-.3-.4-.5-.6.3-.3.1-.3.3-.6.1-.4,0-.4.1-.4.2.3.4.5.6.5.6,0,.5-.9.3-1.5h0c.4-.3,0,0,.2-.4v-.2c.1,0,.2.1.4.1.1,0,.3,0,.5-.2.2-.3.1-.4,0-.9h0c0,.2.2.4.4.5,0,.1-.5.5-.5.7s.2.8.3,1.1c.2.6.1.5.4.8.4.3.3,0,.5.6,0-.2.1-.4.2-.7.1,0,.2.2.3.2,0-.4.1-.8,0-1.2,0-.5,0,.2-.2-.4-.1-.3-.2-.6-.2-1,.5,0,.3,0,.4-.4v-.2c.3,0,.5.2.8,0,.2-.2.2-.7.5-.7,0,0,.1.1.2.2-.2.2-.2.8-.2,1.2-.1.2-.2.3-.3.5,0-.1-.1-.3-.2-.4-.1.7-.3.5-.8.6,0,.7.4,1,.7,1.5,0-.1,0-.3.1-.4.1.2.3.4.4.6,0-.7,0-.6.6-.6-.1-.2,0-.5-.1-.7,0,.1.2.2.4.3.2,0,.3,0,.4.2,0,.1.1.3.2.4h.5q.2-.2.2-.6c0-.7,0-1.4.3-1.6l.1.2v.6c.2.5.4,0,.4-.5.2.3.2.7.5.5.4-.3,0-.6,0-1,0-.7.7-.8.7-1.6,0,.3,0,.4.2.4,0,.2.1.4.2.6h0v.2c0,.2-.3.5-.3.7,0,.3.3.6.4.8v.4c.1.4-.3,0,.2.3h.3c.1,0,.2,0,.2.3,0,0,.3.6.5.1v-.9h.5l.2.1c0,.1,0,.3.2.5s.8.4,1,.3c.4-.2.2-.7.2-1v-.3.6c.1.3.2.1.4.2.3.1.1-.3.3.2v.8c.4-.2.3-.5.5-.8.1-.1.3-.2.4-.3v-.3c0-.1,0-.2.1-.2.2,0,0,.2.2.3q.3.2.4-.4c.1.3.2.7.5.3.1-.2-.1-.7-.2-1,.4-.2.6-.2.8.4.2.5,0,.8.4.9,0-.3-.1-.9,0-1v.5h.4c0-.4-.3-.9,0-1.2.2-.3.5-.1.8,0v-.7h.1c.1,0,.2.3.4.3h0s.1.2.3.1c.4,0,.5-.5.5-1,.2.2.4.4.6.5-.2.4-.1.4-.2.7q0,.4-.2.8c.4.2.5.7.4,1.3.4-.2.3-.3.2-.9.5.3.7.3.6-.4.2.4.4.7.6,1.1.4-.5.3-1.2.3-1.8.2,0,.4.1.6.2,0-.3-.2-.8,0-1.1.2-.4.4-.2.7,0,0-.6,0-.7-.3-1,0,0-.1-.1-.2-.2.1,0,.2-.1.4-.4-.5-.2-.9-.5-1.4-.7.3-.2.7-.5,1-.8.5-.4,1-.6,1.5-.8.3-.1.5-.2.8-.3.2,0,.4-.4.6-.3h0c0,.3.6.7.9.5h-.2c1.2.2,2.5-.6,3.8-.5h1v.4c0,1.4.1,2.8.2,4.1,0,1.2.1,2.5.2,3.7v1.4c0,1.5.1,3,.2,4.5h0c0,2.1.2,4.3.3,6.4v1.4c0,1.3.1,2.6.2,3.9,0,.9,0,1.8.1,2.8,0,.8-.1,2.5.2,3.1h0v.1c-.7.2-1.4.4-2.1.6-1.1.3-2.2.9-3.3.8-1.2-.1-2.3-.4-3.5-.5-1.3,0-2.3-.6-3.5-1.2-.6-.3-1.2-.6-1.8-.3-.4.1-.7.5-1.1.6-1.1.4-2.5.6-3.6.7-1,.1-1.5-.3-2.4-.8.7.5,1.1,1,2,1,1.1,0,2.1-.3,3.2-.4.9,0,1.8-.9,2.8-.7,1,.2,1.9,1.1,2.9,1.5,1.1.4,2.3.3,3.4.5,1,.2,1.8.6,2.7.4,1-.2,2-.5,3-.7.5,0,1-.1,1.5-.2h0v2.5c.4,6.5.8,12.9,1.3,19.3.5,6.1.7,12.1.7,18.2v3.9c-.2,8.7-.6,17.3-1,26-.1,2.1-.2,4.3-.3,6.4-.2,3.7-.4,7.5-.6,11.2,0,1.2-.1,2.5-.2,3.7-.1,2.4-.1,4.9-.2,7.4v1.2c-.1,7.7-.3,55.4-.7,63.1.7,0,1.4,0,2.2.1.2,0,.7.2.9,0h0c1.2,0,2.4.1,3.6.2h.9v-59.5c0-7.9.1-15.8.4-23.7.4-13.6,1.1-27.3.8-41v-2.5c0-.7,0-1.5-.1-2.2,0-1.5,0-3.1-.1-4.6-.3-5.7-1-11.4-1.4-17-.2-2.8-.4-5.5-.5-8.3v-.9c.4-.6.6-1.4.8-1.9.6-1.3,2-1.6,2.7-2.8.9,0,2-.5,2.8-.9.5-.3,1.1-.6,1.4-1.2.3-.6.3-.8.8-1.1.6-.4,1.2-.5,1.7-.9.6-.4,1.2-1,1.7-1.5.7-.6,1.4-1.1,2.1-1.6-1.5.8-2.8,2.3-4.4,3.1-.8.4-1.5.5-2.1,1.3-.6.9-1.2,1.3-2.1,1.6-.7.2-1.5.2-2.2.5-.7.4-1.5,1.2-2.1,1.7-.5.4-.9.8-1.2,1.4v.2c-.2-3.7-.4-7.4-.7-11.1,0-1.5-.2-3-.3-4.5v-1.1h0c.1-.7.3-1.3.6-1.9.7-1.2,1.6-2.2,2.5-3.2.3-.3.5-.8.8-1.1.4-.4,1.1-.6,1.6-.9.9-.5,1.9-1.4,2.7-2.3.3-.4.5-.7.9-1.1.6-.6,1.3-1.2,1.9-1.8,1.4-1.2,3-2,4.5-2.9.8-.5,1.5-.9,2.3-1.4.1,0,1.6-.9,1.3-1.2.2.2-2.8,1.8-3,1.9-1.3.7-2.7,1.3-4.1,2-1.2.7-2.3,1.7-3.5,2.5-.6.5-1,1-1.5,1.4s-.9.9-1.4,1.3c-.7.4-1.4.5-2.1.9-.7.4-1.5,1.5-2.1,2.2-.5.6-1.1,1.1-1.6,1.7-.3-4.9-.7-9.7-1.1-14.6.2-1.5.5-3,1.2-4.1.5-.9,1.4-1.8,2.1-2.5.8-.8,1.8-.9,2.7-1.3,1-.4,1.9-1,2.9-1.6.2,0,.3-.1.5-.2v.2c.9,0,1.8-.8,2.4-1.2,1.1-.6,2.4,0,3.6-.4.8.6,1.9.9,2.8,1.1.6.1,1.2.2,1.7,0s.6-.4,1.2-.4c.7,0,1.4.4,2.2.5.7,0,1.5,0,2.2-.1.7,0,1.4,0,2.1.1-1.6-.4-3.3,0-4.9-.4-.8-.2-1.6-.7-2.4-.5-1,.3-1.6.4-2.7,0-.7-.3-1.5-1-2.2-1.1h-1c.2-.1.4-.2.6-.3.7-.3,1.5-.2,2.2-.4,1-.3,1.7-.8,2.2-2.1.2-.5.3-.8.5-1v.1c.1,0,.2,0,.2-.2.1-.2.2-.3.5-.5.5-.3,1-.5,1.4-.8.1.6-.2,1.9,0,2.3,0,0,.5.2.6.2.2-.1.3-.5.4-.7.4-.3.4-.2.7-.8.2-.5.3-1.4.2-2,.7-.2,1.3-.4,2-.5.1.1.2.2.3.3.2.2.7,1.2.9,1.1-.1.7-.2,1.4.3,1.5.4.1.6-.6,1,.1v-1.3c0-.1.7-.2.9-.2-.1-.1-.2-.3-.3-.4.1-.2.2-.3.3-.5-.1-.2-.3-.3-.4-.5,0,0,.1.2.3.2s.4-.2.6-.2c.4,0,.6.2,1,.4.2.2.4.4.7.5h.7c.4.1.5.5.9.5s.8-.3,1.1,0c.4.3,0,1.2.3,1.4.3.3.4-.8.5-1,.3-.8.9-.8,1.4-.4.3.2.7.9,1.1.9.5,0,.6-.7,1.1-.9.3-.1,1.2,0,1.5.2.4.3.2.7.4,1.1.2.7.4.2.9.2.6,0,.8.4,1.2.9,0-.3,1,.1,1.2.4.3.3.1.4.3.6.4.6.6.2,1.1.4.4.2.4.7.8.3.1.4.4.5.7.6-.1,0-.3-.2-.4-.2.6.2,1.1.7,1.6,0-.5-.4,0-1.3.3-1.6-.5-.5-.6-.4-.4-1.3-.5-.1-.5,0-.8.5s-.4.5-.3,1.1h-.5c0-.2,0-.3-.2-.5-.4-.2-.7.2-.9-.3-.3-.7.1-.6.2-1.1,0-.3-.2-.6-.2-.9,0-.2.2-.5.3-.7-.3-.1-.5-.2-.8-.3-.3,1.2-.2,1.8,0,3-.8-.2-1-.7-1.5-1.4,0-.3-.2-.5-.4-.4h-.3c-.1-.2-.2-.9-.3-1.1-.2.3-.4.6-.5.9-.4-.5-.2-.4-.2-1.1,0-.3-.2-.5-.2-.8,0-.2-.1-.7-.3-.8-.1.4-.2.7-.3,1.1-.2-.4.2-.7,0-1-.2-.4-.6,0-.8.2.3.3.3.7,0,1-.1-.2-.2-.5-.3-.7,0,0,.1,0,.2-.1.2,0,.2-.1,0-.3,0-.2-.1-.3-.2-.5.1,0,.7,0,.9-.2.1-.1.2-.9.2-1.2v-.2c.2,0,.4,0,.5.1.3.3.2.7.6.7s.4-.4.6-.8c.5.6,1.1,1.5,1.6.5.3.4.4.1.7.3s.4.7.5.9c.2.3-.2.3.2.4.4.2.4-.5.6-.8.6.5,2.1,1.5,2.6.6.1-.2,0-1,.1-1.1s.4.2.5,0c.3-.2,0-.6.5-.7-.4-.6.1-2.1.5-1.4.3.5-.3.8-.2,1.2.1.8.4,0,.4,1,0,.4-.2.7-.2,1.1v.6s.2,0,.3.1c-.2.3-.1.5,0,.6.2,0,.3.1.5.2.2-.9.3-1.1.7-1.8.4-.5.6-1.1.4-1.8.5.1.5.2.8,0,.2-.2.4-.7.5-1,0,.5,0,.6.4.8,0,.2-.2.5-.3.7.5.1.4,0,.8,0,.1,0,.2-.1.3-.2,0,0,.2.1.3.2.2.2.3.2.4,0,0,0,.2-.2.2-.3.1,0,.3-.3.4-.3.4-.1.4,0,.5.5,0,.2-.1.6,0,.8,0,0,.7.2.8.2.3-.1.5-.8.8-1.2.3-.3.7-.5,1-.5.6,0,.9,0,1.2.8.4.8,0,.8-.4,1.3,0,.1.6.7.6.8,0,.3,0,.5-.3.8.7.4.5-.3.9-.9.2-.3.2.2.5-.4.2-.3,0-.3.1-.6,0-.3-.1-.9.2-1.3.4-.4.3.4.3.8.1-.2.4-.8.6-1h.3c.2-.1.5-.3.7-.4.2,0,.3.2.5.2.7,0,.7-.7.8-1.5,0-.5,0-.6.3-.8.2-.1.7.1,1,.2-.1.4-.3,1.4-.5,1.6-.2.3-.9.4-1.2.5.2,0,.3.2.5.3-.4.6-.3.7,0,1.4.3-.4,1.2-1.2,1.4-1.7v-.7c0-.2.4-.6.5-.8.3.5.6,1.3,1,.6.3-.5-.1-2,.7-1.7.5.2.1.5,0,.9q-.3.7.4.8c.2,0,.4.1.6.2v.5c-.1.3,0,.4,0,.4.1,0,.2,0,.3-.3,0-.1.1-.2.2-.3,0,0,.1,0,.2.1.2,0,.4,0,.6-.3.4-.5.3-1.1.8-1.4.5-.3.9,0,1.4.2q-.2.5,0,.7c.2.1.6.2.8-.1.5-.8-.3-1-.7-1.3-.7-.5-.9-1.2-1.1-2,0-.3,0-.6.2-.7v.5c0-.1.3-.3.4-.5h.2c0-.6,0-.8-.2-1.1.2,0,.3-.2.5-.3,0,.3,0,.6-.2.9.4,0,.3,0,.5-.3.2-.2,0-.4.3-.5s.8.3,1.1.4c0-.7-.4-.9-.8-1.1v-1.2h0c0-.9-.2-.6-.8-1-.4-.3,0-.4-.6-.2-.3,0-.6.4-.9.6-.6.4-1.1.8-1.5,0-.3-.5-.4-.9-.8-1.4,0-.2.2-.4.4-.5,0,0,.8,0,.9.1.3.2.3.4.4.8.5-.3,0-.7-.1-1-.4-.5-.3-.6-.9-.5-.6.1-1.2.5-1.8.8,0-.2,0-.4-.3-.3-.5.2-.1.8-.5.9,0-.5-.1-.9-.1-1.5-.2,0-.4,0-.5.1.1-.2.3-.6.1-.7.2,0,.3-.2.5-.3-.2-.3-.4-.5-.7-.6,0-.2-.3-.3-.8-.3-.3,0-.6,0-.8.5v.3c-.2.1-.5.2-.8.3v-.1c.2,0,.5-.1.7-.2-.5-.2-.7-.2-.9-.7.1.1.2.2.3.4.5-.3,0-.7-.2-.9s-.2-.3-.3-.3c0-.3,0-.6-.5-.7h-.6v-.2c-.1-.2-.3-.5-.5-.8h-.3c-.3-.4-.2-.7-.7-.9-.6-.3-.8.2-1.1.6-.6-.6.2-1,0-1.5,0-.4-.5-1.2-.8-1.2,0,.2.3.9.3,1.1s-.7.4-.8.4-.2.1-.3.2c-.1.1-.2.1-.4,0-.3,0-.2-.2-.4.2-.1.2,0,.6-.2.8h-.2c0-.3-.3-1.1-.4-1.1h0c0-.3-.1-.6-.2-.9-.1-.4-.4-.8-.9-.9-.6-.2-.1-.1-.5.2-.1,0-.3.3-.3.4l-.2.2c-.1-.6-.9-1.3-1.2-1.3s-.6.2-.9.3h0c-.5.3-.9.6-1.3.7,0,.4.2.7.1.9-.1,0-.3,0-.5.2,0,.1.2.2.2.3h0c-.2.2-.3.3-.3.4h-.4v-.1h-.4c0-.1.1-.3.2-.3,0,.1.2.3.2.4.2-.3.3-.6.5-1-.5-.5-.7.5-1.1.2.2-.8.2-.9-.1-1.6-.2-.4,0-.4-.4-.5h-.1s0-.1.1-.2c.2-.6.6-1.5,0-1.9-.2-.2-1.3-.1-1.5.2-.3.3,0,.7,0,1,.2.1.2.3,0,.4,0,.2-.2.4-.2.7-.5-.4-.6-.5-.8-1.2.3,0,.5-.1.8-.2-.5-.2-.8-.2-1-.9-.3-1,0-1.6-.9-1.8h-.8c-.2,0-.4.2-.6.1-.2,0-.2-.2-.4-.3-.2,0-.5.2-.7.2-.5,0-.7-1.2-1-.3.2,0,.3.1.5.2-.2.1-.3.3-.5.4,0,0,.2.2.3.3-.2.3-.3.5-.5.8.5.6,1.2,1,1.4,1.9-.2-.6-.4.1-.6,0-.2-.7-.1-.8-.6-1.1-.4-.2-1-.2-1.4-.3,0-.2,0-.4.1-.6-.4.4-.7,1-1.1,1-.6,0-.5-.3-.9.6q-.3-.2-.7-.2c0-.3,0-1.1.2-1.3.2-.3.4,0,.7-.2.2-.2.3-.8.4-1.1,0,.2.2.3.3.5.1-.4.6-1.1.3-1.4-.2-.2-.3.2-.5.2s-.3.4-.5.2v-1.3s-.3-1-.4-1.1c0-.4-.2-.5-.5-.2-.3,0-.5.2-.8.3-.2.8.8.5,1,1.1-.3.1-.7.3-1.1.3-.5,0-.4.1-.5-.6q-.1-.6-.5-.9h-.2v-.3c.4,0,1,.4,1.3.2v-.5h.8c-.1-.8-.2-1.6-.4-2.4.5.1.7.4,1-.4-.4-.4-.8-.6-.5-1.5.2.2.4.7.6.3.3-.4-.1-1-.3-1.4.2-.2.3.2.5.1.2-.1.2-.4.3-.9-.2-.1-.5-.3-.7-.4,0,0-.7-1-.7-.9,0,0-.3.7-.3.8-.3.9-.4,1.2-1,1.3-.9.1-1.9.6-2.6,0-.2.2-.3,0-.3-.4,0-.1,0-.3-.1-.4-.1-.1-.4.1-.5.2-.3.2-.6.5-.9.6-1.1.2.3-1.6.5-1.9v1.1c.3,0,1-.4,1.1-1.1v-1.2c-.2-.7,0-.5-.4-.7q0,.8-.4,1c-.2.2-.6,0-.8.2-.7.4,0,.2-.4.7,0,.4,0,.5-.2.3-.1,0-.3-.1-.4-.2.1-.2.2-.3.3-.5-.3-.4-.8-1.1-1.1-1.2-.4-.1-.8.5-1.2.9,0-.8-.2-.5-.5-.4-.5.1-.6-.2-1-.9,0,.5,0,.7-.3.5.2-.7,0-.6-.2-1,.3-.4.7-.8,1-1.2,0-.2-1.3.5-1.4.8v1.1c0,.4-.2.8-.3,1.1-.4-.6-.2-.6-.6-.2-.2.2-.3.7-.5.9-.4.5-.7.6-1.2.3-.4-.2-.4-.4-.7-.3-.2,0-.5.3-.7.4,0-.3,0-.6.1-.9.7,0,1.3,0,2,.2-.7-.1-1.3-.2-2-.2v-.5c-.4.4-.5,0-.8-.2s-.9-.5-.9.3c-.2-.1-.1-.6-.3-.7-.2-.2-.2,0-.5,0-.5.2-.6-.1-.9-.7-.3.6-.2.6,0,1.1-.5-.2-1.1-.4-1.7-.4h0c-.4-.3-.9-.9-1.3-.6-.3.2-.2.4-.4.5s-.5,0-.7,0c0,0-.1,0-.2.1-.2,0-.4,0-.6-.1-.8-.3-1.6-.8-2.4-1-.6-.2-1.4-.1-2-.2-.7,0-1.4-.1-2,0,.8-.8,1.8-1.3,2.9-1.4.7,0,1.2.3,1.9.3,1.2,0,2.3-.6,3.4-1.3.3-.2.5-.4.8-.6h0c.7,0,1.4-.7,1.9-1.1.9-.6,2.1-.1,3-.5h0c-.4,0-.7.5-1,.9.3.6.4.5.9.5.2.3.6.9.9,1.1.2.1.4,0,.6-.2-.2-.6-.4-1.6-.8-2,.7.3,1.4.5,2.1.6.9,0,1.5-.6,2.3-.5,1.1.2,2.2.2,3.3,0h2.1c-1.4-.2-2.8.1-4.2-.1-.7-.1-1.4-.5-2.1-.3-.9.3-1.5.4-2.4,0-.6-.2-1.2-.7-1.8-.8-.7,0-1.5,0-2.2.1h0c1.3-.9,2.6-1.6,4.1-2.1,1.6-.5,3.4.3,5,.6.9.2,1.7.4,2.6.6,0,.4,0,.7.5.7.2,0,.3-.3.4-.4,1.3.3,2.6.6,3.9.8.8.1,1.7.2,2.5.3l.1.2v-.2h2.4v.8c0,.6.3,1.1.6,1.4.1.1.3.6.6.4.2,0,.2-.4.3-.8h0c.2-.1.2-.3,0-.4,0-.2,0-.4.1-.4.2-.2.5,0,.6,0,.2-.2.3-.8.4-1.1v-.1c.6-.1,1.1-.3,1.6-.5,0,0,.1.1.2.2-.7.1-.9.5-.6,1.5,0,.4.3.6.4.9.1.3.2.8.4,1,0,.2.2.4.4.4-.1.3,0,.5.1.7s.5.5.7.4c.1,0,.2-.2.3-.2-.2-.3-.1-.5.1-.6,0,0,.1-.1.2-.2v-.9c.6.4,1.1,0,1.8.2.6.1.5.5.8,1,.2.4.3.5.7.5.3,0,.5-.2.6-.5.2.6.3,1.2.8,1.2.3,0,.7-.2.8-.2.3,0,.5.1.8.4.2-.7.3-.7-.1-1.3-.2-.3-.4-.4-.6-.6,0,0,.2-.1.3,0,.3.1.2.3.3.4,0,.2,0,.4.3.3.2,0,.3.1.5.2,0,.1,0,.7.3.7,0,0,.2-.2.2-.3-.2-.4-.6-1-.6-1.5h.1c.3.4.5.9.8,1.3.1-.2,0-.4.1-.5,0,.3,0,.5.3.9,0,0,.1-.1.2-.2v-.9c.4.2.5.4.9,0-.4-.4-.7-.7-1.1-1.1v.2-.3h-.5c0-.4,0-.7-.3-1-.3-.4-.7-.2-1-.4s-.5-.4-.7-.6c.4-.1.1-.6,0-.9q-.3-.6-.8-.7h-.5c0-.2.1-.3.3-.5-.2-.1-.4-.3-.6-.4,0-.2-.2-.4-.2-.5h-.3c0-.2-.2-.5-.2-.7,1,.2,1.7-.8,2.6-.7.7,0,.8.9,1.3,1.3.3.2.5.3.9.1.5-.2.5-.7.8-1.2.4-.9.7-.3,1.2-.1.4.2.2.4.5-.2.1-.2.3-1,.4-1.2.4-.3.7.3.9.4,0,.3.3.4.5.3h.5c.2.1.4.6.6.7.1,0,.5,0,.3-.4-.3-.4-1.2-1.1-1.2-1.7q.6,0,.9-.6c-.2-.2-.3-.3-.5-.5v-.5c0-.3,0-.5-.2-.5s-.3-.1-.5-.2c-.5-.1-.9.1-1.5,0-.5-.2-.9-.6-1.5-.7-.8-.2-.9,0-1.3.8-.3-.5-.5-.7-.6-1.2-.2-.9,0-1,.3-1.7-.5-.2-.8-.4-1.2-.7s-.2-.3-.6,0c-.2.1-.4.4-.6.6.2.2.4.3.6.5-.6.1-.7.4-1.1,0-.3-.2.4,0-.4-.4h-.6c-.3,0-.6.2-.6.8,0,.5.2.2.3.5.2.8,0,1,.6.2,0,.7.6.8,1,.5.3-.2.3-.4.6-.3.2,0,.5.3.7.4,0,.2-.1.3-.2.5.8.3,1.1.4,1.8,1.1-.5,0-1.1,0-1.6-.2s-.8-.7-1.3-.9-.8,0-1.2.2c-.3.2-.7.3-1.1-.1-.1-.2-.2-.6-.3-.7-.3-.2-.5,0-.8,0h-.7c-.3.1-.4.4-.7.5-.2,0-.7-.1-.9-.2-.5-.3-.8-1-.7-1.8,0-.5.6-.9.6-1.4,0-.8-.5-1.3-.9-1.5-.8-.4-.8-.5-1.5.2-.3.3-.7.7-1,.7-.5,0-.7-.7-1.2-.8-.4,0-.1.4-.5.6,0,0-.4-.2-.5-.3.3-.5.7-1,.9-1.5,0-.1,0-.2-.1-.3.1-.1.2-.2.3-.3.2-.3.4-.5.6-.7-.4-.6-.4-.2-.9.1-.2.2-.4.4-.6.5v.5c-.3.4-.5.6-.9.4-.5-.2-.5-.6-.5-1.3-.2,0-.4.1-.5.2-.2,0-.3-.1-.5-.2.5-.5.7-.9,1.4-.8h0c0,.1,0,.3-.2.4,0,0,0-.1.2,0,.3.2.4-.2.5-.2v-.1h.2c0,.1,0,.2.1.3,0,0,.1-.2.1-.3.2,0,.4.1.4.2.2-.6.5-1.1.8-1.6,0,0,.2,0,.3-.1.1-.3.3-.4.4,0,.3,0,.5.3.9.1.5-.2.4-.4.7-.9.4-.6.2-.4.8-.1.4.2.6.3,1.1,0,.2-.1.8-.5,1-.8v-.2c.6.1,1.2.2,1.4.3-.3-.3-.2-.4.2-.3,0-.2-.1-.3-.2-.5,0,0,0-.1.1-.2,0-.1,0-.3-.2-.4v-.2c.4,0,.8,0,1.1-.3h0c.2-.2.4-.4.3-.9v-.1c.3,0,.5-.4.8-.2.5.3.3.9,1,.7,0-.3-.2-.5-.3-.8h.2c.2.2.4.3.5.4.3.1.2,0,.4,0,.4,0,.7-.5.6.4.3-.2.5-.5.8-.7,0,.5.3.1.5.2.2,0,.5.2.6.2,0,0,.3,0,.4.2.2.3,0,.4,0,.7,0,.5.3,1.1.6,1.5.5.6,1-.1,1.4.3,0-.3-.2-.8,0-.9-.3-.6-.2-.6-.2-1.3,0-.3-.4-.4-.1-.8.3.4.5.9.9.9.2,0,.3-.1.5-.2.1.2.3.3.4.3h0c-.2,0-.3.2-.5.3.2,0,.5.4.6.5h.6c.2,0,.3.2.5.4.4.2.3.2.7-.3-.2-.3-1.1.4-.9-.8.1-.5.7-.7,1.1-.9.3-.1.4-.2.6-.3.2-.2.2-.3.5-.4.7-.2.5.7.5,1.4.5-.5,1-.7,1.6-.9,0,0-.2-.2-.2-.3-.4-.4-.4.2-.7,0-.1-.1,0-.3,0-.4.1-.2.2-.2.3-.2-.5,0-1,.5-1.3-.1,0,.5-.5.4-.7.3-.1,0-.2-.2-.3-.3h-.7c.2-1.1-.8-1.3-1.5-1.1-1.1.3-.3-.2-1-1-.3-.4-1.4-.6-1.8-.5-.6.2-.5.9-1.2.6-.7-.3-1.1-1.4-1.9-1.3-.5,0-.5.6-.8,1-.7.9-.4-.1-.6-.7-.2-.8-.8-.8-1.4-.9-.2-.2-.3-.2-.5,0-.2-.8-1.6-.4-2-.3.2.2.5.4.7.6-.4.3-.3.3-.2.9-.5,0-1.1-.4-1.4.3.3.1.7.3,1.1.4-.4,0-.9.2-1.3.3v.5h0c-.1,0-.2-.1-.3-.2-.2,0-.5,0-.7.1,0-1.2-1-1.1-1.6-.8-1,.5-.4-.2-1.1-.8-.4-.3-1.5-.3-1.8,0-.6.3-.3.9-1,.9s-1.2-1-1.9-1-.6.5-.9,1.1h0c-.2-.1-.4-.2-.5-.3,0-.2,0-.3-.1-.4-.3-.6-.9-.5-1.4-.5-.2-.2-.4-.1-.5.1.2.1.4.2.6.4-.2.4-.4.1-.7,0,0,.4-.3.6-.3,1.1.7,0,.5,1.1.3,1.7h-.3c-.5-.2-.5-.8-.8-1.2.1-.2.3-.3.3-.5.1-.4-.2-.7-.1-.8.3-1.3,3-.8,2.3-2.4-.2-.6-.7-1.1.2-.9.4.1.5.4.9.3.3-.1.6-.5.9-.8.1-.2.3-.2.3-.4-.3.1-.6.4-.8,0,.2-.1.4-.2.6-.3-.3-.2-.2-.6-.5-.8-.1.3-.3.3-.5.1-.1,0-.3-.1-.4-.2-.1-.2-.2-.4-.4-.6-.2-.1-.2-.3-.1-.6-.3-.4-1-.6-1.4-.8.2,0,.8,0,.9-.3-.3-.8-1.6,0-2,.2.3.1.5.3.8.4q-.3.4,0,1c-.5.1-1.1,0-1.3.7.4,0,.7,0,1.1.1-.4.2-.8.4-1.2.6.3.8,0,.9-.6.7,0,.3,0,.7.1,1-.2-.2-.6.7-.9.7v.2c-.7.3-1.3-.3-2.1-.2-.3,0-.6,0-.9.3-.2.3,0,.7-.4.8,0,0,.9.5.7.5h.8c.2,0,1,.3,1,.5-.2,0-.7,0-1,.2s0,.3-.3.6h-.1v-.2s-.1,0-.2-.1c0,0,.2,0,.2-.1,0,0-.2,0-.2.1-.3-.2-.7-.3-1-.4-.1,0-.9-.4-.7.3,0,.2.4.4.8.5-.3.1-.5.2-.8.3h0c-.4-.4-.4,0-.7.2-.3,0-.5-.1-.8-.2h0c-.3-.1-.4-.2-.8-.1h-.5c0-.4,0-.5-.2-.5h-.1c0-.3-.3-.6-.6-1,0,.2-.1.5-.2.7,0-.2-.2-.5-.2-.7h-.2c-.2.2-.3.1-.3-.2v-.2c-.5-.3-.6,0-1.1.4-.4.3-1.1.7-1.5.7-.3,0-.5,0-.5-.5v-.3c.1-.1.2-.2.3-.4.4-.5.6-1.1.8-1.8.3-.7.8-1.1,1.3-1.6.8-.8,1.6-1.6,2.4-2.4h0c.9.7,2.1-.4,3-.3-.4-.5-.6-.8-.5-1.4,0,0,0,.1,0-.2.4-.2.7-.3.5-.8.9-.6,1.8-1.1,2.5-1.9.4-.4.9-.9,1.2-1.3s.5-1.2.9-1.6c-.5.5-.8,1.5-1.4,2.1-.5.5-1,1.1-1.5,1.5-.6.4-1.2.8-1.8,1.2-.1-.1-.3-.2-.4-.3-.2-.1-.5-.1-.6-.3-.4-.5-.2-.4.1-.9-.7-.6-1.3,0-2,.2.3.3.6.6.9.9-.1.1-.2.2-.3.4.3.2.5.4.8.6h-.8c-.4.1-.3,0-.5.4-.1.2-.2.7-.2,1v.6c-.1.1-.2.2-.3.3-.9.7-2.3,1.8-3.2,3-.3-.7-.6-1.4-.9-2.1-.4.2-.8.5-1.2.7.1.5.3.9.4,1.4.1-.1.3-.3.4-.4.2-.3.4-.2.5.2.4.4.4.6.6.5,0,.1-.1.2-.2.3-.4.8-.7,1.4-1.2,1.9h0v-.1c-.5,0-.8-.2-1.3-.4s-.2-.3-.6,0c-.2.2-.4.5-.5.8.2.1.4.2.7.3-.5.3-.6.6-1.1.4-.3-.1.1-.2-.2-.2h0c.2-.3.6-1,.4-1.5-.3-.7-.6.8-.8.9-.1,0-.6-.5-.8-.6-.3-.2-.5-.2-.9,0-.2,0-.5.6-.7.3s.4-.9.5-.9c.2-.2.6-.2.8-.3q.4-.2.6-.6c.6-1.3-.2-1-.8-.7,0-.4,0-.7-.3-.7-.2,0,0,.1-.2.2-.3.2-.4.8-.6,0v-.6s.2.1.3.1c.4,0,.6-.5.9-.6,0,0,.1.2.2.2,0,0,.2-.2.3-.2.2,0,.3,0,.6.2,0-.8.2-.7-.2-1.1-.3-.3-.6-.5-.9-.8,0,0-.2,0-.3.2,0-.4,0-.7.2-.8-.8-.2-1.5-.3-2.2-.3h0v-.2s.2-.1.2-.2c.2-.2.4-.4.6-.6.1.2.3.4.5.3h.4c.2.2.3.3.5.5,1,.1.3-1.2.2-2.2.8-.8,1.6-1.7,2.4-2.5.4.3.8.3,1.2.6.4.2.7.5,1.1.7h.3c.1,0,.2.2.3.2h0c.2.1.2.3.4.3.3,0,.9,0,1.1-.4.2-.5,0-.6-.2-1v-.4c0-.2,0-.4-.2-.5,0,0,0-.1-.1-.2,0,0,0-.1.2-.2v-.7c.5-.4.9-1,1.5-1.2s.9.5,1.4.6c.1,0,.2,0,.3-.1v.4c.2-.1.5-.2.7-.4,0,0-.1-.2-.2-.2.3-.4.2-.7.3-1.2.1-.7.4-.9.9-.8.2,0,.4.3.6.1.3-.2,0-1.4.3-1.7.4-.4.6.2.9.2s.6-.3.8-.3l.8.5c.1,0,.2-.4,0-.5-.4-.2-1.4-.4-1.5-1q.5-.2.7-.9c-.2,0-.3-.1-.5-.2.3-.3.6-.4.8-.3.1.4.2.9.4,1.2.2.4.7.5,1.1.8v-.3c-.2-.2-.4-.6-.6-.9.5-.1.8,0,.9-.8h-.8c.3-.1.6-.2.8-.1.3,0,.3.2.5.3.6.2.6-.2,1.1-.4.4-.1.6.3.8-.2.3.3.6.2.9,0h-.5c.4-.1,1.1,0,1.3-.7.1-.5,0-.2-.2-.6-.2-.7-.4-.4-.1-1.2-.6,0-.7,0-.9-.8-.5.2-.4.3-.5,1,0,.6,0,.7.2,1.1-.1.1-.3.2-.4.4-.1-.1-.2-.2-.4-.3-.4,0-.5.5-.9.3-.6-.3-.1-.8-.3-1.1-.2-.2-.4-.4-.6-.6v-.8c-.3,0-.6.1-.8.2.3,1.1.7,1.6,1.3,2.5-.8.3-1.1,0-1.9-.2-.2,0-.3-.2-.5-.2-.1,0-.2.2-.3.3-.2,0-.6-.6-.8-.8v1.1c-.6-.2-.4-.3-.6-.9-.1-.3-.4-.3-.5-.5s-.4-.6-.6-.5c0,.4.1.7.2,1.1-.6-.4-.3-1.7-1-.3.4,0,.6.4.4.9-.1-.1-.3-.2-.4-.3-.2,0-.2-.1,0-.3.1-.2,0-.4-.2-.4,0,0-.2-.1-.3-.2.1-.1.6-.5.7-.7,0-.2-.3-.9-.3-1.1-.2-.6-.2-.5-.5-.7-.5-.4-.3.1-.6-.5q-.2.7-.7.5c0,.6-.2,1.2,0,1.6.1,0,.2.1.3.2v.9c-.5,0-.4,0-.6.5-.1.3-.1.5-.1.9-.2-.2-.3-.3-.4-.3v-.3c-.5,0-.8,0-1.3-.2-.5,0-.3-.2-.6.2,0,0,0,.1-.1.2h0v.3c0,.1-.1.2-.2.3h-.1c-.1.1-.4-.1-.4.4v.1c-.1,0-.3.1-.4.2,0,0-.3,0-.4.2v-.8c0-.2-.3-.3-.4-.5,0-.1-.1-.6-.2-.7-.4-.3-.4.6-.4.9-.2-.2-.8-.8-.9,0,0,.3.4.6.5.9,0,.7-.7,1-.5,1.8,0-.5-.2-.6-.5-.3,0-.4-.4-.2-.5-.5v-.2q.3-.4,0-.9v.1c-.2-.4-.5-.7-.6-1.3-.2,0-.4.1-.5.2-.2.2-.3.1-.4,0-.1-.3-.3-.3-.4,0-.3.2-.3.4,0,.7.3.3.2.5,0,.6l-.1.1c-.2,0-.3-.1-.5-.1s-.8-.2-.9,0c-.1.1-.3.6-.4.8,0,.1-.1.3-.2.4-.3-.2-.5-.4-.8-.6h-.4c-.1,0-.2-.1-.2-.3h-.3c-.2,0-.3-.2-.5-.2v-.1c0-.3.3-.6.4-.9-.3-.2-.4-.2-.5,0v-.5c.2,0,.3-.2.3-.4.1.2.1.4.2.7,0-.2.5-.5.5-.6,0-.2,0-.5.1-.7,0-.2.3-.3.4-.5.2-.5.3-.2,0-.9-.3.2,0,1.2-.7.8-.5-.2-.5-.8-.6-1.5v-.6s0-.1-.1-.2c.3-.1.7-.2,1-.2,0-.6,0-.8-.7-.9h-.4c.2-.3.6,0,.9,0,.1,0,.2.1.3.2.2.2.3,1.3.4,1.4,0-.1.5-.6.5-.8v-.1h0c.1.2.3.3.4.4,0,.3.2.6.3,1.1.2.2.3.2.3.5,0,.5-.4.2-.5.4-.1.2-.5.5,0,.5.3,0,.9-1,1-1.3.2-.4.2-.7.6-1-.2.1-.3,0-.2-.1.2,0,.4-.2.6-.1.8.1,1,1.9,1.9,1.8.4,0,.6-.5.9-.6,0,0,.1.2.2.2,0,0,.2-.2.3-.2.2,0,.3,0,.6.2,0-.8.2-.7-.2-1.1-.3-.3-.6-.5-.9-.8-.3,0-.8.4-1.2.4h0c-.3,0-.5,0-.6-.4h-.8c.1-.2.2-.4.3-.6.2-.2.2-.3,0-.5v-1.5c-.1,0-.3.1-.4.2,0-.4.2-1,.5-1.1h.8c.5.1.4.2.7.8.5-.3,0-.7-.2-1-.4-.5-.5-.6-1.1-.4-.7.3-1.4.6-2.1.9,0,.3.1.6.2.9-.2.2-.4.3-.6.5-.3,0-.3.3-.1.6,0,.3.2.5.3.8-.7-.3-.8-.2-.7-1.2h-.2c0-.1,0-.3.1-.5-.3-.2-.6.2-.7.6-.1,0-.2,0-.4.1-.1-.6-.3-1.5-.2-1.5,0,0-.5.2-.5.3,0,.2.1.5,0,.6s-.2,0-.3-.2-.1-.3-.1-.4c-.1.6.1,1.3-.4,1.5h0c-.2,0-.5,0-.7.1,0,.5.4,1.2-.2,1.6-.1-.4-.3-.8-.5-1.2-.2-.5-.1-.4-.5-.4-.7,0-1.1.4-1.2-.5-.6.6-.6.7-.5,1.4-.6,0-.5,0-1,.3-.4.3-.7.8-1,1.3-.4.8-.8,1.7-1.1,2.5-.3.6-.5,1.3-.8,1.9v.1c-.2.3-.3.7-.6,1-.2.3-.5.5-.7.8-.4.4-.5.7-.7,1.1-.3-.1-.2-.3,0-.7-.2,0-1.3,1.9-1.5,2.1-.2-.2-.2-.4-.3-.5v-.1c0-.1,0-.3.3-.6.2-.4.7-.9.8-1.3.2-.7-.1-1.8-.2-2.4,0-.6,0-.7-.5-.9,0-.1.1-.2.2-.4-.2,0-1.6-.4-.8-.7h-.4c-.3-2.1-.6-4.3-1-6.4.2,1.4.4,2.7.5,4.1,0,0-.2-.2-.3-.2v.3c0-.2-.1-.5-.1-.8-.5.1-.8.2-1.2.7.5.4.9.8,1.4,1.3v-.9c.1,0,.2-.1.4-.2v.2c0,.7,0,1.4.1,2.1h-.3c-.3.2-.3.5-.3.8-.1,0,0,.2,0,.3v.2c-.4.1-.6,0-.7-.5-.1-.5,0-.7-.4-1-.2-.1-.3-.2-.4-.2,0-.1,0-.3-.3-.5-.3-.3-.6-.5-1-.8-.4.2-1.6,1-1.8,0h-.8c.1-.2.2-.4.3-.6.2-.2.2-.3,0-.5v-1.3c.1,0,.2.1.4.2-.2-.3-.3-.4-.4-.7,0-.2.2-.3.2-.5,0,0,0-.1-.1-.2h.8c.5.1.4.2.7.8.5-.3,0-.7-.2-1-.4-.5-.5-.6-1.1-.4-.2,0-.3.1-.5.2v-.1s0,.1-.1.2c-.5.2-1,.4-1.5.6,0,.3.1.6.2.9-.2.2-.4.3-.6.5-.3,0-.3.3-.1.6,0,.3.2.5.3.8-.3-.1-.5-.2-.6-.3h-.1v-.8c-.7,0-1.1.2-1.8.5.4.7,1.2.4,1.8,1,0,0,0,.1.1.2-.6.2-1.1.5-1.7.7,0,.3.1.6.2.9-.2.2-.4.3-.6.5-.3,0-.3.3-.1.6,0,.2.1.4.2.7h0c-.5-.2-.6-.2-.6-.7,0,0,0-.1.1-.3h0v-.2c-.7,0-1.1.2-1.8.5.4.7,1.2.4,1.8,1h0c0,.6.2.6.4.3.2.2.4.4.8.4.1,0,.3,0,.4-.1,0,0,.1,0,.2.1v-.1h0c.2-.1.4-.2.7-.2.6,0,.9,1,1.3,1.5,0,.1,0,.2-.1.3-.1.4-.3.8-.4,1.1-.6-.2-.8-.3-1.4,0-.5.3-.9.5-1.3.2-.4-.2-.3-.6-.6-.8.5-.5,1-1.2.2-1.7-.6-.4-1.5.2-1.7,1.1-.4-.4,0-1.1-.4-1.5-.3.7-.3,1,0,1.7,0,.3.5,1,.5,1.3-.2,0-.4-.1-.6-.2,0,.4,0,.8.1,1.2h0v.5c.1,0,.3.1.5.2-.3.2-.6.5-.7.8-.1.2,0,.4-.2.6-.2.3-.4.4-.6.5-.3.2-.3,0-.6.4-.2.2-.4.4-.5.6-.3.4-.7.8-1,1.2.7.3,1,.6,1.8,0,0,.4-.2,1.3.6,1,.1,0,.9-.8,1-.9.4-.5.2-.3.2-.8,0-.3.1-.6.5-.7h.3v.2s0-.1.1-.2h.4c0,.1-.2.6-.2.8.3,0,.4,0,.3.3v.5c.4-.1.6-.1.9-.4.3-.2-.2-.2.3-.4-.3.5.5.2.8.1v-.8c0-.2.3-.4.3-.6v-.8h0v-.5c0-.1.2-.2.2-.4-.1,0-.3-.1-.4-.2-.2-.4-.5-.7-.9-1.1.5-.5,1.2-1.2,1.8-.9-.3.4-.6.6-.2.9.4.3.5,0,1-.3,0,.4.2.4,0,.7-.2.3-.4.3-.5.5,0,0,0,.3-.1.5h-.2v1h0c0,.2,0,.3.3.4.1-.2.5-.9.6-.6v-.3h.6c.4,0,.4.1.7-.2v-.1h0v-.1c0-.1.2-.3.2-.3.1,0,.4.2.5.2.5.2,1.1.2,1.7.2-.6.7-1.1,1.3-2,1.5.1.3.3.6.4.9-.4.2-1.4.6-1.5,1.2,0,.7.8.4.4,1.3-.3-.3-.5-.2-.8-.4s-.3-.5-.3-.9c-.6.2-1.3,0-1.7.7h.9c-.3.2-.6.4-.9.6.3.6.4,1,1.1,1.2-.2,0-1.1.3-1.3.5-.2.3,0,.7-.2.9-.5.5-.5,0-.7.6-.1.7.3.5-.6,1,.5.5-.8.8-.3,1.2.4.3,1.2-.5,1.7-.5.3,0,.6.3.6.5.1.5-.3.5-.5.8s0,.5.2.8c-.1,0-.8.6-.9.6-.2,0-.4-.4-.6-.4-.4-.2-.5-.2-.8.2-.2.2,0,.3-.2.4,0,.2-.2.5-.3.8.3-.1.6-.2.9-.3-.1.3-.3.8-.5,1s-.5.3-.6.5c-.2.2-.4.9-.3,1.2,0,.2.6,1,.9,1s1.2-.6,1.5-.8c-.2-.5-.9-1.5-.5-2.2.5-1,1.4,0,1.5.6,0,.4-.2.9,0,1.3-.1.3,0,.5.3.5.2,0,.4.1.7.2.3,0,.6.3.9.3.2.2.4.1.7-.2.2-.3.3-.4.5-.2-.2.3-.6.8-.7,1.2-.2.6,0,1-.6,1.6,0-.3,0-.7-.2-1-.7.4-.8.4-1.4.2,0,.7-.3.8-.9,1.4h.6c-.2.4-.4.9-.6,1.3.2,0,.5-.1.6,0-.3.1-.7.3-1,.4.7.2,1.5.2,1.3,1.1-.2.7-.3,1.3.7.8-.3.2-.6.7-.2.8.2.1,1.1-.6,1.4-.7,0,.3-.2.6-.3,1,.5-.3.6-.3.9-.7.4-.4.3-.8.8-.7.2-.6.2-1.4,1-1.5h1.2c-.1.5-.3,1-.5,1.5-.2.4-1,1-1.1,1.5s.1,1.5,0,2.1c.3,0,.5.1.8.1-.2.5-.1.5-.1.8s.2.4,0,.7c0-.3-.2-.6-.3-1-.2,0,0,.6-.1.8-.1.5,0,.2-.3.5-.2.2-.4,0-.3.6-.2,0-.2-.5-.3-.7,0,.2-.1.5-.2.7-.1-.2-.2-.4-.3-.6-.2.4-.4,1.9.2,1.6-.2.4-.4,1.1-.3,1.7,0,.6,0,.4.4.7.2.2.3.4.4.6h0c-.4-.2-.7-.5-1-.8-.5-.5-.7-1.1-1.1-1.7-.5-.6-.7-1.2-1.2-1.8-.9-1.1-1.7-2.3-2.6-3.3-.1-.4-.3-.7-.3-1.1,0-.8,0-1.4-.2-2.1.5.1.4-1,.4-1.4-.1,0-.6.5-.8.4-.1,0-.3-.7-.4-.8-.2-.4-.7-1.2-.7-1.7,0-.4.8-.6.4-1.2-.2-.3-1-.6-1.3-.8.4-.5.2-.5,0-1-.1-.2,0-.1-.2-.3s-.4-.2-.5-.3c-.2.1-.2,0-.2-.2v-.2c-.1-.2-.3-.1-.5-.1h-1.3c.2-.4-.3-.8-.7-1v-.1h0c-.3-1,.2-1.6.9-1.2v-.6h0c0-.2-.1-.3-.3-.4h0c-.3-.3-.6-.5-.9-.5,0,0-.2,0-.3.1h0c-.1,0-.3.2-.4.3-.3-.4-.7-1-1.1-1.5,0-.4-.1-.9-.1-1.4-.1,0-.2.1-.3.2,0-.3.1-1,.4-1.2h.9c.3.1.3.4.5.7.4-.4,0-.7-.2-1q-.4-.5-.9-.4c-.6.2-1.3.8-1.9,1.1,0,.3.2.6.2.9-.2.2-.3.4-.5.6-.2.1-.2.3,0,.6,0,0,0,.2-.2.4v-.9c0-.5,0-.4-.3-.8-.3-.5-.7-.4-1,0v-.6c0-.2,0-.3-.1-.5.1-.2.2-.3.3-.6.2-1.1.2-1.7-.8-1.4-.3.1-.6.2-.7.6-.1.5.2.4.2.7,0,.6-.1.7-.3.7q0-.5-.1-.9v-.1h.2-.3c-.1-.2-.1,0-.1-.6-.2.2-.3.2-.3.3,0,0-.1,0-.2-.2-.3-.8,0-1.3-.8-1.4-.3,0-.6,0-.9.2-.3-1.1-1.9-.6-2.5-.5-.6,0-.5,0-.6-.5,0-.4,0-.6-.5-.7,0,.3-.1.6-.2.9-.2-.2-.3-.3-.5-.5-.3.4-.3.7-.8.6,0,0-.2,0-.2-.2-.1-.3-.3-.6-.3-.6h-.4c-.3-.3-.8-.6-.8-1.1s.2-.5.6-.7c-.4-.2-.3-.9-.7-1.2h-.3c-.1,0-.4-.4-.4-.5,0,.3-.2.6-.2.9-.5-.7,0-1.1.4-1.6-.6-.3-1.3-.5-2-.5,0,.1.5.5.5.6,0,.2-.3,0-.4,0-.2.2-.6,1-.9,1.2-.5.3-.6-.3-.6.6,0-.1.2-.2.2-.3,0,.2.2.7.3.8q.2.2.5.3c.4.2.8.1,1.2.4.2.2.5.5.6.8v.2h-.3c-.3,0-.4.1-.3.5h-.4c-.1-.4-.3-.8-.5-1.2.5.2,1.1.6.7-.3-.3-.7-.9-.5-1.5-.6.1.3.3.6.4,1-.5.3-.2.1-.5.6-.2.4,0,.4-.3.4-.1,0-.3,0-.3-.1-.2-.3-.5-.6-.7-.9v-.3s-.1,0-.2.2c0,0-.1-.1-.2-.2,0,.2,0,.4.1.6h0c0,.2,0,.4.1.6l-.1.1h-.6v-.8c-.1,0-.3.2-.4.2v.4c-.1-.2-.2-.5-.3-.6-.3-.7-.6-1.1-1.3-1.3.5-.3,1-.3,1.5-.3.3,0,1,.2,1.3,0,.1,0,.3-.2.2-.5,0-.3-.3-.2-.7-.3-.6,0-.7-.2-1-.8-.2-.4-.5-1.3-.8-1.3-.7,0-.4.7-.6,1-.5.7-1.4-.2-1.9-.3v1.1c0,.3-.4.6-.6.9h1.1c0,.2-.4.8-.4,1s.2.3.5.4c.4.2.9.4.9,1h-.9c.1,0,.3.1.4.2-.8.3-.5.4-.6,1.1h-.2v-.1h0c-.6,0-.7.9-1.2.8h0c-.1,0-.2,0-.4.1.2.2.4.4.6.7v.1c.1,0,.2.2.3.2,0,.3-.4.5-.9.6h0c-.1-.1-.3-.2-.5-.3v.9h0c-.2-.3-.3-.5-.5-.8,0,.2-.4.7-.3.8,0,0,.1.2.3.4-.2.1-.4,0-.6,0s-.2,0-.2.1h0v-.1c-.2-.1-.2-.3,0-.6,0-.1,0-.3.1-.4-.2,0-.3,0-.4-.2h-.1c-.1-.2-.2-.4-.2-.7-.3.3-.3.4-.2.6h-.7c0-.2-.1-.4-.3-.6-.1.2-.2.5-.4.8-.2,0-.4.1-.6,0,.3.2.3.3,0,.4h0c-.1,0-.2.1-.3.2-.2-1.1-.4-1.2-1.3-.9.1.4.3.7.4,1.1-.4.1-1.3.7-1.6.4s0-.8-.5-.8v2.4c-.4,0-.7-.1-1.1-.2,0-.6-.9-1.4-1.4-1.7-.1,0-.6-.4-.8,0,0,.2.3,1,.4,1.2-.4,0-.8,0-1.2-.3-.4-.2-1.1-1.2-1.5-1.2-.3,0-.6.3-.7.4v.4h-.5c-.3,0-.5-.2-.6.2-.1.3,0,.6.3.8.4.2.4.4.5.8,0,.4.2.6.4,1h-.9c.3.5.6,1.1,1.1,1.3h1.1c0-.4,0-.7-.1-1.1.5.2.9.5,1.4.7-.3,0-.7.1-1,.2.2,0,.7.2.6.4.4,0,1-.1,1.3,0,.3.1.1.2.4.4.2.2.4.2.7.2.4,0,.2,0,.5-.2.4-.4.1-.3.6-.3h.5s0,.4.2.5c.2.2.5.2.8.3,0,0,.1,0,.2.1v.1h-.3c-.2,0-.3,0-.2.3h0c-.2,0-.4.1-.6.2-.1,0-.2,0-.3.1,0,.2.1.5.2.7v.3c-.2,0-.4,0-.6-.1-.5-.3-.7-.7-.7-1.5-.5-.2-.3.4-.3.8,0,.6.2.7.6,1,.4.3.7.4,1.1.6v.3c.2,0,.2-.1.3-.1.2,0,.4.2.6.3.3-1,.3-.5.9-.6.4-.1.4-.3.5-1,.2.3.3.5.5.8-.2.2-.3.3-.5.5.6.5,1,.7,1.6,1v-.2c.5-.2.5-.3.9.5.2-.3.3-.7.2-1.1,0,0,.2,0,.3-.1.3,0,.4,0,.7.1.4.2,1,.6,1.4.4.2-.1.2-.4.5-.5.2,0,.4.1.6,0,.3,0,.5-.2.8-.5.2.5.5.9.8.9h.2c.1.2.1.4-.2.8.8.2,1.7.4,2.2-.6.1.2.2.3.3.5,0,.3.2.4.5.2.4,0,.5-.2.9-.1.5,0,1.1.3,1.3.9.2-.4.9,0,1.3.3.6.3.8.4,1.1,1,.2.5.5,1.1.4,1.6s-.4.5-.8.6c.1.5.3,1,.4,1.4,0,.2.1.9.3,1,.3.2.9,0,1.1-.3.1-.2,0-.7.2-.8,0-.1.8-.2.9-.2.8-.2,1.2-.3,1.9,0-.5.5-1,.7-1.6,1,0,.1.3.3.4.5.2.4.2,0,0,.4-.2.5-.4.4-.7.5h-.3v-.3c-.3,0-.6.1-.9.2v.5s-.2-.1-.2-.2c-.1-.2-.2-.6-.4-.6-.3,0-.6.5-1.1.4-.3,0-.6-.4-.7,0-.1.5.3.4-.2.8.2.3.1.5,0,.7-.3-.3-.7-.5-1.1-.6,0-.1-.2-.2-.4-.3-.2,0-.3-.1-.5-.2,0-.3,0-.5-.2-.9-.3-.4-1-.6-1.4-.5-.1,0-.7.3-.7.6,0,.1,0,.3.1.4h-.3c-.2,0-.6-.2-.8-.2-.3,0-.2,0-.4.4-.1.2-.2.5-.4.7-.2.3,0,.2-.4.2s-.7-.5-1.2-.2c-.2.2-.2.4-.3.7h-.3c-.1,0-.3,0-.4.2h0s-.2.1-.3,0c0,0,0,.2.1.3v.2c0,.2,0,.3-.2.3-.1-.2-.3-.4-.4-.6-.4-.9-.5-.9-1.2-.9s-.9.3-1.3,1c-.7-.5-1.5,0-2.3-.4.3.2.3.3,0,.3,0,.1.2.2.2.3v.1s-.1-.2-.2-.2c-.4-.2-.7.6-.9,1.1-.4.6-.6,1.1-1.3.6-.5-.3-.4-1-1-1.1h-.7q-.3-.2-.6-.7c-.1-.2-.2-.6-.4-.5-.1,0-.4.5-.3.6.4.6,1.5,1.7,1.4,2.6-.8-.2-.9,0-1.4.6.2.2.4.5.6.7v.9c-.1.4,0,.6.3.6.2.1.4.3.6.4.7.3,1.3,0,2.1.5.6.4,1.1.9,1.7,1.2,1,.5,1.3,0,2.1-.9.2.3.4.7.5,1,.2.5,0,.3.1.9,0,.7.1.7,0,1.2-.1.3-.5.7-.7.9.3.2.7.3,1,.5s.4.6.6.9c.4.4.3.4.9,0,.3-.2.6-.4.9-.6-.3-.3-.5-.5-.8-.8.3,0,1.3-.6,1.6,0v.7h.4c.2.1.8.2,1.1.2.5,0,.6-.2.8-.9.3-1.1,0-.1-.3-.9v-.7c.6,0,1.1.1,1.7.2v.2h.6c.7.2,1.4.5,2.2.5v.6c.5-.5.6,0,1.1,0s.6-.2.7-.5h.4c.2.4.3.9.3,1.5,0,1.1-.7,1.2-1,2-.2.4-.2.9,0,1.4.2.6.1.6.6.9.3.2.6.5,1,.7.5.2.5.3.9,0,.5-.4,1.1-.9,1.8-1.1.9-.2,1,.7,1.7,1.1.5.3.2,0,.7-.3q.4-.2.8.2c-.5.6-1.3,1.2-1.6,1.9,0,.2,0,.3.1.5-.1.1-.2.2-.4.3-.2,0-.4,0-.8-.4-.6-.6-.6-.3-.7.6-.2,0-.6-.4-.8-.3-.3,0-.3.3-.4.7h.2c-.1,0-.5.4-.6.6,0,0,.3.3.2.4-.2.8-.6.4-.9.5-.3,0-.6.4-.8.6,0-.4-.1-.5-.4-.6,0,0-.1,0-.2.1h0c0-.2-.1-.4-.2-.6l.1-.2v-.4c.2,0,.5-.2.6.3.3-.3.2-.2.6-.2.1,0,.4.3.5.3.4-.2,0-1.2,0-1.5-.1,0-.2.1-.3.2,0-.2-.1-.4-.2-.6-.4.5-.5.4-1,.1h0c0-.3-.2-1-.3-1.2-.2-.1-.5-.2-.7-.4,0-.1,0-.3-.1-.4-.4-.5,0-.2-.5-.4h-.5c-.2.2-.2.6-.3,1.1h0c-.2-.1-.2-.3-.4-.4-.2-.1-.5,0-.7-.1-.4-.3-.2-.5-.5-.9-.2-.2-.8,0-.9-.3v-.5c.2-.4,0-.7-.3-.7-.2-.2-.5-.2-.7-.5s-.3-.6-.5-.7c-.3-.1-.7.2-1,.2s-.3-.3-.6-.5c-.5-.3-.5-.2-.9.2-.4.3-1.1,1.1-1.6.9-.4-.2-.3-.8-.8-.5.1.4.4,1,0,1.2-.3.2-.2-.2-.5-.3h-.4c-.5,0-1.1-.8-1.7-.6,0,.2.2.8.1.9,0,.4-.2.2-.4.5s-.3.3-.4.4c-.1,0-.2-.2-.3-.4-.4-.8,0-1.3-.8-1.4-.5,0-.9.4-1.4.4-.1-.2-.3-.3-.4-.2-.1.1-.3.2-.4.2-.5,0-.7-.9-.9,0h.5c-.1.1-.3.3-.4.5,0,0,.2.1.3.2-.1.3-.3.5-.4.7.5.4,1.1.7,1.3,1.4-.2-.5-.3.2-.6.2q-.2-.7-.7-.9c-.3-.1-.8,0-1.2,0v-.5c-.2.2-.6,1-.8,1.1-.2,0-.6-.2-.7,0-.2.2-.1.6-.3.7h-.5c0-.3,0-1,.2-1.2.2-.3.4,0,.6-.3.2-.2.3-.8.3-1,0,.1.2.3.3.4,0-.3.6-1.2.2-1.3-.2,0-.3.3-.4.3s-.2.5-.4.2c0,0,0-1.2,0-1.1,0,0-.5-1.1-.5-1.2-.2-.1-1.1.4-1,.8.1.5.7,0,.9.6-.3.1-.7.4-1,.5-.6,0-.3,0-.6-.6-.3-.6-.2-.4-.8-.5-.1,0-.6-.2-.7,0,.3.2.8.3,1,.7.2.5.3,1.1-.3.6,0,.2,0,.5-.1.7.5,0,1.1,0,1.3.7.2.5,0,.6-.2,1-.3.4-1,.9-1.3,1-.1,0-.8,0-.5-.4h.6c-.2-.7.3-.5.3-1,0-.6-.3-.2-.4-.3-.2.2-.3.2-.3,0,0-.1-.1-.2-.2-.3-.3-.6-.1-1.2-.1-1.8v-.7c-.1-.4-.4-1-.5-1.4.5.2,1.1.6.7-.3-.3-.7-.9-.5-1.5-.6.1.3.3.6.4,1-.5.3-.2.1-.5.6-.2.4,0,.4-.3.4-.5,0-.6-.7-1.1,0,.3.3.5.5.8.8-.3,0-.7-.1-1,0-.7.2,0,0-.4.4s-.4.8-.7,0c-.1.4-.2.8-.4,1.3-.1-.5-.4.1-.7.3-.1,0-.4.2-.5.2,0,0-.3.3-.5.1-.1-.1-.2-.7-.3-.9-.2-.3-.8-.9-1.1-.9-.6,0-.7.9-1.2.8.1.2.5.7.3,1,.2.1.4.3.5.4,0,.2.1.5.2.7.2.3.5.2.4.7-.4-.2-.8-.5-1.1-.2-.1.2-.2.4-.3.6-.2-.1-.3,0-.5,0,0-.3.1-.5.3-.7h-.8c-.2,0-.3.4-.4.4-.2.1-.4,0-.6,0-.5,0-.4,0-.5.8.2,0,.5-.4.6-.6.4.6.7.8.3,1.6-.2.5-.6.8-.7,1.2-.2.4,0,.8-.3,1.2-.5.5-.7-.5-1-1.1-.2.9-.6,1.4-1,2.1,0,0,.2.1.3.1.5.1.3-.4.6-.5.2,0,.2.7.1.8-.3.6-.6-.2-.7.7-.3-.2-.6,0-.8.4.1-.1.3-.2.4-.3-.4.3-1,.7-1,1.4l-2,1.1ZM21.2,27.2c-.3.1-.6.3-.8.4,0-.1,0-.2-.1-.3v-.5c.3.2.6.3.9.5v-.1ZM65.6,14.7h-.1.2-.1ZM90,6h.2v.6c-.3,0-.2-.3-.2-.6ZM117,26.5c.2-.3.4-.7.6-1,0,.2,0,.4.1.7-.3.1-.4.5-.7.4v-.1ZM139.5,35.1c.2,0,.3-.1.5-.2v.2c-.2.1-.4.2-.5,0ZM139.5,34.3c.2,0,1.4-1.1,1.3-.3,0,.5-1.5,1.1-1.3.3ZM135.7,31.7c0-.2-.1-.3-.1-.5.3-.1.3,0,.1.5ZM137,31.7c-.2,0-.7.2-.9-.1.4-.5.4-.3.9.1ZM138.4,31.8c-.2.1-.4.2-.6.4,0-.3.4-.8.6-.4ZM135.3,33c.3-.4.3-.3.2-.1.3-.3.7-.5,1.1-.6.4-.1,1.3-.2.9.6.4-.4.5-.4.7.3s0,.8-.5,1.1c0-.3-.1-.6-.2-.8-.2,0-.3.2-.3.5-.3-.4-.4-.1-.8.1.1,0,.2-.3.3-.4-.3-.2-.6-.6-.9-.7-.4,0,0,.5-.6.2l.1-.2ZM133.7,31.1c.4,0,.3.1.2.1.3.2.5.6.8.7.4.2.8-.4,1.1,0-.3,0-.3.1-.2.4-.6.3-.8.4-1.4,0-.7-.4-.7-.5-.5-1.3v.1ZM134,46.9c-.3.2-.2-.2-.2-.4.2,0,.2.1.2.4ZM130.7,49.7c.3-.3.2-.3.5,0-.2,0-.4.2-.5,0ZM115.5,66.7c.3-.6.3,0,.6.1.3.2.5,0,.8-.4-.1.8-.2.2,0,0-.1.8-.6.8-.9,1,.2-.6-.2-.6-.5-.7h0ZM62.9,123.1c.1,0,.2-.2.3-.5h0c.2,0,.3-.2.5-.3v.7c-.3.2-.5.3-.7.1h-.1ZM39.4,125.8v-.6c.2,0,.3-.4.6-.2-.2.3-.4.6-.6.9h0v-.1ZM54.8,125.3h0s0,.1,0,0ZM41.9,122.1h.2v.1q-.1,0,0-.2l-.2.1ZM38.8,125.1h0q.5,0,.1.3s-.1-.2-.2-.2l.1-.1ZM38.6,123.8h.9c-.2.1-.3.2-.5.3q-.4,0-.5-.2l.1-.1ZM39.1,123.1c.1.2.3.3.4.5h-.9c0-.2.2-.4.3-.6h.3l-.1.1ZM47.4,114.5c0-.1-.1-.3-.2-.4,0,0,.2.1.4.2,0,0-.1.1-.2.2ZM53.5,120.3h-.4q-.3,0-.5.1c-.2-.1-.3-.2,0-.4-.4-.3-.6-.4-.7-1,.3-.1.7-.3,1-.4,0,.5-.2.9.1,1.2.2.2.3.3.5.4v.1ZM59.2,120.7h0s0,.1-.1.2h-.4v-.8c.2.2.3.4.5.6ZM12,81.2c.4-.2.3.5,0,.5v-.5ZM48.2,81.4c-.1-.1-.4-.2-.6-.3h.2c-.2-.5-.7-.5-1.1-.5.3-.4.7-.6,1.2-.6.3,0,.9.3,1.2.2.3-.2,0-.5.3-.7.1-.1.4-.1.5-.2q.4-.2.5-.8c.1.2.2.5.3.7-.4,0-.9,0-1.2.6.3.1,1,0,.7.5.6-.2,1.4-.4,1.8-.9.3-.3.2-.7.5-.6.4.2.1.7,0,1.1.6-.1,1,0,1-.8,0-.7-.4-1.1-.7-1.7-.2.3-.7.7-.8,0,0-.3.3-1.2.4-1.5,0,.1.2,1.1.3,1.2.1.1.4,0,.6,0,.5.2.3,0,.4.7,0,.4,0,.8.1,1.2,0,0,.6-.7.7-.7.2,0,.3.4.5.4.4,0,1.4-.7,1.7-.9.6-.2,1.1-.2,1.4-1.1.2-.7,0-1,.8-1,.5,0,.8,0,1.3-.3.2-.2.4-.5.6-.8,1,.4,1.9.7,2.9.5.8-.2,1.5-.1,2.1.5.8.8,1.6,1.6,2.3,2.5.8.9,1.6,1.6,2.3,2.5.5.7.9,1.3,1.2,2-.2,0-.5.1-.8.1,0-.2-.2-.3-.4-.2-.1,0-.3.1-.4.2-.5-.1-.6-1-.9-.2.1,0,.3.1.4.2-.2.1-.3.3-.5.4,0,0,.2.1.3.2-.2.2-.3.5-.5.7.5.5,1,.9,1.2,1.6-.2-.5-.4.1-.6,0-.2-.7-.1-.7-.6-1-.3-.2-.8-.2-1.2-.2,0-.2,0-.4.1-.5-.2.2-.7.9-.9,1-.2,0-.5-.3-.7-.2s-.1.5-.4.6c0,0-.4-.1-.5-.1,0-.3.1-1,.3-1.2.2-.3.4,0,.7-.2.2-.1.3-.7.4-.9,0,.1.2.3.2.5.1-.3.7-1.1.3-1.2-.2,0-.3.2-.5.2-.1,0-.3.4-.4.2,0,0,.1-1.2.1-1.1,0,0-.4-1.2-.4-1.3-.2-.1-1.1.3-1.1.6,0,.5.7.1.8.7-.3,0-.7.3-1,.3-.6,0-.3,0-.5-.7-.2-.6-.2-.5-.7-.6-.1,0-.6-.3-.7,0,.3.2.7.4.9.8.2.5.2,1.1-.3.6,0,.2-.1.5-.2.7.5.2,1.1.2,1.3.9.2.5,0,.7-.2,1-.3.3-1,.7-1.4.7-.1,0-.8-.1-.4-.5,0,0,.5.1.6.1-.1-.7.4-.5.4-.9,0-.6-.2-.3-.4-.4-.2.2-.3.1-.3,0s0-.2-.1-.3c-.3-.6,0-1.2,0-1.8v-.7c0-.5-.3-1-.4-1.5.5.3,1,.8.7-.1-.3-.7-.8-.6-1.4-.8.1.3.2.7.3,1-.5.2-.2,0-.5.6-.3.4,0,.4-.3.4-.5,0-.5-.8-1.1-.1.2.3.5.6.7.9-.3,0-.7-.2-.9-.2-.7.1,0,0-.4.4s-.4.8-.7-.1c-.2.4-.3.8-.5,1.2,0-.5-.4,0-.7.2-.1,0-.5.1-.5.1,0,0-.4.3-.5,0,0-.1-.1-.7-.2-.9-.2-.3-.7-1-1-1.1-.5-.2-.8.8-1.3.6,0,.3.4.8.2,1,.2.2.3.3.5.5v.5c-.4,0-.8.1-1.1.1-.8,0-.7-.2-1.4-.7-1.2-.8-3-.7-4.2-1.1l.3-.2ZM54.4,84.7h0c.2.3.2,0,.1,0h.6s0,.1.1.2v-.2c.6,0,1.1-.1,1.7-.1-.2.2-.3.5-.4.8-.4.6-.6.6-1.2.6v-.6c-.5,1.3-.6,0-1-.6l.1-.1ZM55.4,86.2c0,.3,0,.8-.3.9-.3,0,.3-.9.3-.9ZM57.4,84.4c.2,0,.3,0,.5.1-.3.2-.4.8-.7.5.2-.2.2-.3,0-.5,0,0,.1-.1.2-.2v.1ZM57.8,85.8s-.1.1-.2.2c0-.2,0-.4-.1-.6.1.1.2.3.3.4h0ZM78.2,90.7c.1.2,0,.5-.2.3,0-.1.1-.2.2-.3ZM79.3,54c-.2,0-.6-.1-.8-.1.5-.4.7-.7,1.2-.5-.1.6,0,.5-.4.6ZM84.1,46.5c-.2.3-.3.3-.5-.1.2-.2.3,0,.5.1ZM84,45.4c.2-.1.4-.3.6-.4.1.1.4.4.3.4h-1,.1ZM86.8,50.7c-.2.4-.4,0-.7-.2.1-.3.5,0,.7.2ZM127.3,34.2c-.5.1-.5.9-.8.8.1-.2,0-.3-.1-.3,0,0,0-.2.2-.4h-.1c.2-.5.3-.6.9-.8h.5c-.2.3-.5.5-.6.5,0,0,.2,0,.3.1h-.3v.1ZM127.2,35.3c-.2.3-.3,0-.5-.2.2,0,.3.1.5.2ZM126.3,35.6s.2-.2.3-.1v.4s-.2-.3-.3-.3h0ZM126.1,34.2v.2h-.3c0-.2,0-.3.3-.4.1.5,0,.4,0,.2ZM107.3,32.3c0,.2,0,.3.1.5.4,0,.1-.8.8-.5.5.2.6.5.5,1.3h0c-.2.3-.4.7-.8.8-.2,0-.5,0-.8-.2v-.7h0c-.1-.2-.3-.5-.4-.8.1,0,.2-.2.4-.2h-.1c.2,0,.3-.1.4-.2h-.1ZM89.8,22.2v.3h-.5v-.7c-.2,0-.4.1-.6.2,0-.1-.1-.2-.2-.4,0,0,.7-1.2.9-1.6.5-.6.7-1.1,1.3-1.4h.2s.1-.1.1-.2c.6-.3,1-.4,1.7-.2.2,0,.8.2.5.6-.2.2-.8-.1-1,0-.1,0-.1.3-.1.6-.6.2-1.2.5-1.7.7,0,.3.1.6.2.9-.2.2-.4.3-.6.5-.3,0-.3.3-.1.6l-.1.1ZM97.5,14.1c-.2.3-.4.5-.7.8v-.6l.1-.1h.4l.2-.1ZM77,20.4c0,1.3,0,2.5-.1,3.8q0,.1-.1.3v.2s0,.1-.1.2c-.4.5-.3.4-.2,1,0,.5.1.7.3.9v.2c-.2.1-.4.3-.5.3-.5.2-.6,0-1.1,0s-.7,0-1.2.2c0-1.4.9-2.6,1.6-3.9.5-.9.8-2.4,1.7-3.2h-.3ZM73.4,32.9s.2,0,.3-.1v.4s-.2-.2-.2-.3h-.1ZM74.7,31.9v.9c-.2-.3-.5-.5,0-.9ZM75.2,42.4c0,.7-.1,1.4-.2,2.1,0,0-.2.2-.3.2.2.4.2.3,0,.7l.1.1c0,.5,0,.9-.1,1.4-.4,0-.9-.3-1.1-.4,0-.6-.1-1.2-.2-1.8.2,0,.4.1.6.2,0-.3-.4-1-.5-1.3-.3-.7-.3-.9,0-1.7.5.4,0,1.1.4,1.5.1-.7.7-1,1.2-1h.1ZM74.2,41.7c-.2-.1-.4-.2-.5-.3.2-.2.3-.4.5-.6.3.1,0,.6,0,.9h0ZM68.2,47.6c.3.4.5.9.8,1.3-.6-.3-1.2-.6-1.7-.9-.8-.4-1.7-.9-2.6-1.3.4-.6.9-1.2,1.2-1.9h0c.3.2.6.5.9.8.2.2.5.5.8.8.2.4.4.7.6,1.1v.1ZM35.4,19.8s.2,0,.2.1c-.3.1-.4.3-.3.7h-.1v-.6h.2v-.3h0v.1ZM126.8,52.5c.1.2.3.4.5.5-.4,1.1-.9.1-1-.6h.5v.1ZM81.7,11v.2h0v-.2ZM89.1,24.4c-.2.1-.3.3-.5.4v-.5c.1-.2.2-.5.2-1,.2.2.4.3.5.5,0,.1,0,.4-.2.6ZM79.4,21.5h0c0-.1.7-.2,1-.2v.2c-.5.7-.6.7-1.2.3,0-.2.1-.3.1-.3h.1ZM80.2,42c-.2-.2-.2.1-.3-.4h.4c.1,0,.2.2.3.3,0,0,0,.2-.2.2h-.3l.1-.1ZM86.7,40.6c-.1,0-.4.3-.6.3-.3,0-.2-.2-.3-.6-.2-.6-.5-1.1,0-1.4.3-.2.7-.1,1,0-.8.2.6.6.8.7h0c-.2,0-.4-.1-.6,0-.3.2-.3.6-.3,1.1h-.1l.1-.1ZM91.4,40.2c.2-.3.5-.9.8-.5q.1.2.1.4c0,.7-.5.8-.9.8v-.8.1ZM101.4,39.8c-.2.1-.3.3,0,.4-.5.5-.6.7-1.2.7-.5,0-.7-.2-.8-.6h0c.2.2.4.4.6.6.2,0,.2-.3,0-.5v-.2s.2.1.3.1c.5,0,.8-.7,1.1-.5h0ZM100.9,39.2c.2-.3.3-.1.3.4,0-.1-.2-.3-.3-.4ZM98.2,38.3c0,.1.2.2.3.3-.3.2-.4.5-.4,1h-.5c0-.2,0-.3.3-.3h.1v-.5c0-.1.2-.2.3-.3l-.1-.2ZM103.2,39.7c.2,0,.4.1.6.3-.4,0-.7-.2-1.1-.1-.2,0-.6,0-.9.1.1-.1.3-.3.4-.4h0c.2.3.4,0,.8,0h.2v.1ZM102,38.8v.3c-.2.1-.4.2-.5.1.2-.4.3-.5.5-.4h0ZM104.3,42.6h0s-.2-.3-.3-.5c.1,0,.2.2.5.6h-.3l.1-.1ZM101.3,38.2c-.1.3-.2.6-.6.7-.4,0-.7-.1-1.1-.3.1-.2.3-.4.5-.5.3,0,.8,0,1.2.1h0ZM101.3,37v-.2h.2v.2h-.2ZM103,36.7h.2c0,.2,0,.3.3.6.2,0,1,0,1.2-.2h0c0,.1.2.2.3.4h0c-.2,0-.4.2-.5.3-.7.7-.5.1-1-.3h0s0-.1-.2-.2h-.5v-.4s0-.1,0,0v-.1h.3l-.1-.1ZM108.9,46.5h-.4c-.3-.3-.3-.4-.7-.6h0c.3.4.4,0,.8-.3-.1.1-.2.4-.3.5.2.1.3.2.5.3v.2l.1-.1ZM106.8,45c-.2.1-.3.2-.5.3-.1-.2-.3-.2-.5-.2h0c.1-.1.3-.2.4-.4,0,0-.2,0-.3-.1v-.1h.1s0-1-.1-1.1h0c-.2-.4-.6-.4-1-.5.2-.2.6-.8.8-.9.2,0,.8.5,1,.6.1,0,.4.2.6.3h-.3c0,.3.3.8,0,.9.1.2.3.4.4.6v.7c0,.3.5.4.3.8-.3-.3-.7-.8-1.1-.7l.2-.2ZM94.9,42.7c.1-.2.3-.4.4-.5.2-.2.3-.3.3-.4,0,.3,0,.5-.2.8,0,0,0,.1-.3.3-.1-.1-.2-.2-.3-.3l.1.1ZM78.6,46s.1.1.2.2c-.2.2-.3.4-.5.1,0-.1.2-.2.3-.3ZM79.1,39.9h.2c-.2,0-.3.3-.5.4,0-.2.1-.3.2-.5l.1.1ZM87.7,26.5q-.3,0-.3-.2s.2.1.3.2ZM77.9,26.7s.1.2.2.3c0,0-.1.1-.2.1v-.4ZM78.6,28.2h0c.2.4-.2.2-.4.3-.1,0-.2.3-.3.4v-.3s.1-.2.3-.2c.1,0,.2,0,.3-.1l.1-.1ZM84.9,24.8h0c0,.3,0,.6-.1.9-.3.3-.5.3-.4-.4,0-.3,0-.4.1-.5h.4ZM86,22.6c.1,0,.3,0,.6-.1h-.5l-.1.1ZM86.4,25.9c-.3,0-.4.6-.9.3l.1-.1c.2,0,.4,0,.7-.2h.1ZM83.5,22.3c.1,0,.2.1.3.2,0-.1.4-.5.7-.8.2.3.4.5.7.8-.1.2-.3.4-.4.7,0,0,0-.2-.1-.1,0,0-.2.1-.3.2,0,0-.1,0-.2.1,0-.2-.1-.3-.2-.4,0,0-.2,0-.2-.1v-.2h-.2s0-.2.2-.3l-.3-.1ZM84.7,20.1l.2-.1h0v.3c-.2.1-.3.3-.5.5h-.2c0-.2.1-.5.3-.7h.2ZM86,22s.1,0,.2.1c0,.2-.2.3-.3.5-.2,0-.4.1-.5.2h0c0-.6.3-.8.6-.8ZM83.4,42.2q0,.1-.1.2v-.2h.2-.1ZM79.7,40.8c-.3,0-.4.3-.7.5s-.3.2-.5,0c.3-.3.7-.6.8-.7.6-.5.8-.2,1.4,0-.1.2-.3.3-.4.5-.2,0-.4-.4-.6-.4v.1ZM79,41.9c.1.1.2.2.3.3-.2.2-.3,0-.5-.2,0,0,.1,0,.2-.2v.1ZM80.2,46c-.4.2-.7.4-1,.7,0-.1-.2-.2-.2-.3,0-.4.5-.9.9-.8v.5h.3v-.1ZM80,45.5c0-.1-.2-.2-.3-.3v-.9c.3.2.5.4.8.6-.1.2-.2.4-.4.7l-.1-.1ZM78.5,47.2c-.2.2-.3.3-.5.5v-.5h.5ZM77.5,41.8v.1h0v-.3s.1,0,.2.2h-.2ZM80.2,19.6h-.4v-.2c.1,0,.3.1.4.2ZM80.5,19.5c0,.2,0,.1.1.2,0,0-.1,0-.2.1v-.3h.1ZM93.3,39.3c0,.2,0,.4-.3.4-.2,0-.3-.2-.3-.5v-.2h.2c.2,0,.3.2.5.3h-.1ZM93.2,41.6h-1c.3-.3.5-.6.8-.9,0,.3.2.6.3.8l-.1.1ZM92.8,42.1c0,.2-.2.5-.3.7-.4,0-.8-.2-1.1-.2-.4,0-.4-.2-.5.4-.3-.3-.5-.3-.4-.8,0-.2.2-.4.2-.6,0-.4.2-.5.4-.2.2.1.4.2.5.3h.5c.2,0,.5.3.6.4h.1ZM83.3,44.4c-.1,0-.3.1-.4.2h0c-.9,0-1.8-.2-2.6-.8-.3-.3-.9-.7-.7-1.1.1-.3.5-.3.8-.4h0c.2,0,.9-.2,1.1,0,0,.1.2,1.1.3,1.3.2-.3.3-.4.4-.4.1.2.3.3.1.6.2,0,.7,0,.9.1,0,.1.2.3.3.4h-.1l-.1.1ZM80.7,45.5s0,.1.1.2h-.2v-.3l.1.1ZM77,48.5h-.1v-1.8c.3.1.5.2.8.4-.2.2-.3.5-.5.7.1,0,.3.1.4.2-.2.1-.5.4-.7.5h.1ZM73.8,48.6c-.4-.2,0-.7.2-.7h.6c0,.3,0,.7-.1,1,0,0,0-.1-.1-.2-.4-.5-.3.1-.6,0v-.1ZM87.9,8.2c0,.2.1.4.2.7h-.7c.2-.2.3-.4.5-.6v-.1ZM88.3,9.6v.2s0-.1-.1-.2h.1ZM88.9,24.8c-.1.2-.2.3-.3.3h0s.2-.2.3-.2v-.1ZM90,24.5c.3,0,.4.1.6.3-.2.2-.4.4-.6.7-.2-.1-.5-.3-.7-.4.1-.1.5-.6.7-.6ZM97.1,32.4c.3-.2.5-.4.8-.7h0c-.1.2-.3.3-.4.5.1,0,.3,0,.5.1,0,.2-.1.4-.2.5,0,0-.2-.1-.2-.2,0,0-.3-.2-.5-.3v.1ZM106.2,33.2c.2.2.4.4.6.5h0c0-.2-.2-.4-.5-.6l-.1.1ZM110.6,42.5s.1.2.2.3c-.2.2-.5.4-.5.8h-.3c.2-.3.4-.7.6-1v-.1ZM116.1,42.9h-.1v-.1s.2,0,.2.1h-.1ZM116.3,43v.2h-.1v-.1h.1v-.1ZM76.9,49.1h0v.1-.1h0ZM71.6,85.9h.3c0,.2-.1.2-.3.2v-.2ZM69.4,67.3c-.6-.5-1.2-1.1-1.8-1.5-.1-.2-.2-.6-.2-.7-.2-.6-.6-1.1-.9-1.6-.7-1-1.3-2.4-2.2-3.2,0,0-.2-.1-.2-.2v-.3c.3.4.6.4,1,.7.3.2.5.6.8.8h.4c0,.1,0,.2.1.4.3.2.4.3.8.2.2,0,.4,0,.4-.3.2-.2.1-.4-.1-.6,0-.2.1-.4.2-.6-.2-.3-.3-.6-.5-.8.8,0,1.2-.9,1.9-1.1.5-.1.7.5,1.1.7.7.3.9-.2,1.2-1s.3-.5.9-.6c.3,0,.2.2.4,0s0-.9.2-1.1c.2-.3.4,0,.6,0h0c.1.5.1,1,.2,1.4v.9c0,.5,0,1-.1,1.5-.2,1.8-.4,3.7-.5,5.5-.1,1.5-.2,3-.3,4.5v1.3c-.7-1.7-1.7-3-3-4.3h-.4ZM66.8,56.9c.2-.3.2-.2.4,0-.2.2-.3.3-.4,0ZM62.1,46.1c.3.3-.3.3-.6.4-.2-.2-.4-.5-.6-.7.2,0,1,.1,1.2.3h0ZM45.6,22.9h0c-.2.1-.3.1-.4.1.1,0,.2,0,.3-.1h.1ZM32.5,23.8c.2.2.4.2.4.6h0c-.2,0-.3-.1-.4-.2,0-.1,0-.2.1-.3h0l-.1-.1ZM64.4,57.5h.1s-.1.1-.2.2v-.3l.1.1ZM62.9,54.4h-.3v-.3s.1.1.2.2h0l.1.1ZM33.4,24.3h-.1c0-.1.1-.3.2-.5v.5h-.1ZM47.2,35.6c.3,0,.5.2.7.3v.7h-.6c0-.4.2-.8-.2-1.1l.1.1ZM49.4,31.8l.2-.2c.1,0,.3.1.4.2-.2.2-.5.4-.7.6v-.5l.1-.1ZM50.1,31.2v.2h-.2v-.2h.2ZM50.7,31.1v.1h0v-.1ZM49,49h.1-.5c-.2-.2-.3-.3-.4-.6,0,0,.2.1.3.1.2-.1.3-.2.5-.3.1.2.3.2.4.2h0c-.2.2-.3.3-.5.4l.1.2ZM38.2,50.5c-.1,0-.3.1-.4.2v-.3h.2s.2,0,.2.1ZM48.4,38.7c.4,0,.7.3.7.7-.2,0-.7.1-.9,0s-.2-.7.2-.7ZM49.8,41.5c.3,0,.6.5.9.8-.4,0-.8.2-1.1.1-.2,0-.4-.3-.6-.3s-.4.3-.6.4c-.2,0-.4-.1-.7-.2.1-.3.8-.1,1-.2.3-.1.6-.6,1-.6h.1ZM48.3,36.6v-.6c.2.1.5.2.7.3-.2.2-.4.3-.6.3h-.1ZM57.6,49.1c.5,0,1,.1,1.2.6-.6.1-1.2.2-1.8.3,0-.1-.1-.3-.2-.4h0c.3-.2.7-.4.9-.4l-.1-.1ZM64.1,57.9c-.1.1-.2.3-.2.4q-.2-.4-.7-.3h0c0-.1.2-.3.2-.3.1,0,.7.2.7.2h0ZM60.6,60.4s0-.2.2-.3c.3.3.1.3-.2.3ZM45.6,39.5c.5.4.8-.6,1.3,0-.3.3-.5.5-.8.8q-.2,0,0,0c-.3,0-.3-.4-.4-.7l-.1-.1ZM46,38.7c0-.6,0-.7.4-.8.2,0,1,0,.9.3-.6,0-.8.1-1.3.5h0ZM47.3,37.2c0-.1-.2-.3-.3-.4.1,0,.2,0,.4-.1v.5h-.1ZM40.6,32.6c-.1-.2.6-.4.7-.4,0,.2-.5.8-.7.4ZM41.7,32.7c0,.3-.4.3-.5,0h.5ZM32.1,25c0-.1,0-.2.1-.3.2.4.3.6,0,1,0,0-.1-.2-.2-.3v-.4h.1ZM41.9,22c.1,0,.3.1.4.3v.2h0c-.2,0-.3-.3-.4-.5ZM66.9,65.2c-.6-.4-1.3-.8-1.9-1.1-.5-.2-1-.2-1.5-.5s-1-.8-1.5-1.2c-.1-.7-.3-1.4.4-1.5v-.3c.3,0,1.3.2,1.5-.1h0c.3.3.6.6.8.9.7,1.1,1.6,2.3,2.1,3.6v.3l.1-.1ZM59.7,60.9h.4v.2c-.1,0-.2-.1-.3-.2h-.1ZM44.8,36.6s0,.1.1.2c-1-.3-2-.6-2.9-1,.2-.1.4-.3.5-.3.2,0,.4.1.5.1.3,0,.7-.1,1-.2.7-.2,1.5.5.8,1.2h0ZM41.3,35.4c-.1,0-.2-.1-.4-.1h.6-.2v.1ZM40.8,32.9c0,.2-.2.2-.3,0h.3ZM71.3,51.6h-.5c.2.8.2,1.1.8,1.5.3.2.5.5.6.8-.3,0-.6-.2-1-.2-.6,0-.8.2-1.1.9-.6-.6-.9-1-.5-2.1h-.7c-.2-.1-.3-.2-.5-.3-.3,0-.5.4-.8.8.2,0,.4.2.5.2-.3.2-.5.4-.8.4,0-.4,0-.5-.3-.3-.2,0-.3,0-.5.1s-.6.4-.5.9c.3,0,.4.1.4.4,0,.2,0,.3.2.3,0-.2.2-.4.2-.6,0,.7.5.3.9.2.3-.2.2-.4.6-.3.3.1.4,0,.2.5.6.1.9,0,1.5.5-.4,0-.8.2-1.3.2-.4,0-.8-.5-1.2-.5-.1,0-.3.1-.3.1-.3.2-.2.4-.5.6-.6.4-.6-.3-1-.4-.4-.2-.2-.2-.7,0-.2,0-.4.2-.5.3,0-.3-.2-.6-.5-.8-.2-.2-.4-.2-.6-.3,0-.3-.1-.5-.2-.8.4.1.6.1.8,0h0s.2,0,.3-.2h0v-.5c0,.1-.2.2-.2.3-.4-.2-.8-.5-1.2-.7v.6c0-.6,0-1.2-.5-1.5-.2-.1-.4-.1-.6-.1-.1,0-.2-.1-.3-.2h0c-.1-.1-.3-.2-.2-.2-.1-.2-.2-.3-.4-.6-.3.3-.3.4-.3.6h-.4c0-.1-.1-.2-.2-.3l-.1.1c-.2-.1-.3-.2-.5-.3h.6c-.2-.6,0-.6.2-1.1.2-.3.7-.5.6-.8-.1,0-.5.2-.6.2,0,0-.3-.7-.4-.8.1,0,.7-.3.8-.5v-.3c.2-.4.3-.5.7-.6,0,.2-.3,1-.2,1.2.1.3.3.2.5.2s.6-.5.8-.5.3.7.5.7.3-.4.5-.4.5.5.7.5c.1,0,.5-.8.7-1.2,1.3.7,2.6,1.4,3.9,2,.7.4,1.3.9,2,1.4.1.1.2.1.3.2.3.3.5.6.6.9l-.3-.2ZM68.9,53.7c.1,0,.2,0,.2.3-.2.2-.2,0-.2-.3ZM73.5,52.6v-.3c.2,0,.4.1.6.2,0,.3,0,.7-.1,1-.2-.3-.3-.5-.5-.8v-.1h0ZM74.6,40.5c.3-.2.6-.4.9-.6v.5c-.2.3-.3.3-.8,0l-.1.1ZM76,31.1c-.4-.3-.4-.4-.3-.9.2,0,.4-.1.6-.2v.4c-.2,0-.2.6-.3.7ZM75.8,33.1c0,.2,0,.4-.2.4,0-.2,0-.4.2-.4ZM75.2,33c-.2-.2-.3-.4-.5-.6h.9c-.1.2-.3.4-.4.5v.1ZM75,33.8h-.3v-.6c.1.2.2.3.3.5v.1ZM77.9,21h.3c0,.1-.2.1-.2.3-.3.7,0,.9.4,1.4.5.8.3.8-.2.7,0,0,0-.1-.2-.2v-2.1l-.1-.1ZM85.8,6.6c-.2,0-.3-.2-.3-.4.1.1.3.2.3.4ZM88.9,8.4h-.2c-.1-.3-.3-.5-.3-.8.3,0,.5.3.6.8h-.1ZM92.7,28.2h0c-.2,0-.4,0-.5.2v.2c-.1,0-.2,0-.3-.2.3-.4.5-.8.8-1.2.2.6.3.4,0,.9v.1ZM97.2,31.6h0s-.1.1-.2.2c0,0,.1-.1.2-.2ZM108.4,32.2c0-.3,0-.5.3-.4,0,.5,0,.6-.3.4ZM109.4,32.6v.7c0-.1-.1-.2-.3,0h0c-.2-.2-.1-.8.1-1.1h0c0,.1.2.3.4.4h-.2ZM113.3,41.6c.5.1,1.1.4,1.6.6h.2v.3c0,.1.1.3.1.4h-.1c.1-.3-.5-.5-.7-.5-.4.1-.8.9-1.2,1.2-.2-.3-.4-.6-.6-.9-.3-.5-.7-.5-1.1-.5-.1-.2-.3-.3-.6-.3.1-.1.2-.3.3-.3.4-.3,1.6-.4,2-.3l.1.3ZM124.2,34.9c-.2,0-.7-.2-1,0-.1,0-.2.1-.2.2-.1-.3-.1-.5-.2-.9,0,0,0-.1-.1-.2h.1c.1,0,.3,0,.4.1.1.1.9.6.9.8h.1ZM126.4,50.6c0,.1-.1.2-.1.5,0,.4.2.8.4,1.1-.2-.1-.4-.3-.4-.6v-.7c0-.1.1-.2.2-.4l-.1.1ZM128.2,54.1c0,.1.2.2.2.3h-.3v-.4l.1.1ZM129.1,55v.2c.1.2,0,.3.3.5-.1-.2-.2-.3-.5-.3-.1,0-.5.2-.5.2-.2,0-.3-.1-.3-.2h0v-.1c.2-.2.2-.4.2-.7h.3v.6s.2-.2.3-.2h.2v.1-.1ZM131.2,57.1h0v.1h0v-.1ZM129.8,56s-.1-.1-.2-.2l-.1-.1c.1,0,.3.1.4.2v.2l-.1-.1ZM109.8,51h-1.2c.2-.3.5-.6.5-1,0-.3,0-.5-.2-.7.1,0,.3,0,.4-.1.1-.1.2-.2.2-.3h0c.3.2.5.8.7,1.1.3.4.3.6.3.8-.3,0-.5.1-.8.2h.1ZM104.2,53.1h-.4c0-.1.2-.2.2-.3h0v.3h.2ZM98,50c-.3.3-.6.3-1,0,.4-.6.4-.4,1,0ZM97.2,50.9c-.2.8-.1,1.1-.8,1.3v-1.4c.3,0,.5.1.8.2v-.1ZM92.5,47.1c0,.2-.1.4-.2.5v-.3s0-.2.2-.2h.1-.1ZM88.8,52.4c-.2,0-.9.4-1.1.2q.5-.7,1.1-.2ZM84.6,54.1c-.2-.6.5-.6.6-1.1.4.8.2,1.1-.6,1.1ZM79.8,49.4s.4-.6.5-.6.6.8.7.9c-.5.4-.7,0-1.2-.3h0ZM81.1,54.4c-.2.2-.5.4-.7.6,0-.4-.1-.7-.2-1.1.5,0,.7-.1.9.4v.1ZM68.4,85.8c.3.4.6.3.6,1-.3-.1-2-.4-1.2-.9-.5-.4-.6-.4-.6-1.1l1.2-.3c-.2.6-.4.8,0,1.3ZM62.1,84.6l-.1-.2c.3-.2.7-.5,1-.7,0,.3-.5,1.2-.9.8v.1ZM57,85.7c.1.1.1.4,0,.6-.2.3-.4,0-.7,0,.2-.2.5-.3.7-.5v-.1ZM53.6,68.4v-1.2c.5.1,1,.3,1.4.4-.4.3-.9.5-1.4.8ZM50.1,68.9h0s0-.1-.1-.2c.4-.5.7-.6,1.4-.6-.5.1-.8.7-1.2.9l-.1-.1ZM11.3,70.1v-.5c.2,0,.4,0,.5-.1,0,.1,0,.2.1.3-.1.2-.3.4-.6.4v-.1ZM12.1,68.2c.2,0,.3,0,.3.3h0c-.2-.1-.3-.3-.6,0,0-.1-.1-.2-.2-.2,0,0,.2.1.3,0,.2,0,.1-.1.1-.2l.1.1ZM21.1,74.4h-.2l.2-.2c.2-.2.2-.3.3-.5h.1c0,.2.2.4.4.4q.3,0,.3-.2s.1.1.2.2v.3c.6-.1.6.8.5,1.4h-.1v-.3c-.2-.4-.3-.2-.5,0-.4-.3-.8-.7-1.3-.8l.1-.3ZM25.6,78.4h0c-.2-.2-.4-.5-.6-.8.1,0,.2,0,.4-.2,0,0,0-.1-.1-.2.5,0,.9.8,1.3,0,0-.2.1-.5.2-.7v.1c0-.2.2-.3.2-.5.4.1.8.3,1.2.4v.6h.6c.2,0,.3,0,.4.3,0,.4.2.4.4.2.3,0,.4-.2.2-.6v-.1l.1.1v.4h.5c-.3.2-.7.5-.8.6-.4.2-.8.5-1.2.6-.9-.2-1.9-.3-2.8-.4v.2ZM54.2,75c.2.2,0,.5.2.8-.2,0-.4.2-.7.2,0-.4,0-1.5.5-1ZM38.1,79.5c-.1-.2-.3-.6-.4-.7-.2-.2-.9,0-1.2,0,0-.1.1-.3.2-.4.3.4.6,0,1-.3,0,0,.1,0,.2-.1h.1c.3,0,.4.1.3.5v.9h-.3l.1.1ZM40.7,79.1v.2s-.1-.2,0-.2ZM36.2,77.8c.3-.1.6-.2,1-.3h.1c-.2.2-.4.3-.6.5-.2,0-.3-.2-.5-.3v.1ZM36.4,77.4c-.4,0-.63-.27-.7-.8.3.3.5.5.7.8ZM47.2,68.5v.1c-.3,0-.3.3-.2.6-.6.3-1.3.4-1.7-.2.6-.4,1.2-.5,1.9-.6v.1ZM58,71.2c.2,0,1.2-.5,1.3-.2.3-.3.5-.6.8-.5.2,0,.7.9.9,1.1-.6.2-1.2.6-1.8.5-.6,0-.8-.5-1.3-.9h.1ZM44.8,79.6c.2.3.4.6.5,1h-1.1c-.1,0-.2,0-.3-.1-.1-.5-.2-1.1-.3-1.6-.8-.7-.4-2,.2-1,.3.6.1,1.4.3,2.1.3-.7.6-1.3.9-2,.3.4,1,1,.5,1.6-.1.1-.5.1-.7.2v-.2ZM42.8,80.9c-.6.2-1.1.4-1.7.5-.4,0-.8.1-1.2.1,0,0,.2-.2.3-.2.3-.1.7,0,1-.2.3,0,.6-.2.9-.3h.5s.1.1.2.2v-.1ZM26.1,78.8h0c.4,0,.8,0,1.2.1-.5,0-1,0-1.2-.1ZM22.3,78h0c-.5,0-.9-.2-1.3-.5,0-.4,0-.8-.2-1.1-.1-.3-.3-.5-.5-.8v-.2c0-.1-.2-.2-.2-.3,0-.3.1-.6.2-.9.5.2,1,.5,1.4.8,0,.1-.1.2-.4.2-.1,0-.5-.2-.6-.1-.3.4.3,1.5.5,1.8,0-.1.2-.2.3-.3.1.2.2.4.3.7.3-.7.3-.6.9-.4v-.8h0c0,.2-.1.3,0,.7,0,.3.1.6.2.9v.2c-.3-.2-.7-.5-.6,0v.1ZM13.6,73.5c.2,0,.8-.3,1-.2s.2,0,0,.4c-.4.3-.5,0-.9-.2h-.1ZM11.4,71c-.1,0-.2,0-.4-.1l.1-.2v-.2c0,.2,0,.4.2.6l.1-.1ZM13.8,62.6l-.2-.1c.3-.3.6-.6,1-.8,0,.3-.4,1.3-.8,1v-.1ZM17.8,65.3h.3l-.1.1h-.1l-.1-.1ZM20,61.4c0,.3-.1.6-.1.8-.3.2-.6.3-.8.5-.1-.1-.2-.3-.2-.7.4-.2.8-.3,1.2-.5l-.1-.1ZM25.8,60.9h0c0,.1.1.2.2.4v.5s-.1,0,0,.1h0c-.2-.4-.2-.7,0-1h-.2ZM30.4,60.1h-.2c0-.2-.2-.3-.3-.5.6,0,.6.2.4.6l.1-.1ZM31.7,60.3c-.1.2-.2.3-.3.4h0c.1-.3.1-.5.4-.3l-.1-.1ZM46.8,62.8q.4,0,.8.3c.5.5.4.8.4,1.7.5,0,.9-.1,1.4-.2-.3-2.2.8-.9,1.7-1.9.3-.4.5-1,.7-1.4.4.3.8.6,1.2.9v.2h1.6s-.1.2-.2.3c.6.3.8.5,1.2.3.1.1.2.4.3.9.5-.9,1.8.1,1.1-1.5,0,0,.3-.4.5-.7,0,0,.1,0,.2-.1.2,0,.3-.1.5-.2.7.5,1.4,1,2.1,1.4.9.5,1.7,1.4,2.5,2,.5.3,1,.4,1.5.6,1.5.6,3,1.9,4.2,3.1.8.8,1.6,1.7,2.2,2.9.5,1.1.7,2.2,1,3.5.1.6.3,1.1.4,1.7v2.5c-.1-.1-.2-.3-.3-.4-1.6-1.6-3.3-3.7-5.1-4.9-.7-.5-1.5-.6-2.3-.5-.4,0-.9.3-1.3.3-.3,0-.6-.1-1-.3,0-.1.2-.3.3-.4-.2,0-.5-.2-.7-.4.1-.4,0-.6-.2-.5v-.3c0-.8.4-.9.8-.4.2-.4.4-.8.7-1.2-.3-.2-.8-.3-1-.6-.2-.2-.4-.9-.6-1.2-.5.6,0,1.1-.2,1.8s-.4.4-.8.4c-.2,0-.6.3-.8.2-.3-.1-.3-.6-.4-1-.5.3-.5.5-.8,0-.5-.7,0-.9.3-1.3-.4-.2-.9.1-1.3-.1-.7-.4-.1-1,.2-1.5-.3,0-.8,0-1.1-.2s-.7-.8-1-1.1c-.3-.2-.8-.8-1.1-.8-.4,0-.9.8-1.2,1-.2.3-.4.3-.7.2-.3.1-.5,0-.4-.4,0-.3,0-.5-.3-.6-.2-.2-.4-.4-.7-.5-.2-.3-.3-.4-.5-.1,0,.2.1.5.2.7.3.5.5.3,1,.3,0,.7-.2.6-.7.9-.3.2-.7.5-1.1.6-.4,0-.6-.3-1-.4-.9-.2-.2.3-.5.8-.2.3-.9,0-1.1.3v.7c-.4,0-.7-.1-1.1-.5v-.2c.2-.1.4-.3.6-.4-.1-.2-.2-.4-.4-.7.2-.1.3-.2.5-.4-.2,0-1-.3-1.1-.5,0-.2,0-1.2.1-1.4-.1.1-.2.1-.3.2.2-.2.2-.5.3-.8.2-.3.4-.5.7-.5l.1-.2ZM35.7,53.9h.3c.3,0,.8.2,1,.2s.3-.2.5-.3h.2v.4h-.6c-.5,0-1-.1-1.4-.2v-.1ZM32.4,53.9c0-.3-.1-.4-.2-.5h.5c-.1.2-.3.4-.3.4v.1ZM28.7,53.1c.1-.1.2,0,.3,0,0,.2-.1.6-.3.6v-.6ZM27.4,50.1c.7.2,1.4.2,2.1.5.7.3,1.1,1.1,1.7,1.5.4.3.5.3.9.3s.5-.1.9-.3c0-.1.2-.2.2-.3.2,0,.4.2.6.2q.4.1.7.6c0,.2.2.8.3,1.1-.6,0-1.1-.2-1.7-.3,0-.2,0-.4-.1-.4,0,0-.2.2-.3.3h-.5c-.2-.4-.6-.6-1-.4-.5.2-.5.5-1,.3-.3,0-.6-.4-.8-.6.1-.2.2-.4.4-.6-.5-.3-1-.5-1.5-.9-.2-.2-.5-.6-.8-1h-.1ZM26.3,44.6s.3.1.6.2c0,0-.1.2-.2.3,0,0-.2-.1-.2-.2,0,.2-.1.2-.2.2v-.5h0ZM39.6,44.3v-.3c.8.1.6.3,0,.3ZM42.1,36.7s-.1-.2-.2-.2c0-.2-.2-.4-.3-.5,0,0,.2-.1.3-.2,1,.5,2.1.9,3.1,1.3,0,.4-.2.8-.2,1.3-.2-.2-.5-.5-.8-.7q-.4-.2-.9,0c.2.4,0,.6-.2.8,0,0-.2.3-.3.3,0,0-.6-.4-.6-.5-.1-.5-.3-.9-.2-1.3.1-.1.2-.2.3-.3h0ZM40.8,38.7c.3,0,.6.2.9.3,0,.2,0,.4-.1.5-.3-.3-.5-.5-.8-.8h0ZM40.8,35.3h.1c.1,0,.2.1.4.2-.2,0-.4,0-.5-.2ZM40.3,34.6c.6,0,.3.4.4.6-.3,0-.4-.3-.4-.6ZM39.9,33.9c.2-.1.4-.3.7-.4-.13.47-.37.6-.7.4ZM36.8,33.7c.3-.2.6-.3.9-.5-.1.2-.3.4-.4.7-.2,0-.4-.1-.6-.2h.1ZM33.7,33.4h-.2v-.3c0,.1.1.2.2.4v-.1ZM27.2,32.2c.1-.2.2-.4.3-.6.1,0,.3.1.4.2h0c0,.3,0,.5.2.8-.2.2-.4.3-.5.5,0-.3-.2-.6-.4-.8v-.1ZM26,32.7l.2.2c.3.5.4.4.4,1-.2-.4-.4-.8-.6-1.2h0ZM25.7,28.2h-.7c0-.2.2-.4.2-.5.2.2.4.2.4.5h.1ZM25.7,31.5c.1,0,.4-.5.5-.6h.4s-.2.2-.3.3c.1,0,.2-.2.4-.3h0c-.4.3-1,.7-.9,1.4v.1-.1c0-.3-.1-.5-.2-.8h.2-.1ZM26.2,27.1h-.2c0-.1-.1-.3-.2-.4.3-.1.3,0,.4.3v.1ZM28.2,23.6c-.2,0-.3,0-.5.1h0v-.1c.2-.2.3,0,.4,0h.1ZM44,21.2h-.1.2-.1ZM45.4,21.5h-.7c0-.1,0-.2.1-.3.2,0,.4,0,.6.3h0ZM52.9,24.5h0c-.1,0-.3-.1-.4-.2v-.3c.1.2.3.3.4.5ZM73.1,38.5c.3,0,.8-.2,1,0,.3.1.3.3.5.6-.3.1-.8.4-1.1.4-.2.2-.4.1-.3-.3,0-.2-.1-.5-.1-.7h0ZM72.3,36.2c0-.2-.1-.6-.1-.8.5.1.4.1.8-.1.2-.1.7-.5.8-.7.3-.5.2-.9,0-1.2.1-.3.2-.5.5-.2.2.2,0,.6,0,.8.4-.1.6.3.8.7v-.5c.2.2.5.4.7.6-.2,0-.4,0-.6.1.4,1.2,0,.5-.4.4-.2,0-.3.1-.5.1s-.6-.2-.8-.3v.5h-.1c-.4.2-.2.6-.8.8-.9.2-.2,0-.2-.4l-.1.2ZM72.8,27.2c0-.4-.6-.5-.3-.9.2.1.4.3.6.4,0,.2-.2.3-.2.5,0,.3-.2.8-.6.7.1-.2.4-.5.4-.6l.1-.1ZM71.8,30.7c.4-.3.9-.7,1.3-1-.1.3-.2.6-.3.8-.4.2-.7.4-1,.2ZM69.6,30.1c.4-.2.8-.5,1.1-.3,0,.2.1.3.2.5.2,0,.4,0,.7.1-.1.3-.3.6-.4.9-.2,0-.3,0-.3-.1-.6-.2-1-.4-1.2-1l-.1-.1ZM69,27.9c.2-.3.6-1.1,1-.9.2.1,0,1.1,0,1.4h-.6v-.3c-.3-.2.1-.2-.5-.2h.1ZM69.5,24.2c0,.2,0,.5-.1.7-.5-.3-.9-.5-1.4-.8,0,.3.1.7.2,1-.8,0-.2-.9-.7-1.1.4-.2.8-.3,1.2-.2.4,0,.5.6.9.2l-.1.2ZM73.1,21c-.3.6-.5.8-.2,1.2.5-.6.6-.5,1.4-.4-.2.2-.5.9-.7,1-.3.2-.6,0-.9-.2-.6-.2-1.2-.7-1.9-.2.1,0,0,.1.1.2h-.2c0,.2,0,.4.1.6,0,.1-.1.2-.2.3-.5-.6-1,.4-1.5,0-.3-.2-.1-.6,0-1,.2,0,.4.1.6.1.4,0,.3,0,.4-.6-.3-.1-.5,0-.7,0v-.1c.6-.7,1-1.2,1.8-1.2.7,0,1.2.2,1.9.3h0ZM72.5,15c-.4-.3-.8-.6-1.2-.8,0-.1-.2-.2-.2-.3v.2c-.2-.1-.4-.3-.5-.4,0-.1.2-.3.2-.4-.2-.2-.5-.4-.7-.6.4,0,1.2,0,1.4-.1.5.3,1.1.4,1.7.4,0,0-.1.2,0,.2,0,0,.2.2.4.4,0,0,.1,0,.2.1.2.1.3.2.4.3-.8.3-.9.4-1.4,1.1l-.3-.1ZM69.3,9.7h0c.3-.2.4-.5.7-.5.2,0,.4.3.7.4h0c-.4.2-1.2.6-1.5.2l.1-.1ZM70,12.7v.6h0c-.4-.4-.3-.5,0-.6ZM72.5,11.4c.2-.2.4-.2.6.4,0,0,0,.2.2.4h-.6c.2-.5,0-.4-.2-.7v-.1ZM71.7,15c.4-.2.5-.2.4.1-.1,0-.3,0-.4-.1ZM71.7,15s0,.2-.1.2c-.2,0-.2-.2.1-.2ZM68.4,9.6v-.1l.2.1h-.2ZM72.7,7.7c-.2,0-.4,0-.5.2-.4.3-.7.7-.9,1.2-.2-.2-.3-.5-.5-.6-.3-.1-.4,0-.7,0s-.2,0-.4-.2c-.3-.2-.7-.4-1-.5v-.8c-.1,0-.3,0-.4.2,0-.4.2-1,.5-1.1h.2c.2.1.4.2.6.3h.2c.2,0,.3.2.5.6.4-.2.2-.5,0-.8.2,0,.4-.2.6-.2.8.1,1,1.8,1.8,1.8v-.1ZM76.5,15.9c.3-.1.4-.2.5-.4v.5c-.2.4-.4.7-.6,1.1,0-.1.4-.6.6-.9v1.7c-.2.5-.9,1.9-1.3,1.9-1,.1.6-2.1.7-2.6-.2.2-1,1.1-1.3,1.2-.2,0-.5-.2-.6-.3-.5-.2-.9-.4-1.4-.6,0-.3,0-1.3.7-1.2.2,0,0,.6.3.6.1,0,.6-.3.8-.4.6-.3,1.2-.5,1.7-.8l-.1.2ZM75.9,10.8c.6,0,.8-.2.9.3-.3.2-.6.5-1,.7v-1h.1ZM77.7,14.7v.1h0v-.1ZM78.4,14.8c-.2.4-.3.6-.5,1-.2-.4-.03-.73.5-1ZM78.6,20.1s.4-.2.6-.2c-.2.2-.4.4-.6.5v-.3ZM80.8,11.1c.3,0,.5.5.4.8,0,.3-.5.4-.8.6.1-.5.3-1,.4-1.5v.1ZM82.9,8.2v-.1s-.1-.1-.2-.1v-.2q.3.2.2.5v-.1ZM83.1,7.9c0-.1.1-.2.2-.3,0,0,0,.2.1.2h-.3v.1ZM84.5,7.3c0,.3-.3.4-.6.5v-.4h-.5c.2-.3.3-.5.7-.8.2,0,.2.1.2.1.2.1.3.3.2.6h0ZM85.2,5.1c-.1.3-.2-.5-.2-.6.2,0,.2.4.2.6ZM86.3,6c0,.1-.2.3-.2.4,0-.1-.2-.3-.3-.6.2,0,.3,0,.5.1v.1ZM89.4,6.4c0-.3-.5-2,.1-1.6.3.2.4,2.1-.1,1.6ZM89.3,8.3s0,.1-.1.2c-.1.2-.2.4-.4.6h0v-.3h0c.2-.1.4-.3.5-.4v-.1ZM103.2,10.8s-.2,0-.3.1h.2l.1-.1ZM99.1,10.5v.2h0s0-.2-.1-.2h.1ZM100.6,10.4v.4s-.2-.1-.3-.2c0,0,.1,0,.2-.2h.1ZM99.7,13.2q.1-.2.2-.2h0l.2.1c-.2.1-.3.3-.4.2v-.1ZM94.5,19.8c0-.4,0-.7.5-.8,0-.5-.2-1.1-.3-1.7q0-.5.2-1c.1-.3.5-1.3.7-1.4s.7.1.9.1c-.4.5-.6.6-.4,1.3.1.4.5.8.8,1-.8.8-1.6,1.6-2.4,2.5ZM92.1,22v-1.1c-.1,0-.3.1-.4.2,0-.3.2-.7.4-1,0,.2,0,.5.1.7.2.2.4.4.6.7h0c-.2.2-.5.4-.7.6v-.1ZM108.3,31.2h.1s-.2.1-.3.2c0,0,0,.3-.2.5-.1.1-.4.2-.6.2,0,0,.1,0,.2-.3h-.3s.1-.2.2-.2c.3-.1.6-.3.9-.4h0ZM111.1,30.7c0,.2,0,.4-.1.7h0c-.5-.1-.5-.2-.5-.8.2,0,.5,0,.7.1h-.1ZM110.9,30.2h.1v.4c0-.1,0-.3-.2-.3l.1-.1ZM112.6,29c.1.6,0,1.4-.4,1.8,0-.2-.1-.3,0-.7h-1v-.6c.1.9.8.2,1.2,0-.2-.4-.1-.5.1-.7.2.4,0,.3,0,.2h.1ZM112.7,30.9c.2-.3.3-.7.6-.8,0,.2,0,.3.1.5-.2,0-.5.2-.7.3h0ZM113.8,28.7c-.5.3-.4,1-.7,1,0-.3,0-.4-.2-.3.2-.9.2-1,.8-1.3s.7-.3,1.2.2c-.2.3-.3.2-.2.1-.3.2-.6.2-.9.3h0ZM113.9,29.8c-.1.3-.3,0-.5,0h.5ZM116.2,30.9c-.4,0-.7.2-1.1.2.1-.2.3-.4.4-.6.2.2.6-.1.7.3v.1ZM120.7,31.6c0-.2-.2-.3-.2-.5.2-.2.3,0,.2.5ZM120.9,31.8c-.2,0,0,.2,0,.3h-.2c-.6,0-1.2,0-1.8-.4v-.4c.4,0,.3,0,.2.1.3.1.5.4.8.5.4.2.9-.5,1.1-.2l-.1.1ZM122,31.3c-.2,0-.7.3-.9,0,.4-.6.4-.4.9,0ZM122.7,32.1c-.2.1-.8.8-.9.8h0c-.1,0-.3-.4-.5-.6.2-.1.3-.3.4-.4.4-.2,1.1-.4,1,.2ZM123.4,31c-.2.2-.4.3-.6.5,0-.4.3-.9.6-.5ZM126.1,32.5v.1c-.2.2-.4.3-.6.3v.3c-.2,0-.3,0-.5-.2.3-.3,1-1.1,1.1-.6v.1ZM130.8,29.3c-.2.4-.4,0-.7-.2,0,.1,0,.2-.1.3-.2-.2-.5-.4-.6-.5.2,0,.8.2.9,0,.2.2.3.3.5.5v-.1ZM131.3,30.1h-.7s-.1-.2-.2-.2c0,0,.2-.2.3-.3.2.2.6,0,.6.5h0ZM127.4,35.8c0,.2-.1.2-.2.3v-.1s.1,0,.2-.1v-.1ZM125.9,36.1c.1-.1.2-.3.3-.4v.3h-.4l.1.1ZM125,37.1c0-.2,0-.5.1-.7.2.3.2.8-.1.7ZM123.7,35.4s0-.2.1-.3c.2.1.4.2.6.3.1-.2,0-.4-.2-.5q.3,0,.4-.3h.2c.2.2.6,0,.9,0h.3c-.2.9-.9,1.9-1.2,1,0,.9-.3.5-.8.3-.3-.2-.4-.3-.4-.6l.1.1ZM117.3,38.9c.3-.6,1.1-.6,1.8-.4-.1.1-.2.3-.5.5.3.4.7.1,1-.2.1,0,.2.2.3.3h-.3.3-.3c-.8,0-1.6,0-2.3-.3v.1ZM127,50.1c-.2.1-.4.2-.6.4,0-.2.1-.3,0-.4,0,0-.2-.2-.3-.2.2,0,.4,0,.8.3l.1-.1ZM128.2,49.5c-.3.2-.6.3-.8.5q.2-.7.8-.5ZM132.8,56.7c-.4-.3-.7-.5-1.3,0-.1-.4-.2-.6-.2-.9,0,0,.2-.2.3-.2.6,0,1,.5,1.1,1.1h.1ZM125.6,55.9c.3-.5.3-.4.7-.1-.2,0-.5,0-.7.1ZM123.6,56c.2-.2.4-.3.7-.5.4-.2.5-.1.7,0-.5.2-1,.3-1.5.4l.1.1ZM118.5,56c0-.3.1-.6.2-.7h1c0-.2-.2-.3-.3-.5l.1-.1c.2,0,.4-.1.4-.1,1-.1,1.6.4,2.1,1.4-.5.4-.6-.7-1.1-.2v.2h-2.4ZM114.3,55.4c-.6-.1-1.1-.3-1.6-.4.1,0,.2-.2.4-.5.3-.5.7-1.8.1-2.1-.2-.2-.8.2-1,0-.3-.4,0-.5.3-.6h0s0-.1.1-.2c.5-.2.9-.1,1.4,0,.2.4.4.8.5,1.1h.1s0,.1.1.2c0,0,.2,0,.4-.1.2,0,.3,0,.4.2v1.3c.3-.4.5-.3.7-.2h0c-.1,0-.2.1-.3.2.6.4.7.5.5,1.3-.8-.1-1.5-.2-2.3-.4l.2.2ZM107.3,53.6c-.6-.1-1.1-.3-1.7-.4,0-.1.1-.2.2-.3.1-.1.3,0,.5-.2.4-.2.7-.7,1.1-.9.2-.1.5-.2.7-.3.8,0,1.6,0,2.3-.1h.2c0,.4,0,.9-.1,1.3.8,0,.6,1,.5,1.8-1.2-.3-2.4-.7-3.7-.9h0ZM92.2,58.8c-.4,0-.8-.2-1.3-.3h.5c-1.2-.4-2.8,0-4,.9h-.1c-.1,0-.2.2-.4.3-.1.1-.3.2-.4.3-1.4,1.4-2.8,2.6-4.3,3.9h0s-.2.1-.3.2c-.7.4-1.4.5-2.2.8-.5.2-1,.5-1.4.8h0l-.1.1c-.4.3-.7.6-1.1.9-.2.2-.3.5-.5.7-.3.4-.7.8-.8,1.1,0-1.7.1-3.3.2-5,.1-2.7.3-5.5.4-8.2v-1.7c0-.2,0-.4.1-.6.3.2.5.4.7.7.1.3.2.7.3,1-.1.2-.1.3,0,.5,0,0,0,.2.1.3,0,.6-.2,1.3-.6,1.5-.5.2-.5-.3-.6.6h.6c.2.1.4.3.6.4.2,0,.6-.2.8-.3.3-.2.9-.8,1.3-.7.4.2.2.7.8.5.3,0,.5-.2.6-.6.1-.3.2-.5,0-.8,0-.4-.2-.5-.4-.2-.1.1-.3.2-.4.3,0-.9.5-.7.9-1.1.2-.2.2-.6.4-.9.2-.2.4-.4.7-.5-.1-.2-.4-.7-.1-.9.2-.1.2.2.4.2,0,0,.3-.3.4-.3.1.7.6,1.8.9,2.1.2.2.6.9.8.9s.7-.7.8-.8c-.2,0,.3-1.5.4-1.6.5-.3.5.5,1,.4.2,0,.3-.2.5-.4.3-.4.3-.2.6-.5h.3v-.3c0-.2,0-.3.1-.3s.2,0,.4-.1c-.3-1,.3-2.6,1.1-3.1,0,0,0,.2.3,0v-.1c.2,0,.3-.2.5-.1-.2,0-.3,0-.5.1.6.6,0,.9,0,1.5,0,.5.2.3.4.7s0,.4,0,.9c.7.4,1.1.9,1.8.4.3-.2-.3-.3.4-.4.2,0,.7,0,.9.1.4,0,.5.1.8-.2.2-.3.2-.9.5-.8.7,0,.4,1,0,1.3.3-.2.7.4.9.7.5.6.5.7,1,.3-.2-.3-.4-.6-.6-.8.4-.2.6-.3,1-.2,0,0,.7.4.7.1,0,0-.4-.7-.4-.9-.1-.4-.1-.9-.1-1.3.4.3.4.5.7.1,0-.2.2-.4.3-.6.2,0,.4,0,.6-.1.5-.3.4-.7.4-1.3h0c0,.3,0,.5.2.7.1.1.7.4.9.4.5,0,.7-.8,1.2-.9,0,.2-.1.3,0,.5.2.3.5.2.7.2s.4-.1.5-.2c.4.4.9.8,1.5.9,0,.2-.4.6-.5.8v.4c-.4.1-.8.3-1.1.6-.4.3-.7.8-1.2,1-.6.2-1.2.4-1.8.9-.9.7-1.9,1-2.8,1.8-1.5,1.3-3.3,3-5.2,2.8l.3.5ZM93.9,62.8h-.3c-.2.1-.4.6-.6.8-.3.6-.2.5-.2,1.3-.5-.1-.5,0-1,.2q-.3,0-.5-.1s-.1-.3-.3-.4c-.4-.4-.6.2-1,.2-.1,0-.3-.3-.5-.3-.1,0-.6.9-.7,1.1.2.2.4.4.6.6-.2,0-1.2.3-1.3.6-.2.6.3.8.4,1.2-.2.6-.6.7-1,.8.2,1.1-.8,1.2-1,1.6-.4.7,0,.6.2,1.2.2.6.2.9.1,1.7.1-.2.3-.5.4-.7-.3.2-.3,0-.2-.5v-1.1c0-.1.6.2.7.1.7,0,.5-.9.8-1.8.4.5.8,1.1,1.2,1.6-.1,0-.5,0-.6.2s-.3,1.1-.4,1.4c.5,0,.9.1,1.4.2,0,1.1-.2,1.2-.7,1.1-.2,0-.2-.1-.5,0-.5.1-1.2.4-1.6.9-.3.4-.1,0-.2.6-.1.5,0,.4-.2.8-.1.2-.5.5-.7.6-.1.3-.3.3-.4,0v-.2c-.2.1-.3.4-.4.7-.4.6-.5.6-.5,1.5.2-.2.2.2.3.5.4-.5.6-.9,1.1-.6.3.2.4.3.6.7-.2.3-.5.6-.7.9.2.6,1.2.2,1.5,0-.4-.3-.2-.5,0-1.2.4.5.4.8.8.4,0-.1-.5-.8-.5-1.1,0-.2.2-.2.3,0,.2.2.3.1.4-.3.3-.5.3-.9.2-1.4.3.3.3,1.1.2,1.6s-.2.4-.1.9c0,.4.3.9.3,1.3-.4-.2-.8-.7-.8,0,0,.8,1,.8,1.4.9,0-.3-.2-.6-.3-.9.5-.1.5-.8.9-.8.5,0,.5.7,1.1.2-.2-.3-.5-.6-.7-.8.2,0,.7.2.9.2.4,0,.2,0,.4-.2.4-.3.5-.8.7.1.2-.3.3-.7.5-1,0,.4.3.1.5,0h.2c0,.3.2.4.3.2,0-.2-.3-.2-.3-.2,0,0,.2,0,.3.1,0-.1,0-.2-.1-.3h.3s.3-.1.4,0h0s-.4.5-.3.3c.1-.1.2-.2.4-.3h0s.1.6.2.8c.1.3.7.9,1,1,.5.2.8-.6,1.3-.4,0-.2-.2-.4-.2-.6.2.4.3.6.7.6-.2-1-.1-1.7-.2-2.6l.1-.1c.2.1.3.1.5,0h0c-.1.2-.3.3-.4.5.2,0,.6.2.7.1.2,0,.3-.3.5-.3h.2c-.4.3-.2.4-.3.8-.2.7-.5.8-1.1,1.1.2,1,1.3.2,1.6,0-.3-.1.6-1.7.6-1.8h-.2s0-.2.2-.5c-.3-.2-.9.9-1-.3v-.1c0-.1.1-.2.2-.3v-.1h0c.1-.3.3-.5.4-.7h.1c.5.4.5.9,1,.2,0-.2-.2-.4-.4-.7.2,0,.3,0,.1-.4,0,0-.1-.1-.2-.2,0-.1,0-.2.2-.3.4-.3.5,0,.7.3,0,.2-.2.3-.4.5.3.2.5.3.6.4,0,.2-.2.5-.4.7,0,0-.2.2-.2.3h0v.3c.1,0,.3-.1.4-.3h.3c.1.2.2.4.3.5-.2,0-.4.5-.6,1,0,.7-.3.6-.7.5-.1,0-.6-.6-.5,0,0,.4.6.5,1.2.4-.2.2-.3.4-.4.7-.1.4,0,1.2-.6,1.2-.3,0-.6-1.2-.8-1.6-.2.9-.7,1.5-1.1,2.2,0,0,.4.3.5.3.3,0,.4-.6.6-.5.1,0,.2.2,0,.4,0,.4,0,.6-.4.5-.3.4-.3-.1-.4.5-.3-.3-.6,0-.9.3.1,0,.3-.2.5-.3-.2,0-.4.2-.6.4,0-.2,0-.5-.1-.6-.2-.2-.5-.1-.8-.3-.2-.1-.6-.5-.8-.7,0,.4-.2.7-.3,1.1-.3-.1-.6-.2-.9-.4.1-.2.3-.3.5-.3-.2,0-.4.1-.6.3h0c-.4.3-.8.5-1.1.6-.6.1-1.1.2-1.7.4-1,.3-2.1.6-3.2.3,0,0,.1.1.2.2-.1-.2-.4-.2-.6-.2h0c-.2-.2-.4-.2-.7-.5v-.4c-.1-.2-.3-.4-.5-.5,0,.3-.1.7-.3,1,0,.1-.7.5-.7.7s.3.2.5.2c-1,.5-2,1.2-2.3,1.4-.5.4-1,.6-1.5,1-.5.5-.9.9-1.4,1.1-.6.3-1.3.5-2,.8-.5.2-.9.4-1.4.5v-.7c-.1,0-.2,0-.4.1,0-.4.2-1,.5-1.1,0,0,.8,0,.9.1.3.2.3.4.4.8.5-.3,0-.7-.1-1-.4-.5-.3-.6-.9-.5-.7.1-1.3.6-2,.8,0,.3.1.6.2.9-.2.2-.3.3-.5.5-.3,0-.3.3-.1.6v.2h0c-.1,0-.2.2-.3.3-.1-.1-.1-.4,0-.9h-.4c0-1.1-.1-2.1-.1-3.2.1-.5.1-.9,0-1v-10.5c.5-.7.5-1.4.7-2.3.9-3.1,3.1-4.4,5.3-5.1,1.2-.4,2-1.6,3-2.4.4-.3.7-.7,1-1,0,.1.3.2.6.1.5-.1,1.1-.6,1.5-.8,1.1-.5,2.4.2,3.5-.1.8.4,1.6.6,2.4.9l.6.1ZM86.7,86.1c-.5,0-1.1,0-1.7.1.4-.3.8-.6,1.1-1,.2-.2.5-.4.8-.6.3.2.7.3.9.6.2.2.3.5.5.6.4.4.7.2,1,.8-.1,0-.6-.2-.7,0,.2,0,.4.2.6.3-.2,0-.4,0-.7-.2-.6-.2-1.2-.7-1.8-.8v.2ZM96,90.5c0,.2,0,.4.2.6h-.7c0-.1,0-.2-.2-.3-.2-.2-.3-.4-.5-.5-.4-.4-.7-1-1.1-1.3-.5-.4-1.1-.6-1.6-1.1-.2-.2-.4-.4-.6-.6h.3c1.1.1,2,.2,3.1,0h0c.7.4.9.8,1.2,1.5.3.5.1.5.6.4.3,0,.8-.4,1.1-.5-.5-.5-.5-.6-1.1-.4v-.7c.5,0,1.5,0,1.9.3.5.4.2.8-.1,1,.2.2.4.4.6.6-.3.6-.4.5-.3.3-.7.8-1.9.7-2.9.7h.1ZM94,98.3c.1-.2.5-.3.3.1-.1,0-.2,0-.3-.1ZM96.5,98.3q.5-.2.7.6c-.2-.2-.5-.4-.7-.6ZM97.4,98.9c.2-.1.5-.5.7-.5h0q.3.6,0,1.3c-.1-.2-.2-.3-.3-.4-.1-.2-.3-.3-.5-.5l.1.1ZM99.3,100.1s0,.1.1.2v.6h-.2v-.9l.1.1ZM148.9,90.7h.2-.2ZM114.3,75.5c-.2.5-.1.8-.5,1h-.4l-.2-.2c.4-.3.7-.5,1.1-.8h0ZM107.6,76.1v-.1c.3-.3,0-.5.5-.5-.1.7-.5,1.2-.8,1.7-.4.7-.6.6-1.3.7v-.6c-.4,1.3-.7.3-1-.4h0v-.1h0c.2-.3.2-.4.1-.7v-.1c.5.7.7,1.2.6,0,.4.4.4-.1.7-.7,0,.3,0,.5-.1.8.2,0,.7.3.9.3h.2l.2-.3ZM92.4,71.2c0,.3.4.1.4.1,0,.2-.2.5-.3.7-.3-1.1-.5.3-1,.1-.6-.2-.2-1.2,0-1.8,0,.1.2.9.3,1,.2.2.3,0,.5-.2l.1.1ZM92.2,70.1c-.6,0-1-.6-.8-1.8q.3.8.8.7v1.1ZM91.1,74c-.1.2-.2.5-.4.7-.3-.3-.6-.3-.9-.2.4-.3.9-.4,1.3-.5h0ZM99.3,76.2v.1h-.2l.2-.1ZM91.6,74c.1,0,.4,0,.7-.1-.3,0-.4.2-.5.4,0-.1-.2-.3-.2-.3h0ZM92.1,73.1c.3-.1.6-.5.6.2,0,0-.1,0-.2-.3-.1,0-.4.3-.4,0v.1ZM93.7,70.7c.1,0,.3,0,.4-.1v.3c-.2,0-.4.3-.4-.1v-.1ZM93.9,68.4c.4-.6.6-1.2,1.1-1,0,.5,0,.3,0,.2,0,.4-.2.7-.3.9-.4.5-.3.4-.7,0l-.1-.1ZM94.6,64.5s.2-.2.3-.2v.3c-.2,0-.3.2-.4,0l.1-.1ZM97.4,77.6c0-.1-.1-.3-.2-.4,0,0,.1.3.2.4ZM95.2,75.9s-.1,0,0,.1c0,0,0-.1-.1-.2v-.1s0,.1.1.2ZM94.9,75.6c0-.1-.1-.2-.2-.3h0s.1.2.2.2v.1h0ZM93.1,76.2c-.2,0-.3-.3-.3-.8h0s0,.4.1.5c0,0,.1.1.2.2v.1ZM89.5,75.1c0,.3-.2.3-.4.3,0-.1.1-.2.2-.3h.2ZM89.9,75.4c-.2.2-.4.3-.6.3,0,0,0-.2.1-.3h.5ZM88.1,74.9c.3-.2.9-1,1.1-.5-.2.1-.9.8-1.1.5ZM90.6,68.5c.7-.1.6.5.6,1-.2-.3-.3-.5-.6-1ZM93.7,65.8v.4c-.2.8-.8,1.5-1,.9-.4-1,.7-1.4,1.1-1.3h-.1ZM93.2,64.4c.3-.2.5-.5.8-.7,0,.7-.5,1.5-.8.7ZM97.2,64.3c0,.7-.1.5-.1.3-.3,1.1-1,1.7-1.5,1.9,0-.7.1-1.3-.1-1.9,0-.3-.2,0-.2-.5,0-.4.2-.6.3-.9h0c.2.7.2.9.7,1.1.4.2.5.2,1,0h-.1ZM98.6,67.3c-.1.5-.2,1-.3,1.5-.2.8,0,.4-.4.6-.6.4-.7,0-1-1q.3-.2.2-.8c.6.2.9-.8,1.5-.3ZM99,70.2c-.3.5-.9.8-1.2,0,.4-.4.7-.1,1.2,0ZM101.5,65.6c.2.2.3.9.5,1.2-.6.6-.8.7-1.5.6.1-1-.2-1.1-.6-1.8,0-.1.5-.8.6-.8,0,0,.5.5.5.6.4.3.1-.3.5.2ZM101.6,69.3c0,.6-.5.1-.6,0,0-.4.4-.1.6,0ZM101.9,72.6h0c-.2.1-.4.2-.6,0,.1.4-.2.5-.5.6,0-.5.2-1.7.2-2.2.4,0,.2.6.4.9.1.2.3.3.4.5l.1.2ZM102.5,78.1h.3s-.2,0-.2.1c.2,0,.3,0-.1,0v-.2.1ZM98.4,84.3c-.2.2-.3.4-.6.5h-.6c-.8.2-1.3.7-2.3.5,0,0,.2-.1.2-.2-.3-.2-.6-.5-.9-.7,0,.1-.3.8-.4.8,0,0-.8-.4-.9-.4.1.2.3.3.4.5h-1.1c.2.2.3.5.5.7-.8.2-1.4-.1-2.2-.5.2-.3.8-.9.7-1.2-.2-.6-.9.3-1.1.5-.1-.7-.3-.6-.7-1.1h0c.7.4,2.1-.1,2.7-.4.7-.2,1.4-.5,2.1-.8.3-.1.7-.2,1-.4,0,0,.2-.2.2-.3,0,.4,0,.7-.1,1.1,0,.3-.2.2,0,.5s.3.3.5.3c.4,0,.8-.7,1.2-.7.2,0,.6.1.9.3v.5c0,.3.4.4.5.7v-.2ZM97.4,81.6c.2.3.5.6,0,.8-.1-.3-.5-.6,0-.8ZM88.7,84.9v.2c-.3,0-.8.1-.8-.3h.8v.1ZM94.2,86.3c-.1,0-.3,0-.4-.1,0-.2.2-.2.4.1ZM144.6,89.7c-.2.3-.3.6-.5.9-.2-.2-.3-.5-.5-.7l.2.1c.1,0,.3-.2.5-.3h.3ZM143.6,89.8c0,.8-.2.8-.7.9,0-.1-.1-.3,0-.6h0s.2,0,.2.1c0,0,0,.2.2.2h0v-.1q0-.2-.2-.3h0v-.1c.4-.2.4-.1.5,0v-.1ZM108.5,78c0-.2-.1-.5-.2-.7.1.2.2.3.4.5,0,0-.1.1-.2.2ZM108,82.4s-.1,0-.2.1h-.4v-.7c.2.2.4.4.6.6h0ZM99.6,90.2c.2,0,.4,0,.6.1-.2.2-.4.4-.6.5v-.6ZM108.2,100.1h.2v.1h-.2v-.1ZM137.8,85.6h-.2c-.2-.2-.2-.4-.2-.6h.5v.5h0l-.1.1ZM108.9,87c0,.2-.3.4-.5.2.2,0,.3-.2.5-.3h0v.1ZM104.3,82s.1.1.2.2c-.3.3-.8,1-1,.8-.1,0,0-.7,0-.8h.1c.2,0,.3.2.5.2.1-.1.2-.3.3-.4h-.1ZM108.3,86.8c-.2,0-.4.3-.5,0,.1,0,.5-.1.5,0ZM113.4,87.9h-.4c.2-.1.3-.2.4,0h0ZM113.4,88.5c.1,0,.2.1.2.3-.1,0-.5.5-.8.8,0,0-.1,0-.2-.1h-.3c0-.4.7-1,1.1-1.1h.1l-.1.1ZM112.7,88.5c-.1.3-.3.5-.6.7,0-.2.2-.6.2-.7h.4ZM116.1,88.7c.1,0,.2.1.3.2-.2.1-.4.2-.6.4v-.4c.1.2.2.2.3-.2ZM112.8,91.8h0c-.2.7,0,.7-.5.8-.2,0-.8-.2-1-.2.2.3.3.5.4.7-.1,0-.2.1-.4-.1-.1-.2-.2-.4-.1-.6,0-.4.5-.7.8-1,0,.2.2.5.2.7h.2v-.4h.3l.1.1ZM111.3,84c.1-.2.3-.4.6-.5.4-.2.5,0,.8.2h0c0,.1-.2.3-.3.4-.1.3,0,.4-.3.6,0-.3,0-.7-.2-.9-.2.2-.4.4-.6.6,0-.1-.1-.3-.2-.4h.2ZM115.7,93c-.3,0-.6-.1-1-.2,0-.1,0-.3.2-.4,0,0,0-.1.1-.2h.4c0,.2.1.4.2.6l.1.2ZM113,93.6c-.1.1-.2.3-.4.6-.1-.2-.2-.4-.3-.6q0-.1-.1-.2c.3,0,.6-.1.8-.1v.4-.1ZM112.8,84.7c-.2.2-.4.3-.6.3.1-.2.3-.3.4-.3h.2ZM113,86.1c.2-.2.5,0,.8,0,.4,0,.6.1.8,0,.3-.3.4-.5.8-.5v.2c-.2.7-.4,1-1.2,1.4.3.6,1-.1,1.5-.1v.4c-.4.1-.8.4-1.3.4h-.6c.2-.1.3-.3.5-.4-.3,0-.6-.3-.8-.3-.3,0-.4.2-.6.2-.1,0-.2,0-.4-.1,0-.5.2-1,.4-1.1l.1-.1ZM105.7,93c0-.2,0-.4-.1-.6.3.2.6.3.9.5v.4c-.3-.1-.5-.2-.8-.3h0ZM105.2,89.6c-.1-.1-.3-.2-.4-.4.4,0,.4-.4.7-.4l.3.1c0,.3-.5,1.1-.1,1.3-.2,0-.5.2-.7.2,0-.3.3-.6,0-.7.1,0,.2,0,.4-.1h-.2ZM104.6,90.9v-.2h0s0,.1-.1.2h.1ZM103.7,90.8c-.1-.1-.2-.2-.3-.3,0,0,.2-.1.2-.2h.2c0,.2,0,.3-.1.4v.1ZM102.2,89.5c.4-.2.9,0,1.2.4-.7.3-.7.2-1.2-.4ZM102.7,92.3h-.4c0-.1.2-.2.2-.4,0,.1.1.3.2.4ZM110.5,82.4v-.2.1h-.1l.1.1ZM135.9,85.1c0,.2,0,.3-.2.4,0,0-.4-.1-.5-.1v-.2s.1,0,.2.1v-.3s0-.1.1-.1.3.1.4.2h0ZM130.3,90c-.3.2-.6.6-.9.8h0c-.3,0-.5-.1-.7-.5h.2c0,.1.2.2.4.2.5,0,0-.3.3-.5s.5,0,.7.2v-.2ZM100.8,90.3l.1-.1s.2.2.3.2c-.1.2-.2.1-.4-.1h0ZM100.7,88.4c.3.1.6.2,1,.3-.33.13-.67.03-1-.3ZM103.2,77.2c0-.1,0-.3-.2-.4h0c.2-.3.5-.5.6-.1,0,.2,0,.6-.3.9,0,0,0-.1-.1-.2v-.2ZM105.1,81.8v-.3c.4.1.5.3.5.5,0,0-.1-.2-.2-.2h-.3ZM106.1,78.2v.4c0,.3,0,.6-.3.7-.4,0,.3-1,.3-1v-.1ZM107.8,78.5s-.7-.2-.7-.3c.3-.2.5-.4.8-.6.1.1.1.7,0,.9h-.1ZM113.7,83.4c-.1,0-.2,0-.3-.2h0c.3.1.4,0,.4-.4,0,0,.1,0,.2-.1,0,0,.1-.2.1-.4.3-.2.4-.2.2.4,0,.2-.3.6-.5.7h-.2.1ZM130.9,90.9h-.2c-.2,0-.5-.3-.7-.3.2-.1.3-.2.5-.4.1.2.3.5.4.7ZM95.3,86.4c.8-.5,1.6-.7,2.6-.6.5,0,1,.2,1.4.4.6.2.7.3.8,1-1.6,0-3.2-.3-4.8-.7v-.1ZM99.5,83.3c0-.1.1-.2.2-.3.1,0,.3.2.4.3.3-.2.4-.4.5-.5,0,.4,0,.6-.3.7-.2,0-.5,0-.8-.1v-.1ZM101.2,80.4c.1-.2.3-.4.4-.6,0,0,.2,0,.3.1.4-.1.5,0,.9-.4,0,.4.1.7.2,1.1-.4.1-.8.4-1.2.4-.6,0-.5.2-.7-.6h.1ZM102.8,76s0,.2.1.2v.1-.3h-.1ZM104.2,75.3v.5h-.2c0-.2.2-.4.2-.5ZM108.7,75.3c.2,0,.6,0,.7.1.8.1.7.2.9,1.2-.5.2-.8-.3-1.3-.4-.6,0-.8,1-1.1.7.2-.2.2-.4,0-.6.1-.2.5-1,.7-1.1l.1.1ZM113.8,80.4c0,.2.2.3.3.4h-.1c0-.2-.1-.4-.2-.5v.1ZM115.2,80.9v.5c-.2,0-.4.1-.6,0,0-.1.1-.2.2-.3,0,0,.2-.2.3-.3l.1.1ZM127.4,79.3v-.4c0,.1.2.3.2.4h-.3.1ZM139.4,84.9c0,.1.2.3.2.5h0c-.1,0,0,.2,0,.2,0,0-.2.2-.3.2-.1-.5-.2-.7-.4-.8,0,0,.2,0,.3-.1h.2ZM144.7,87.4h-.4c0-.2,0-.3.1-.5.1.2.2.3.3.5h0ZM148.3,90.4h-.4c0-.1.1-.2.2-.3v.2l.1.1h.1ZM147.6,92.4c-.2-.3-.4-.6-.5-.9h0c.2.2.4.4.6.7,0,.1,0,.2-.1.3v-.1ZM143.4,92.4h0c-.2-.1-.3-.3-.3-.6.2.4.3.7.7.6,0-.8.3-1.2.7-1,0,0-.1.2-.2.3h0c-.1.2-.2.5-.4.6,0,0-.3.1-.4,0l-.1.1ZM114.7,99.5v.1h-.2s.2,0,.2-.1ZM91.5,87.8c-.2.3-.6-.1-.9-.4h.5c.2,0,.3.2.5.5l-.1-.1ZM90.9,86.8c-.1,0-.3-.2-.5-.3.2-.6,3.3.2,4.2.6h-1.7c-.7-.1-1.4-.5-2.1-.3h.1ZM86.2,78c.3-.9.4-.9,1-.4-.4.1-.6.2-1,.4ZM97.5,62.9c.5,0,.9.1,1.4.2-.3.2,0,1-.2,1.3-.1.1-.7-.1-.9-.2,0-.2.1-.5.2-.7-.1.3-.5,0-.6-.3-.1-.2-.2-.2-.2-.3h.3ZM102.4,66.8c-.1.1-.3.2-.4.3v-.4h.4v.1ZM102.6,67.6c0,.4-.6.5-.6,0h.6ZM104,72.1h.4c.1.3.5.9.3,1.1.3.3.5.4.6.8,0,.2,0,.5.2.7.2.3.5.3.4.8-.3-.2-.6-.4-.8-.5h0c0-.2-.1-1.5-.2-1.6,0-.1-.6-.1-.7-.2-.3-.2-.5-.5-.7-1,.2-.1.4-.3.6-.4l-.1.3ZM104.6,64.7c0,.47-.23.6-.7.4l.7-.4ZM106.7,63c-.1.3-.2.4-.3.1.1-.3.2-.4.3-.1ZM107.2,69.5s-.5.5-.6.5l-.3-.6c0-.4.8,0,.9,0v.1ZM112.8,69.1h0c.1.4.3.8.4,1.2-.5.2-.5.4-.6,1.2-.6-.3-.9-1-1.5-.3.3.4.6.7.8,1.1-.3,0-.7-.3-1.1-.2-.7.1,0,0-.4.4-.4.6-.5.7-.8-.2-.2.5-.3.9-.5,1.4,0-.5-.8.4-1.2.1,0,.4-.2.4-.4.3.2-.3.5-.6.7-1,0-.2.2-.7.3-.8,0-.1.3,0,.4,0s.3-.3.4-.3.2-.2.3-.2.3.4.4-.1c0-.1-.1-.8-.1-.9h.6c.1-.2.1-.9.3-1.1.4-.4,1.4.7,1.3-.7.5,0,.6,0,.8.3l-.1-.2ZM116.3,75.4c0,.8-.8,1.2-1.3,1.5-.2.1-.9.4-1.1,0-.3-.6.7-.3.8-.3-.2-.9.5-.5.3-1.2-.2-.8-.2,0-.7-.2-.1,0-.4-.7-.4-.9-.2-.6,0-1.2,0-1.8q0-.5-.1-1.1c0-.2-.1-.4-.2-.7.1,0,.2,0,.3.1v-.5h0c.2.5.5.9.8,1.2-.2,0-.4-.1-.5-.2-.1.5,1.5.9,1,2.2-.1-.1-.2-.3-.4-.4-.1.8-.2.6.2.9.5.4,1.1.3,1.2,1.2l.1.2ZM121,79h0s-.2,0-.4-.1c0,0,0-.1-.1-.2v.2c-.6-.2-1.3-.5-.7-.8,0,0,0-.1-.2-.1.1,0,.3.1.5.1v-.3c0-.7-.5-.8-.9-.7v-.4c.4-.1.9-.2,1.3-.3-.2.7-.4,1,0,1.5.3.4.7.4.7,1.1h-.2ZM131.6,79.2v.2h-.2c0-.1,0-.2.1-.3l.1.1ZM133.2,79.7c-.1.1-.2.3-.2.5-.1,0-.3.1-.4,0-.1,0-.2,0-.3-.2,0-.3-.2-.5-.2-.8.5.3,1,.8.7-.1,0,0-.1,0-.1-.2.3.1.5.3.6.7l-.1.1ZM145.8,87.5h-.8v-.7h0c.3.2.5.5.8.8v-.1ZM146.7,88.1c-.1,0-.2.2-.3.3,0-.1-.1-.2-.2-.3h.5ZM151.3,90.3c-.2.1-.3.4-.4.7-.3-.3-.5-.6-.8-.6-.2,0-.4.1-.6.2,0-.3,0-.5.2-.7.4-.6.2-.3.8-.4.3,0,.4-.1.7-.3.4-.2.3-.3.6-.2,0,0,.2.1.3.2-.3,0-.7.2-.7.6,0,.1.2.4.5.7h-.6v-.2ZM149.4,94.4c.1-.4.2-.8.3-1.2.2,0,.3.1.4.2,0,.2.2.5.3.7h-.4c.3,0,.5.3.5.7-.4-.2-.8-.3-1.1-.4ZM148.4,94.1c0-.1.1-.1.1-.3,0,.1.1.3.2.4h-.3v-.1ZM143.2,94.5s0-.1.1-.2c0,0,.1.1.3.2v-.6h.2-.2.2s0,.2.2.2c.1,0,0,0,.1-.1.9,0,1.9.4,2.6.9-.1,0-.8.4-.9.3-.1,0-.1-.5-.3-.6h-.6c-.7.1-1.1.5-1.8,0l.1-.1ZM139.7,96.1c.1-.2.2-.2.2-.2.2-.2.4-.2.8-.1q-.4.6-1,.3ZM137.8,93c.3-.1.6-.2.9-.3,0,.2,0,.5-.1.7-.3-.1-.5-.3-.8-.4h0ZM129.5,96.2c.4.07.6.33.6.8-.3-.3-.4-.5-.6-.8ZM116.6,99.2c-.1-.1-.3-.2-.4-.3,0,.1-.2.2-.2.3-.3.2-.4.3-.6.7,0-.3-.1-.5-.3-.6.3-.1.5-.3.8-.4.5-.2.4-.5.7-.9h.2s0,.2.1.2c0,.2.1.8-.2,1h-.1ZM77.8,114.2c0-.7-.1-1.5-.2-2.2,0-.5,0-1-.1-1.4v-1.1c-.4-4.3-.7-8.6-1.1-12.9,0-.9,0-1.9.3-2.8,0-.3.1-1.1.2-1.7h0c.4,0,.6-.4.7-.9.2.2.4.4.6.7-.4.6-.3,1-.7,1.6.4.3.4.8.3,1.4.5-.1.4-.3.4-.9.5.4.7.4.8-.4.2.4.4.8.5,1.2.5-.4.5-1.1.6-1.8.2,0,.5.2.7.3-.2-1.1.3-1.5,1-1.1,0-.8.1-.8-.3-1.3-.3-.3-.5-.6-.9-.6s-1.2.8-1.4,0c1.1-.6,2.2-1.2,3.3-1.8.6-.3,1-.7,1.4-1.2.9-.4,1.9,0,2.8-.4.8.5,1.9.8,2.7.9.2,0,.3,0,.5-.1.6.5,1.1.9,1.9,1v-.4c.3.3.5.6.8.8.4.3.4,0,.7.3.6.3.8.7.7,1.3,1.1-.5,2.1,1.8,3.1,2.1-.2-.3-.5-.6-.7-.9.3-.2.6-.5.9-.7.2.6.4,1.1.8,1.5,0,.2-.1.4,0,.7,0,.6.4.9.5,1.5,0,.8-.2,1.3-.6,1.6-.2.1-.7.3-.9.2-.1,0-.2-.3-.3-.4-.2-.1-.4-.2-.6-.2s-.5-.2-.6-.2c-.3,0-.2.3-.4.7s-.6.6-.9.3c-.2-.1-.2-.3-.5-.4-.3-.2-.4,0-.7,0-.4.2-.7.6-1.1.8-.4.1-.8,0-1.2,0,.5-.6.8-.7,1.5-1,0-.2-.1-.3-.2-.5.1,0,.6-.4.7-.4,0,0,.2.4.3.5.3.2.8.2.8-.5.4.9.4.6.6-.2.1-.6.2.4.2-.5,0-.1-.1-.6-.2-.7h-1.1v.5c-.1.1-.2.1-.3,0-.2,0-.4-.3-.6-.3.2-.1.3-.3.5-.4-.1-.2-.5-.7-.6-.8-.3-.1-.1,0-.4.2-.4.3-.6.5-1,.6.3.7.5.9.3,1.7-.1.4-.2.7-.5,1.2-.4-.9-.5-1.1-1.2-.9-.4.1-.7.4-1.1.6-.5.2-.9-.2-1.4,0-.1,0-.3.1-.4.2v.5c0,.3,0,.5-.1.6s-.2.2-.3.3c.3.6.3.7.7.7v.3c-.1.2-1.5,1.7-.8,1.8.1,0,.3-.7.4-.8h.5c.2.2.4,0,.5-.3,0-.4.2-.5.5-.4.2-.2.4,0,.4.4,0,.1.3,1.2.4,1.2.4.2.6-.9,1.1-.4.4.4.3,1.3.7,1.7.3.2.6.2.9,0,.4-.4.5-1.2,1.1-1.2.4,0,.7.3,1.1.5,0,0-.2,0-.2.1.2.3.2,1.1.5,1,.1,0,.2-.5.3-.8.2,0,.3.1.5,0,0,.2-.3.7-.3,1,0,.5.2.4.2.9,0,.4-.4.6,0,1,.2.2.8,0,1-.2.1-.2,0-.4.2-.6.1-.2.2-.1.4-.3.3-.3.5-.9.8-1.3.3-.4.6-.5.9-1,0-.1,0-.4.2-.6.2,0,.4.2.7.3.4.2.5,0,.9,0v.5c-.4.2-.9.4-1.4.7-.6.4-1.3.8-1.6,1.7-.3.8-.4,1.4-1.1,1.7-.6.2-1.1.1-1.7.2-.7,0-1.3.4-1.9.7-1.1.5-2.2,1.1-3.3,1.5-1.4.5-2.6,1.3-3.9,1.9-1.2.5-2.6.7-3.7,1.5-1,.7-2.2,2-2.9,3.1h0l-.6-.3ZM91.9,94.7c.1.3.1.5,0,.5-.1-.1,0-.5,0-.5ZM66,101.6c-.1,0-.3-.2-.4-.3v-.3c-.2-.2-.7-.4-.9-.5-.8-.3-.6.3-.8,1.3v.2c-.6-.1-1.2-.3-1.8-.5,0-.2,0-.4-.1-.4,0,0-.1.1-.2.3h-1c-.3-.3-.3-.6,0-1.2.2-.5.6-.9.7-1.3,0-.5-.1-.9.4-1.2.3-.2.2-.1.5,0,.3.2.6.6.8.9,0-1,.5-1.5.9-2.3h-.5c-.2-.1-.4,0-.4.3s-.1.4-.2.3c-.1,0-.2-.1-.2-.4-.2-.3,0-.5.2-.5.3-.4.6,0,.5-.7.4,0,.7-.2,1-.5-.2.1-.3.3-.5.4.5-.4,1.3-1,1-1.9-.2.1-.6-.1-.8-.3-.3-.3-.3-.4-.4-.9h0v-.3c.1.3.4,1.2.7.4.1-.3-.2-.8,0-1.1.2-.6.7-.7,1-1.2h.1c0,.2,0,.4.3.3-.3.3.3.5.3.8s-.5.6-.5.9c0,0,.2.9.3,1,0,0-.1.5-.1.6.2,0,.5.2.7.2,0,.2,0,.4.1.6.6.1.3-.3.5-.6,0-.5,0-.6.4-.5.3.1.4,0,.5-.3,0-.1.1-.2.2-.3.2.2.3.2.5,0,.4-.1.5-.6.8,0,.3.4-.2.9.1,1.2.2.2.5-.2.6,0s0,.9,0,1.1c.4-.2.3-.4.6-.7h0c.3.4.7.8,1,1.3,0,.1.1.3.2.4v.2-.1c0,1.2.1,2.4.2,3.6v1.6c-.5-.1-.9-.2-1.4-.3-.8-.1-1.5-.4-2.3-.5-.6,0-1.3,0-1.9.5-.2.2-.4.4-.7.7h0ZM56.7,100.1c-.1.3-.2.6-.4.9-.2-.5,0-1.1.4-.9ZM58,101.9c-.3.2-.5.4-.8.6h-.2c-.7.4-1.5.6-2.2.7.1-.3.3-.6.4-.9.4-.7.7-.8,1.3-1.1v.6c.3-1.4.8-.4,1.4,0l.1.1ZM50.8,96.8c.2.2.3.6.4,1h-.5c-.2.2,0,.1-.1.4-.2.4-.2.6-.2,1.1-.3-.2-.6-.6-1-.2h0c-.3-.9-.7-.2-1.1.4v.2c-.4-.2-.8-.6-1-.7,0,.2,0,.3-.1.5h-.1v.1c-.2,0-.4,0-.5-.1-.3.3,0,.6,0,.8,0,.1.1.2.2.4v.1c0,.5,0,.6-.3.7-.4,0-.3-.3-.6-.3-.2,0-.3.3-.2.5,0,0-.1.1-.2.2-.7.4-.4-.5-.3-1,0,0,0-.4.1-.6.1,0,.1-.2.3-.7,0,0-.1,0-.2.1v-.1c0-.1-.5-.3-.6-.5,0-.1,0-.3-.1-.6v-.2c.1-.3.3-.6.5-.8.1,0,.2.2.4.1h0c-.2.1-.3.3-.5.4.3,0,.5.3.7.3s.3-.2.5-.2,0,0,.1,0c-.1.3-.3.6-.3.6.2,0,.7,0,.9-.2.1-.1,0-.2.1-.2s.2-.1.4-.4h-.3c.1-.4.3-.6.6-.7,0,.2,0,.5.2.7.3.4.3.3.5,0l.1-.1c.2,0,.4.1.5,0l.1-.1h0s0-.2.2-.4c.3-.4.6-.4,1.1-.4,0-.3-.2-.4-.4-.5-.1-.2-.2-.4-.4-.5.2-.2.4-.3.7-.5v.7c.1.3.2.1.4.3v.4ZM22.5,94.9h.2c.2.3.4.4.3.9h0c-.2,0-.3-.1-.5-.2v-.3c-.2,0-.2.2-.4.4-.1-.4-.4-.2-.7-.1.1,0,.2-.2.4-.3-.2-.3-.4-.6-.6-.8,0,0,.1-.1.2-.2h0c.4-.1.8,0,1.2.2v.2h0l-.1.1v.1ZM22,93.5s.1.2.3.4c-.2,0-.5,0-.6-.2h.3v-.2ZM25.4,106c0-.4.1-.5.3-.3,0,.4,0,.5-.3.3ZM25.2,104.9c.1-.2.2-.4.3-.6,0,0,0-.2-.1-.2-.2-.1-.2-.2,0-.4,0-.2.2-.4.3-.6h-.1c.2,0,.4-.2.7-.2.5,0,.6,1,.9.2-.2,0-.3,0-.5-.1.1-.1.3-.3.4-.4,0,0-.2-.1-.3-.2.2-.2.3-.5.5-.7-.4-.4-.9-.8-1.2-1.4h0c.2.2.3-.2.5-.2.2.6.1.7.5.9s.9.1,1.3.2c0,.2,0,.4-.1.5.2-.2.4-.6.7-.8.3-.3.4-.1.7-.2.5-.1,0-.3.5-.7-.1,0,.8.1.6.1,0,.3,0,.9-.2,1.2-.1.2-.1,0-.3.2,0-.2,0-.4-.5-.3,0,.2,0,.4.1.6h-.1v.2s0-.2-.1-.3c-.2,0-.4.1-.5.2,0,.1,0,.2.1.3-.2.4-.4.8-.2,1h.2c-.2.2-.7.2-1,.2v-.2.2h0v.3c.1.3,0,.5-.2,1-.4-.6-.5-1-1.2-.6-.4.2-.6.6-.6,1.2-.3-.1-.7-.2-1-.4h-.1ZM28.3,106h-.4c0-.3.3-.3.4,0ZM31.4,104.9c.2.1.4.2.6.4-.2.2-.4.4-.6.4s-.4-.3-.6-.3c-.3,0-.5.6-.8.7-.5.2-1.2-.1-.9-.9.1-.3.5-.4.6-.7v-.5c.2.1.4,1,.6,1.1.2,0,.9-.3.9-.5,0-.6-.8-.2-.9-.8.3-.1.5-.2.8-.3,0,.2.2.4.2.6h0c.3.2.6.3.6.7h-.6.6-.9l.4.1ZM39.6,106.7c-.4-.1-.8,0-1-.7.5,0,1.8-.4,2.1,0-.1,0-.2.2-.3.3.6.2.9,0,1.1.8-.5.3-1,.5-1.5.8.1-.8.2-1.1-.4-1.3v.1ZM47,101.9c0,.2.1.3.1.5-.2-.1-.4-.2-.6-.4h.4l.1-.1ZM29.8,96.8h-.1.1ZM35.4,107.9c-.2,0-.4.3-.5,0,.2,0,.4-.3.5,0ZM42.2,99.6c-.1.2-.2.5-.4.7-.3-.4-.5-.7-.5-.5h0c0-.3-.4-.4-.5-.7v-.4c.1,0,.2,0,.4-.1v.6c.5-1.3.6,0,1.1.5l-.1-.1ZM37.3,99.8c.2-.1.4,0,.7.2v.3h-.5c-.1,0-.2.1-.2.2h0c0-.4-.1-.4.1-.6l-.1-.1ZM41.3,99.9v.4h0v-.4ZM42.3,103.7c-.2.1-.3.1-.5.2,0,0,.1-.1.2-.2h.3ZM42.8,100.2h.3c-.2.6-1,.7-.9,1.6-.1-.5-.2-.5-.4-.4,0-.2,0-.3-.1-.4-.1-.3-.4-.2-.4-.7.2.1.5.4.7.4.3,0,.2.1.4-.1.2-.1.2-.3.3-.4h.1ZM44.4,98v.4c-.3-.2-.4.3-.5.6,0,0-.1-.2-.2-.2v-.3c.2-.2.4-.4.5-.6h.2v.1ZM31.7,101.7v.1-.1ZM32.5,100.2c.5-.3.7-.4,1.2-.3-.1.1-.3.2-.4.3h-.1c.1.6-.1.5-.3.6v-.1c-.5-.2-.6-.3-.7.4-.1-.2-.2-.2-.3-.3.2-.3.5-.5.7-.7l-.1.1ZM38.9,98.6c0,.2,0,.4.2.5h0c-.1-.1-.2-.3-.3-.4l.2-.1h-.1ZM40.2,98.2h0s-.1.1-.2.2h0s.1-.1.2-.2ZM47.9,105.8c-.2.2-.4.4-.7.6,0-.5,0-.7.3-.9,0,0,.2.2.3.3h.1ZM35.8,106.3c-.1,0-.4.1-.4,0h.4ZM28.6,99.3c.5.4.6.4.6,1.1-.4.1-.8.3-1.2.4.2-.7.4-.9,0-1.4-.3-.3-.6-.3-.6-.9.1,0,.2.1.3.1v-.2c.6.1,1.6.3.9.7v.2ZM24.6,99.6h0s0-.1.2-.1v.2h-.1l-.1-.1ZM22.4,96.1v-.4s.1.2.2.3h-.2v.1ZM30.5,94.5s-.1-.1-.2-.2c-.1-.2-.1-.3,0-.5.1.2.3.3.2.6v.1ZM44,96c.2,0,.3,0,.4.3v.3s-.2.1-.3.2c0,0-.1-.5-.1-.8h0ZM46.3,96.6c0,.2.2.4.2.6-.4.3-.9.5-.8,0l.6-.6ZM46.6,98v-.3s0-.1.1-.2v.5h-.1ZM46.3,97.7v.2c-.2.1-.4.4-.5,0,.1,0,.3-.2.4-.3l.1.1ZM47.5,96.6c.2-.2.3-.3.5-.5,0-.1.2-.2.2-.3,0,.8-.2.7-.8.8v.3c-.3.1-.7.4-.8.5.2-.4.5-.7.8-.9l.1.1ZM48.3,95.8s0-.1.2-.2c.4-.2.5,0,.6.3v.3c-.2-.1-.4-.3-.6-.4h-.2ZM51.6,103.9c.1-.1.3,0,.4,0h0c-.1,0-.2.1-.3.2v-.1l-.1-.1ZM54.3,102.8c-.2.4-.2.3.1.5h0c-.2,0-.5,0-.7.1,0,0,.1,0,.2-.1.2-.4,0-.6.5-.5h-.1ZM53.4,102.3s.1-.1.2-.2c.1.2.2.3.4.5-.2,0-.3-.2-.5-.3h-.1ZM54.4,101.4c.1-.1.6,0,.8,0-.3.3-.5.5-.8.8-.3,0-.2-.6,0-.7v-.1ZM60.1,101.2h-.5c0-.5.4-1.3.8-1.6-.2,0-.4,0,.1-.1.2.4,0,1.3-.4,1.7h0ZM59.4,97.9c.4-.2.8-.5,1.2-.7.6-.3.6-.4,1,.2-.2.4-.3.6-.6.7-.2,0-.4,0-.6.1-.1,0-.5.6-.6.5,0,0-.4-.8-.5-.9l.1.1ZM46.9,108h0c-.6-.1-1.3.1-1.8-.4-.1-.1-.2-.2-.3-.4-.2-.5,0-.4.2-.7.4-.6,1.2-1.2,1.7-1.3h.3c.1,0,.2,0,.3.1h0v.2c0,.1-.8.1-.9.1.3.6-.1.6-.3.9.3.4.2.5.6.4.3,0,.3-.2.6-.1.2,0,.3.2.4.4-.3.3-.6.5-.9.7l.1.1ZM39.6,110.6c-.1,0-.3,0-.4.1,0,0,.2-.2.2-.4h-.6c.2-.2.3-.4.5-.6-.1,0-.3,0-.4-.1.1-.3.3-.6.4-.8-.7-.3-1.5-.3-2-1.1.3.3.3,0,.5-.1,0-.1.1-.2.2-.2.1.2.2.3.3.5.5.5,1.6,0,2.3,0v.6c.2-.3.5-.9.8-1.1.3-.3.6,0,.9-.3.2,0,.3-.1.2-.4,0-.4,0-.5.3-.3.1,0,.4,0,.6-.1,0,.3.1,1,0,1.2,0,.2-.3.1-.5.3-.4.3-.4.5-.6,1.2-.1-.1-.3-.2-.4-.3-.1.4-.2.8-.3,1.2.5.2.5-.2.9-.4.4-.3.5-.1.5.3-.7.2-1.5.4-2.2.7h0c-.4.1-.8.2-1.2.4v-.3ZM35.6,111.4c.5-.2,1-.5,1.5-.6h.5c.2,0,.3-.3.5-.3.4,0,.8.3,1,.2-1.2.5-2.4.7-3.5.7h0ZM31.8,111c.3-.1.5-.3.6-.7,0-.9-.2-.1-.4-.7,0-.3.1-.6.2-.9h.5c.3.1.4.3.7.7-.3.1-.6.3-.9.4.3,0,1-.2,1.2,0,.3.2.4,1,.7,1.4h-1c-.5,0-1.1-.2-1.6-.3v.1ZM26.8,110.2c.4-.3.7-.5,1.1-.8l.1.1c.2.3.7,1.6.9.5-.2,0-.4-.6-.6-.8-.2-.2-.5-.4-.7-.6v-.1c0-.3.5-.6.7-.8-.2-.3-.5-.7-.8-1h.9c.2.2.2.5.2.9.4-.1,1.4-.8,1.8-.6,0,0,.7.6.7.7v1c-.3-.2-.5-.3-.8-.5h0c-.2-.5-.2-.4-.6-.2,0,.2.3.2.5.2-.2.6,0,.5.2,1.1.2.2.2.4,0,.6,0,.2-.1.4-.2.7v.4c-1.1-.2-2.2-.4-3.3-.6h-.1v-.2ZM25.2,106.7h.2v.1h-.1l-.1-.1ZM22,96.1c0-.1,0-.3.1-.3,0,.2.2.4.3.6h0c0-.1-.2-.2-.3-.4l-.1.1ZM20.9,98.4v-.5c.2.1.4.1.6.2,0,.3,0,.6-.2.9-.2-.2-.3-.5-.5-.7h0l.1.1ZM19.6,95.9c0-.3.3-.3.3,0h-.3ZM17.9,95.2c-.2-.1-.1-.3,0-.4h0c0,.1-.1.2-.2.3l.2.1ZM17.8,91.1c-.3,0-.6-.2-1-.3.2,0,.3-.2.5-.3.1.2.5.2.4.6h.1ZM19.8,92.8c.1.2.3.3.4.6v.7c-.1,0-.2,0-.3-.2-.5-.5-.5-.6-.2-1.2.3.1.2.2.1.2v-.1ZM26.6,93.5s0,.2-.1.3c-.1-.2,0-.4.1-.3ZM31.2,94.2c0,.2-.2.3-.3.5h.2c-.2.2-.3.3-.4.6.1-.5,0-.6-.3-.5h0v-.3c.3.3.4,0,.7-.3h.1ZM34.1,95.2v.2c0,.3.1.5.2.7h0c-.4,0-.3,0-.2,0-.3-.1-.5-.4-.9-.5-.2,0-.3,0-.4.1,0-.2.1-.5.2-.7h.5s.3,0,.6.2h0ZM36.1,93.2h0v.2h-.2l.2-.2ZM50.9,91.2c.2.2.4.3.6.5,0,.3,0,.5.1.8.4-.2.6-.2.7-.6,0-.1-.1-.6-.2-.8-.2-.6-.7-1-1-1.5.8-.5,1-.2,1.8,0,.2.3.3.3.5,0l.2-.2c.2,0,.6.6.7.8v-1.2c.6.2.3.3.6.9,0,.3.2.5.4.6.1.2.3.6.5.6v-1.2c.5.4,0,1.8.9.4-.4-.1-.5-.5-.3-1,.2.2.3.3.5.5,0,0,0,.2-.1.2-.1.1-.1.2,0,.3s.2.3.3.4c0,0-.6.4-.7.6,0,.2.2.9.2,1.2,0,.6.1.6.4.8.4.5.3,0,.5.7,0-.2.2-.5.3-.7.1,0,.2.2.4.3,0-.3.3-.9.3-1.2,0-.5,0,.1-.1-.5,0-.3-.1-.6,0-1.1.5.1.3,0,.6-.4.2-.3.2-.4.3-.8.2.3.2.5.5.5.5,0,0-.3.3-.5.6-.5,1,.7,1.3,1.2,0-.2.2-.4.3-.6,1,.8.5-.9.4-1.9h0c.2.1.4.2.6.3,0,0,.1.2.2.2h.5s.1,0,.2.1c0,.4-.3.8-.4,1.3,0,.2-.1.4-.2.5.1.1.2.3.3.5v1h-.4c-.3-.2-.3-.7-.6-.1-.2.4,0,.6.2,1,.2.6.3.7.8.9,0,.2-.2.4-.3.7h-.6c0,.2-.2.3-.3.5q-.3.4-.6.4c-.3,0-.4-.2-.6-.4v-.5h-.3c-.4-.2-.4,0-.7-.4,0,0-.2-.5-.3-.5,0,0-.8.6-.8.7.3.4.6.9,1,1.1.4.3.9.5,1.4.7-.8.7-1.4.8-2.3.8h-.7c0,.2-.2.3-.3.5-.2.1-.9-.4-1.2-.5,0,.4.2.8.2,1.2h-.5c-.2,0-.2-.2-.4-.5-.3-.4-.5-.5-.9-.6-.2-.1-.6-.5-.8-.3.2.4.3.7.5,1.1-.3,0-.3-.6-.6-.7-.4-.3-.5.3-.7.7.4,0,.8.2.7.8-.3,0-.6-.2-.8-.3,0-.2,0-.3.1-.5-.2,0-.5-.2-.7-.3,0-.1.7-.7.7-.9s-.5-.9-.6-1c-.2-.4-.3-.6-.6-.7-.5-.2-.5.1-.9-.4q-.2.8-.7.7v.4h0c-.4-.3-.4.3-.7.1-.2,0,0-.2,0-.4s.1-.2.2-.3c-.5.1-.9.7-1.3.2,0,.6-.5.4-.7.4h-.1v-.1s-.3-.2-.4-.2-.3.2-.4.3h0c0-.2-.1-.2-.1-.3,0-.3,0-.5.3-.5.3-.3.3,0,.4-.5.3.2.6,0,.8-.3-.1,0-.3.2-.4.3.4-.2,1.2-.8,1.1-1.5,0,0,0-.1-.1-.2.1,0,.2.2.4.7.5-.5.5-1.8,0-2.3.1-.2.2-.4.4-.5.1,0,.2.2.4.2.4-.2.4-.7.8-.6.6.2.2.7.4,1.1l-.8-.2ZM52.5,87.3c.2,1.1.2,1-.6,1.2-.6.2-.7.4-.9-.4.5-.7.9-.4,1.6-.8h-.1ZM52.2,86.3c0-.4.4-1.5.8-1.6h0c.1,0,.2,0,.3.2.1.4-.5,1.2-.9,1.4.1,0,.3,0-.1,0h-.1ZM39.4,85.3h0c-.2-.5,0-.3-.4-.4-.2,0-.8.2-1,.2v-1.2h1c-.2-.5-.5-.9-.8-1.4h.1s.2-.1.3-.2c.5,0,1.1.1,1.6.1,1.4-.1,2.7-.8,4.1-.9h.2c0,.4.2.2.6.2h.4c.7.1,1.4.3,2,.6.3,0,1,.5,1.5.7h0v.2c0,.2,0,.3.2.4.6,1.3.8.4,1-.5.5,0,.9.2,1.4.5,0,0-.1.2-.2.6-1,.6-2.3.2-3.4.6-1-.2-2.1-.3-3.1-.3-.6,0-1.3,0-1.9.2-.4.2-.6.3-1.1.3-.8,0-1.6,0-2.4.2l-.1.1ZM32.3,81h0c.1.2.2.2.3.1.1,0,.3.1.4.2h.2c-.3,0-.7,0-.9-.4v.1ZM20.1,78.8c.5-.2.9-.2,1-.9h0c.5.3,1,.4,1.5.5h0c-.3.2-.6.4-.8.6-.3.2-.6.6-.9.5-.2,0-.6-.5-.8-.7h0ZM18.7,79.2c.3-.1.7-.3,1-.4-.4.7-.4.8-1,.4ZM15.5,78.5c.2,0,.4-.2.5.1-.4.2-.3.2-.5-.1ZM9.2,64c.1.1.2.3.3.4,0,0,0,.1-.1.2,0-.2-.1-.4-.2-.6h0ZM8.9,63.4c.5-.8.6-1.3,1.5-1.1.4,0,.5-.3.6.5,0,.4.1.4-.1.6-.3.2-.8-.3-1.1-.2-.4.1-.4,1-.8.8.2-.2.2-.4,0-.5l-.1-.1ZM8.1,65c.2-.2.5-.4.7-.6.2,0,.1.4,0,.6-.1.3-.4.1-.7,0ZM7.3,65.2c0,.3,0,.8-.2.9-.3.1.2-.9.2-.9ZM6.1,63.9c.1-.2.2-.5.3-.7.2.2.4.5.5.7.1-.2,0-.5,0-.7.4.2.4-.2.6-.7v.7c.3,0,.8.2,1.1,0,.4-.2-.3-.4.4-.7,0,.7-.4,1.1-.7,1.6-.4.6-.5.7-1.1.8v-.6c-.4,1.4-.6,0-1.1-.4h0ZM4.2,64c-.2-.3,0-.4.2-.7.2.3,0,.5-.2.7ZM4.9,64.2c.1.4-.4,1.3-.8,1.5.1,0,.3,0-.1,0-.1-.6.6-2.4.9-1.6v.1ZM2.9,67.8c.4-.8.9-.5,1.5-1.1.3,1,.2.9-.5,1.3-.6.3-.7.5-1-.3v.1Z"/>
      <path class="cls-1" d="M13.8,62.6s-.1,0-.2-.1c.2-.2.2,0,.2.1Z"/>
      <path class="cls-1" d="M7.3,70.1c0,.2.4,1.1.4,1.2,0,.8-.2,1.3-.8,1.1-.4-.1-1.1-1.1-1-1.7,0-.6.6-.7.8-1.1.5,0,.4,0,.7.5h-.1Z"/>
      <path class="cls-1" d="M1.9,62.3c-.2.2-.1.3-.1.7-.2.9-.3,2-1,.8-.2,0-.3-.2-.3-.4v-.3c-.1-.1-.2-.3-.3-.4.4-.1.4-.3,0-.4.5,0,.6-.1,1-.3.2,0,1.3-.3,1.5,0,.4.6,0,.5-.3.5-.2,0-.3-.4-.6-.2h.1Z"/>
      <path class="cls-1" d="M.5,66.6c.2-.1.6-.3.8-.5.2-.3,0-.3.2-.6.1-.3-.1-.4.2-.7.2-.2.6-.1.8-.1,0,.1-.7,1.6-.5,1.7-.3.3-1.3,1.1-1.5.3v-.1Z"/>
      <path class="cls-1" d="M9.2,57.8c.2.1.3.4.4.7v.3c-.6.1-.8-.1-1.3-.6.3-.2.6-.6.9-.4Z"/>
      <path class="cls-1" d="M11.6,57c0,.2-.1.4-.2.6-.2-.2.1-.6.2-.6Z"/>
      <path class="cls-1" d="M19.7,59.1c0-.2,0-.3-.1-.6.2.2.4.3.1.6Z"/>
      <path class="cls-1" d="M7.6,69.5v.3c-.2-.2,0-.1,0-.3Z"/>
      <path class="cls-1" d="M10.7,58.7v.3c-.2,0,0-.2,0-.3Z"/>
      <path class="cls-1" d="M85.7,98.4c-.1.5-.4.8-.7,1.2,0-.1,0-.2-.1-.3.1-.3.2-.8.3-1.2-.5,0-.7.2-.9-.5.5-.2,1-.5,1.5-.7v1.5h-.1Z"/>
      <path class="cls-1" d="M96.8,93.5c-.4-.4-.4-.3-.2-1.1.2.3.5.6.2,1.1Z"/>
      <path class="cls-1" d="M101.3,107.5c-.6-.4,1.2-1.4,0,0h0Z"/>
      <path class="cls-1" d="M111.7,58c-.6-.6,1.5-.9,0,0h0Z"/>
      <path class="cls-1" d="M38.2,50.5c-.7.5-.3-.5,0,0h0Z"/>
      <path class="cls-1" d="M120.5,60.1c0-.2-.2-.4-.3-.5.2-.3.8.5.3.5Z"/>
      <path class="cls-1" d="M141.1,49.2c.6.3,1.2.6,1.8.9-.3.7-.6.5-1.1.4.1.4.3.9.4,1.2,0,0-.1.2-.2.3-.3-.4-.7-.7-.8-1.2-.1-.4,0-1.1,0-1.5l-.1-.1Z"/>
      <path class="cls-1" d="M128.1,43.8q.2.7-.3,1c-.3-.4-.1-.3,0-.2-.1-.4.1-.6.3-.8Z"/>
      <path class="cls-1" d="M61.3,65.2c-.2-.1-.5-.2-.5-.5.2,0,.9.1.5.5Z"/>
      <path class="cls-1" d="M120.1,99.6c.4-.7.8-.7,1.2-.2.3.4.2.4.3.8,0,.2,0,1.2-.2,1.4-.2.3-1,.2-1.2.2-.4-.4-.4-.3-.4-.9,0-.2.1-1.1.2-1.3h.1Z"/>
      <path class="cls-1" d="M119.5,101h-.2c.1-.3.2-.3.2,0Z"/>
      <path class="cls-1" d="M107.8,6.5c-.5-.1-.5,0-.7-.5-.1-.2-.3-.8-.3-1,0-1,.4-1.6,1-1.1.3.2,1,1.2.9,1.7,0,.4-.8.8-.9.9Z"/>
      <path class="cls-1" d="M102.1,6.7c-.6-.7-.5.8-1,0-.3-.4,0-1.1-.4-1.5.6-.1.7,0,.7-.8.2.2.4.3.5.5,0-.1,0-.3.1-.4.4.4.9.7,1,1.4-.6.1-.8,0-1,.8h.1Z"/>
      <path class="cls-1" d="M106.9,6.3c-.2,0-.2.1-.2.2,0-.3,0-.4.2-.2Z"/>
      <path class="cls-1" d="M115,9.7c-.2,0-.6-.1-.8,0-.3.1-.6.7-.5,1.1.1,0,.3,0,.4-.2v1.5c.2.2.2.4,0,.5-.1.2-.2.4-.3.6h.8c.2.9,1.4,0,1.8,0,.3.2.7.5.9.8h0q.3.4.2,1.1c-.2-.1-.4-.2-.6-.2,0,0-.2.1-.3.2,0,0-.1-.2-.2-.2-.3.1-.5.4-.7.5l.1.1c-.5.3-.4.2-.3,0-.5.2-1,0-1.2-.7h.3c0-.1-.2-.2-.2-.4h-.2.2c-.2-.4-.4-.7-.8-.8-.4,0-.9.4-1.3.4-.5,0-.8-.4-1.2-.8-.5-.6-1.3-.4-1.8-1,.4-.2.7-.2,1.1-.3,0-.3.1-.7.2-.9.3.2.5.4.8.5,0,0-.2.2-.3.4q0,.7.7.9c0-.3-.2-.5-.3-.8-.2-.3-.2-.5.1-.6.2-.2.4-.3.6-.5,0-.3-.1-.6-.2-.9.7-.3,1.4-.6,2.1-.9.5-.2.6-.1,1.1.4.2.3.7.7.2,1-.3-.6-.2-.6-.7-.8h.3Z"/>
      <path class="cls-1" d="M117.7,12.4s-.1.2-.2.2c-.2,0-.7-.2-.9-.3,0,0,.2-.1.2-.2-.2-.4-.9-1.2-.9-1.6,0-.5.6-1.9,1-1.9,0,0,.9.6.9.7,0,.3-.2.5-.3.6-.3.3-.8.2-1,.8.9.3,1.1.3,1.8-.3,0,.5,0,.9-.1,1.4h0c.2,0,.4-.1.6-.2,0,.8.4,1.2.2,2-.4-.4-.8-.8-1.3-1.2Z"/>
      <path class="cls-1" d="M97.9,2.5c.4-.6.7-.6,1.2-.7,0,.8.4,1.2.2,2-.5-.4-.9-.8-1.4-1.3Z"/>
      <path class="cls-1" d="M34,91.9s.1,0,0,.2c-.6-.1-.7-.3-1.1-1,.3,0,.7-.3,1,0,.2.2.1.5,0,.7l.1.1Z"/>
      <path class="cls-1" d="M48.6,116.5c-.1,0-.2.1-.3.3,0,0,.1-.1.3-.3Z"/>
      <path class="cls-1" d="M19.7,92.6s0,.1.1.2c0,0-.2,0-.1-.2Z"/>
      <path class="cls-1" d="M93.7,79.4c.6,0,.8.2,1.2.8-.5.2-1.2.4-1.2-.5v-.3Z"/>
      <path class="cls-1" d="M89.6.5c-.1.1-.2.3-.2.4,0,0,0-.2.2-.4Z"/>
      <path class="cls-1" d="M76.7,24.5c0,.1.2-.5,0,0h0Z"/>
      <path class="cls-1" d="M79.2,21.7c0-.1.1-.1.2-.2,0,.1,0,.3-.2.2Z"/>
      <path class="cls-1" d="M133.7,31.1s.1.1.2.1c0,0-.2,0-.2-.1Z"/>
      <path class="cls-1" d="M144.2,33c-.1,0-.3-.1-.4-.1,0,0,.2,0,.4.1Z"/>
      <path class="cls-1" d="M135.3,33s.1,0,.2-.1c0,0-.1.2-.2.1Z"/>
      <path class="cls-1" d="M140.5,37.2c0-.7.3,0,.4.2.4.3.5.6.8,0,.5-.5,1-1.3,1.2.1.2.2.2.3,0,.4l-.1.1c0,.2,0,.3.1.5-.4-.2-.4,0-.2.3-.4-.4-2.4-.7-2.3-1.5l.1-.1Z"/>
      <path class="cls-1" d="M142.8,34.7c.3,0,1.5,0,1.4.7-.2,0-.7-.2-.9-.1-.3,0-.1.2-.4.3-.2.1,0,.4-.4.4-.2,0-.6-.3-.8-.4,0,0,1.2-.7,1.1-.9h0Z"/>
      <path class="cls-1" d="M133.4,35.3c.6.3.7.6.9,1.3-.5,0-1.5-.2-.9-1.3Z"/>
      <path class="cls-1" d="M27.3,77.3c.6,0,.8.2,1.2.8-.5.2-1.2.4-1.2-.5v-.3Z"/>
      <path class="cls-1" d="M118.8,31.4s.1,0,.2.1c0,0-.2,0-.2-.1Z"/>
      <path class="cls-1" d="M114.9,28.3s-.2,0-.2.1c0,0,.1-.2.2-.1Z"/>
      <path class="cls-1" d="M110.3,26.5c.4-.5.9-1,1.4-.4l.2.2c-.6.4-.9.3-1.5.3l-.1-.1Z"/>
      <path class="cls-1" d="M112.8,25.6s0,.1.1.2c-.2,0,0,0-.1-.2Z"/>
      <path class="cls-1" d="M120.3,40.6c.2,0,.3-.2.4-.3h0c-.1.1-.3.2-.4.3Z"/>
      <path class="cls-1" d="M126.8,30.9v.2c-.2,0,0,0,0-.2Z"/>
    </g>
  </g>
</svg>