<?xml version="1.0" encoding="UTF-8"?>
<svg id="Layer_2" data-name="Layer 2" xmlns="http://www.w3.org/2000/svg" xmlns:xlink="http://www.w3.org/1999/xlink" viewBox="0 0 3740.31 2758.93">
  <defs>
    <style>
      .cls-1 {
        fill: none;
      }

      .cls-2 {
        clip-path: url(#clippath);
      }

      .cls-3 {
        fill: #1e3f2d;
        fill-rule: evenodd;
      }
    </style>
    <clipPath id="clippath">
      <rect class="cls-1" x="154.97" y="1327.31" width="3585.34" height="915.09"/>
    </clipPath>
  </defs>
  <g id="Layer_1-2" data-name="Layer 1">
    <g>
      <path class="cls-3" d="M565.35,1694.28c1.84-19.19,3.42-43.72,5.25-78.94,1.01-19.06,2.83-47.18,6.06-93.39.61-8.1,1.31-42.03,1.62-75.29.51-69.19,1.62-89.96,5.96-116.27.91-4.96,2.43-18.3,3.54-29.54,6.36-63.38,9.09-129.9,7.17-174.4-2.52-58.71-11.32-169.64-13.94-175.55-1.01-2.19-1.42-5.14-1.11-7.81.71-5.24-.61-6.86-21.72-27.26-31.43-30.21-54.97-48.89-71.44-56.61-13.44-6.29-51.73-24.87-65.58-31.73-10.11-5.05-10.91-5.24-23.75-6.67-11.42-1.34-14.95-1.34-25.36-.29-25.26,2.57-26.98,2.39-42.54-3.33-3.44-1.24-10.21-2.96-15.16-3.82-13.64-2.47-41.02-10.57-54.16-16.01l-5.66-2.38-2.12,2.1c-1.21,1.14-2.83,4.19-3.74,6.67-2.73,7.62-10.1,13.91-24.15,20.68-6.67,3.24-15.96,7.15-20.61,8.58-7.88,2.57-8.69,2.66-10.91,1.33-3.84-2.38-3.03-5.81,2.73-11.53,4.55-4.57,4.95-5.24,4.04-7.53-2.63-6.57-.1-15.25,6.36-22.01,1.92-2.1,4.04-5.44,4.65-7.53.61-2.1,2.22-5.43,3.64-7.34,1.42-1.91,2.53-3.72,2.53-3.91s-2.73-2.38-6.06-4.95l-6.16-4.48-4.04,2.47c-2.22,1.43-3.73,2.86-3.54,3.34.3.38-.2,1.62-1.01,2.76-1.82,2.48-7.17,2.86-8.08.67-.4-.76-1.72-1.43-2.93-1.43-2.22,0-2.43.38-2.22,4,.2,3.91.1,4.1-2.83,4.1-2.32,0-3.13-.47-3.34-2.09-.5-3.05-2.43-4.1-6.57-3.44-3.13.48-3.64.86-3.23,2.39.5,1.14-.81,3.71-3.84,7.72-2.53,3.24-5.25,7.53-6.06,9.43-3.34,7.43-15.16,15.92-22.23,16.01-1.61,0-3.64.38-4.65.95-2.52,1.24-3.54,6.87-2.02,10.97,1.52,3.81.1,6.19-3.54,6.19-2.83,0-4.65-1.72-4.65-4.48,0-1.14-1.72-4.67-3.74-7.72-2.12-3.14-4.25-6.38-4.85-7.24-.81-1.24-1.92-1.43-5.76-.95-4.65.57-4.85.76-5.96,4.57-.51,2.1-2.22,6.86-3.64,10.39-2.02,4.95-2.42,6.67-1.52,7.53,1.72,1.62,1.52,6.09-.4,7.81-1.92,1.91-5.86,2-7.78.1-1.11-1.05-1.41-4.1-1.31-13.82l.1-12.58-4.04.47c-2.22.29-7.78.96-12.43,1.62-7.27.96-8.69.96-10.81-.38-4.25-2.66-5.76-5.91-6.67-14.67-.51-4.58-1.62-9.63-2.53-11.34-.91-1.72-1.41-3.72-1.01-4.58.91-2.29,5.05-1.43,5.46,1.14.71,4.39,2.73,4.2,6.06-.66,1.82-2.57,4.45-5.43,5.96-6.39,4.95-3.24,13.44-12.1,13.44-14.2,0-1.9-1.72-2.48-2.43-.76-2.63,6.48-41.53,9.25-60.73,4.38-3.84-1.04-8.69-1.62-10.71-1.43-2.83.39-3.84.1-4.34-1.14-1.52-3.91,2.83-7.72,5.96-5.24,1.01.86,2.32.86,4.75.19,1.82-.57,5.05-1.24,7.18-1.62l3.84-.57-5.56-5.24c-3.13-2.86-5.66-5.53-5.66-6.01s-1.21-2.19-2.63-3.81c-1.92-2.19-2.43-3.62-2.02-5.34,1.31-4.86,8.69-3.71,8.69,1.43,0,1.72.81,3.24,2.22,4.2,1.21.85,2.32,1.33,2.53,1.14.2-.09-.61-2.76-1.72-5.91-2.62-7.43-2.52-9.53.51-12.39,2.32-2.19,2.83-2.28,10.61-1.71l8.08.66v-2.47c0-1.34-.4-2.77-1.01-3.05-2.02-1.24-1.11-6.01,1.62-8.01,3.44-2.57,5.96-2.48,8.79.1,1.31,1.24,4.24,2.66,6.57,3.24,3.74.95,4.24.85,4.24-.58,0-.85-1.31-2.95-3.03-4.57-3.94-3.91-3.03-6.77,2.93-8.77,3.84-1.24,4.54-1.24,7.38.29,3.74,2,4.04,1.81,3.64-2.29-.3-2.95-.41-3.05-2.02-1.52-.91.85-2.32,1.62-3.13,1.62-2.22,0-4.04-6.77-3.54-13.15.5-7.25,3.54-11.73,12.43-18.59l6.47-4.95-5.76-.58c-3.13-.28-6.77-1.04-7.98-1.61-1.21-.67-3.34-1.15-4.75-1.15-3.64,0-5.25-3.24-3.13-6.29,1.72-2.48,4.45-2.95,6.27-1.24.91.86,2.62.48,6.77-1.62,5.15-2.57,5.46-2.86,3.94-4.38-1.11-1.14-2.43-1.53-4.14-1.05-1.72.38-2.93.09-3.74-1.05-1.92-2.38-.71-5.24,2.43-5.91,1.41-.28,4.04-.95,5.66-1.43,1.72-.57,7.28-1.23,12.33-1.52l9.4-.57-3.64-3.72c-1.92-2.1-5.05-6.96-6.97-10.86-1.92-3.91-4.14-7.34-4.95-7.63-2.53-.86-2.12-5.14.41-5.14,1.11,0,2.32.66,2.62,1.42.3.77,3.44,3.15,6.77,5.34,3.44,2.19,8.39,5.91,11.12,8.29l4.75,4.39,4.35-4.01c3.54-3.33,3.94-4.19,2.73-4.95-.81-.48-2.32-.95-3.23-.95-1.01,0-4.04-.86-6.87-1.82-2.83-1.04-5.96-1.62-6.97-1.33-1.21.29-2.32-.19-3.03-1.43-1.42-2.57.81-5.43,3.84-4.67l2.23.48-2.02-2.96c-1.11-1.71-2.52-5.24-3.13-7.81-.71-2.67-1.92-5.72-2.62-6.86-1.82-2.77-1.82-5.44.1-6.96,2.02-1.52,4.34-.57,5.55,2.29.81,2.09,7.07,6.29,7.07,4.86,0-1.15-4.04-8.01-5.05-8.58-1.72-1.05-1.11-4.1,1.01-4.76,2.42-.77,4.04.09,4.04,2,0,.76.5,1.33,1.01,1.33.61,0,1.01-1.81,1.01-4.1.1-6.19,2.43-14.48,4.25-14.77.81-.19,2.22.76,3.13,2.1,1.11,1.52,2.32,2.19,3.54,1.81,1.62-.38,2.12-1.62,2.63-6.77.3-3.52,2.22-10.67,4.04-15.91,5.76-16.11,5.66-15.82,8.09-15.54,2.73.38,3.23,2.96,1.01,4.96-1.31,1.33-1.52,2.67-1.01,6.96.4,2.95.91,5.62,1.21,6.1,1.01,1.62,3.44-.39,3.44-2.86,0-1.34,2.52-7.44,5.66-13.44,3.13-6.01,6.06-12.2,6.37-13.82.81-3.24,3.74-4.38,4.85-1.81.3.86.1,2.38-.5,3.34-1.31,1.9-1.41,10-.3,17.53.71,5.15,1.11,4.77,3.13-4.29.71-2.86,3.23-8.77,5.66-13.15s4.85-9.72,5.46-11.72c.8-2.86,1.61-3.72,2.83-3.53,1.21.29,1.62,1.05,1.41,2.67-.2,1.33-.61,8.01-.91,14.96-.4,12.39-.4,12.58,2.32,16.39,3.03,4.48,4.14,4.86,4.95,1.72,2.02-8.39,2.52-11.15,2.52-14.68,0-2.19.41-4.19.91-4.48.81-.47,2.83-8.76,3.34-13.91.2-1.62.91-2.38,2.32-2.38,1.82,0,2.02.57,1.71,4.76-.1,2.58.41,7.53,1.11,10.96,1.21,5.24,1.72,6.1,3.34,5.91,2.62-.48,2.73-.67,1.51-2.86-1.51-2.76,1.01-5.91,3.34-4.1.91.67,1.62,2.1,1.62,3.05,0,1.62.81,1.81,6.37,1.81,3.43,0,7.27.29,8.59.58,2.93.76,2.83-.67-.3-4.2-2.93-3.33-3.13-4.29-.91-6.29,1.11-1.14,2.62-1.33,5.46-.95l3.84.57.71-5.05c.3-2.86,1.11-6.38,1.71-7.81.81-2,.81-3.24-.2-4.96-1.11-1.9-1.11-2.57,0-3.81,1.11-1.24.61-1.43-4.45-1.43-3.23,0-8.18-.86-11.52-2-3.13-1.05-6.57-2.19-7.48-2.48-1.11-.28-3.34.76-5.86,2.86-2.32,1.81-6.06,3.81-8.39,4.38-4.75,1.05-20,0-22.12-1.52-2.02-1.53-13.95-.38-13.95,1.33,0,2.38-3.94,8.58-6.67,10.68-4.14,3.14-8.99,2.66-13.14-1.24-1.92-1.81-3.44-4.1-3.44-5.15,0-3.52-1.71-3.14-4.55.95-3.84,5.53-11.52,13.06-14.85,14.68-1.52.76-3.74,1.33-4.95,1.33-2.63,0-5.96-2.57-5.96-4.47,0-2.29-1.61-1.34-4.95,3.05-5.15,6.86-12.02,9.14-15.76,5.24-1.52-1.53-1.72-3.05-1.32-8.77.3-3.81,1.11-7.05,1.72-7.24,1.31-.39,1.52-3.05.2-3.05-.5,0-1.92,3.71-3.13,8.29-4.04,15.44-8.49,20.87-12.53,15.15-1.01-1.52-2.63-2.48-4.04-2.48-3.64,0-11.11-6.86-13.64-12.39-2.02-4.48-2.22-5.81-1.52-14.96.5-7.91,1.11-10.48,2.53-11.82,2.52-2.38,4.45-2.28,7.07.19,1.72,1.63,2.02,2.67,1.41,5.34-.61,2.96-.3,3.72,2.53,6.1,1.72,1.53,3.34,2.77,3.54,2.77,1.01,0,1.32-7.44.51-14.78-.81-7.05-.71-8.96.61-10.67,1.82-2.67,5.05-2.86,6.67-.29.71,1.05,2.32,1.91,3.64,1.91s5.36,1.14,8.99,2.48l6.57,2.47,2.43-2.19c2.32-2.09,3.23-4.67,1.71-4.67-2.22-.09-6.57-4.86-7.17-7.72-2.02-9.34,2.02-22.11,7.38-23.34,2.83-.67,3.94-4.2,2.43-7.44-2.32-4.67,4.24-9.62,7.98-6.1.71.67,1.21,2.67,1.21,4.48,0,3.15.1,3.24,1.92,1.62,1.11-.95,2.12-2.67,2.32-3.81.2-1.43,1.01-2,2.83-2,3.54,0,3.74,3.14.61,7.62-3.94,5.43-3.54,6.29,1.41,3.81,2.52-1.23,3.03-2.09,3.03-5.05,0-4.76,2.43-13.43,6.06-21.82,2.02-4.57,2.83-7.62,2.43-9.53-.61-3.15,1.41-5.43,4.34-4.86,1.41.29,1.82,1.14,1.62,3.62-.1,4.29,1.71,17.15,2.83,19.06.5.95.81-.29.91-3.33,0-2.67.81-9.15,1.72-14.49,1.41-8.1,1.52-10.1.4-12.01-1.52-2.67-.1-6.38,2.53-6.38,1.11,0,1.31-.58.91-1.91-.91-2.57.2-5.53,2.52-6.67,2.63-1.33,4.65-.38,6.87,3.14,1.01,1.72,4.45,4.39,7.58,6.1l5.76,3.05v-2.76c0-2.19-.71-3.15-3.13-4.29-4.75-2.38-11.21-8.29-12.73-11.72-1.41-3.24-1.01-6.2,1.21-8.77.61-.76,1.82-3.62,2.53-6.19,2.02-7.25,5.45-14.11,11.62-23.26,3.03-4.57,5.56-9.24,5.56-10.38,0-2.1,3.23-5.91,4.95-5.91,1.11,0,.1-3.81-2.52-8.87-1.62-3.24-2.02-3.52-5.05-2.95-4.24.76-7.17-.86-7.98-4.19-.81-3.53,2.12-15.63,5.15-21.26,2.43-4.67,5.86-13.72,6.97-18.77.4-1.62,1.11-3.14,1.62-3.24,2.73-.38,3.23,0,4.34,3.05,1.01,2.96,1.52,3.34,4.55,3.34,5.25.09,9.7,6.67,5.76,8.76-.71.38-1.82,2.86-2.43,5.34-.91,4.1-.81,4.86.91,6.48,1.42,1.33,2.12,1.53,2.32.67.2-.67,1.11-3.15,2.02-5.53.91-2.38,1.62-5.24,1.62-6.38,0-4.87,5.96-5.34,7.58-.67.91,2.57,1.31,2.86,2.83,1.9,2.43-1.33,5.15,1.72,3.74,4.1-.61,1.15,0,3.91,1.82,8.77l2.73,7.05.61-7.15c.41-3.9,1.72-10.57,2.93-14.77,1.32-4.19,2.32-9.91,2.43-12.77.1-5.53,1.82-7.62,5.15-6.38,1.52.47,1.72,1.33,1.21,4.76-.61,4.2.61,8.96,4.65,17.63l1.41,3.24,2.32-5.62c1.21-3.05,2.32-7.72,2.42-10.29.1-5.34,2.32-7.63,5.16-5.34,1.31,1.05,1.52,2.19,1.11,4.86-.71,3.91.2,9.63,1.42,8.96.4-.19,1.31-2.38,2.02-4.77,1.52-5.14,3.43-6.95,5.56-5.24.8.67,1.51,1.53,1.51,2.01s1.21,2.57,2.63,4.66c1.52,2.1,3.74,6.48,4.95,9.72,2.42,6.2,5.25,8.96,4.14,4.01-1.11-5.15-.5-28.69.71-30.69.5-.57,2.63-1.14,4.85-1.14,3.64,0,4.45.66,4.04,3.14-.1.38.41,2.67,1.01,5.05,1.01,3.82,1.31,4.2,2.22,2.67.61-1.05,1.01-4.67,1.01-8.29-.1-5.34.2-6.58,1.72-7.34,2.42-1.24,2.62-1.24,4.45.57.91.77,1.61,2.86,1.61,4.48,0,2.67,5.66,12.96,7.07,12.96.3,0,1.32-1.62,2.32-3.62,1.92-4,1.72-11.72-.5-16.01-.61-1.14-.81-2.76-.5-3.52,1.01-2.48,4.55-1.82,5.96,1.04,2.52,4.96,6.87,3.72,6.87-1.81,0-2.86,2.62-4.76,5.66-4,1.01.19,3.23.1,4.85-.38,2.52-.67,3.43-2,8.29-13.91,4.04-9.73,5.36-14.01,4.95-16.21-.4-2.09.2-4.09,1.82-6.76,2.83-4.77,6.16-5.53,7.98-1.91.61,1.34,1.61,2.29,2.22,2.1,1.51-.48,5.55-14.01,6.46-21.16.61-4.95,1.01-5.72,3.03-6,2.73-.38,3.94,2,2.63,5.43-1.11,2.57.2,20.97,1.41,22.11.4.38,3.33.86,6.57,1.14,5.25.48,5.86.39,5.15-1.05-.81-1.9-3.64-9.91-5.96-17.44-1.31-4.09-1.52-5.81-.61-7.33.61-1.05,1.11-3.24,1.11-4.67,0-1.53.71-5.34,1.72-8.39.91-3.14,1.62-6.96,1.52-8.48-.3-5.62,4.25-8.86,7.98-5.72,2.52,2.1,2.43,6.29-.1,8.48-1.31,1.15-2.02,2.86-1.92,5.15.2,5.53,1.11,7.34,3.94,7.24,2.12,0,2.53-.67,3.64-5.72.71-3.14,2.93-10,4.95-15.15,2.02-5.24,3.54-10.58,3.33-11.91l-.3-2.48-1.52,2.86c-1.01,1.91-2.43,2.95-4.34,3.14-2.23.29-3.13-.28-4.95-3.24-1.41-2.19-2.32-3.05-2.62-2.19-1.42,4.48-6.07,3.91-8.79-1.05-1.31-2.38-2.22-2.86-5.15-2.86-6.67,0-17.89-6.95-21.22-13.15-1.11-1.9-2.93-4.48-4.14-5.62-2.83-2.57-2.93-5.15-.5-7.24,1.82-1.53,2.22-1.43,7.98,1.24,3.74,1.71,8.39,5.24,12.23,8.95l6.27,6.1v-7.24c0-4.76.71-9.53,2.12-13.53,1.11-3.43,2.43-8.96,2.73-12.39.71-6.1.71-6.2,4.04-6.48,3.64-.38,3.54-.86,3.64,9.82.1,4.19.61,8.48,1.31,9.53,1.01,1.62,1.21,1.52,2.83-1.91.91-2.1,1.72-5.53,1.82-7.53.2-4.38,2.62-6.48,5.55-4.76,1.21.85,1.62,2.19,1.52,5.24-.3,4.86,2.63,14.96,3.84,13.15.41-.67.3-2.19-.2-3.53-1.11-2.67,1.11-6.86,3.54-6.86s4.95,3.53,4.24,6.29c-.4,1.43-.4,3.81-.1,5.34,1.11,4.76,2.93,1.52,3.03-5.53.2-5.81,1.11-7.91,3.64-8.01,1.52,0,3.23,3.15,3.13,5.91-.1,3.44,3.03,11.73,5.76,14.97l1.82,2.19,2.73-6.48c1.92-4.39,2.63-7.44,2.22-9.34-.71-3.81.5-5.63,3.54-5.15,2.12.29,2.52.95,3.03,5.05.61,4.67,2.83,10.96,3.94,10.96,1.11-.09,11.12-14.48,11.12-16.2,0-1.91,2.52-4.76,4.14-4.76.61,0,1.92.47,3.03.95,1.52.86,1.92.67,1.92-.48,0-.76-.51-2.29-1.11-3.24-1.62-2.28-.4-6.48,2.12-7.72,1.62-.76,2.83-.66,5.16.38,1.71.86,4.75,1.72,6.87,2.1,5.35.76,11.01,2.96,14.75,5.62,4.34,3.15,4.95,2.96,2.83-.76-2.02-3.53-2.22-16.3-.3-19.63,1.52-2.86,6.36-2.67,8.89.28,2.12,2.67,11.32,9.44,11.92,8.96.61-.57.51-5.71-.2-9.53-.51-2.76-.2-3.81,1.52-5.43,1.21-1.14,3.03-2,4.14-2,1.82,0,2.02-.38,1.52-3.15-1.21-5.81,4.95-10.19,10.51-7.33,2.43,1.24,4.55,6.1,3.74,8.95-.5,1.82.3,3.05,4.25,6.48,2.73,2.39,5.86,4.77,7.07,5.44,3.23,1.62,4.35-.96,2.63-6.39-.81-2.38-1.41-6.29-1.41-8.67,0-6.29,2.12-20.39,3.33-21.82,1.21-1.43,5.96-1.53,7.58,0,1.52,1.43,1.52,6,0,8.38-1.11,1.62-.5,2.48,4.85,7.82,3.34,3.33,6.97,7.24,7.98,8.67l1.92,2.76,1.21-4.86c.81-2.57,3.54-8.77,6.16-13.63,2.63-4.86,5.05-10.29,5.36-12.1.61-4.1,2.93-5.62,6.47-4.1,2.12.86,2.62,1.81,2.62,4.48,0,2.1-.61,3.62-1.52,3.91-1.11.48-1.52,2.1-1.52,6,0,3.05.3,5.72.61,6.1.3.29,4.34-2.57,8.89-6.29,4.45-3.81,9.09-7.53,10.2-8.29,1.11-.76,2.83-2.57,3.84-4.1,3.34-4.86,10.81-2.47,10.81,3.63,0,3.62-1.62,5.24-5.05,5.24-2.02,0-3.03.76-4.45,3.43-.91,1.9-1.41,3.71-1.11,4,.5.48,3.43-1.52,12.83-8.86,2.83-2.1,3.84-3.62,3.84-5.63,0-6.09,6.97-8.38,11.62-3.9,4.14,3.81,3.13,7.81-2.63,11.15-2.22,1.33-7.88,11.24-6.36,11.24,2.02,0,11.62-7.53,12.12-9.53,1.01-3.9,3.33-6.67,5.55-6.67,1.32,0,2.43-.95,3.13-2.86,1.72-4.76,8.39-7.05,13.24-4.67,3.54,1.81,11.92,10.49,13.44,13.92,1.11,2.28,2.12,3.14,3.84,3.14,1.41,0,3.13.29,4.04.57,1.31.48,1.62-.19,1.62-3.43,0-3.52-.51-4.48-4.04-7.53-5.66-4.86-5.15-9.62,1.01-9.62,2.73,0,5.25,2,6.36,4.86.3.86,3.64,2.67,7.48,4.1,3.74,1.33,8.59,3.52,10.61,4.86,4.55,2.86,4.45,2.86,5.25.19.3-1.14,2.63-4.48,5.16-7.34,5.86-6.58,7.88-10.1,7.07-12.39-.3-1.05-.1-2.67.51-3.81,1.31-2.38,6.67-2.57,9.29-.29,2.22,1.91,2.32,5.72.3,7.91-1.41,1.53-1.41,2.39.1,9.15.81,4.1,1.82,7.82,2.02,8.2.3.38,3.23-2.1,6.47-5.62,4.45-4.87,5.86-7.15,5.86-9.25-.2-5.15,5.25-6.96,9.7-3.24,3.84,3.43,4.25,6.1,1.11,8.77-1.41,1.24-3.03,3.62-3.54,5.34-.81,2.66-.5,3.33,3.13,6.76,4.55,4.29,5.96,4.67,5.96,1.43,0-1.24.71-2.76,1.51-3.43,2.83-2.19,9.6-15.34,9.6-18.58,0-4.1,4.04-7.44,7.98-6.58,3.13.67,8.18,5.43,8.18,7.82s-2.83,5.9-4.64,5.9c-2.02,0-1.82,4.77.4,6.29,2.43,1.82,3.94,1.62,6.27-.57,5.05-4.76,14.85,1.05,12.63,7.53-.5,1.53.61,3.81,3.84,8.48,2.43,3.53,5.66,8.39,7.18,10.87,1.52,2.57,3.33,4.57,4.04,4.57,1.52,0,5.05,3.62,5.96,6.01.51,1.23,1.32,1.52,3.44,1.04,3.74-.85,3.54-.57,1.82-4.48-.81-1.9-1.52-4.47-1.52-5.71,0-1.34-.91-3.43-2.02-4.77-2.22-2.67-2.62-7.34-.81-9.05,2.12-2,7.78-1.34,10.51,1.24,2.23,2.09,2.43,2.95,1.92,6.57-.61,3.72-.3,4.77,3.43,10.39,3.94,5.81,4.35,6.2,6.97,5.53,3.34-.96,3.34-4.1.1-7.34-1.72-1.72-1.92-2.48-1.01-4.1,2.32-4.1,9.19-1.24,9.19,3.72,0,1.43,1.32,4.86,2.93,7.62,2.73,4.67,3.03,4.86,4.04,2.96,1.41-2.39,5.36-2.67,7.18-.57.71.76,1.01,2.57.71,4-.81,3.9.2,5.05,4.04,5.05,2.52,0,4.34-.67,5.96-2.38,4.04-4.1,11.92-2.29,15.05,3.33,1.62,2.96,3.13,3.15,8.59,1.24.81-.29,3.54-.95,6.07-1.43,2.52-.48,5.66-1.05,7.07-1.33,6.37-1.34,11.21,7.81,5.56,10.29-2.93,1.24-3.23,2.19-.81,3.05.91.38,2.53-.19,3.84-1.34,1.21-1.04,2.73-1.9,3.34-1.9,2.02,0,1.31-3.53-1.32-6.48-3.03-3.43-3.13-4.39-.61-6.77,1.21-1.14,2.73-1.62,4.55-1.33,3.23.57,6.97,4.76,6.37,7.05-.3,1.05,2.52,4.38,8.39,9.91l8.89,8.29,1.72-2.38c1.11-1.72,1.41-3.43.91-6.19-.61-3.43-.3-4.01,2.02-5.44,7.58-4.67,17.18,5.63,10.1,10.87-2.32,1.71-2.62,2.67-2.83,9.05-.1,3.91-.71,7.62-1.31,8.39-1.01,1.14-.41,8.19,2.32,26.97.4,2.76.61,2.86,4.95,2.57,3.94-.38,4.95,0,7.58,2.48,1.62,1.62,3.03,3.81,3.03,4.86,0,1.14.61,2,1.41,2s2.63,1.33,4.14,2.95c2.02,2.39,2.53,3.63,2.02,5.72-.5,2.1-.3,2.77.81,2.77.81,0,2.63.85,4.14,2,2.52,1.81,3.23,1.9,13.14,1.05,7.48-.58,11.01-1.34,12.22-2.39,2.23-2.19,3.94-2,7.07.57,3.13,2.48,2.63,4.87-1.31,6.29-1.92.58-2.12.96-.91.96,3.54.19,7.98,3.05,8.99,5.91,1.21,3.24,4.04,3.43,4.65.38.81-3.81,2.12-4.29,10.21-3.91,4.24.29,8.39.67,9.29,1.05.91.28,3.13-.95,6.06-3.43,2.43-2.1,6.47-4.86,8.99-6.1,2.53-1.24,5.05-3.24,5.56-4.39,2.32-5.05,9.3-5.24,14.65-.38,3.43,3.15,5.46,3.05,8.08-.47,3.03-3.91,7.98-4.67,13.84-2,9.6,4.38,8.79,13.82-1.21,14.58-3.54.28-4.25.76-6.47,4.38-2.22,3.81-2.32,4.58-1.21,9.53.61,2.95,1.52,5.72,1.92,6.1,1.11,1.05,14.75-10.58,15.16-12.96.71-5.34,1.32-6.2,4.75-7.24,3.03-.96,4.14-.86,7.28.66,2.02.96,4.64,2.96,5.76,4.39,1.92,2.47,1.92,2.86.5,5.24-.8,1.43-2.42,2.67-3.53,2.86-2.43.28-4.45,5.33-4.45,11.24-.1,2.1-.91,6.01-1.92,8.68l-1.82,5.05h2.52c1.41,0,3.34-.58,4.14-1.34,3.03-2.57,6.47-2.76,10.21-.38,6.56,4.1,4.34,10.2-3.24,9.15-3.13-.48-3.74.19-7.17,7.81l-1.41,3.44,3.64.09c2.02.1,6.47.48,10.01.76,5.86.67,6.56.57,7.88-1.33.81-1.05,2.52-2,3.74-2,2.82,0,6.77,2.48,6.77,4.38,0,.76.4,1.34.8,1.34,1.82,0,12.33-6.96,12.33-8.2,0-1.81,3.44-1.72,5.16.19,1.11,1.24,1.01,1.62-.41,2.38-.91.48-2.43,3.34-3.33,6.39-.91,2.95-2.43,7.24-3.44,9.34-1.01,2.19-1.62,4.29-1.31,4.57,1.61,1.53,3.53.19,5.76-4,1.31-2.48,4.95-7.62,8.08-11.44,4.55-5.52,5.66-7.52,5.46-10-.31-2.67,0-3.05,2.52-3.34,1.72-.19,3.74.38,4.85,1.34,2.12,1.81,2.63,5.14.81,5.14-.91,0-1.01,2.77-.5,9.72.6,9.44-.11,14.87-2.93,21.16-.81,1.71-.51,1.81,5.45,1.14,7.98-.86,8.69-1.14,10-3.9,2.63-5.44,13.85-4.96,20.11.95,7.58,7.15,1.52,15.15-9.8,12.77-3.74-.76-4.85-.48-13.44,3.52-5.05,2.48-10.61,5.44-12.12,6.68-1.62,1.23-4.04,2.28-5.36,2.28-2.62,0-4.34,2.39-2.83,3.82.51.38,3.84.28,7.38-.39,5.66-.95,6.67-1.43,7.38-3.62,1.92-5.24,11.11-5.91,17.48-1.24,1.92,1.34,4.54,2.39,6.06,2.39,3.13,0,7.37,2,10,4.57,1.92,2.1,2.43,5.15,1.32,8.29-.61,1.62-.11,2.19,2.82,3.24,4.95,1.62,7.99,6.01,7.28,10.29l-.61,3.34,5.36-.57c8.89-1.05,15.76,2.86,15.76,9.05,0,1.34.91,3.24,1.92,4.1,1.11.95,2.12,2.86,2.33,4.19.2,1.34,1.21,2.86,2.32,3.43,11.01,5.82,15.86,11.73,15.86,19.44,0,5.53-3.53,13.82-7.07,16.4-4.65,3.43-12.13,1.71-22.13-4.96-3.94-2.67-5.45-3.14-10.81-3.24-3.34,0-7.17-.38-8.39-.76-1.72-.57-2.72-.19-4.54,1.71-1.32,1.43-3.54,3.72-4.95,5.15-2.53,2.48-2.63,2.67-1.02,5.72,1.42,2.86,1.42,3.43,0,5.72-.91,1.62-2.82,2.85-5.05,3.43-2.62.57-4.14,1.81-5.76,4.48-1.21,2-2.22,3.81-2.22,4.09,0,.39,1.82.58,4.04.58,3.03,0,4.75.66,6.97,2.57,4.35,3.91,4.85,6.38,1.62,9.43-2.73,2.58-3.94,2.67-13.44.77-2.32-.39-5.45.09-10.61,1.81-4.04,1.33-8.18,2.57-9.29,2.76-1.42.19-2.13,1.33-2.63,3.81l-.61,3.62,4.15-.66c2.62-.38,5.45-1.72,7.78-3.62,5.15-4.29,8.99-5.25,20.61-4.96,10.91.29,14.25,1.33,15.26,4.86,1.01,3.91,0,5.72-3.54,6.86-1.82.57-3.84,1.81-4.45,2.86-2.72,4.96-10.3,9.82-17.58,11.34-1.82.29-3.63,1.05-3.94,1.62-.5.67,1.42.76,6.06.29,8.9-.86,12.13-1.81,14.66-4.19,2.32-2.2,4.85-2.48,8.48-.96,2.02.86,4.75,4.39,4.75,6.1,0,1.33-3.64,3.34-6.06,3.34-2.12,0-3.54.76-4.65,2.38-.91,1.33-1.41,2.67-1.11,2.95.5.57,8.18-1.9,14.15-4.48,1.51-.66,2.72-1.71,2.72-2.47,0-.67.91-2.1,2.03-3.15,4.54-4.29,15.35-.57,15.96,5.62.4,3.53-2.02,6.77-5.05,6.77-2.43,0-2.33.38.71,3.24,1.41,1.33,2.52,3.34,2.52,4.48,0,2.86-2.83,5.62-5.66,5.62s-4.95,1.91-8.18,8.01c-1.42,2.67-4.15,6.95-6.06,9.43-1.92,2.58-3.34,4.77-3.14,4.77.2.09,1.82.95,3.74,1.9l3.44,1.72,3.64-3.24c2.02-1.72,6.87-5.62,10.91-8.58,5.66-4.29,7.07-5.81,6.67-7.34-1.22-4.38,5.75-6.48,10.6-3.24,2.94,1.91,2.63,6.2-.4,7.44-1.11.47-3.84,3.24-5.96,6.19-12.73,17.35-21.82,23.64-28.9,20.11-1.01-.57-1.92-1.72-1.92-2.48,0-1.24-.6-1.14-3.53.57-2.43,1.43-4.65,2-6.77,1.72-2.13-.29-4.55.28-7.28,1.71-2.22,1.15-4.34,2.01-4.85,1.72-.4-.29-1.31.76-2.02,2.19-2.73,5.91-7.07,7.72-11.52,4.58-1.01-.77-3.64-1.43-5.76-1.43-3.13,0-4.65-.67-7.48-3.34l-3.43-3.24-3.44,3.15c-5.76,5.52-13.54,5.62-18.19.38-3.43-3.82-3.33-8.48.51-14.97,3.54-6.09,3.54-5.81,1.31-5.81-1.01,0-3.83-.95-6.36-2l-4.55-1.91-4.75,2.1c-4.14,1.81-4.64,2.29-3.74,3.91,2.13,3.71-6.67,14.01-13.43,15.53-2.53.57-3.84.19-10.41-3.05-1.11-.57-3.74-1.71-5.76-2.48-5.05-2.09-5.76-5.05-2.93-11.53,1.11-2.67,2.12-6.38,2.12-8.29,0-1.81.71-4.19,1.52-5.24,1.52-1.9,2.12-8,.71-8-3.33,0-8.49,11.91-7.58,17.63.3,2-.4,4.47-2.12,7.52-3.23,5.82-3.43,8.2-.5,8.2,2.02,0,2.12.38,1.61,4-.61,4.29-3.54,7.44-6.87,7.44-2.53,0-3.13,1.24-4.45,9.24l-1.11,6.96h5.76c3.23,0,6.16-.48,6.47-1.05,2.42-3.62,10.1-2.48,11.21,1.71.91,3.34-.1,4.86-3.84,5.82-2.83.67-3.64,1.52-5.25,5.72-1.01,2.76-1.72,5.24-1.41,5.43.3.28,2.22-.1,4.45-.76,3.64-1.24,3.94-1.62,4.45-5.44.91-7.52,6.46-7.62,12.53-.28,2.93,3.62,3.54,5.05,3.03,7.15-.7,3.14,1.01,5.71,3.24,4.86.8-.29,2.12-1.91,2.93-3.72,2.32-5.34,10.5-5.43,13.64-.1,1.41,2.39,1.31,2.86-.21,5.53-1.51,2.38-1.51,2.96-.4,3.34,2.32.85,2.83,3.33,1.11,5.71-1.31,1.91-1.31,3.72-.5,12.01,2.02,18.78,1.81,18.11,4.34,16.49,2.93-1.91,5.66-1.81,9.4.38,6.57,3.81,4.95,10.96-2.73,12.1-2.73.48-4.65,1.43-5.66,2.96-.91,1.24-1.41,2.38-1.21,2.57.71.67,17.58-2.38,17.88-3.33,1.32-3.24,4.25-5.15,8.29-5.15,3.54,0,4.75.57,7.17,3.14,1.62,1.72,2.93,3.91,2.93,4.87,0,3.14-3.33,5.9-7.78,6.48-4.44.57-4.64.76-5.76,7.14-.6,2.96-.4,3.53,1.42,4.1,3.33,1.05,5.35,4.77,4.75,8.77-1.11,6,3.64,11.05,7.17,7.72.71-.67,1.21-2.1,1.21-3.24,0-5.72,10.51-8.1,15.97-3.72,6.26,4.96,4.85,11.72-2.73,13.91-3.13.86-4.34,1.91-5.76,4.77-.91,2.1-1.41,4-1.11,4.29,1.52,1.43,5.46-.76,6.87-3.62,2.53-5.44,9.6-6.01,14.65-1.24,1.32,1.33,2.43,3.43,2.43,4.86v2.57l11.01-.57c9.7-.48,11.22-.29,12.63,1.14,3.34,3.43.91,7.15-4.14,6.67-3.74-.38-5.05.48-5.86,3.91-.81,3.62-4.35,6.29-9.3,7.05-4.44.67-8.28,3.43-11.31,8.39l-2.33,3.62h2.43c1.41,0,3.43-1.05,4.64-2.38,1.22-1.24,3.44-2.67,4.96-2.96,1.51-.38,5.05-2.09,7.77-3.9,2.73-1.72,7.48-3.81,10.62-4.67,10.6-2.77,14.75-4.67,15.05-6.96.91-5.62,12.33-4.1,12.33,1.62,0,3.05-1.62,4.96-4.25,4.96-1.92,0-6.06,7.24-7.37,13.15-.71,3.05-.61,3.14,1.41,2.19,1.21-.67,2.12-1.91,2.12-2.95,0-1.82,2.73-3.82,5.06-3.82.6,0,2.62,1.43,4.54,3.05,1.92,1.72,4.15,3.72,4.95,4.39,2.43,1.81,1.92,3.52-1.71,6.57-2.53,2.1-4.05,4.77-6.17,10.87-1.51,4.38-3.03,8.57-3.23,9.15-.3.66.1,1.24.91,1.24s1.72-.67,2.12-1.43c.71-1.82,6.06-1.91,7.68-.1,2.02,2.38.81,5.72-2.22,6.29-1.72.29-5.05,3.14-9.8,8.39-6.57,7.05-6.98,7.81-4.45,7.24,4.75-1.05,9.4-3.05,9.4-4.1,0-.48.7-1.62,1.61-2.38,4.35-4.19,14.25,1.05,12.63,6.67-.91,3.34-4.44,5.24-8.28,4.48-2.22-.38-4.04.29-7.68,2.76-12.53,8.48-29.61,16.01-36.48,16.01-1.61,0-4.75-1.23-7.17-2.95-3.84-2.57-4.55-2.76-5.96-1.53-5.16,4.48-12.73,2.58-18.39-4.38-2.12-2.76-4.85-6-5.96-7.34l-2.02-2.38-3.14,2.86-3.13,2.95,1.72,6.1q1.61,6.1-.61,7.82c-2.12,1.62-2.12,1.71-.2,1.71,1.01,0,3.13.96,4.65,2,3.94,2.96,3.33,7.44-1.21,9.53-4.05,1.72-5.26,3.34-5.26,6.87v2.57l4.85-2.29c3.34-1.62,5.26-3.33,6.27-5.43,3.73-7.91,17.17-4.58,17.17,4.29,0,4.86-.81,6.1-4.85,7.34-2.12.57-4.24,1.52-4.95,2-1.21.95-3.84,10.1-3.13,10.86.3.19,2.83-1.33,5.56-3.43,3.84-2.86,5.15-4.38,5.15-6.38,0-2.86,2.53-5.06,5.96-5.06,5.76,0,8.89,8.49,3.84,10.68-2.53,1.05-2.83,1.81-7.98,18.96-1.62,5.44-7.88,14.3-14.45,20.59-7.58,7.05-19.5,3.91-19.5-5.24,0-1.72.71-4.39,1.51-5.91l1.52-2.67-3.84,2c-4.75,2.38-8.49,1.72-12.43-2.29-3.33-3.43-5.86-3.52-11.01-.28-4.65,2.95-8.89,3.24-10.81.76-2.12-2.76-1.52-4.96,2.73-9.34l4.14-4.19-2.12-3.62c-1.12-2.1-2.02-4.39-2.02-5.34,0-2.19-1.62-2.96-3.95-1.81-3.33,1.71-17.27,17.44-17.27,19.54-.1,2.47-1.82,4.66-4.86,6.19-4.24,2.1-9.3-.95-9.3-5.72,0-2.1-.61-2.86-2.42-3.33-4.04-.96-5.96-3.63-5.46-7.82l.3-3.81-2.73,2.19c-4.04,3.15-6.46,3.72-10,2-2.22-1.05-3.74-1.14-5.66-.47-5.05,1.81-11.93-2.01-14.35-7.91q-1.01-2.48-4.55-.96c-3.04,1.24-3.74,2.19-4.75,6.29-2.83,11.72-10.11,23.83-22.33,37.55-7.48,8.29-22.94,21.92-32.23,28.5-7.78,5.52-25.46,14.39-41.93,21.06-16.37,6.67-28.9,11.91-51.43,21.54-8.89,3.81-20.91,8.76-26.57,11.05-14.45,5.62-30.52,17.15-53.66,38.5-22.33,20.4-36.58,37.74-60.83,73.96-32.23,48.12-43.45,70.9-58.91,119.69-4.14,13.06-9.7,29.26-12.23,36.12l-4.75,12.39-.91,19.54c-.5,10.77-2.12,30.21-3.54,43.36-2.12,19.16-2.53,26.21-2.02,36.21,1.01,19.44,6.36,73.38,10.71,109.59,6.67,54.42,8.18,68.05,10,88.16,1.11,12.29,2.52,29.25,3.13,37.64.61,8.38,1.72,22.96,2.53,32.4.81,9.44,2.22,28.5,3.03,42.41.91,13.91,1.82,26.78,2.02,28.59,3.54,24.7,8.21,54.12,12.12,77.03,22.27.55,44.31.82,66.01.94,44.92.25,113.39-14.71,156.59,2.45,1.68.67,3.32,1.43,4.9,2.32,33.04,18.68,28.6,68.21,45.88,98.07,11.14,19.25,106.36,96.41,125.52,110,46.29,32.84,106.65,11.07,157.8,28.02,64.45,21.37,108.7,82.3,172.93,104.82,54.86,19.24,107.41,12.32,163.12,20.42,35.99,5.23,67.73,24.89,103.74,30.57,34.49,5.44,68.37-3.23,102.76-.16,88.65,7.94,162.78,77.41,255.73,85.26,94.95,8.02,178.99-30.93,271.91-36.88,107.72-6.9,223.26,25.64,331.57,30.3,72.71,3.13,142.52-20.02,214.75-19.52,62.7.43,118.23,41.53,176.35,60.98,84.64,28.34,520.71,166.05,485.82,275.78-53.3,167.64-685.58,211.18-823.1,220.57-648.32,44.24-1312.94,57.21-1960.47-5.92-191.95-18.71-500.23,25.32-666.18-89.97-192.7-133.88-121.67-398.06-74.88-586.98,40.3-162.71,75.45-388.14,279.44-384.3l-111.43-96.43c96.14,81.68,216.71,119.15,340.68,136.3ZM855.43,776.03c7.48,10.77,26.17,34.69,30.82,39.45l4.95,5.05-3.84,5.43c-14.75,21.16-22.03,28.59-45.97,47.37-11.42,8.96-26.07,20.87-32.64,26.59-6.57,5.62-17.48,14.39-24.25,19.44-25.67,19.15-35.77,31.45-48.2,58.42-4.75,10.29-13.84,27.35-17.48,32.88-1.82,2.57-8.99,12.29-15.96,21.53-6.97,9.25-14.55,19.54-16.67,22.78-3.13,4.86-3.94,5.63-4.55,4.2-.4-1.05-1.92-12.78-3.43-26.12-1.52-13.34-3.94-34.21-5.56-46.22-1.62-12.1-4.55-34.97-6.57-50.98-4.04-32.41-9.4-70.72-13.14-93.88-1.31-8.38-2.93-18.39-3.54-22.1l-1.01-6.87,6.27-7.53c3.54-4.09,7.58-8.95,9.09-10.76l2.73-3.24.1,2.95c0,4,3.43,8,6.77,8,2.53,0,2.53.1.91,2.1-3.94,5.15-4.45,6.2-5.15,9.05-.51,2.58-.2,3.53,2.02,5.63,2.22,2.09,3.23,2.38,6.36,1.9,3.04-.47,4.04-.19,5.46,1.53,1.72,2.19,7.58,2.95,10.91,1.43,1.21-.57,1.92.09,2.93,2.67,2.43,6.38,8.69,11.43,16.57,13.24,1.52.29,2.73,1.05,2.73,1.53,0,.57,1.01,1.9,2.22,3.05,1.52,1.43,1.82,2.19.91,2.48-2.83.85-8.19,6.19-10.21,10.29-1.92,3.71-2.12,4.67-1.01,7.15,1.41,3.24,5.56,5.62,9.8,5.62,2.02,0,4.14-1.43,8.38-5.53,6.77-6.67,18.29-19.15,23.75-25.83,2.22-2.66,5.25-5.52,6.87-6.29,2.63-1.23,2.93-1.14,7.68,3.34,5.66,5.34,9.7,6.58,14.35,4.38,1.82-.85,4.85-1.52,6.87-1.52,2.02-.1,5.46-.67,7.68-1.43,5.25-1.81,6.57-1.81,6.57.19,0,3.14,4.04,8.01,7.78,9.53,7.88,3.05,15.16-.76,16.17-8.39.3-2.47,1.52-5.14,2.83-6.57,4.95-5.05,7.58-9.82,7.58-13.34,0-4.67-1.72-5.25-7.48-2.39-2.63,1.34-4.65,2.2-4.65,2.1,0-.19,1.11-1.72,2.53-3.53,6.87-8.76-1.11-14.1-15.26-10-2.73.76-5.16,1.43-5.46,1.43-.2,0,3.33-3.62,8.08-8.1,7.78-7.34,8.59-7.91,10.21-6.58,2.83,2.38,8.69,3.53,12.53,2.29,5.56-1.72,8.59-5.91,8.59-11.72,0-4.2.41-5.34,3.23-8.01,1.82-1.72,3.74-3.14,4.24-3.14.61,0,2.63,2.28,4.55,5.05ZM458.94,634.7c2.12.76,2.32,1.42,2.32,7.33-.1,13.92,6.16,21.54,14.35,17.44,1.62-.85,2.83-.09,7.58,4.29,4.04,3.62,6.47,5.24,8.39,5.24,3.64,0,15.26-6.67,19.8-11.53,2.83-2.86,4.14-3.62,4.95-2.86,1.71,1.62,5.56,1.24,6.67-.66.5-.86,4.65-3.05,9.2-4.86,7.27-2.77,8.49-3.05,9.8-1.81,1.31,1.23.81,2.19-3.84,8-10.41,13.06-14.04,24.97-8.79,28.4,3.13,2.1,13.34,1.91,24.45-.38,5.05-1.05,9.2-1.91,9.3-1.91,1.11,0,2.22,34.79,1.11,35.84-.2.28-2.12.76-4.14,1.04-3.13.48-3.64.29-3.64-1.33,0-4.67-7.58-9.82-14.35-9.82-4.45.1-11.52,3.15-14.95,6.67-2.53,2.58-3.13,2.67-6.16,1.91-4.55-1.24-5.56-1.24-7.38.48-1.01.95-1.31,2.48-.91,4.76.4,2.58.1,3.91-1.42,5.53-2.83,2.86-4.34,5.81-4.34,8.48-.1,1.62-1.21,2.67-4.45,4.1l-4.45,2-4.85-2.67c-5.96-3.24-11.62-3.43-16.37-.76-3.13,1.81-6.27,6.77-6.27,9.91,0,.76-1.11,3.05-2.53,4.96-4.95,6.86-2.93,17.15,4.75,23.82,4.95,4.48,8.49,5.72,17.28,6.48,6.37.48,8.59,1.05,11.62,3.15,2.02,1.43,3.94,2.76,4.14,2.86.3.19-.2,1.52-1.11,2.95-.81,1.43-2.12,4.29-2.83,6.39-.71,2.09-2.32,5.05-3.64,6.48-1.32,1.52-2.43,3.52-2.43,4.38,0,2.77,3.94,6.77,6.57,6.77,3.34,0,6.87-3.05,6.87-6.01,0-2,1.11-3.33,4.75-5.81,2.53-1.72,6.67-5.81,9.2-8.96,2.42-3.24,4.65-5.81,4.95-5.81.3-.1,1.11,1.14,1.72,2.76.61,1.62,2.32,3.34,4.04,4,1.51.67,4.45,2.29,6.36,3.63,5.86,4.19,9.09,4.86,23.14,5.05l13.23.19.1,5.24c0,2.86.3,7.81.5,10.96,1.01,12.29,2.02,51.56,1.42,53.18-.51,1.52-1.11,1.33-5.25-1.62-35.16-25.35-64.37-41.17-96.3-52.23-6.06-2.09-13.34-5.05-16.16-6.48-2.73-1.43-9.4-4.38-14.65-6.48-28.39-11.44-45.88-22.49-62.24-39.84l-6.87-7.24,2.22-3.62c1.21-2,3.34-8.96,4.75-15.44,2.83-12.48,3.74-16.01,6.16-22.49,1.52-3.91,1.71-4,6.06-4,2.52,0,5.55-.48,6.67-1.05,1.72-.86,2.43-.57,5.15,2.48,3.03,3.52,14.05,9.05,17.89,9.05,1.01,0,3.13-.95,4.75-2.19,1.52-1.24,4.55-3.24,6.67-4.38,6.57-3.82,11.82-12.87,11.82-20.68,0-1.63-.71-4.86-1.52-7.06l-1.52-4.1,3.23-2.66c2.93-2.19,3.33-3.15,3.33-7.06s-.5-4.86-3.33-7.24c-2.63-2.19-4.25-2.76-7.88-2.76-3.84,0-5.15-.48-7.48-2.86-4.95-4.96-13.04-3.43-15.46,2.95-.5,1.43-5.36,2.77-10,2.77-3.94,0-1.21-11.15,3.34-13.54,2.12-1.23,2.93-2.38,2.93-4.28,0-3.05,4.75-6.58,9.7-7.15,2.83-.29,2.93-.1,3.54,4.38.61,5.15,3.43,8.2,7.48,8.2,2.73,0,6.57-4.1,6.57-7.05,0-2.58,3.44-13.92,5.15-16.87,2.32-4.29,4.14-4.86,6.77-2.19,1.31,1.33,3.43,2.76,4.75,3.24ZM942.43,743.34c0,.48,1.42,2.38,3.04,4.1,3.33,3.62,3.64,4.48,1.71,4.48-2.43,0-4.95,3.62-5.05,7.24-.1,2.95.5,4.1,3.44,6.48,2.83,2.38,3.84,4.1,4.85,8.67,1.82,8.2,2.73,9.91,5.76,10.96,4.04,1.53,5.46,1.15,8.39-1.81,2.73-2.76,14.14-9.63,15.96-9.63.41,0,2.32,4.39,4.14,9.82,3.94,11.63,12.02,29.45,16.88,37.17,1.92,3.05,3.33,6,2.93,6.48-1.21,1.9-10.91,5.62-29.2,11.24-17.48,5.34-55.77,18.21-72.45,24.21l-6.77,2.48,3.33-6.86c1.82-3.82,5.86-11.63,8.89-17.35,10.51-19.82,15.05-33.45,15.05-45.55,0-7.25-2.43-28.78-4.65-40.7-.71-3.9-1.11-7.33-.91-7.52.2-.2,1.62.19,3.23.76,6.46,2.57,15.66.66,18.69-3.72,1.32-2,2.73-2.48,2.73-.95ZM781.77,776.31c0,1.91-5.86,8.96-7.88,9.44-2.83.67-4.75,4.29-3.84,7.62.71,2.76,5.66,5.34,8.89,4.48,2.43-.57,5.25-4.48,4.55-6.29-.41-.95.91-2.57,3.54-4.57,4.04-3.05,4.14-3.05,3.44-.77-.51,1.34-1.11,4.1-1.31,6.2-.41,3.14-1.21,4.38-3.94,6.1-4.85,3.14-12.73,11.53-16.77,17.63-3.94,6-7.88,8.57-13.34,8.67-2.62,0-4.14.48-4.75,1.62-.5.95-1.31,2.48-1.71,3.34-.51.95-3.74,3.81-7.28,6.29-5.55,4.09-6.46,4.47-7.38,3.05-.71-1.24-.1-2.29,2.83-4.58,9.39-7.24,15.56-18.2,15.86-28.02.1-2.86.51-5.33,1.01-5.62.41-.29.81-1.43.81-2.57,0-1.62.61-2.1,2.63-2.29,4.14-.19,6.87-3.34,6.67-7.72-.2-4,.61-4.76,10.91-10.48,3.54-1.91,7.07-2.67,7.07-1.53ZM1023.77,750.1c.4,1.15.2,2.48-.41,3.05-.61.58-1.11,2.58-1.11,4.48,0,4.29,3.23,7.44,8.39,8.29,3.03.39,4.04.1,6.26-2.09,2.43-2.19,2.73-3.05,2.22-6.48l-.61-4,2.02,2.28c1.21,1.34,1.72,2.96,1.32,3.81-1.82,4.2-1.62,5.82,1.41,8.68,1.72,1.52,3.84,2.86,4.65,2.86.91,0,1.62.09,1.62.19,0,.19-.71,2.38-1.52,4.95-.81,2.57-1.52,6.96-1.52,9.72,0,4.29.41,5.34,2.63,6.96,3.34,2.48,3.23,2.57-9.09,12.29l-9.09,7.15-2.12-2.67c-3.44-4-18.19-30.59-21.73-39.07-1.71-4.19-2.73-7.72-2.22-7.91,3.54-1.05,10.81-6.58,13.54-10.2,3.64-4.86,4.45-5.14,5.36-2.29ZM684.88,791.66c2.12.95,3.94,2,3.94,2.38,0,.67-5.36,3.62-6.57,3.62-.3,0-.5-1.24-.5-2.67s-.5-3.14-1.21-3.81c-1.72-1.62-.1-1.43,4.34.48ZM322.54,716.08c9.6,22.59,20.01,38.5,40.72,63l13.04,15.24-6.67.58c-3.64.38-10.41.66-15.05.76-7.78.09-9.4-.29-21.82-4.67-7.38-2.67-18.19-6.01-23.95-7.62-12.53-3.34-40.21-11.92-41.02-12.77-.91-.86,2.83-4.39,4.55-4.39,2.43,0,5.25-2.95,5.25-5.43s-3.23-6.01-5.66-6.01c-1.21,0-.91-1.14,1.62-5.52,2.62-4.67,3.54-5.53,5.86-5.43,2.02,0,2.83-.48,3.03-2.1.2-1.15,1.52-2.48,3.23-3.15,4.24-1.71,5.35-3.33,5.66-8.76.2-4.58,1.41-6.39,3.94-6.48.71,0,.91,1.42.71,3.33-.71,5.81,5.15,9.15,10.91,6.2,2.32-1.15,3.43-5.25,2.02-7.63-.81-1.43-.5-2.86,1.41-6.38,1.41-2.58,2.83-5.91,3.23-7.44.4-1.62,1.41-3.62,2.22-4.57q1.92-2.1,6.77,9.24ZM1145.53,780.89c0,.66-2.43,3.24-5.46,5.71q-5.46,4.39-6.06,2.01c-.4-1.62.1-3.43,1.62-5.72,2.02-2.77,2.93-3.34,6.16-3.34,2.53,0,3.74.48,3.74,1.34ZM888.68,748.77c1.62,1.53,3.94,3.34,5.05,4.1,1.82,1.24,2.12,2.95,2.73,15.72l.61,14.3-12.63-11.82-12.53-11.82,6.67-6.38c3.74-3.53,6.77-6.48,6.87-6.58.1,0,1.52,1.05,3.23,2.48ZM1127.95,775.55c-1.82,1.52-1.92,1.52-1.21-.1.3-.95.61-2.28.61-2.85,0-.77.41-.67,1.21.09,1.01.86.81,1.53-.61,2.86ZM224.02,750.58c0,.76-.41,1.14-1.01.86-.5-.29-1.01-.95-1.01-1.53,0-.47.51-.85,1.01-.85.61,0,1.01.66,1.01,1.52ZM862.1,745.25c.3.47-.3.95-1.41.95-1.21,0-2.12-.48-2.12-.95,0-.58.61-.96,1.41-.96s1.82.38,2.12.96ZM183.6,738.95c1.41,2.67.81,5.34-1.41,5.34-1.62,0-3.23-5.05-2.12-6.67,1.01-1.52,2.12-1.14,3.54,1.33ZM846.75,731.33c.3.67-.1,2.19-1.01,3.34-1.21,1.71-1.82,1.9-2.93.95-1.21-.95-1.11-1.43.81-3.24,1.31-1.24,2.43-2.19,2.43-2.29.1-.09.4.48.71,1.24ZM1177.26,728.28c.91,5.43-1.11,6.39-3.34,1.62-1.21-2.48-1.11-3.05.51-4.76.91-.96,1.82-1.72,1.92-1.62.1.19.6,2.28.91,4.76ZM963.45,723.99l2.32,1.34-2.53,2.76c-1.31,1.53-2.62,3.34-2.83,3.91-.2.67-1.21.86-2.53.47-2.22-.66-2.52-1.62-3.84-9.91l-.71-4,3.94,2c2.12,1.14,4.85,2.67,6.16,3.43ZM938.49,720.94c1.01,4.1,1.92,7.53,1.92,7.63,0,.09-1.62-1.15-3.54-2.96-2.83-2.48-3.54-3.81-3.54-6.76,0-3.24,1.71-6.68,2.83-5.63.2.19,1.21,3.72,2.32,7.72ZM328.29,677.39c-.61,1.81-.91,3.72-.61,4.29.51,1.43,6.16,4.48,8.09,4.48.71,0,2.02,1.43,2.83,3.14.71,1.81,2.62,4.2,4.24,5.34,2.63,1.91,3.64,2.1,10,1.53,3.84-.29,8.29-.77,9.7-1.05,4.45-.77,4.35,3.14-.3,10.67-2.22,3.62-5.36,9.63-7.07,13.44-1.72,3.81-3.43,6.95-3.74,6.95-1.72-.09-19.2-28.78-24.05-39.55-4.14-9.24-4.65-11.34-4.85-17.91l-.1-7.44,3.44,6.39c3.03,5.72,3.33,6.86,2.42,9.72ZM915.35,718.18c.71,4.38-.5,8.1-1.62,5.05-1.21-3.15-2.32-9.34-1.82-9.91,1.41-1.34,2.83.57,3.43,4.86ZM635.26,701.02c0,.58-.61,1.62-1.41,2.2-1.11.85-1.52.66-2.02-1.05-.3-1.24-.61-3.24-.61-4.58v-2.38l2.02,2.38c1.11,1.34,2.02,2.86,2.02,3.43ZM642.84,692.83c.3.48.1.95-.4.95-.61,0-1.11-.47-1.11-.95,0-.57.2-.95.41-.95.3,0,.81.38,1.11.95ZM669.62,656.81c0,3.43,3.13,10.67,5.86,13.53,1.62,1.71,1.62,1.81-.81,1.14-1.41-.38-5.25-1.43-8.59-2.38-5.76-1.43-6.06-1.72-6.57-4.86-1.11-7.05-11.11-7.62-11.11-.67,0,1.72.4,3.53.91,4,1.31,1.34,5.25,11.25,4.65,11.82-.91.86-5.56-1.81-5.56-3.24,0-2.19-4.65-4.57-7.58-3.91-4.25,1.05-4.85,3.63-2.53,10.3,2.43,6.95,2.43,7.05.5,5.52-.91-.76-2.93-.95-4.95-.66-4.14.66-4.24.47-5.15-12.68l-.71-9.05,4.65-1.72c2.52-1.05,7.38-3.43,10.71-5.52,5.36-3.24,6.37-3.53,9-2.67,2.32.76,3.64.66,5.86-.48,1.52-.76,4.75-1.43,7.17-1.52,4.14,0,4.25.09,4.25,3.05ZM684.77,648.04c0,.47-.41.95-1.01.95-.5,0-1.01-.48-1.01-.95,0-.57.5-.96,1.01-.96.61,0,1.01.39,1.01.96ZM534.93,627.83l3.74,4.1-8.69,8.2c-10.51,9.91-13.14,10.29-8.89,1.43,1.72-3.34,3.54-5.91,4.45-5.91,1.92,0,5.66-4.48,5.66-6.86,0-1.05-1.41-3.15-3.03-4.77-2.53-2.38-3.64-2.76-6.06-2.29-2.93.48-3.03.39-3.03-2.66,0-3.82-4.65-8.2-8.69-8.2-2.63,0-2.83-.76-1.72-5.81l.61-3.15,11.02,10.87c6.06,6,12.73,12.77,14.65,15.05ZM515.63,628.31c-.3,1.33-1.31,2.57-2.12,2.96-1.11.38-1.51-.2-1.51-2.29,0-1.81.61-2.86,1.82-3.05,2.32-.57,2.53-.29,1.82,2.38ZM576.15,601.72c-.91,8.39-2.53,9.53-7.17,5.24l-3.44-3.24,2.32-3.05c2.02-2.67,7.68-6.29,8.69-5.43.2.19,0,3.05-.4,6.48ZM558.27,586.85c.91.58.5,1.15-1.32,1.91-3.84,1.72-7.07,1.43-9.09-.76-1.82-1.91-1.71-1.91,3.64-1.91,3.04,0,6.07.38,6.77.76ZM123.08,580.47c.91,2.57,1.31,4.95.91,5.15-.51.28-3.04-2.2-5.86-5.53-8.99-10.77-9.8-14.11-1.92-8.29,4.04,3.14,5.66,5.05,6.87,8.67ZM706.4,584.28c-.71,1.14-4.14,1.14-4.95,0-.91-1.43,2.83-2.95,4.24-1.81.71.57,1.01,1.33.71,1.81ZM764.8,571.61c.91,3.14,1.92,6.29,2.32,6.86.71,1.14-1.11,3.81-2.62,3.81-.5,0-.91-2-.91-4.57-.1-2.48-.71-6.2-1.52-8.29-1.82-4.67-1.82-4.58-.2-4.1.61.28,1.92,3.05,2.93,6.29ZM537.35,555.22c2.22,3.52,7.27,6.28,9.7,5.43.71-.29,1.32.19,1.32,1.05s-.61,1.52-1.42,1.52c-2.22,0-3.94,2.67-3.23,5.24.5,1.72,1.31,2.38,3.03,2.38,2.32,0,3.64,2.01,3.64,5.91,0,1.81-3.44,2.39-4.55.76-1.01-1.52-3.74-1.14-6.06.96l-2.12,1.81-4.34-4.86-4.45-4.77,1.11-4.48c.71-2.38,1.72-6.67,2.32-9.43.61-2.67,1.41-4.96,1.92-4.96s1.82,1.53,3.13,3.44ZM794.91,553.98c0,.76-1.11,1.81-2.53,2.38-3.64,1.62-3.84,1.43-1.92-1.24,1.71-2.57,4.45-3.24,4.45-1.14ZM166.83,556.45c-.2.19-1.52.1-2.93-.28-3.03-.76-3.13-2.29-.81-8.77l1.72-4.67,1.21,6.67c.61,3.62,1.01,6.86.81,7.05ZM1155.03,543.49c0,4.1-1.42,10.1-2.53,10.77-1.01.57-2.42-4.57-2.02-7.81.1-.96,3.94-6.1,4.45-6.1.1,0,.2,1.43.1,3.14ZM194.41,536.25c-.91.76-4.85-.76-4.25-1.72.41-.47,1.41-.47,2.63.19,1.21.58,1.82,1.24,1.62,1.53ZM243.82,500.32c-1.11,4.19-2.32,7.63-2.63,7.63s-1.31-1.24-2.32-2.77c-1.62-2.67-1.62-2.95.2-7.05,1.72-3.72,2.93-4.76,6.27-5.34.4,0-.3,3.34-1.52,7.53ZM501.89,467.54c0,1.33,2.12,14.77,3.13,19.63,1.11,4.96,1.01,5.62-1.01,8.01-1.11,1.42-2.12,3.33-2.12,4.28,0,1.81-5.36,5.63-7.78,5.63-.81,0-1.31-1.24-1.31-2.77,0-3.05-1.82-5.33-5.05-6.29-1.82-.57-2.02-1.43-2.02-11.05v-10.39h3.34c3.94,0,9.39-2.95,10.3-5.62.61-1.81,2.53-2.86,2.53-1.43ZM862.51,488.31c1.11,1.34.91,2.48-2.02,8.68-1.82,4-3.94,7.14-4.75,7.14-.71,0-4.34-1.52-7.88-3.43-7.88-4.19-8.69-6.95-2.83-9.53,1.92-.85,5.66-3.9,8.29-6.67l4.75-5.05,1.52,3.62c.81,2,2.12,4.39,2.93,5.24ZM414.59,448.1c.4.66.71,2.95.5,5.14-.3,5.72,2.02,9.63,6.37,10.49,4.45.76,6.67,0,12.43-4.1,4.45-3.15,4.75-3.24,6.06-1.62,2.22,2.95,1.62,4.19-2.32,4.19-2.62,0-4.34.76-6.67,2.86-2.83,2.67-3.03,3.43-2.53,7.43.71,5.82,4.04,8.77,10.31,8.77,3.84,0,4.75-.48,7.48-3.52l3.03-3.44,2.93,6.1c4.14,8.58,6.57,15.92,5.86,17.73-.51,1.14-1.52,1.33-4.45.86-3.13-.48-4.55-.1-7.27,1.81-4.34,3.05-5.05,2.95-5.05-.38,0-1.53-1.01-3.72-2.53-5.24-4.55-4.58-13.44-2.39-13.74,3.43-.3,4.57-.4,5.05-1.92,4.76-3.13-.67-3.94-2.19-3.34-6.38.41-3.34.2-4.39-1.62-6.1-2.32-2.2-5.25-2.58-8.18-1.05-1.62.76-2.93-.1-8.59-6.01-3.64-3.71-9.3-10-12.43-13.81l-5.66-6.96,3.94-7.15,3.84-7.15,3.43,3.24c2.43,2.2,3.54,4.29,3.84,6.77.41,4.67,2.93,7.24,7.18,7.24,5.55,0,8.29-5.71,4.95-10.19-1.41-1.91-1.41-2.39.2-5.44,1.82-3.62,2.73-4.19,3.94-2.28ZM371.14,472.87c4.65,7.25,15.36,21.54,16.67,22.31,1.41.76,1.01,4.76-.61,6.09-1.32.96-1.52.86-1.52-1.04,0-2.86-.91-4.1-3.74-5.53-3.03-1.43-7.18.09-7.98,3.14-.5,1.91-4.55,4.39-7.07,4.39-1.11,0-.1-2.48,2.12-4.96,1.41-1.52,2.52-3.62,2.52-4.67,0-2.57-4.45-6.57-7.27-6.57-1.82,0-2.83-1.05-4.45-4.67-2.83-6.01-2.22-9.15,2.52-12.01,2.02-1.24,3.94-2.29,4.25-2.29.3-.09,2.32,2.57,4.55,5.81ZM1049.34,483.36c.3,2-.71,3.71-4.25,7.15-4.75,4.86-6.77,5.14-4.34.57.81-1.43,2.02-4.48,2.73-6.77.91-3.43,1.52-4.1,3.34-3.81,1.62.19,2.32,1.05,2.53,2.86ZM1099.45,487.84c.3.38-.61,1.24-1.92,1.81-2.73,1.14-3.33.38-1.31-1.53,1.41-1.33,2.53-1.43,3.23-.28ZM1075.81,482.98c0,1.81-6.97,5.91-9.9,5.91s-3.23-.96-1.01-3.91c1.82-2.29,2.93-2.76,6.57-2.76,2.42,0,4.34.38,4.34.76ZM935.36,487.07c0,1.05-.61,1.82-1.41,1.82-1.52,0-2.93-3.53-2.02-4.96.91-1.24,3.44,1.14,3.44,3.14ZM833.41,452.19l6.67.58-8.99,8.38c-8.59,8.01-8.99,8.58-8.69,12.11.4,5.33,2.73,5.24,9.09-.29,9.9-8.67,19.1-15.53,20.11-15.06.5.38.91,1.24.91,2,0,1.53-17.58,18.49-19.1,18.49-.61,0-1.52.86-2.12,1.81-1.01,1.91-7.07,5.82-8.99,5.82-.61,0-1.11-1.05-1.11-2.39s-.71-4-1.62-6c-.91-2.1-1.31-4.77-.91-6.48.61-3.53-1.21-5.43-4.75-4.96-1.72.19-2.43,1.05-2.63,2.86-.2,1.53-1.71,3.72-3.64,5.24-1.92,1.53-4.55,4.29-5.96,6.2-2.32,3.33-2.53,3.43-3.13,1.43-.4-1.34.81-4.77,3.44-10.01,5.35-10.58,7.38-13.15,11.11-13.91,2.32-.38,3.43-1.34,4.14-3.34,1.11-2.95,2.83-3.81,6.97-3.33,1.41.19,5.56.57,9.2.85ZM144.5,477.83c.81,2.86.61,3.91-.91,5.43l-1.92,2-1.82-2.19c-1.72-2-1.72-2.29-.3-3.33.91-.57,1.62-2.2,1.62-3.62,0-3.82,2.32-2.58,3.33,1.71ZM924.25,442.19c0,.57-.61,2.48-1.42,4.19-1.41,3.24-8.99,8.2-17.28,11.44-4.65,1.9-6.87,5.33-5.66,8.48,1.11,2.76,3.94,4.48,7.17,4.48,2.12,0,2.22.29,1.52,5.43-.4,3.05-.91,5.81-1.11,6.19-.3.39-1.82-.09-3.44-.95-2.22-1.24-3.54-1.43-5.76-.67-1.52.58-4.35.86-6.06.67-2.83-.28-3.34-.67-3.34-2.76,0-1.43-1.21-3.43-3.13-5.15-4.14-3.62-3.33-5.43,4.34-9.43,3.54-1.72,8.89-5.53,12.03-8.29,4.75-4.29,6.26-5.05,9.39-5.05s4.55-.67,7.28-3.25c1.92-1.8,3.43-3.9,3.43-4.76s.51-1.52,1.01-1.52c.61,0,1.01.47,1.01.95ZM313.95,480.31c-.61,1.05-1.52,1.91-2.12,1.91s-.61-.67.1-1.91c.61-1.05,1.52-1.91,2.12-1.91s.61.67-.1,1.91ZM1205.14,471.54c-.1,2.48-9.8,11.91-10.5,10.2-.31-.76-1.72-1.43-3.14-1.43-2.22,0-2.52-.38-2.52-3.62,0-4.77,1.41-5.91,6.46-5.34,2.83.38,4.75.1,6.17-.86,2.32-1.62,3.53-1.24,3.53,1.05ZM213.21,473.35c.71,3.53.3,3.72-3.94,1.81-3.03-1.33-3.43-1.81-2.43-2.95.71-.76,2.32-1.43,3.54-1.43,1.71,0,2.42.67,2.83,2.57ZM1005.58,465.16c.41.57,1.72,1.33,2.83,1.71,1.92.67,1.62,1.05-3.23,3.34-4.95,2.38-5.56,2.47-6.97,1.14-1.52-1.33-1.31-1.72,1.31-4.38,3.03-2.96,4.95-3.53,6.06-1.81ZM940.92,469.25c-1.01,1.34-2.12,2.48-2.73,2.48-1.01,0,1.01-4,2.63-4.95,1.82-1.15,1.82-.1.1,2.47ZM225.03,466.59c0,.19-.71.38-1.51.38s-1.52-.38-1.52-.96c0-.47.71-.66,1.52-.38.8.38,1.51.76,1.51.96ZM797.94,456.48c-3.13,2-5.25,2.77-6.87,2.39-2.83-.67-5.25.95-5.25,3.43,0,.95-.41,2-1.01,2.28-.61.39-1.01-.95-1.01-3.24,0-4.19.3-4.38,11.62-6.67,6.87-1.43,7.28-1.14,2.53,1.81ZM1023.27,463.15c-1.92,1.24-3.03,1.24-3.03,0,0-.57,1.01-.95,2.32-.95,1.82,0,1.92.19.71.95ZM138.13,459.72c0,.19-.71.86-1.52,1.53-1.21.95-1.52.95-1.52-.38,0-.86.71-1.53,1.52-1.53s1.52.19,1.52.38ZM112.87,444.95c0,.29-.4,1.15-.91,1.81-.71,1.05-1.01.96-1.52-.28-1.01-2.48-.71-3.34.91-2.77.81.38,1.52.86,1.52,1.24ZM531.19,442.95c0,1.24-2.32,3.05-3.94,3.05-1.11,0-1.01-.38.41-1.91,1.92-2,3.54-2.47,3.54-1.14ZM461.07,436.09c.8,5.53-.61,7.05-2.93,2.95-1.41-2.47-1.61-3.71-.8-5.81,1.51-3.53,2.83-2.38,3.74,2.86ZM489.56,428.75c3.74,4.38,3.84,4.67,1.52,8.58-2.93,4.76-4.75,3.33-4.95-3.72,0-2.38-.41-5.24-.91-6.48-1.21-3.24.81-2.48,4.34,1.62ZM969.72,428.75c0,.95.71,3.34,1.52,5.24,1.71,3.81.81,4.48-2.02,1.53-1.01-1.05-2.62-2.1-3.64-2.39-1.92-.57-1.92-.66.2-3.43,2.32-3.14,3.94-3.52,3.94-.95ZM426.11,434.18c0,.77-.41,1.34-1.01,1.34-.5,0-1.01-.86-1.01-2,0-1.05.51-1.62,1.01-1.34.61.29,1.01,1.24,1.01,2ZM793.09,409.79c1.32,1.81,3.84,3.62,5.86,4.28l3.43,1.15-4.85,1.52c-3.54,1.15-5.36,1.34-6.26.58-2.32-1.82-6.67-.58-8.49,2.38-.91,1.71-3.03,3.24-5.36,4-3.54,1.14-3.74,1.14-3.64-.86.1-1.14.4-3.43.8-4.95.61-2.67.91-2.86,5.66-2.86s5.05-.1,7.58-4.48c1.32-2.48,2.63-4.38,2.73-4.19.1.09,1.31,1.62,2.52,3.43ZM539.27,420.94c0,1.14-.51,2.38-1.01,2.66-1.52.86-2.32-2-1.52-4.95.5-2,.81-2.29,1.62-1.14.5.66.91,2.28.91,3.43ZM910.1,345.46c1.72.86,3.03,1.71,3.03,2,0,2.19-4.34,7.91-6.46,8.39-5.86,1.33-3.44,9.15,2.93,9.15,1.82,0,3.74-.48,4.04-.96.3-.57,2.53-.95,4.95-.95,6.37,0,14.04-2.48,19.3-6.2,3.74-2.76,5.36-3.33,9.4-3.24h4.75l-4.04,1.82c-2.22,1.04-9.9,4.47-17.18,7.62-7.18,3.24-14.75,6.96-16.67,8.48-2.43,1.81-5.15,2.86-8.99,3.24-3.03.38-8.09,1.81-11.12,3.24-6.77,3.05-17.07,12.49-20.31,18.39-3.23,5.91-6.06,14.11-6.06,17.35v2.67h-18.59l2.52-2.67c1.41-1.43,4.75-4.96,7.58-7.82,13.74-14.2,30.01-37.45,35.37-50.7,2.32-5.81,3.03-6.67,7.27-8.76,2.63-1.34,4.85-2.39,5.05-2.39.2-.09,1.62.58,3.23,1.34ZM770.96,402.83c-.5,3.81-3.94,7.24-11.62,11.53-3.03,1.72-3.84,1.91-3.84.76,0-.76,1.52-2.28,3.43-3.33,1.82-1.15,5.15-4.39,7.28-7.25,2.02-2.85,4.14-5.24,4.55-5.24s.5,1.62.2,3.53ZM899.29,404.93c2.93,1.04,3.03,1.43.61,7.33-.81,2.2-5.05,3.24-12.53,3.24-3.74-.09-4.14-.38-5.86-3.81-1.82-3.62-1.82-3.81-.1-6,1.62-1.91,2.53-2.19,8.39-2,3.64,0,7.98.57,9.5,1.24ZM540.38,412.93c-1.01.86-1.11.76-.5-.57.3-.95.91-1.43,1.21-1.14.3.28,0,1.04-.71,1.71ZM815.63,405.59c-.51,3.72-.91,4.1-5.76,6.01-2.83,1.14-5.36,1.9-5.56,1.71-.2-.19,1.52-2.95,3.74-6.19,2.12-3.24,4.75-7.25,5.76-8.96l1.82-3.15.3,3.34c.2,1.81.1,5.05-.3,7.24ZM700.94,411.69c0,.48-.41.95-1.01.95-.5,0-1.01-.47-1.01-.95,0-.57.51-.95,1.01-.95.61,0,1.01.38,1.01.95ZM147.93,411.88c-.3.67-.5.19-.5-1.14s.2-1.81.5-1.24c.2.67.2,1.81,0,2.38ZM581.81,411.02c-1.01.86-1.11.77-.51-.57.3-.95.91-1.43,1.21-1.14.3.29,0,1.05-.71,1.71ZM939,399.68c-1.41,1.82-3.64,3.44-4.85,3.63-1.32.19-2.73,1.23-3.34,2.38-1.01,2.19-3.34,3.62-4.34,2.67-1.42-1.34,2.43-5.53,8.08-8.96,3.43-2.1,6.47-3.62,6.77-3.43.2.28-.81,1.9-2.32,3.71ZM837.25,391.77c2.53,3.24,2.22,4.1-3.03,6.96l-3.23,1.81.71-2.76c.3-1.53.91-4.2,1.21-5.91.81-3.81,1.41-3.81,4.34-.1ZM144.3,386.15c1.21,3.81,3.03,8.48,4.04,10.48l1.82,3.44-2.53-.67c-2.02-.48-3.23-2-5.05-6.29-2.43-5.62-3.34-13.82-1.41-13.82.5,0,1.92,3.14,3.13,6.86ZM729.74,398.25c-.3.58-1.62,1.05-2.83,1.05q-2.12-.09.3-1.43c2.73-1.33,3.64-1.24,2.53.38ZM608.79,396.54c-.2.57-.81.95-1.31.95s-1.11-.38-1.32-.95c-.2-.57.41-1.05,1.32-1.05s1.52.48,1.31,1.05ZM498.96,396.73c-.81.76-1.11.38-1.11-1.33,0-3.15,1.41-4.48,1.82-1.82.2,1.15-.1,2.58-.71,3.15ZM172.49,396.54c0,.57-.41.67-1.01.38-.5-.29-1.01-1.05-1.01-1.52,0-.58.51-.67,1.01-.39.61.29,1.01,1.05,1.01,1.53ZM1023.97,393.01c-.71,1.72-4.75,2.1-4.75.48,0-.57.51-1.91,1.11-2.95,1.01-1.72,1.21-1.82,2.62-.48.91.86,1.32,2.19,1.01,2.95ZM696.29,392.25c.5,1.33.4,1.43-.91.38-1.72-1.33-1.92-1.9-.61-1.9.5,0,1.21.66,1.52,1.52ZM781.77,378.24c.81,1.53.51,2.19-1.82,3.72-1.52,1.05-3.34,2.95-4.04,4.19-1.32,2.19-1.72,2.29-10.21,2-6.97-.19-9.29.1-10.2,1.15-.81.95-2.93,1.43-5.96,1.43l-4.65-.1,3.54-2.57c1.92-1.43,5.46-4.19,7.78-6.29,4.14-3.43,4.55-3.62,7.38-2.48,3.84,1.53,11.82.76,13.95-1.33,2.12-2.01,2.93-1.91,4.24.28ZM866.45,338.98c-.2.47-1.82,3.52-3.74,6.86-5.26,9.63-6.77,15.72-7.58,30.59-.4,6.86-.61,7.24-4.24,10.2-3.94,3.33-6.06,4-5.15,1.81.3-.67,2.53-7.43,4.85-14.96,3.64-11.73,4.24-15.06,4.34-22.97l.1-9.15,4.55-1.43c5.25-1.62,7.38-1.91,6.87-.95ZM1125.32,382.05c-1.62,2.86-2.73,3.15-6.06,1.53-4.45-2.19-3.74-3.34,2.02-3.34,4.75,0,5.05.1,4.04,1.81ZM716.2,382.15c-2.23,1.81-4.14,1.81-4.14,0,0-.86,2.22-1.62,5.05-1.81,1.01,0,.71.57-.91,1.81ZM516.03,370.14c0,.29-.4.76-1.01,1.05-.51.28-1.01.09-1.01-.38,0-.57.5-1.05,1.01-1.05.61,0,1.01.19,1.01.38ZM822.8,349.46c-.2.95-1.21,4.86-2.22,8.67l-1.72,6.87-3.33-.58c-2.43-.38-4.25-.09-6.06,1.05-1.41.86-2.83,1.43-3.03,1.15-1.21-1.05,1.52-4.68,4.65-6.2,3.23-1.52,3.54-2,3.64-6,.1-5.72.81-6.58,5.05-6.58,2.93,0,3.44.29,3.03,1.62ZM880.8,352.51c0,.29-1.11,2.29-2.53,4.38l-2.43,3.82-.1-5.44v-5.52l2.53,1.14c1.41.57,2.53,1.33,2.53,1.62ZM1210.2,350.6c0,1.24-4.15,3.91-6.07,3.91-1.01-.09-.4-.86,1.52-2.38,3.23-2.48,4.55-2.96,4.55-1.53ZM751.16,341.26c3.54.58,6.36,1.43,6.36,1.82,0,.76-7.78,3.43-16.17,5.52-1.92.57-5.25,1.62-7.38,2.48l-3.84,1.62,5.25-6.29q5.66-6.77,15.77-5.15ZM1231.42,332.31c0,.95.3,2.57.6,3.71.51,1.72-.4,2.58-5.05,5.05-6.57,3.43-6.27,3.43-7.07,1.43-.41-.95,1.11-3.33,4.14-6.67,4.85-5.24,7.38-6.48,7.38-3.52ZM1195.14,337.55c-2.02,3.14-5.66,4.38-8.99,3.14-1.31-.47-.3-1.33,3.84-3.33,7.17-3.53,7.68-3.53,5.15.19ZM881.8,337.74c0,.76-1.31,1.81-3.03,2.38-3.23,1.05-4.04.1-1.71-2.29,1.61-1.71,4.75-1.81,4.75-.09ZM630.21,333.64l-2.12,4.19.4-4.09c.61-4.39,2.93-8.39,3.54-5.72.1.76-.71,3.24-1.82,5.62ZM246.55,315.44c.3,3.14,1.52,7.53,2.63,9.81,1.21,2.29,2.12,5.15,2.12,6.29,0,3.05-2.43,2.01-2.83-1.23-.2-1.63-1.11-2.86-2.22-3.15-1.51-.38-1.92-1.81-2.52-7.91-.41-4.1-.41-8,0-8.48,1.41-2.19,2.22-.76,2.83,4.67ZM1113.8,255.21c-.71,1.05-4.65.38-4.65-.76s3.34-1.72,4.45-.86c.41.38.51,1.14.2,1.62ZM334.56,210.04c-.4,5.05-1.01,7.81-1.52,7.05-1.31-1.91-1.11-13.53.3-14.87.61-.57,1.31-.95,1.52-.76.2.19,0,4-.3,8.58ZM354.16,211.37c.2,1.24.1,2.95-.3,3.81-.5,1.24-1.01.67-2.12-2.19-1.72-4.77-1.72-4.48.4-4.1.91.19,1.82,1.34,2.02,2.48ZM1057.82,195.07c1.92,1.62,2.52,5.05.91,5.05-1.41,0-5.25-4.85-4.54-5.81.8-1.24,1.51-1.05,3.64.76ZM1046.5,178.97c0,1.05-4.85,3.52-5.55,2.86-.3-.29-.3-1.24.1-2.1.61-1.52,5.45-2.19,5.45-.76ZM1066.92,173.06c-.71,1.14-1.11,1.24-1.72.38-.41-.67-.2-1.52.61-2,1.82-1.05,2.32-.38,1.11,1.62ZM970.52,151.9c.91,2,.61,2.96-2.02,6.96l-3.23,4.57-.81-3.71c-.71-2.96-.41-4.29,1.31-6.86,2.52-3.82,3.23-4.01,4.75-.96ZM412.87,143.99c1.21,2.19,2.02,4.1,1.82,4.39-.61.47-4.75-5.82-4.75-7.25,0-1.9.71-1.14,2.93,2.86ZM943.14,143.13c-.3.77-.61.48-.61-.57-.1-1.04.2-1.62.51-1.24.3.29.4,1.15.1,1.81ZM436.41,108.16c-.5,4.48-1.21,8.39-1.41,8.67-.3.19-1.31.1-2.32-.19-1.52-.57-1.62-1.43-1.01-6.96.71-6.57,3.34-12.1,4.85-10.67.61.57.5,4.19-.1,9.15ZM939.4,99.58c1.82,1.81,2.12,2.67,1.21,3.53s-1.82.57-3.74-1.14c-1.41-1.24-2.53-2.77-2.53-3.53,0-2,2.53-1.43,5.05,1.14ZM516.94,73.47c2.53,3.91,3.03,5.53,2.53,8.1-.3,1.81-1.01,3.24-1.52,3.24-1.62,0-5.96-9.43-5.96-12.87,0-1.81.4-3.33.91-3.33.41,0,2.22,2.19,4.04,4.86ZM851.39,74.42c2.32,2.86,2.32,3.15.7,6.2-2.32,4.57-4.24,4.19-5.05-1.15-1.21-8.95.1-10.48,4.35-5.05ZM831.08,68.42c.2.67-.5,1.14-1.71,1.14-1.42,0-1.92-.47-1.42-1.43.61-1.62,2.53-1.43,3.13.29ZM662.95,44.21c2.42,4.29,1.62,8.2-1.72,8.2-1.62,0-3.34-1.34-5.56-4.29-1.82-2.38-3.23-4.67-3.23-5.05s1.01-2.19,2.12-4l2.12-3.24,2.22,2.47c1.11,1.43,2.93,4.1,4.04,5.91ZM645.16,35.44c-.2.58-1.01,1.34-1.62,1.53-.71.19-1.01-.19-.61-1.14.71-1.72,2.83-2.1,2.22-.39"/>
      <g class="cls-2">
        <path class="cls-3" d="M3349.88,2336.88c-1.34,1.59-2.68,3.17-4.03,4.75-7.86-24.39-13.74-49.37-18.15-75.4-.71-4.18-1.39-8.35-2.04-12.53,5.43-29.22,12.95-57.86,23.06-87.71-10.58,14.34-20.26,28.6-29.22,43.03-4.28-34.93-7.6-69.65-12.03-103.83-7.73,53.36-18.32,107.18-24.13,162.55-.38,3.54-.72,7.07-1.03,10.6-11.47,25.07-20.79,50.59-28.88,77.58.17-1.43.27-2.89.28-4.36-5.64-37.01-6.33-70.87-.69-105.52,5.98-36.74,16.5-71.29,31.68-107.52-26.95,30.33-48.58,60.79-66.62,94.9-19.12,36.16-30.84,74.03-38.34,117.32-.22,21.2,16.18,38.59,36.6,38.81,14.63.16,27.38-8.54,33.51-21.3-2.12,7.5-4.15,15.11-6.11,22.86-1.43,14.8,5.45,28.49,16.7,36.07-8.59,7.48-17.38,14.88-26.37,22.18-15.01,14.36-15.97,38.68-2.13,54.27,13.83,15.59,37.25,16.58,52.26,2.22,11.35-12.75,22.28-25.59,32.8-38.56,11.82,4.53,25.58,2.68,36.09-6.13,10.23-10.52,20.31-21.26,30.24-32.19,2.62.23,5.31.18,8.03-.2,20.24-2.78,34.5-22.09,31.82-43.11-.16-.68-.33-1.36-.49-2.04,11-13.24,21.82-26.74,32.45-40.49-.6,4.92-1.2,9.85-1.78,14.79-1.94,5.55-2.64,11.5-2.03,17.38-.98,8.6-1.95,17.23-2.91,25.89-.06,21.2,16.46,38.46,36.87,38.53,5.43.02,10.59-1.18,15.24-3.35,4.21,7.21,10.72,13.04,18.93,16.15,3.81,1.45,7.71,2.2,11.56,2.32,1.29,8.61,5.4,16.81,12.22,22.98,15.38,13.93,38.76,12.28,52.18-3.7,13.69-22.1,27.32-43.25,41.79-64.81,34.25-51.06,68.77-99.57,102.13-151.29-46.32,39.6-92.87,75.77-139.87,114.47-8.3,6.84-16.45,13.65-24.52,20.51,5.06-23.75,9.84-47.39,14.55-71.04,15.75-15.71,31.4-31.56,46.96-48.17,17.63-18.8,34.39-37.65,51.12-58.59-21.62,14.85-42.7,27.71-64.58,40.27-7.63,4.38-15.25,8.65-22.85,12.84,4.11-20.63,8.29-41.3,12.68-62.07,6.73-31.84,13.73-62.96,21.85-94.66-15.12,28.97-29.02,57.65-42.82,87.09-15.36,32.79-30.04,65.43-44.82,98.04-10.92,5.75-21.88,11.5-32.91,17.36-1.29-15.73-2.43-31.45-3.38-47.18,24.63-35.64,47.89-71.78,69.98-108.13-23.17,25.03-47.05,49.77-71.74,74.04-.52-12.26-.9-24.55-1.13-36.89-.86-46.07.23-91.4,4.47-137.91-14.15,44.93-24.91,89.42-33.94,135.1-5.42,27.43-10.04,54.8-14.12,82.25-5.02,4.62-10.07,9.21-15.15,13.79-11.56,10.39-23.21,20.56-34.97,30.5,2.61-5.12,5.17-10.28,7.68-15.47,34.3-71.11,57.82-146.83,69.57-231.1-22.07,73.07-52.45,137.64-91.3,196.57-2.43-15.62-4.57-31.29-6.43-47.08-6.58-55.7-9.98-110.69-10.53-168.04-12.04,56.73-20.73,111.83-26.46,168.37-3.85,38.01-6.05,75.7-6.8,113.98ZM1956.13,1925.4c-22.63,25.62-43.63,53.7-61.77,83.52-24.94-26.5-50.21-52.76-77.03-77.98,22.73,33.09,43.43,66.96,63.81,100.96-2.63,4.86-5.19,9.77-7.66,14.71-10.19,20.36-18.7,41.27-25.36,62.56,0-2.57.06-5.19.19-7.9.44-9.64,1.1-17.72,3.02-27.51-7.68,6.77-13.23,12.98-19.6,20.62-5.9,7.07-10.67,13.84-15.41,21.01l3.06-53.06-23.89,28.73c-10.52-15.72-21.06-29.23-30.9-45.9.02,16.54,1.61,31.4,2.74,47.16-2.6-2.18-5.1-4.55-7.5-7.21-13.48-14.84-23.94-31.19-33.95-47.35,1.72,16.24,3.76,32.73,7.63,49.32-5.62-5.33-10.72-10.93-15.36-17.3-9.94-13.63-17.45-27.69-23.49-45.67-.55,5.79-.83,11.32-.86,16.69-15.41,17.78-30.43,35.02-45.51,52.87-.04-7.71-.2-15.46-.51-23.33-.88-22.54-2.56-43.98-5.53-66.39-3.74,17.75-8.06,34.61-13.09,51.7l-20.29-96-7.5,90.91c.22-8.24.54-16.56.91-25.35-9.86,16.73-18.42,31.59-27.18,48.48-6.03,11.64-10.8,22.55-15.94,34.93-1.9,12.64,6.44,24.5,18.61,26.47,8.99,1.45,17.57-2.89,22.21-10.35,1.02,1.58,2.22,3.03,3.57,4.3-.92,5.79.32,11.48,3.15,16.13-1.29,1.68-2.58,3.37-3.87,5.07-6.01,11.16-2.16,25.3,8.6,31.54,10.75,6.24,24.36,2.25,30.37-8.92,6.52-18.42,13.16-35.99,20.47-54.06,10.32-25.5,20.79-49.89,31.54-75.07.13,12.34,1.58,23.88,4.06,35.73,3.95,18.86,11.31,35.36,21.06,54.07,8.06,9.68,22.17,10.74,31.49,2.37.94-.84,1.79-1.75,2.56-2.71,1.62,2.41,3.32,4.81,5.08,7.19,6.27,5.31,14.5,6.5,21.62,3.87.98.49,2.01.91,3.06,1.25,1.1.7,2.27,1.31,3.51,1.82,7.34,3.02,15.31,1.71,21.28-2.75,2.52,6.64,7.94,11.98,15.08,13.94,4.7,1.29,9.44.92,13.66-.76-4.28,24.43-6.09,49.18-5.22,74.03,2.52,21.04,21.01,35.99,41.27,33.38,20.26-2.62,34.66-21.82,32.14-42.85-9.6-46.6-6.44-94.92,5.57-142.15l.76,1.26c-2.72,11.53-4.86,22.72-6.45,34.74-1.85,13.88-1.84,26.81-1.3,41.77,2.52,9.09,9.94,15.34,18.42,16.56-3.76,20.72,9.31,40.76,29.26,44.8,15.72,3.19,31.08-4.5,38.85-18,7.21,9.64,14.62,19.18,22.27,28.65,2.84,2.82,6,5.09,9.35,6.8.43,6.32.79,12.64,1.1,18.97,2.48,21.04,20.95,36.02,41.21,33.45,11.28-1.44,20.75-8.01,26.5-17.19,16.39,6.16,35.21-.44,44.4-16.58,6.48-27.09,11.42-50.44,19.29-76.62h0c4.54,10.47,9.31,20.22,14.6,29.99-2.06,2.03-4.15,4.06-6.25,6.09-12.24,16.96-8.92,41.05,7.42,53.76,7.12,5.54,15.54,8.01,23.79,7.63,8.04,4.41,17.59,5.74,26.83,3.18.49.55.98,1.11,1.48,1.67,14.8,9.88,33.85,7.42,45.91-4.86,5.66-2.78,10.71-7.09,14.53-12.8,12.99-31.76,24.01-60.12,32.8-91.33,6.92-24.54,12.35-48.15,16.12-73.92.95,1.86,1.89,3.71,2.83,5.56-1.45,24.98-2.3,49.11-5.76,74.42-2.58,18.88-8.2,35.26-15.97,53.02-3.77,20.83,9.45,40.92,29.51,44.84,16.75,3.27,33.01-5.76,40.11-20.95,1.2-1.31,2.32-2.73,3.36-4.25,4.4-11.43,8.67-22.51,12.74-33.52,1.11,1.54,2.23,3.06,3.35,4.57,1.84,11.3,8.5,21.64,18.96,27.48,1.89,1.05,3.82,1.92,5.79,2.6,1.8,2,3.62,3.98,5.47,5.96,16.86,11.95,39.89,7.44,51.4-10.07,9.89-15.04,8.07-34.81-3.33-47.66,1.23-4.46,2.46-8.91,3.67-13.35,8.47,13.89,17.1,27.77,26.47,41.53,11.98,17.6,24.82,32.93,39.31,48.65,16.74,12.14,39.82,7.89,51.51-9.49,1-1.49,1.88-3.02,2.65-4.59,3.29,4.82,6.58,9.65,9.9,14.52,15.19,14.16,38.6,12.85,52.23-2.93,5.68-6.57,8.77-14.61,9.36-22.79,9.64-.09,19.18-4.08,26.25-11.68-.07,2.69.13,5.44.63,8.19,3.78,20.83,23.14,34.55,43.2,30.63,29.63-8.38,57.41-18.39,83.62-30.06,1.87,3.15,4.2,6.07,7,8.64,15.29,14.05,38.68,12.57,52.22-3.29l.45-.68c2.61-1.18,5.07-2.66,7.34-4.41,6.32,1.84,13.18,1.96,19.95-.01,15.24-6.89,29.98-14.47,44.31-22.82.65,2.7,1.59,5.38,2.84,7.97,9.13,18.96,31.36,26.65,49.62,17.16,3.54-2.84,7.08-5.68,10.6-8.52.55,5.39,2.21,10.73,5.08,15.68,8.21,14.18,23.86,20.88,38.66,17.94-5.3,10.09-10.93,20.45-16.92,31.12-8.56,19.24-.46,42.08,18.07,50.97,18.52,8.88,40.5.49,49.07-18.73,14.13,2.45,28.97-3.8,37.21-17.1,24.76-54.59,50.94-104.55,73.6-158.17,15.16-35.87,28.32-71.71,37.98-111.21-17.94,33.13-38.03,62.33-59.89,90.88-12.75,6.17-25.27,11.51-38.36,16.71-2.06.82-4.11,1.62-6.16,2.42,11.07-70.48,14.74-138.22,22.6-226.92-20.99,75.21-35.71,134.97-55.2,193.89-13.4,6.07-27.1,11.71-41.44,17.25-13.6,5.25-27.11,10.05-40.57,14.52,31.74-28.19,61-58.85,89.04-90.21-45.23,28.72-92.05,55.87-142.36,76.5-7.22,2.96-14.45,5.71-21.71,8.23,54.21-47.88,100.76-105.54,144.63-172.46-49.22,54.06-99.32,100.04-154.57,136.44,26.41-60.26,46.39-122.06,65.23-188.52-27.83,51.92-55.6,100.13-87.51,146.33-11.1,16.07-22.64,31.62-34.77,46.76-.35-4.29-.72-8.59-1.1-12.89-4.8-54.67-10.87-107.53-16.58-162.27-9.25,53.98-17.65,106.27-27.74,159.92-1.12,5.92-2.25,11.8-3.4,17.66-1.89-2.63-3.79-5.29-5.68-8-13.8-19.67-26.08-38.16-38.56-58.01,11.54-32.39,22.01-65.07,32.82-99.09-24.48,35.61-47.86,69.44-73.3,102.57-21.37-32.96-39.13-67.48-54.4-102.3,6.03,44.18,15.51,89.11,30.17,132.74-6.96,8.36-14.05,16.51-21.34,24.53-31.33-23.13-61.44-48.08-92.91-67.83,24.16,28.6,45.64,61.56,68.62,93.36-1.26,1.27-2.53,2.54-3.81,3.81-4.43-2.32-8.79-4.81-13.1-7.48-28.15-17.49-52.48-38.82-78.07-66.24,11.55,27.46,23.74,51.24,38.11,73.17-6.01-4.71-11.96-9.71-17.83-15.01-24.43-22.07-45.55-45.12-61.44-68.86,5.93,29.56,17.28,60.64,32.08,92.21,5.97,12.72,12.46,24.8,19.33,36.25-13.05-7.77-26.09-15.79-39.33-24.44-19.31-12.62-36.79-24.77-54.39-38.86,10.18,20.99,21.08,40.14,33.47,60.57,1.65,2.74,3.31,5.45,4.98,8.15-5.27-2.97-10.48-6.11-15.7-9.51-18.32-11.94-35.5-24.61-52.71-37.21,1.97-7.45,3.93-14.97,5.87-22.61,6.06-23.76,11.44-45.96,16.56-70.08-14.24,19.54-27.95,37.24-42.89,56.06-3.73,4.71-7.45,9.35-11.15,13.94-7.96-5.52-16.07-10.92-24.43-16.15,5.94,8.39,11.56,16.84,17.01,25.33-8.7,10.7-17.36,21.21-26.13,31.82-3.85-2.45-7.69-5.02-11.53-7.72.66-2.37,1.31-4.75,1.94-7.15,5.78-22,10.14-42.44,12.58-65.38-11.82,18.65-24.22,34.28-38.51,50.59-.72.81-1.43,1.62-2.14,2.42-15.31-11.98-29.99-24.32-44.65-36.68-3.3-7.63-6.59-15.36-9.82-23.29-.38,4.78-.7,9.5-.99,14.19l-2.76-2.32c.77-5.5,1.47-11.11,2.08-16.85-15.8,28.55-32.22,52.02-51.29,75.79-9.67,12.05-19.58,23.22-30.01,34.25,1.16-3.15,2.3-6.32,3.43-9.53,14.58-41.48,26.24-81.99,38.02-123.96-24.85,34.47-49.07,67.67-76.33,100.69l-.64.77c-5.33-25.56-8.57-50.64-12.27-73.65-8.58,28.57-19.14,59.76-26.06,93.08-6.35-4.54-12.62-9.35-19.06-14.64,3.49-10.56,7.26-20.79,12.01-31.81-9.64,6.4-18.1,12.7-26.46,19.39-1.38-1.23-2.78-2.5-4.19-3.79.65,1.89,1.3,3.75,1.96,5.58-4.42,3.58-8.84,7.29-13.41,11.18-1.82,1.55-3.61,3.1-5.38,4.64,5.19-13.29,10.89-26.32,17.22-39.27,17.35-35.46,37.04-68.06,60.83-101.37-30.38,22.27-57.23,45.14-82.77,70.68.6-7.82,1.26-15.67,1.99-23.56,3.87-42.26,8.96-83.04,16.49-126.73-18.92,38.05-34.92,74.23-50.15,111.89,3.37-31.16,10.31-61.55,22.39-91.38-27.07,34.82-45.17,73.45-58.52,115.02-9.37-26.78-19.66-53.22-30.77-79.36,5.37-20.45,11.66-41,19.13-62.24-10.1,13.91-19.43,27.64-28.18,41.41-9.04-20.39-18.5-40.54-28.34-60.49,18.54-27.99,38.88-53.67,59.85-76.15-23.07,17.36-46.01,37.61-67.83,60.16-26.46-52.38-55.37-103.4-85.7-153.69,24.36,57.31,47.06,115.2,66.72,174.22ZM3167.23,2191.58c-4.54,4.27-9.08,8.46-13.63,12.6-.31,1.55-.63,3.09-.95,4.64,4.89-5.74,9.75-11.48,14.58-17.25ZM3118.85,2157.61c-5.38,5.39-10.9,10.77-16.57,16.18-5.83,5.57-11.69,11.01-17.56,16.34,8.42-2.86,16.78-5.66,25.12-8.48,1.95-4.96,3.83-9.91,5.66-14.86,1.14-3.06,2.25-6.12,3.35-9.18ZM1009.13,1878.89c2.79,4.46,6.59,8.21,11.12,10.87,1.6,9.84,7.43,18.83,16.57,23.86,8.7,4.78,18.57,4.97,27.03,1.4-.94,4.74-1.82,9.62-2.69,14.67,1.59,18.25,17.15,31.73,34.73,30.07,6.09-.57,11.62-2.88,16.19-6.42,6.29,9.6,17.04,15.11,28.18,14.48,6.22,11.94,18.65,18.46,31.12,17.25,1.75,1.54,3.67,2.89,5.72,4.02-3.86,21.14-5.81,43.1-5.75,65.58,1.44,18.27,16.9,31.88,34.49,30.38,14.57-1.24,26.07-12.47,28.76-26.68.84,11.53,9.88,20.86,21.27,21.38.35.02.7.02,1.04.02-5.42,21.68-9.26,43.8-11.51,65.97-.62,12.78,8.86,23.68,21.16,24.33,12.31.65,22.8-9.19,23.43-21.96-.07-25.75,2.22-51.67,6.89-77.05,4.05,6.44,11.1,10.65,19.05,10.53,2.54-.04,4.97-.52,7.23-1.37-.16,9.42,5.28,18.39,14.22,22,11.48,4.64,24.43-1.27,28.91-13.19.62-2.23,1.24-4.46,1.86-6.66,1.06.68,2.18,1.27,3.36,1.76-1.86,9.03,1.61,18.73,9.45,24.15,9.75,6.75,22.77,4.47,29.9-4.92,1.83,4.16,4.86,7.8,8.93,10.3,10.61,6.51,24.31,2.86,30.58-8.15,2.4-5.67,4.94-11.22,7.61-16.66.34,7.75,4.41,15.15,11.41,19.21,8.23,4.77,18.12,3.55,25-2.28l-.26.31c-5.89,11.24-1.88,25.32,8.95,31.43,10.82,6.11,24.39,1.95,30.27-9.29,4.17-16,8.48-30.2,14.56-45.12,6.3-15.46,12.8-29.36,20.7-44.42-13.92,9.98-26.03,19.57-38.68,30.68-11.32,9.95-21.09,20.04-31.11,31.36.33-.52.65-1.05.95-1.6,3.78-12.58,8.84-24.34,16.3-35.86,12.39-19.11,26.7-35.81,40.33-51.7-19.32,9.21-39.58,18.96-59.01,31.77-10.16,6.69-18.95,14.18-26.97,22.46,4.72-8.02,9.74-15.86,15.05-23.61,21.52-31.44,45.56-60.21,67.89-90.83-29.02,24.44-59.28,46.65-87.71,72.11-9.03,8.09-17.67,16.45-25.91,25.21,7.3-12.07,15.28-23.65,24.29-34.42,14.76-17.63,31.34-32.62,51.74-43.82-23.52,5.61-44.09,16.26-63.58,29.95-17.45,12.25-33.18,26.8-47.95,42.4.23-2.48.46-4.95.69-7.43,6.63-11.95,14.32-22.94,23.02-33.24,25.51-30.2,56.74-54.24,88.7-78.39-37.58,16.63-74.28,33.54-106.72,57.81-.36.27-.72.54-1.08.82.24-4.21.46-8.43.67-12.65,3.57-6.6,7.4-13.03,11.53-19.29,17.43-26.4,39.59-49.33,70.44-69.03-33.26,13.46-58.9,31.61-80.69,53.6.13-5.12.24-10.25.32-15.38.25-16.51.25-32.98,0-49.49,25.36-19.47,54.6-34.22,87.71-42.77-32.22,4.58-61.55,15.09-87.94,30.2-.64-27.8-1.97-55.82-3.98-84.52-2.65,31.85-5.99,62.72-10.17,93.25-11.21,7.42-21.85,15.7-31.89,24.71-1.67-14.5-3.56-28.95-5.54-43.32,4.56-4.7,9.3-9.27,14.22-13.7-5.04,3.13-9.97,6.39-14.76,9.79-2.49-17.95-5.1-35.79-7.54-53.45,23.67-13,50.38-22.08,79.82-26.4-47.25-.89-89.55,11.06-125.74,32.26-6.41-38.37-13.36-76.39-20.67-113.86,3,40.28,5.54,81.11,7.41,122.22-7.44,5.04-14.59,10.48-21.44,16.29-3.86-27.01-8.77-53.82-14.68-81.02-1.29,35.07-3.95,69.09-8.43,103.23-.85.92-1.7,1.85-2.54,2.78-.62.7-1.24,1.4-1.86,2.1-3.87-20.39-8.7-40.63-14.84-60.36-12.71-40.86-30.15-78.59-56.48-110.38,18.45,35.52,27.58,74.65,31.43,115.78,2.83,30.23,2.5,60.93.51,91.2-1.31-4.21-2.72-8.42-4.42-13-3.29,9.45-6.49,16.83-10.54,25.88-2.86,6.38-5.67,12.34-8.47,18.13-3.77-6.12-6.94-12.54-9.43-19.75-6.36-18.5-9.86-35.78-11.25-56.21-7.42,14.43-12.74,28.01-16.79,42.47-4.54-12.16-7.6-23.65-9.74-39.03-9.38,16.29-14.45,29.32-18.98,44.98-1.1-5.71-1.84-11.51-2.11-17.57-.91-20.28.64-38.56,6.33-59.54-10.29,10.19-18.45,20.39-25.55,31.34.72-5.5,1.3-11.06,1.73-16.7,2.74-36.43,1.16-71.37-3.21-107.78-7.15,28.5-15.51,55.15-26.84,82.04-1.32,3.14-2.69,6.23-4.09,9.28-1.32-7.49-2.8-15.01-4.47-22.66-5.63-25.71-11.94-49.35-19.81-74.67-3.11,25.88-6.91,49.6-12.17,74.85-.35,1.7-.71,3.38-1.08,5.06-2.82-12.52-5-25.21-6.38-38.25-3.31-31.43-3.02-61.79,2.49-93.12-16.23,28.84-26.82,58.74-34.4,90.95-7.82,33.26-10.35,66.23-10.61,100.57,2.83,17.52,18.42,29.52,35.23,27.49ZM1932.08,2116.28c1.71,4.4,3.59,8.69,5.64,13l.96-2.48c-2.21-3.5-4.41-7.01-6.6-10.52ZM2807.91,2070.62c-3.7,10.18-7.52,20.35-11.51,30.53,5.58,7.01,11.35,13.77,17.33,20.28-2.28-17.2-4.18-33.74-5.82-50.81ZM2002,2094.8c-.15,1.06-.29,2.12-.43,3.18.5.71.99,1.43,1.48,2.14-.34-1.77-.69-3.55-1.05-5.32ZM1964.41,1950.92c-13.61,23.41-25.84,48.11-36.09,73.63-1.95,4.86-3.82,9.74-5.61,14.65,12.08,12.91,24.19,25.8,36.47,38.59,4.09-8.96,8.34-17.84,12.8-26.7,4.48-8.89,9.07-17.64,13.82-26.29-2.17-8.3-4.42-16.6-6.75-24.88-4.62-16.43-9.5-32.75-14.64-49ZM1232.08,2022.09c.58,8.98,1.59,18.04,3.01,27.14.05.57.08,1.14.1,1.71,1.24-8.78,2.8-17.43,4.67-25.93-2.76-.63-5.37-1.62-7.78-2.92ZM1295.56,1948.65c-7.11,19.43-11.97,39.69-14.53,60.6,4.41-9.96,9.2-19.69,14.37-29.16.12-10.45.17-20.93.16-31.43ZM1342.58,1947.87c-.69,1.14-1.38,2.29-2.06,3.44-3.77,6.41-7.34,12.97-10.68,19.66,1.29,11.71,2.5,23.39,3.62,35.06,4.09-19.05,7.03-38.45,9.12-58.16ZM1394.15,1884.36c-9.65,8.83-18.64,18.4-26.98,28.6,1.03,10.62,1.9,21.27,2.55,31.93.84,13.61,1.28,27.16,1.25,40.63,2.27-3.54,4.58-7.02,6.94-10.44,4.05-19.18,7.7-38.36,10.98-57.68,1.87-11.01,3.62-22.01,5.26-33.04ZM1347.91,1860.08c-10.09,11.65-19.17,24.02-27.21,37.03,1.67,12.22,3.26,24.43,4.77,36.62,6.41-8.35,13.16-16.36,20.26-23.97,1.03-16.57,1.69-33.16,2.18-49.68ZM1293.35,1836.03c-6.47,7.12-12.49,14.66-18.06,22.58.3,2.81.58,5.64.85,8.46,1.95,20.14,3.12,40.11,3.55,60.13.3-.48.61-.96.92-1.45,4.59-7.13,9.45-14.05,14.59-20.75-.18-11.34-.43-22.71-.74-34.09-.31-11.64-.69-23.28-1.11-34.89ZM120.53,1801.82c-.44,2.78-.87,5.58-1.28,8.39-.25,6.52,1.33,12.68,4.27,17.95,2.46,18.87,5.61,37.58,9.43,56.11,4.71,17.66,22.35,28.03,39.36,23.13,17.01-4.89,26.99-23.2,22.28-40.86-4.82-14.66-9.16-29.52-13.02-44.53.92-2.88,1.47-5.94,1.6-9.12-.3-4.37-.57-8.71-.8-13.03,5.93,12.1,18.71,19.66,32.44,17.9,17.52-2.25,29.98-18.84,27.81-37.03-.14-.7-.29-1.41-.44-2.12,3.2,1.03,6.62,1.55,10.15,1.47,17.64-.41,31.65-15.61,31.26-33.93-1.98-17.49-2.91-35.15-2.8-52.89,5.6,6.12,11.43,12.16,17.5,18.14,14.25,10.82,34.27,7.59,44.69-7.21,10.42-14.79,7.31-35.59-6.94-46.4-18.06-10.32-34.63-21.45-49.76-33.8,2.13-14.08,4.87-28.12,8.2-42.06,2.95-12.36,6.29-24.59,10.02-36.64,12.93,28.57,29.5,56.4,48.8,82.2,3.35,4.47,6.77,8.86,10.29,13.16-5.04,28.23-6.87,56.82-5.69,85.57,3.11,18.04,19.74,30.06,37.11,26.84,17.38-3.23,28.96-20.5,25.85-38.54-2.04-6.56-3.87-13.16-5.49-19.81,1.05.42,2.13.79,3.22,1.09,8.93,7.26,18.11,14.01,27.51,20.22-.97,6.77-1.84,13.59-2.61,20.48,1.14,18.29,16.36,32.18,33.97,31,13.59-.91,24.67-10.53,28.49-23.29,11.66-.3,22.47-7.27,27.8-18.3,2.47,1.93,5.01,3.84,7.62,5.73,10.16,5.01,21.61,3.95,30.53-1.76,10.05,2.98,21.31.81,29.79-6.82,13.33-12.01,14.77-33,3.21-46.84-24.5-21.01-45.4-42.12-62.82-67.55-18.09-26.41-32.05-54.23-42.33-87.11-.63,36.34,4.3,68.93,13.56,101.61,2.55,9.01,5.47,17.79,8.74,26.43-4.11-2.88-8.1-5.96-11.99-9.27-5.94-5.05-11.64-10.31-17.2-15.71-.84-23.82-.48-47.16.89-71.13-7.36,17.17-14.02,34.21-20.08,51.63-14.77-15.45-29.46-31.38-46.34-46.41,14.29,25.42,24.91,51,36.83,75.7-.7,2.3-1.38,4.61-2.06,6.94-1.45,4.97-2.81,9.93-4.09,14.88-.59-2.61-1.48-5.19-2.72-7.68-17.23-23.03-32.68-45.6-45.56-71.24-.59-1.18-1.18-2.36-1.76-3.54,3.2-31.5,9.76-62.14,19.36-91.56-12.51,19.16-23.56,39.43-33.06,60.67-5.96-15.23-10.87-30.88-14.61-47.54-4.09,29.71-3.84,57.96-.97,87.27-1.44,4.23-2.82,8.5-4.14,12.79-.6,1.94-1.18,3.88-1.74,5.82-23.89-22.39-45.07-47.56-62.37-74.12,12.62-36.59,28.73-71.36,47.73-103.28-22.18,25.01-42.42,52.75-60.29,82.53-7.34-13.1-13.7-26.44-18.96-39.87,3.15,16.29,7.72,32.73,13.55,49.07-10.26,17.82-19.67,36.31-28.16,55.35-3.4,7.64-6.62,15.34-9.67,23.11-3.16-3.48-6.23-7.06-9.23-10.73-7.02-8.59-13.57-17.49-19.7-26.74,2.46-47.3,8.58-93.99,18.58-139.4-14.48,35.28-26.52,71.89-36.23,109.43-8.57-16.43-16.01-33.93-22.4-52.68,2.32,28.99,7.49,56.02,15.39,81.72-.3,1.37-.61,2.73-.91,4.11-15.91,31.83-29.73,63.1-41.71,95.41-.53-18.91-.37-37.89.46-56.86,4.12-93.84,24.07-186.43,59.07-270.49-45.22,80.88-75.85,172.39-90.87,267.03-10.91,68.71-13.15,138.59-6.55,207.02ZM1349.46,1791.28c-14.61,8.2-28.05,17.89-40.23,28.89,2.6,16.17,5.09,32.4,7.47,48.68.47,3.22.93,6.44,1.4,9.66,9.35-9.61,19.37-18.59,30.04-26.88.53-20.27.84-40.44,1.32-60.35ZM760.42,1578.76c-.93-53.57-6.83-106.21-14.63-163.99-3.95,54.12-8.52,103.3-17.39,152.47-8.6,47.62-21.59,93.38-42.05,142.24-5.26,17.49,4.15,36.13,21,41.59,2.7.88,5.42,1.36,8.12,1.48-.33,4.22-.61,8.48-.84,12.75.25,18.32,14.79,32.99,32.44,32.72,10.45-.16,19.66-5.51,25.39-13.66,2.78-.04,5.5-.45,8.11-1.21,4.32,11.3,14.47,19.72,26.91,20.87,17.58,1.62,33.12-11.88,34.69-30.13-.11-2.73-.18-5.48-.21-8.24,1.19.59,2.43,1.11,3.71,1.55,16.75,5.79,34.87-3.64,40.44-21.03,3.98-29.48,11.08-55.08,22.74-80.26,12.55-27.09,27.42-51.48,44.73-77.14-31.27,22.01-58.62,43.99-83.6,71.33-6.79,7.43-13.03,15.14-18.88,23.23,2.33-9.35,5.15-18.62,8.48-27.73,14.74-40.28,37.23-76.02,69.61-101.25-40.01,17-72.12,48.12-97.82,85.6-1.98,2.89-3.91,5.82-5.8,8.79,9.29-32,21.28-63.21,36.78-92.3,22.6-42.41,51.7-79.71,90.05-108.34-55.47,27.29-98.45,71.69-133.11,123.87-11.52,17.34-21.93,35.48-31.38,54.11,6.07-26.77,14.62-52.72,25.53-77.71,29.96-68.62,76.1-129.33,135.57-179.42-67.97,42.26-123.34,97.89-163.69,163.6-9.16,14.91-17.46,30.32-24.91,46.19ZM984.5,1610.9c-20.62,15.61-36.94,31.51-52.02,50.82-16.38,20.99-26.41,43.8-35.21,71.67-1.48,18.26,11.59,34.34,29.18,35.88,17.59,1.54,33.07-12.03,34.56-30.29-3.26-22.66-4.07-42.24.29-62.85,4.82-22.76,12.24-43.14,23.2-65.22ZM239.18,1639.25c-5.27-8.34-10.16-16.89-14.67-25.68.26,23.7,1.49,47.27,3.66,70.63,3-15.09,6.68-30.09,11.02-44.95"/>
      </g>
    </g>
  </g>
</svg>